<?xml version="1.0" encoding="UTF-8" standalone="no"?>
<svg
   width="456.49457"
   height="97.236656"
   version="1.1"
   viewBox="0 0 120.78085 25.728819"
   id="svg19"
   xmlns="http://www.w3.org/2000/svg"
   xmlns:svg="http://www.w3.org/2000/svg">
  <defs
     id="defs7">
    <rect
       x="10.568122"
       y="105.76294"
       width="117.73258"
       height="37.355354"
       id="rect8308" />
    <radialGradient
       id="radialGradient2226"
       cx="0"
       cy="0"
       r="1"
       gradientTransform="matrix(1.543,0,0,1.543,-48.9,99.55)"
       gradientUnits="userSpaceOnUse">
      <stop
         stop-color="#0014A5"
         offset=".02"
         id="stop2" />
      <stop
         stop-color="#2859E9"
         offset="1"
         id="stop4" />
    </radialGradient>
    <radialGradient
       id="paint0_radial_2_891"
       cx="0"
       cy="0"
       r="1"
       gradientUnits="userSpaceOnUse"
       gradientTransform="matrix(6.8535359,0,0,6.8535359,16.118815,-18.480722)">
      <stop
         offset="0.02"
         stop-color="#0014A5"
         id="stop853" />
      <stop
         offset="1"
         stop-color="#2859E9"
         id="stop855" />
    </radialGradient>
  </defs>
  <g
     transform="matrix(4.42,0,0,4.42,230.73768,-427.14438)"
     style="stroke-width:0.2263"
     id="g17">
    <path
       d="m -49.28,96.98 c -0.2381,0.2857 -0.4101,0.6244 -0.5212,0.9895 -0.06349,-0.06614 -0.1376,-0.1247 -0.2249,-0.1693 -0.0026,0 -0.0053,-0.0026 -0.0076,-0.0026 -0.0291,-0.01588 -0.05854,-0.0291 -0.09028,-0.03969 -0.02646,-0.01058 -0.05556,-0.02117 -0.08731,-0.0291 -0.04498,-0.01058 -0.08995,-0.01852 -0.1399,-0.02381 -0.04233,-0.0053 -0.08466,-0.0079 -0.1296,-0.0079 h -1.191 v -1.058 h 1.191 c 0.05556,0 0.1085,0.0026 0.1614,0.0053 0.05258,0.003 0.1058,0.0079 0.1561,0.01356 0.04762,0.0053 0.09491,0.01323 0.1402,0.02116 0.1905,0.03439 0.3572,0.08731 0.508,0.1611 0.08435,0.03968 0.1611,0.08731 0.2355,0.1402 z"
       fill="#2859e9"
       style="stroke-width:0.05987"
       id="path9" />
    <path
       d="m -48.51,102.1 c 0.2381,-0.2857 0.4101,-0.6244 0.5212,-0.9895 0.0635,0.0661 0.1376,0.1247 0.2249,0.1696 0.0026,0 0.0053,0.003 0.0076,0.003 0.0291,0.0159 0.05853,0.0291 0.09028,0.0397 0.02646,0.0106 0.05556,0.0212 0.08731,0.0291 0.04498,0.0106 0.08996,0.0185 0.1399,0.0238 0.04233,0.005 0.08467,0.008 0.1296,0.008 h 1.191 v 1.058 h -1.191 c -0.05556,0 -0.1085,-0.003 -0.1614,-0.005 -0.05257,-0.003 -0.1058,-0.008 -0.1561,-0.0136 -0.04763,-0.005 -0.09493,-0.0132 -0.1402,-0.0211 -0.1905,-0.0344 -0.3572,-0.0873 -0.508,-0.1614 -0.08432,-0.0397 -0.1611,-0.0873 -0.2355,-0.1402 z"
       fill="#2859e9"
       style="stroke-width:0.05987"
       id="path11" />
    <path
       d="m -47.31,96.64 c -1.778,0 -2.116,1.588 -2.116,2.381 h -1.058 c -1.058,0 -1.72,0.9261 -1.72,1.72 0,0.7937 0.6615,1.719 1.72,1.719 1.778,0 2.117,-1.587 2.117,-2.381 h 1.058 c 1.058,0 1.72,-0.9261 1.72,-1.72 0,-0.7937 -0.6615,-1.72 -1.72,-1.72 z m 0,1.058 c 0.5291,0 0.6615,0.3969 0.6615,0.6614 0,0.2646 -0.132,0.6615 -0.6744,0.6615 h -1.045 c 0,0 -4.37e-4,-1.323 1.058,-1.323 z m -3.162,2.381 h 1.045 c 0,0 -6.1e-5,1.322 -1.058,1.322 -0.5291,0 -0.6615,-0.3964 -0.6615,-0.661 0,-0.2646 0.132,-0.6614 0.6744,-0.6614 z"
       style="fill:url(#radialGradient2226);stroke-width:0.05987"
       id="path13" />
    <path
       d="m -50.48,99.02 c -0.7682,0 -1.327,0.4877 -1.576,1.059 h 1.564 c 0.0083,-2e-4 0.01633,-5.2e-4 0.02481,-5.2e-4 h 3.162 c 0.7678,0 1.327,-0.4876 1.576,-1.058 h -1.589 z"
       style="fill:#2859e9;stroke-width:0.05987"
       id="path15" />
  </g>
  <path
     id="path833"
     style="fill:#222222;stroke-width:0.2646;fill-opacity:1"
     d="M 43.411702,2.649636 V 6.86825 h -2.59897 v 3.076491 h 2.59897 v 7.644977 c 0,1.014766 0.21372,1.913953 0.641345,2.696646 0.427615,0.782744 1.042453,1.384793 1.84445,1.807755 0.801987,0.422905 1.737779,0.63411 2.807239,0.63411 h 2.085276 v -3.10905 h -1.410855 c -0.791811,0 -1.416978,-0.227347 -1.877523,-0.681138 C 47.04113,18.484302 46.812227,17.86445 46.812227,17.081707 V 9.944741 h 3.978819 V 6.86825 H 46.812227 V 2.649636 Z m 69.994968,0 V 6.86825 h -2.59897 v 3.076491 h 2.59897 v 7.644977 c 0,1.014766 0.21338,1.913953 0.64135,2.696646 0.42732,0.782744 1.04246,1.384793 1.84444,1.807755 0.80205,0.422905 1.73799,0.63411 2.80724,0.63411 h 2.08476 v -3.10905 h -1.41085 c -0.79159,0 -1.41649,-0.227347 -1.87701,-0.681138 -0.46012,-0.453739 -0.68889,-1.073591 -0.68889,-1.856334 V 9.944741 h 3.97675 V 6.86825 h -3.97675 V 2.649636 Z M 69.105809,6.518895 c -1.860884,0 -3.410961,0.433389 -4.651171,1.301295 -1.239812,0.867878 -1.988593,2.051089 -2.245482,3.551945 h 3.432047 c 0.21381,-0.549258 0.604156,-1.014462 1.170029,-1.394835 0.565861,-0.380323 1.320614,-0.571061 2.262021,-0.571061 0.726406,0 1.368212,0.132059 1.925068,0.396383 0.555681,0.264326 0.983232,0.62377 1.283207,1.077522 0.2984,0.455211 0.44806,0.978209 0.44806,1.570029 v 0.508011 h -5.132825 c -1.175975,0 -2.212786,0.217472 -3.111116,0.650647 -0.898336,0.433239 -1.587452,1.036756 -2.068738,1.807756 -0.481265,0.772434 -0.721966,1.632898 -0.721966,2.584501 0,0.95158 0.261191,1.876671 0.785531,2.649101 0.524358,0.772445 1.250693,1.370267 2.181915,1.791734 0.931228,0.421427 1.972437,0.634627 3.127657,0.634627 1.155611,0 2.249992,-0.26461 3.224294,-0.793283 0.727592,-0.395026 1.321925,-0.862086 1.780882,-1.401036 v 1.844448 h 3.335407 V 12.514772 c 0,-1.183622 -0.288014,-2.230503 -0.865633,-3.139541 C 74.68739,8.466237 73.869085,7.762545 72.81176,7.266183 v -10e-4 C 71.752883,6.768831 70.518326,6.518928 69.105809,6.518928 Z m 34.485341,0 c -0.72785,0 -1.42269,0.105848 -2.08476,0.317313 -0.663,0.211471 -1.27895,0.534273 -1.84496,0.967444 -0.33722,0.257032 -0.65205,0.555111 -0.94574,0.889924 V 6.86825 H 95.379763 V 22.728229 H 98.7808 v -8.913713 c 0,-0.80322 0.18105,-1.522696 0.54471,-2.15711 0.36407,-0.634369 0.85576,-1.131171 1.47649,-1.490959 0.61906,-0.359777 1.31552,-0.538502 2.08527,-0.538502 0.76888,0 1.48106,0.174471 2.06926,0.522482 0.5877,0.349532 1.03134,0.83999 1.33023,1.474421 0.29976,0.634393 0.44806,1.364242 0.44806,2.188118 v 8.913713 h 3.40156 v -9.325083 c 0,-1.289354 -0.27339,-2.457849 -0.81861,-3.504917 -0.54521,-1.047025 -1.3159,-1.870867 -2.30956,-2.474423 l -0.001,0.001 c -0.99485,-0.602072 -2.13275,-0.904395 -3.41603,-0.904395 z m -17.83518,0.0016 c -1.497128,0 -2.876524,0.35375 -4.137473,1.063052 -1.262129,0.709268 -2.266638,1.691909 -3.014995,2.950393 -0.748734,1.258509 -1.123,2.679694 -1.123,4.265641 0,1.586015 0.374266,3.009121 1.123,4.266159 0.748357,1.258504 1.752866,2.241125 3.014995,2.950393 1.26252,0.709312 2.640345,1.063051 4.137473,1.063051 1.86094,0 3.44827,-0.45965 4.764351,-1.380365 1.315874,-0.91932 2.293233,-2.16174 2.934374,-3.727138 h -3.495614 c -0.299705,0.486088 -0.648146,0.898933 -1.042898,1.236695 -0.396667,0.337761 -0.85552,0.591823 -1.379846,0.760724 -0.523874,0.168852 -1.105885,0.253748 -1.747292,0.253748 -1.005699,0 -1.871886,-0.221738 -2.599486,-0.666668 -0.727983,-0.443507 -1.283146,-1.077541 -1.667705,-1.902846 -0.234557,-0.502257 -0.396344,-1.052902 -0.488372,-1.649099 h 12.7747 c 0.298511,-1.754882 0.113019,-3.357266 -0.56124,-4.805177 C 92.572723,9.751083 91.563075,8.608793 90.215928,7.773211 h -0.0016 C 88.867133,6.93766 87.380584,6.520495 85.755921,6.520495 Z M 60.734217,6.677602 c -1.155209,0 -2.197987,0.243623 -3.127654,0.729717 -0.680199,0.35681 -1.29504,0.844711 -1.84445,1.461501 V 6.8683 H 52.42619 v 15.859979 h 3.401041 V 14.13188 c 0,-0.84586 0.197622,-1.602466 0.594316,-2.267705 0.395135,-0.666725 0.925404,-1.179189 1.5876,-1.539021 0.662206,-0.359729 1.389975,-0.538502 2.181399,-0.538502 h 1.828428 v -3.10905 h -0.0016 z M 85.75597,9.373731 c 0.983331,0 1.764536,0.201185 2.469774,0.602068 0.705807,0.402338 1.250801,0.95733 1.636694,1.66512 0.266159,0.490492 0.444234,1.025447 0.536437,1.602587 h -9.307512 c 0.09637,-0.474351 0.239,-0.91393 0.430491,-1.316282 0.384559,-0.813574 0.939722,-1.44333 1.667705,-1.886825 0.726031,-0.443479 1.58347,-0.666668 2.566411,-0.666668 z m -17.644993,6.280632 h 4.618611 v 0.602069 c 0,0.740139 -0.192711,1.411406 -0.577262,2.014991 h 0.0016 c -0.384956,0.602086 -0.929974,1.077902 -1.637213,1.427393 -0.70527,0.34951 -1.507349,0.522998 -2.405687,0.522998 -0.621085,0 -1.155249,-0.100077 -1.603622,-0.301293 -0.44878,-0.201183 -0.791778,-0.470131 -1.02636,-0.809303 -0.236129,-0.337763 -0.354005,-0.72966 -0.354005,-1.173129 0,-0.718093 0.261708,-1.27927 0.78605,-1.681657 0.523966,-0.400925 1.256133,-0.602069 2.197937,-0.602069 z" />
</svg>
