<svg width="164" height="122" viewBox="0 0 164 122" fill="none" xmlns="http://www.w3.org/2000/svg">
<rect x="7" y="0.5" width="150" height="33" rx="3.5" fill="#EBF2FD"/>
<rect x="40.5" y="7" width="105" height="9" fill="#C3DEFB"/>
<rect x="40.5" y="21" width="85" height="7" fill="#C3DEFB"/>
<rect x="12.5" y="6" width="22" height="22" rx="2" fill="#C3DEFB"/>
<path d="M27.6067 20.7533C27.9467 20.5133 28.1667 20.1133 28.1667 19.6667L28.1601 12.3333C28.1601 11.6 27.5667 11 26.8334 11L20.1667 11C19.4334 11 18.8401 11.6 18.8401 12.3333L18.8334 19.6667C18.8334 20.1133 19.0534 20.5133 19.3934 20.7533L23.5001 23.6667L27.6067 20.7533Z" fill="#64A5F5"/>
<rect x="7" y="0.5" width="150" height="33" rx="3.5" stroke="#C3DEFB"/>
<g opacity="0.6" filter="url(#filter0_f)">
<rect x="6.5" y="41" width="151" height="34" rx="4" fill="#EBF2FD"/>
<rect x="37.5" y="48" width="108" height="9" fill="#C3DEFB"/>
<rect x="37.5" y="62" width="87" height="7" fill="#C3DEFB"/>
<rect x="12.5" y="47" width="22" height="22" rx="2" fill="#C3DEFB"/>
<path d="M27.6067 61.7533C27.9467 61.5133 28.1667 61.1133 28.1667 60.6667L28.1601 53.3333C28.1601 52.6 27.5667 52 26.8334 52L20.1667 52C19.4334 52 18.8401 52.6 18.8401 53.3333L18.8334 60.6667C18.8334 61.1133 19.0534 61.5133 19.3934 61.7533L23.5001 64.6667L27.6067 61.7533Z" fill="#64A5F5"/>
<rect x="7" y="41.5" width="150" height="33" rx="3.5" stroke="#C3DEFB"/>
</g>
<g opacity="0.3" filter="url(#filter1_f)">
<rect x="6.5" y="82" width="151" height="34" rx="4" fill="#EBF2FD"/>
<rect x="37.5" y="89" width="108" height="9" fill="#C3DEFB"/>
<rect x="37.5" y="103" width="87" height="7" fill="#C3DEFB"/>
<rect x="12.5" y="88" width="22" height="22" rx="2" fill="#C3DEFB"/>
<path d="M27.6067 102.753C27.9467 102.513 28.1667 102.113 28.1667 101.667L28.1601 94.3333C28.1601 93.6 27.5667 93 26.8334 93L20.1667 93C19.4334 93 18.8401 93.6 18.8401 94.3333L18.8334 101.667C18.8334 102.113 19.0534 102.513 19.3934 102.753L23.5001 105.667L27.6067 102.753Z" fill="#64A5F5"/>
<rect x="7" y="82.5" width="150" height="33" rx="3.5" stroke="#C3DEFB"/>
</g>
<defs>
<filter id="filter0_f" x="3.5" y="38" width="157" height="40" filterUnits="userSpaceOnUse" color-interpolation-filters="sRGB">
<feFlood flood-opacity="0" result="BackgroundImageFix"/>
<feBlend mode="normal" in="SourceGraphic" in2="BackgroundImageFix" result="shape"/>
<feGaussianBlur stdDeviation="1.5" result="effect1_foregroundBlur"/>
</filter>
<filter id="filter1_f" x="0.5" y="76" width="163" height="46" filterUnits="userSpaceOnUse" color-interpolation-filters="sRGB">
<feFlood flood-opacity="0" result="BackgroundImageFix"/>
<feBlend mode="normal" in="SourceGraphic" in2="BackgroundImageFix" result="shape"/>
<feGaussianBlur stdDeviation="3" result="effect1_foregroundBlur"/>
</filter>
</defs>
</svg>
