<svg width="164" height="122" viewBox="0 0 164 122" fill="none" xmlns="http://www.w3.org/2000/svg">
<rect x="7" y="0.5" width="150" height="33" rx="3.5" fill="#F2F2F2"/>
<rect x="18.5" y="7" width="128" height="9" fill="#E0E0E0"/>
<rect x="18.5" y="20" width="103" height="7" fill="#E0E0E0"/>
<rect x="7" y="0.5" width="150" height="33" rx="3.5" stroke="#E0E0E0"/>
<g opacity="0.6" filter="url(#filter0_f)">
<rect x="6.5" y="41" width="151" height="34" rx="4" fill="#F2F2F2"/>
<rect x="18.5" y="48" width="128" height="9" fill="#E0E0E0"/>
<rect x="18.5" y="61" width="103" height="7" fill="#E0E0E0"/>
<rect x="7" y="41.5" width="150" height="33" rx="3.5" stroke="#E0E0E0"/>
</g>
<g opacity="0.3" filter="url(#filter1_f)">
<rect x="6.5" y="82" width="151" height="34" rx="4" fill="#F2F2F2"/>
<rect x="18.5" y="89" width="128" height="9" fill="#E0E0E0"/>
<rect x="18.5" y="102" width="103" height="7" fill="#E0E0E0"/>
<rect x="7" y="82.5" width="150" height="33" rx="3.5" stroke="#E0E0E0"/>
</g>
<defs>
<filter id="filter0_f" x="3.5" y="38" width="157" height="40" filterUnits="userSpaceOnUse" color-interpolation-filters="sRGB">
<feFlood flood-opacity="0" result="BackgroundImageFix"/>
<feBlend mode="normal" in="SourceGraphic" in2="BackgroundImageFix" result="shape"/>
<feGaussianBlur stdDeviation="1.5" result="effect1_foregroundBlur"/>
</filter>
<filter id="filter1_f" x="0.5" y="76" width="163" height="46" filterUnits="userSpaceOnUse" color-interpolation-filters="sRGB">
<feFlood flood-opacity="0" result="BackgroundImageFix"/>
<feBlend mode="normal" in="SourceGraphic" in2="BackgroundImageFix" result="shape"/>
<feGaussianBlur stdDeviation="3" result="effect1_foregroundBlur"/>
</filter>
</defs>
</svg>
