<svg width="105" height="74" viewBox="0 0 105 74" fill="none" xmlns="http://www.w3.org/2000/svg">
<path d="M31.6599 9C31.6599 4.58172 35.2416 1 39.6599 1H95.6599C100.078 1 103.66 4.58172 103.66 9V65C103.66 69.4183 100.078 73 95.6599 73H39.6599C35.2416 73 31.6599 69.4183 31.6599 65V9Z" fill="#DFF3FA"/>
<path d="M51.3168 47.196C50.6635 47.196 50.1221 46.9907 49.6928 46.58C49.2821 46.1693 49.0768 45.6747 49.0768 45.096C49.0768 44.4987 49.2821 43.9947 49.6928 43.584C50.1221 43.1733 50.6635 42.968 51.3168 42.968C51.9701 42.968 52.5021 43.1733 52.9128 43.584C53.3421 43.9947 53.5568 44.4987 53.5568 45.096C53.5568 45.6747 53.3421 46.1693 52.9128 46.58C52.5021 46.9907 51.9701 47.196 51.3168 47.196ZM58.9092 47V30.284H53.1972V27.4H68.2332V30.284H62.4932V47H58.9092ZM76.9994 47.336C75.7114 47.336 74.5447 47.112 73.4993 46.664C72.454 46.1973 71.614 45.488 70.9793 44.536C70.3447 43.584 70.0087 42.3893 69.9713 40.952H73.4993C73.518 41.904 73.826 42.7067 74.4233 43.36C75.0393 43.9947 75.898 44.312 76.9994 44.312C78.0447 44.312 78.8474 44.0227 79.4074 43.444C79.9674 42.8653 80.2474 42.1373 80.2474 41.26C80.2474 40.2333 79.874 39.4587 79.1274 38.936C78.3994 38.3947 77.4567 38.124 76.2994 38.124H74.8433V35.184H76.3273C77.2793 35.184 78.0727 34.96 78.7073 34.512C79.342 34.064 79.6594 33.4013 79.6594 32.524C79.6594 31.796 79.4167 31.2173 78.9314 30.788C78.4647 30.34 77.8114 30.116 76.9713 30.116C76.0567 30.116 75.338 30.3867 74.8153 30.928C74.3113 31.4693 74.0313 32.132 73.9753 32.916H70.4753C70.55 31.1053 71.1753 29.6773 72.3513 28.632C73.546 27.5867 75.086 27.064 76.9713 27.064C78.3154 27.064 79.4447 27.3067 80.3594 27.792C81.2927 28.2587 81.9927 28.884 82.4593 29.668C82.9447 30.452 83.1873 31.32 83.1873 32.272C83.1873 33.3733 82.8793 34.3067 82.2634 35.072C81.666 35.8187 80.9194 36.3227 80.0234 36.584C81.1247 36.808 82.0207 37.3493 82.7114 38.208C83.402 39.048 83.7474 40.112 83.7474 41.4C83.7474 42.4827 83.486 43.472 82.9634 44.368C82.4407 45.264 81.6754 45.9827 80.6674 46.524C79.678 47.0653 78.4554 47.336 76.9994 47.336Z" fill="#6ACDEC"/>
<path d="M39.6599 2H95.6599V0H39.6599V2ZM102.66 9V65H104.66V9H102.66ZM95.6599 72H39.6599V74H95.6599V72ZM32.6599 65V9H30.6599V65H32.6599ZM39.6599 72C35.7939 72 32.6599 68.866 32.6599 65H30.6599C30.6599 69.9706 34.6893 74 39.6599 74V72ZM102.66 65C102.66 68.866 99.5259 72 95.6599 72V74C100.63 74 104.66 69.9706 104.66 65H102.66ZM95.6599 2C99.5259 2 102.66 5.13401 102.66 9H104.66C104.66 4.02944 100.63 0 95.6599 0V2ZM39.6599 0C34.6893 0 30.6599 4.02944 30.6599 9H32.6599C32.6599 5.13401 35.7939 2 39.6599 2V0Z" fill="#A6E4F8"/>
<g filter="url(#filter0_d_14760_130757)">
<ellipse rx="15.3064" ry="15.2936" transform="matrix(1 7.40021e-05 -0.000774864 1 21.6603 37.2947)" fill="#039FCE"/>
<g clip-path="url(#clip0_14760_130757)">
<path fill-rule="evenodd" clip-rule="evenodd" d="M15.7522 33.8015L21.1639 28.3899C21.4959 28.0578 22.0341 28.0575 22.3659 28.3894L27.773 33.7965C28.1048 34.1283 28.1046 34.6665 27.7725 34.9985C27.4405 35.3306 26.9023 35.3309 26.5705 34.999L22.6138 31.0424L22.6078 45.4236L20.9078 45.4243L20.9138 31.0431L16.9538 35.0031C16.6217 35.3351 16.0835 35.3354 15.7517 35.0036C15.4199 34.6718 15.4201 34.1336 15.7522 33.8015Z" fill="white"/>
</g>
</g>
<defs>
<filter id="filter0_d_14760_130757" x="0.353943" y="16.0011" width="42.6127" height="42.5872" filterUnits="userSpaceOnUse" color-interpolation-filters="sRGB">
<feFlood flood-opacity="0" result="BackgroundImageFix"/>
<feColorMatrix in="SourceAlpha" type="matrix" values="0 0 0 0 0 0 0 0 0 0 0 0 0 0 0 0 0 0 127 0" result="hardAlpha"/>
<feMorphology radius="1" operator="dilate" in="SourceAlpha" result="effect1_dropShadow_14760_130757"/>
<feOffset/>
<feGaussianBlur stdDeviation="2.5"/>
<feColorMatrix type="matrix" values="0 0 0 0 0.533333 0 0 0 0 0.596078 0 0 0 0 0.654902 0 0 0 0.3 0"/>
<feBlend mode="normal" in2="BackgroundImageFix" result="effect1_dropShadow_14760_130757"/>
<feBlend mode="normal" in="SourceGraphic" in2="effect1_dropShadow_14760_130757" result="shape"/>
</filter>
<clipPath id="clip0_14760_130757">
<rect width="14.7448" height="14.745" fill="white" transform="matrix(0.707407 -0.707407 0.706807 0.706807 11.2215 37.0414)"/>
</clipPath>
</defs>
</svg>
