<svg width="24" height="24" viewBox="0 0 24 24" fill="none" xmlns="http://www.w3.org/2000/svg">
<path fill-rule="evenodd" clip-rule="evenodd" d="M3 8H21C22.6569 8 24 9.34315 24 11V12C24 13.6569 22.6569 15 21 15H3C1.34315 15 0 13.6569 0 12V11C0 9.34315 1.34315 8 3 8ZM3 10C2.44772 10 2 10.4477 2 11V12C2 12.5523 2.44772 13 3 13H21C21.5523 13 22 12.5523 22 12V11C22 10.4477 21.5523 10 21 10H3Z" fill="currentColor"/>
<path fill-rule="evenodd" clip-rule="evenodd" d="M3 16H21C22.6569 16 24 17.3431 24 19V20C24 21.6569 22.6569 23 21 23H3C1.34315 23 0 21.6569 0 20V19C0 17.3431 1.34315 16 3 16ZM3 18C2.44772 18 2 18.4477 2 19V20C2 20.5523 2.44772 21 3 21H21C21.5523 21 22 20.5523 22 20V19C22 18.4477 21.5523 18 21 18H3Z" fill="currentColor"/>
<path fill-rule="evenodd" clip-rule="evenodd" d="M3 0H21C22.6569 0 24 1.34315 24 3V4C24 5.65685 22.6569 7 21 7H3C1.34315 7 0 5.65685 0 4V3C0 1.34315 1.34315 0 3 0ZM3 2C2.44772 2 2 2.44772 2 3V4C2 4.55228 2.44772 5 3 5H21C21.5523 5 22 4.55228 22 4V3C22 2.44772 21.5523 2 21 2H3Z" fill="currentColor"/>
</svg>
