<svg width="18" height="18" viewBox="0 0 18 18" fill="none" xmlns="http://www.w3.org/2000/svg">
<path fill-rule="evenodd" clip-rule="evenodd" d="M13.143 8.2501C13.1362 8.21315 13.1265 8.17597 13.1137 8.13877L11.0595 2.16087C10.8773 1.63047 10.1986 1.48045 9.80978 1.88459L5.42717 6.43954C5.02108 6.8616 5.23385 7.56544 5.80574 7.69187L12.2425 9.11482C12.6519 9.20533 13.0192 8.94987 13.125 8.59417C13.157 8.4864 13.1651 8.36943 13.143 8.2501ZM11.2605 7.36152L10.0398 3.80899L7.43529 6.51589L11.2605 7.36152ZM14.0779 9.88647C13.7757 9.7977 13.4559 9.75007 13.125 9.75007C12.7545 9.75007 12.398 9.80976 12.0645 9.92005C11.725 10.0323 11.4094 10.197 11.1273 10.4045C10.6886 10.7272 10.3308 11.1533 10.09 11.647C9.87218 12.0934 9.74997 12.595 9.74997 13.1251C9.74997 13.7137 9.90065 14.2671 10.1656 14.7489C10.2805 14.9578 10.4168 15.1533 10.5717 15.3323C11.1906 16.0476 12.1049 16.5001 13.125 16.5001C14.9889 16.5001 16.5 14.989 16.5 13.1251C16.5 11.592 15.4778 10.2977 14.0779 9.88647ZM13.125 15.0001C14.1605 15.0001 15 14.1606 15 13.1251C15 12.0895 14.1605 11.2501 13.125 11.2501C12.0894 11.2501 11.25 12.0895 11.25 13.1251C11.25 14.1606 12.0894 15.0001 13.125 15.0001Z" fill="currentColor"/>
<path d="M5.25005 9.00006C4.83583 9.00006 4.50005 9.33584 4.50005 9.75006L4.50005 12.0001L2.25003 12.0001C1.83582 12.0001 1.50003 12.3358 1.50003 12.7501C1.50003 13.1643 1.83582 13.5001 2.25003 13.5001L4.50005 13.5001L4.50005 15.7501C4.50005 16.1643 4.83583 16.5001 5.25005 16.5001C5.66426 16.5001 6.00005 16.1643 6.00005 15.7501L6.00005 13.5001L8.25003 13.5001C8.66424 13.5001 9.00003 13.1643 9.00003 12.7501C9.00003 12.3358 8.66424 12.0001 8.25003 12.0001L6.00005 12.0001L6.00005 9.75006C6.00005 9.33584 5.66426 9.00006 5.25005 9.00006Z" fill="currentColor"/>
</svg>
