<svg width="22" height="12" viewBox="0 0 22 12" fill="none" xmlns="http://www.w3.org/2000/svg">
<path fill-rule="evenodd" clip-rule="evenodd" d="M0 6C0 2.688 2.7104 0 6.05 0C9.38959 0 12.1 2.688 12.1 6C12.1 9.312 9.38959 12 6.05 12C2.7104 12 0 9.312 0 6ZM1.815 6L4.84 9L10.285 3.6L9.43194 2.748L4.84 7.302L2.66805 5.154L1.815 6ZM13.1747 5.4C13.0576 4.01487 12.5385 2.74263 11.7335 1.69846C12.8234 0.64749 14.3109 0 15.95 0C19.2896 0 22 2.688 22 6C22 9.312 19.2896 12 15.95 12C14.3109 12 12.8234 11.3525 11.7335 10.3015C12.5385 9.25737 13.0576 7.98513 13.1747 6.6H18.975V5.4H13.1747Z" fill="currentColor"/>
</svg>
