<svg width="16" height="17" viewBox="0 0 16 17" fill="none" xmlns="http://www.w3.org/2000/svg">
<path fill-rule="evenodd" clip-rule="evenodd" d="M2.91104 3.16667L2 4.02587L5.94104 7.75867C5.59398 8.3345 5.28648 8.8454 5.01873 9.29172C5.00463 9.31831 5.10328 9.14552 4.9694 9.37147C4.83552 9.59742 4.82848 9.81007 5.23716 9.81007H7.70339L6.99876 14.4619H7.70339C7.70339 14.4619 8.34863 13.3908 9.64362 11.2506L13.089 14.5L14 13.6408L2.91104 3.16667ZM11.0304 8.96045C11.2917 8.52913 11.5685 8.07247 11.8607 7.59047L11.9101 7.49079C11.9735 7.37117 11.9242 7.15187 11.5789 7.15187H9.11266L9.8173 2.5H9.11266C8.458 3.58648 7.86181 4.57471 7.32443 5.46533L9.11266 7.15187L11.0304 8.96045Z" fill="#828282"/>
</svg>
