<svg width="24" height="24" viewBox="0 0 24 24" fill="none" xmlns="http://www.w3.org/2000/svg">
<path fill-rule="evenodd" clip-rule="evenodd" d="M20 11H11V20H20V11ZM11.1667 9C9.97005 9 9 9.97005 9 11.1667V19.8333C9 21.03 9.97005 22 11.1667 22H19.8333C21.03 22 22 21.03 22 19.8333V11.1667C22 9.97005 21.03 9 19.8333 9H11.1667Z" fill="currentColor"/>
<path d="M4 4H13V7H15V4C15 2.89543 14.1046 2 13 2H4C2.89543 2 2 2.89543 2 4V13C2 14.1046 2.89543 15 4 15H7V13H4L4 4Z" fill="currentColor"/>
<path fill-rule="evenodd" clip-rule="evenodd" d="M17.2 12.4L18.8 13.6L15.2 18.4L12.4 16.3L13.6 14.7L14.8 15.6L17.2 12.4Z" fill="currentColor"/>
</svg>
