<svg width="16" height="16" viewBox="0 0 16 16" fill="none" xmlns="http://www.w3.org/2000/svg">
<path d="M6.66667 7.99984C8.13943 7.99984 9.33333 6.80593 9.33333 5.33317C9.33333 3.86041 8.13943 2.6665 6.66667 2.6665C5.19391 2.6665 4 3.86041 4 5.33317C4 6.80593 5.19391 7.99984 6.66667 7.99984Z" fill="currentColor"/>
<path d="M7.11325 8.67984C6.96659 8.67317 6.81992 8.6665 6.66658 8.6665C5.05325 8.6665 3.54659 9.11317 2.25992 9.87984C1.67325 10.2265 1.33325 10.8798 1.33325 11.5665V13.3332H7.50659C6.97992 12.5798 6.66658 11.6598 6.66658 10.6665C6.66658 9.95317 6.83325 9.2865 7.11325 8.67984Z" fill="currentColor"/>
<path d="M13.8333 10.6663C13.8333 10.5197 13.8133 10.3863 13.7933 10.2463L14.5533 9.57301L13.8866 8.41967L12.9199 8.74634C12.7066 8.56634 12.4666 8.42634 12.1999 8.32634L11.9999 7.33301H10.6666L10.4666 8.32634C10.1999 8.42634 9.95995 8.56634 9.74661 8.74634L8.77995 8.41967L8.11328 9.57301L8.87328 10.2463C8.85328 10.3863 8.83328 10.5197 8.83328 10.6663C8.83328 10.813 8.85328 10.9463 8.87328 11.0863L8.11328 11.7597L8.77995 12.913L9.74661 12.5863C9.95995 12.7663 10.1999 12.9063 10.4666 13.0063L10.6666 13.9997H11.9999L12.1999 13.0063C12.4666 12.9063 12.7066 12.7663 12.9199 12.5863L13.8866 12.913L14.5533 11.7597L13.7933 11.0863C13.8133 10.9463 13.8333 10.813 13.8333 10.6663ZM11.3333 11.9997C10.5999 11.9997 9.99995 11.3997 9.99995 10.6663C9.99995 9.93301 10.5999 9.33301 11.3333 9.33301C12.0666 9.33301 12.6666 9.93301 12.6666 10.6663C12.6666 11.3997 12.0666 11.9997 11.3333 11.9997Z" fill="currentColor"/>
</svg>
