<svg width="19" height="16" viewBox="0 0 19 16" fill="none" xmlns="http://www.w3.org/2000/svg">
<path d="M13.4538 0V2.90893C10.5449 2.90893 10.5449 6.54508 10.5449 6.54508V9.45401C10.5449 11.6357 9.61405 15.9991 4.72705 15.9991V13.0902C7.63598 13.0902 7.63598 9.45401 7.63598 9.45401V6.54508C7.63598 4.36339 8.56683 0 13.4538 0Z" fill="url(#paint0_radial_20221_81565)"/>
<path d="M8.02852 0.938128C7.37401 1.72354 6.90131 2.65439 6.59587 3.65797C6.42133 3.47617 6.21771 3.31527 5.97772 3.19255C5.97045 3.19255 5.96318 3.18527 5.95682 3.18527C5.87682 3.14164 5.79592 3.10528 5.70865 3.07619C5.63592 3.0471 5.55593 3.01801 5.46866 2.99619C5.34503 2.9671 5.2214 2.94529 5.08414 2.93074C4.96778 2.9162 4.85142 2.90893 4.72779 2.90893H1.45435V0H4.72689C4.8796 0 5.02505 0.00727231 5.1705 0.0145446C5.31503 0.022726 5.46139 0.0363616 5.59956 0.0518152C5.73046 0.0663599 5.86046 0.0881768 5.985 0.109994C6.5086 0.204534 6.96676 0.34998 7.38128 0.552696C7.61308 0.66178 7.82398 0.792682 8.02852 0.938128Z" fill="#2859E9"/>
<path d="M10.152 15.0609C10.8065 14.2755 11.2792 13.3446 11.5847 12.3411C11.7592 12.5229 11.9628 12.6838 12.2028 12.8074C12.2101 12.8074 12.2174 12.8147 12.2237 12.8147C12.3037 12.8583 12.3846 12.8947 12.4719 12.9238C12.5446 12.9528 12.6246 12.9819 12.7119 13.0038C12.8355 13.0328 12.9591 13.0547 13.0964 13.0692C13.2128 13.0838 13.3291 13.091 13.4528 13.091H16.7253V15.9999H13.4528C13.3 15.9999 13.1546 15.9927 13.0091 15.9854C12.8646 15.9772 12.7183 15.9636 12.5801 15.9481C12.4492 15.9336 12.3192 15.9118 12.1946 15.89C11.671 15.7954 11.2129 15.65 10.7984 15.4463C10.5666 15.3373 10.3557 15.2064 10.1511 15.0609H10.152Z" fill="#2859E9"/>
<path d="M18.1808 4.727C18.1808 6.9087 16.3627 9.45401 13.4538 9.45401H4.76336C3.27254 9.45401 2.90893 10.5449 2.90893 11.2721C2.90893 11.9993 3.27254 13.0902 4.727 13.0902V15.9991C1.81808 15.9991 0 13.4538 0 11.2721C0 9.09039 1.81808 6.54508 4.727 6.54508H13.4174C14.9082 6.54508 15.2719 5.45423 15.2719 4.727C15.2719 3.99977 14.9082 2.90893 13.4538 2.90893V0C16.3627 0 18.1808 2.54531 18.1808 4.727Z" fill="#2859E9"/>
<defs>
<radialGradient id="paint0_radial_20221_81565" cx="0" cy="0" r="1" gradientUnits="userSpaceOnUse" gradientTransform="translate(9.09044 7.99954) scale(4.24249)">
<stop offset="0.02" stop-color="#0014A5"/>
<stop offset="1" stop-color="#2859E9"/>
</radialGradient>
</defs>
</svg>
