<svg width="24" height="24" viewBox="0 0 24 24" fill="none" xmlns="http://www.w3.org/2000/svg">
<path fill-rule="evenodd" clip-rule="evenodd" d="M20.1588 17.7445L17.2367 14.8225L21 12V15C21 15.9754 20.6891 16.9027 20.1588 17.7445ZM16 11H13.4142L11 8.58576V7.82C9.84 7.4 9 6.3 9 5C9 3.35 10.35 2 12 2C13.65 2 15 3.35 15 5C15 6.3 14.16 7.4 13 7.82V9H16V11ZM11 13.4142V19.92C8.78 19.59 6.41 18.24 5.45 16.55L7 15L3 12V15C3 18.88 7.92 22 12 22C13.9293 22 16.0464 21.3024 17.7424 20.1566L19.4936 21.9078L20.9078 20.4936L4.51938 4.1052L3.10516 5.51941L11 13.4142ZM16.2995 18.7138C15.2978 19.3202 14.1295 19.7521 13 19.92V15.4142L16.2995 18.7138ZM12 4C12.55 4 13 4.45 13 5C13 5.55 12.55 6 12 6C11.45 6 11 5.55 11 5C11 4.45 11.45 4 12 4Z" fill="black"/>
</svg>
