<svg width="24" height="24" viewBox="0 0 24 24" fill="none" xmlns="http://www.w3.org/2000/svg">
<path d="M10 11C10 12.105 9.105 13 8 13C6.895 13 6 12.105 6 11C6 9.895 6.895 9 8 9C9.105 9 10 9.895 10 11Z" fill="currentColor"/>
<path fill-rule="evenodd" clip-rule="evenodd" d="M22 7C22 5.89543 21.1046 5 20 5H4C2.89543 5 2 5.89543 2 7V17C2 18.1046 2.89543 19 4 19L20 19C21.1046 19 22 18.1046 22 17L22 7ZM12 15.9981L12 7L4 7L4 16C4 14.67 6.665 14 8 14C9.33436 14 11.9975 14.6694 12 15.9981ZM14 7H18V8H14V7ZM20 11H14V11.9981H20V11ZM14 9H20V10H14V9Z" fill="currentColor"/>
</svg>
