<svg width="16" height="16" viewBox="0 0 16 16" fill="none" xmlns="http://www.w3.org/2000/svg">
<path fill-rule="evenodd" clip-rule="evenodd" d="M4.00033 1.33301H9.33366L13.3337 5.33301V13.333C13.3337 14.0663 12.7337 14.6663 12.0003 14.6663H3.99366C3.26033 14.6663 2.66699 14.0663 2.66699 13.333L2.67366 2.66634C2.67366 1.93301 3.26699 1.33301 4.00033 1.33301ZM8.66699 2.33301V5.99967H12.3337L8.66699 2.33301ZM9.33366 8.66634C9.33366 9.12315 9.10393 9.52631 8.75371 9.76658L9.33366 12.6663H6.66699L7.24694 9.76658C6.89672 9.52631 6.66699 9.12315 6.66699 8.66634C6.66699 7.92996 7.26395 7.33301 8.00033 7.33301C8.7367 7.33301 9.33366 7.92996 9.33366 8.66634Z" fill="currentColor"/>
</svg>
