<svg width="24" height="24" viewBox="0 0 24 24" fill="none" xmlns="http://www.w3.org/2000/svg">
<path d="M0.5 4C0.5 2.067 2.067 0.5 4 0.5H16.8431C17.7714 0.5 18.6616 0.868749 19.318 1.52513L22.4749 4.68198C23.1313 5.33836 23.5 6.2286 23.5 7.15685V20C23.5 21.933 21.933 23.5 20 23.5H4C2.067 23.5 0.5 21.933 0.5 20V4Z" fill="white" stroke="#E0E0E0"/>
<path d="M18 0.75V2C18 4.20914 19.7909 6 22 6H23.25" stroke="#E0E0E0"/>
<rect x="4" y="5" width="7" height="2" fill="#E0E0E0"/>
<rect x="4" y="10" width="16" height="2" fill="#E0E0E0"/>
<rect x="4" y="16" width="16" height="2" fill="#E0E0E0"/>
<rect x="4" y="13" width="16" height="2" fill="#E0E0E0"/>
<rect x="4" y="19" width="16" height="2" fill="#E0E0E0"/>
</svg>
