<svg width="24" height="24" viewBox="0 0 24 24" fill="none" xmlns="http://www.w3.org/2000/svg">
  <path d="M3.82499 8.89998C3.82499 8.33331 4.02932 7.84598 4.43799 7.43798C4.84599 7.02931 5.33332 6.82498 5.89999 6.82498C6.48332 6.82498 6.97899 7.02931 7.38699 7.43798C7.79565 7.84598 7.99999 8.33331 7.99999 8.89998C7.99999 9.48331 7.79565 9.97898 7.38699 10.387C6.97899 10.7956 6.48332 11 5.89999 11C5.33332 11 4.84599 10.7956 4.43799 10.387C4.02932 9.97898 3.82499 9.48331 3.82499 8.89998ZM3.82499 15.1C3.82499 14.5166 4.02932 14.021 4.43799 13.613C4.84599 13.2043 5.33332 13 5.89999 13C6.48332 13 6.97899 13.2043 7.38699 13.613C7.79565 14.021 7.99999 14.5166 7.99999 15.1C7.99999 15.6666 7.79565 16.154 7.38699 16.562C6.97899 16.9706 6.48332 17.175 5.89999 17.175C5.33332 17.175 4.84599 16.9706 4.43799 16.562C4.02932 16.154 3.82499 15.6666 3.82499 15.1ZM9.89999 8.89998C9.89999 8.33331 10.1083 7.84598 10.525 7.43798C10.9417 7.02932 11.4333 6.82498 12 6.82498C12.5833 6.82498 13.0793 7.02932 13.488 7.43798C13.896 7.84598 14.1 8.33331 14.1 8.89998C14.1 9.48331 13.896 9.97898 13.488 10.387C13.0793 10.7956 12.5833 11 12 11C11.4333 11 10.9417 10.7956 10.525 10.387C10.1083 9.97898 9.89999 9.48331 9.89999 8.89998ZM9.89999 15.1C9.89999 14.5166 10.1083 14.021 10.525 13.613C10.9417 13.2043 11.4333 13 12 13C12.5833 13 13.0793 13.2043 13.488 13.613C13.896 14.021 14.1 14.5166 14.1 15.1C14.1 15.6666 13.896 16.154 13.488 16.562C13.0793 16.9706 12.5833 17.175 12 17.175C11.4333 17.175 10.9417 16.9706 10.525 16.562C10.1083 16.154 9.89999 15.6666 9.89999 15.1ZM16 8.89998C16 8.33331 16.2043 7.84598 16.613 7.43798C17.021 7.02932 17.5167 6.82498 18.1 6.82498C18.6667 6.82498 19.154 7.02932 19.562 7.43798C19.9707 7.84598 20.175 8.33331 20.175 8.89998C20.175 9.48331 19.9707 9.97898 19.562 10.387C19.154 10.7956 18.6667 11 18.1 11C17.5167 11 17.021 10.7956 16.613 10.387C16.2043 9.97898 16 9.48331 16 8.89998ZM16 15.1C16 14.5166 16.2043 14.021 16.613 13.613C17.021 13.2043 17.5167 13 18.1 13C18.6667 13 19.154 13.2043 19.562 13.613C19.9707 14.021 20.175 14.5166 20.175 15.1C20.175 15.6666 19.9707 16.154 19.562 16.562C19.154 16.9706 18.6667 17.175 18.1 17.175C17.5167 17.175 17.021 16.9706 16.613 16.562C16.2043 16.154 16 15.6666 16 15.1Z" fill="currentColor"/>
</svg>
