<svg width="24" height="24" viewBox="0 0 24 24" fill="none" xmlns="http://www.w3.org/2000/svg">
  <path fill-rule="evenodd" clip-rule="evenodd" d="M5 9.34146V5L19 5L19 19H15.1538V14.3415C15.1538 11.58 12.9153 9.34146 10.1538 9.34146L5 9.34146ZM3 9.34146V5C3 3.89543 3.89543 3 5 3H19C20.1046 3 21 3.89543 21 5V19C21 20.1046 20.1046 21 19 21H15.1538C14.0493 21 13.1538 20.1046 13.1538 19V14.3415C13.1538 12.6846 11.8107 11.3415 10.1538 11.3415H5C3.89543 11.3415 3 10.446 3 9.34146ZM5 15H9V19H5V15ZM3 15C3 13.8954 3.89543 13 5 13H9C10.1046 13 11 13.8954 11 15V19C11 20.1046 10.1046 21 9 21H5C3.89543 21 3 20.1046 3 19V15Z" fill="currentColor"/>
</svg>
