<svg width="24" height="24" viewBox="0 0 24 24" fill="none" xmlns="http://www.w3.org/2000/svg">
  <path fill-rule="evenodd" clip-rule="evenodd" d="M19 4L5 4L5 8L19 8L19 4ZM21 3C21 2.44771 20.5523 2 20 2L4 2C3.44772 2 3 2.44771 3 3L3 9C3 9.55228 3.44772 10 4 10L20 10C20.5523 10 21 9.55229 21 9L21 3Z" fill="currentColor"/>
  <path d="M13 12L13 14L11 14L11 12L13 12Z" fill="currentColor"/>
  <path d="M9 12L9 14L7 14L7 12L9 12Z" fill="currentColor"/>
  <path d="M17 12L17 14L15 14L15 12L17 12Z" fill="currentColor"/>
  <path d="M5 12L5 14L3 14L3 13C3 12.4477 3.44772 12 4 12L5 12Z" fill="currentColor"/>
  <path d="M5 16L5 18L3 18L3 16L5 16Z" fill="currentColor"/>
  <path d="M21 16L21 18L19 18L19 16L21 16Z" fill="currentColor"/>
  <path d="M20 12C20.5523 12 21 12.4477 21 13L21 14L19 14L19 12L20 12Z" fill="currentColor"/>
  <path d="M21 20L21 21C21 21.5523 20.5523 22 20 22L19 22L19 20L21 20Z" fill="currentColor"/>
  <path d="M13 20L13 22L11 22L11 20L13 20Z" fill="currentColor"/>
  <path d="M9 20L9 22L7 22L7 20L9 20Z" fill="currentColor"/>
  <path d="M17 20L17 22L15 22L15 20L17 20Z" fill="currentColor"/>
  <path d="M5 20L5 22L4 22C3.44771 22 3 21.5523 3 21L3 20L5 20Z" fill="currentColor"/>
</svg>
