<svg width="24" height="24" viewBox="0 0 24 24" fill="none" xmlns="http://www.w3.org/2000/svg">
  <path fill-rule="evenodd" clip-rule="evenodd" d="M10 9C10 7.89543 10.8954 7 12 7C13.1046 7 14 7.89543 14 9C14 10.1046 13.1046 11 12 11C10.8954 11 10 10.1046 10 9ZM12 5C9.79086 5 8 6.79086 8 9C8 11.2091 9.79086 13 12 13C14.2091 13 16 11.2091 16 9C16 6.79086 14.2091 5 12 5ZM3 11C3 10.4477 3.44772 10 4 10C4.55228 10 5 10.4477 5 11C5 11.5523 4.55228 12 4 12C3.44772 12 3 11.5523 3 11ZM4 8C2.34315 8 1 9.34315 1 11C1 12.6569 2.34315 14 4 14C5.65685 14 7 12.6569 7 11C7 9.34315 5.65685 8 4 8ZM20 10C19.4477 10 19 10.4477 19 11C19 11.5523 19.4477 12 20 12C20.5523 12 21 11.5523 21 11C21 10.4477 20.5523 10 20 10ZM17 11C17 9.34315 18.3431 8 20 8C21.6569 8 23 9.34315 23 11C23 12.6569 21.6569 14 20 14C18.3431 14 17 12.6569 17 11ZM8.16614 16.5738C9.22881 16.1015 10.5308 15.75 12 15.75C13.4677 15.75 14.7704 16.1008 15.8369 16.5652C16.5444 16.8811 17 17.5956 17 18.38V20H19V18.38C19 17.9041 18.9154 17.4385 18.7563 17.003C18.8584 17.001 18.9425 17 19 17C19.8473 17 20.6518 17.1795 21.3809 17.4969L21.3831 17.4979C21.7615 17.6615 22 18.0237 22 18.43V20H24V18.43C24 17.2166 23.2789 16.1392 22.178 15.6626C21.2074 15.2403 20.1322 15 19 15C18.786 15 18.3312 15.0106 17.8875 15.0283C17.678 15.0367 17.4469 15.0474 17.2362 15.0614C17.0515 14.9378 16.8545 14.8288 16.6461 14.7362L16.6461 14.7362L16.6396 14.7333C15.3667 14.1785 13.7907 13.75 12 13.75C10.2108 13.75 8.63396 14.1777 7.35722 14.7447C7.15075 14.8348 6.95548 14.9412 6.77239 15.0619C6.55932 15.0477 6.32482 15.0368 6.11247 15.0283C5.66881 15.0106 5.21396 15 5 15C3.8677 15 2.79255 15.2403 1.82191 15.6627C0.721011 16.1393 0 17.2167 0 18.43L0 20H2V18.43C2 18.0237 2.23848 17.6615 2.61691 17.4979L2.61912 17.4969C3.34821 17.1795 4.1527 17 5 17C5.05776 17 5.14233 17.001 5.24515 17.003C5.08501 17.4413 5 17.9104 5 18.39V20H7V18.39C7 17.591 7.45928 16.8815 8.15904 16.5769L8.15905 16.577L8.16614 16.5738Z" fill="currentColor"/>
</svg>
