<svg width="24" height="24" viewBox="0 0 24 24" fill="none" xmlns="http://www.w3.org/2000/svg">
  <path fill-rule="evenodd" clip-rule="evenodd" d="M12 5C9.79086 5 8 6.79086 8 9C8 11.2091 9.79086 13 12 13C14.2091 13 16 11.2091 16 9C16 6.79086 14.2091 5 12 5ZM4 8C2.34315 8 1 9.34315 1 11C1 12.6569 2.34315 14 4 14C5.65685 14 7 12.6569 7 11C7 9.34315 5.65685 8 4 8ZM20 8C18.3431 8 17 9.34315 17 11C17 12.6569 18.3431 14 20 14C21.6569 14 23 12.6569 23 11C23 9.34315 21.6569 8 20 8ZM16.6461 14.7362C16.8542 14.8287 17.0513 14.9378 17.2362 15.0615C17.8407 15.0218 18.7058 15 19 15C20.1323 15 21.2074 15.2403 22.178 15.6626C23.2789 16.1392 24 17.2167 24 18.43V20H0V18.43C0 17.2167 0.721011 16.1393 1.82191 15.6627C2.79255 15.2403 3.8677 15 5 15C5.2949 15 6.16685 15.022 6.77247 15.0621C6.95587 14.9411 7.15119 14.8346 7.35723 14.7447C8.63397 14.1777 10.2108 13.75 12 13.75C13.7907 13.75 15.3667 14.1785 16.6396 14.7333L16.6461 14.7362Z" fill="currentColor"/>
</svg>
