<svg width="22" height="22" viewBox="0 0 22 22" fill="none" xmlns="http://www.w3.org/2000/svg">
<path fill-rule="evenodd" clip-rule="evenodd" d="M11 1.6923C5.86008 1.6923 1.69335 5.85647 1.69335 10.9932C1.69335 13.5986 2.76522 15.9537 4.49229 17.6422C3.67716 15.9843 3.28019 14.0716 3.28019 12.3019C3.28019 10.0573 4.10971 8.21411 5.24089 6.92752C6.34829 5.66798 7.81844 4.86785 9.15065 4.86785C10.3526 4.86785 11.7252 5.289 12.8053 6.2928C13.903 7.3131 14.6297 8.87118 14.6297 11.0045C14.6297 13.1285 13.836 14.5381 12.9836 15.4204C13.6658 15.3228 14.5699 14.8553 15.3611 13.9555C16.2339 12.9627 16.9005 11.512 16.9005 9.69815C16.9005 7.80647 16.374 5.76155 15.3555 4.21558C14.3498 2.68908 12.9036 1.6923 11 1.6923H11ZM10.8583 14.9378C10.8757 14.9284 10.8937 14.9185 10.9123 14.908C11.1312 14.7845 11.4291 14.584 11.7277 14.2834C12.3095 13.6979 12.9363 12.6937 12.9363 11.0045C12.9363 9.27958 12.3626 8.19241 11.6521 7.53202C11.453 7.34705 11.238 7.1906 11.0135 7.06089C10.9967 7.06994 10.9794 7.07953 10.9614 7.08965C10.7425 7.213 10.4448 7.41325 10.1462 7.71361C9.56457 8.29868 8.93771 9.30281 8.93771 10.9932C8.93771 12.7194 9.51155 13.8072 10.2221 14.4678C10.4204 14.6522 10.6347 14.8083 10.8583 14.9378ZM8.88691 6.5801C8.20511 6.67875 7.30273 7.14627 6.51295 8.04455C5.64012 9.03729 4.97353 10.488 4.97353 12.3019C4.97353 14.1935 5.50001 16.2384 6.51855 17.7844C7.38683 19.1023 8.58341 20.0254 10.1192 20.2531C10.4092 20.2803 10.703 20.2942 11 20.2942C16.1399 20.2942 20.3067 16.13 20.3067 10.9932C20.3067 8.26193 19.1286 5.8056 17.2526 4.10403C18.155 5.81859 18.5938 7.83742 18.5938 9.69815C18.5938 11.9427 17.7643 13.7859 16.6331 15.0725C15.5257 16.332 14.0556 17.1321 12.7234 17.1321C11.5214 17.1321 10.1487 16.711 9.06866 15.7068C7.97091 14.6862 7.24437 13.1275 7.24437 10.9932C7.24437 8.87124 8.03571 7.46249 8.88691 6.5801ZM10.874 21.9858C10.9159 21.9862 10.9579 21.9865 11 21.9865C17.0751 21.9865 22 17.0646 22 10.9932C22 4.92438 17.0793 0.00412789 11.0076 2.59597e-06L11 0H11C4.92487 0 0 4.92184 0 10.9932C0 16.6959 4.34485 21.3844 9.90674 21.9329C10.2181 21.977 10.5405 22 10.874 22V21.9858Z" fill="currentColor"/>
</svg>
