<svg width="16" height="16" viewBox="0 0 16 16" fill="none" xmlns="http://www.w3.org/2000/svg" fill="currentColor">
<path fill-rule="evenodd" clip-rule="evenodd" d="M0.0737305 13.9933L4.3612 7.99945L0.0758853 2H10.0001C10.8896 2 11.691 2.43825 12.175 3.12289C12.1754 3.1234 12.1757 3.12391 12.1761 3.12442L15.6349 8L12.1761 12.8756C12.1757 12.8761 12.1753 12.8767 12.1749 12.8772C11.6827 13.5733 10.8755 13.9933 10.0001 13.9933H0.0737305ZM11.0868 12.1067L14.0001 8L11.0868 3.89333C10.8468 3.55333 10.4468 3.33333 10.0001 3.33333H2.6668L6.00014 8L2.6668 12.66H10.0001C10.4468 12.66 10.8468 12.4467 11.0868 12.1067Z" fill="currentColor"/>
<path d="M8.6665 5.33333H9.99984V7.33333H11.9998V8.66666H9.99984V10.6667H8.6665V8.66666H6.6665V7.33333H8.6665V5.33333Z" fill="currentColor"/>
</svg>
