<svg width="16" height="16" viewBox="0 0 16 16" fill="none" xmlns="http://www.w3.org/2000/svg" fill="currentColor">
<path fill-rule="evenodd" clip-rule="evenodd" d="M0.0734863 13.9933L4.36096 7.99945L0.0756412 2H9.9999C10.8893 2 11.6908 2.43825 12.1748 3.12289C12.1751 3.1234 12.1755 3.12391 12.1759 3.12442L15.6347 8L12.1759 12.8756C12.1755 12.8761 12.1751 12.8767 12.1747 12.8772C11.6825 13.5733 10.8752 13.9933 9.9999 13.9933H0.0734863ZM11.0866 12.1067L13.9999 8L11.0866 3.89333C10.8466 3.55333 10.4466 3.33333 9.9999 3.33333H2.66656L5.99989 8L2.66656 12.66H9.9999C10.4466 12.66 10.8466 12.4467 11.0866 12.1067Z" fill="currentColor"/>
<path d="M12.0001 7.33333V8.66666H6.66675V7.33333H12.0001Z" fill="currentColor"/>
</svg>
