<svg width="24" height="24" viewBox="0 0 24 24" fill="none" xmlns="http://www.w3.org/2000/svg">
<g clip-path="url(#clip0_4153_12677)">
<path d="M19 3H5C3.9 3 3 3.9 3 5V19C3 20.1 3.9 21 5 21H19C20.1 21 21 20.1 21 19V5C21 3.9 20.1 3 19 3ZM8.67 18H6V9.33H8.67V18ZM7.33 8.67C6.53 8.67 6 8.07 6 7.4C6 6.67 6.53 6 7.33 6C8.13 6 8.67 6.6 8.67 7.33C8.67 8.06 8.2 8.67 7.33 8.67ZM18 18H15.33V13.4C15.33 12.33 14.93 11.53 14 11.53C13.27 11.53 12.93 12.13 12.73 12.6C12.67 12.8 12.67 13 12.67 13.27V18H10V12.27C10 11.27 9.93 10.4 9.93 9.67H12.33L12.47 10.8H12.53C12.87 10.27 13.67 9.47 15.07 9.47C16.73 9.47 18 10.6 18 13.07V18Z" fill="#0067B6"/>
</g>
<defs>
<clipPath id="clip0_4153_12677">
<rect width="24" height="24" fill="white"/>
</clipPath>
</defs>
</svg>
