<svg width="24" height="24" viewBox="0 0 24 24" fill="none" xmlns="http://www.w3.org/2000/svg">
<path d="M23 12L20.56 9.21L20.9 5.52L17.29 4.7L15.4 1.5L12 2.96L8.6 1.5L6.71 4.69L3.1 5.5L3.44 9.2L1 12L3.44 14.79L3.1 18.49L6.71 19.31L8.6 22.5L12 21.03L15.4 22.49L17.29 19.3L20.9 18.48L20.56 14.79L23 12Z" fill="currentColor"/>
<path fill-rule="evenodd" clip-rule="evenodd" d="M13.4142 12L15.7071 9.70706L14.2929 8.29285L12 10.5858L9.70712 8.29288L8.29291 9.70709L10.5858 12L8.29291 14.2928L9.70712 15.7071L12 13.4142L14.2929 15.7071L15.7071 14.2929L13.4142 12Z" fill="white"/>
</svg>
