<svg width="16" height="17" viewBox="0 0 16 17" fill="none" xmlns="http://www.w3.org/2000/svg">
<path d="M12 8.5H9.33337V9.5H12V8.5Z" fill="currentColor"/>
<path d="M12 10.5H9.33337V11.5H12V10.5Z" fill="currentColor"/>
<path d="M13.3334 5.16671H10V3.16671C10 2.43337 9.40004 1.83337 8.66671 1.83337H7.33337C6.60004 1.83337 6.00004 2.43337 6.00004 3.16671V5.16671H2.66671C1.93337 5.16671 1.33337 5.76671 1.33337 6.50004V13.8334C1.33337 14.5667 1.93337 15.1667 2.66671 15.1667H13.3334C14.0667 15.1667 14.6667 14.5667 14.6667 13.8334V6.50004C14.6667 5.76671 14.0667 5.16671 13.3334 5.16671ZM7.33337 5.16671V3.16671H8.66671V5.16671V6.50004H7.33337V5.16671ZM13.3334 13.8334H2.66671V6.50004H6.00004C6.00004 7.23337 6.60004 7.83337 7.33337 7.83337H8.66671C9.40004 7.83337 10 7.23337 10 6.50004H13.3334V13.8334Z" fill="currentColor"/>
<path d="M6 10.5C6.55228 10.5 7 10.0523 7 9.5C7 8.94772 6.55228 8.5 6 8.5C5.44772 8.5 5 8.94772 5 9.5C5 10.0523 5.44772 10.5 6 10.5Z" fill="currentColor"/>
<path d="M7.38667 11.2867C6.96 11.1 6.49333 11 6 11C5.50667 11 5.04 11.1 4.61333 11.2867C4.24 11.4467 4 11.8067 4 12.2133V12.5H8V12.2133C8 11.8067 7.76 11.4467 7.38667 11.2867Z" fill="currentColor"/>
</svg>
