<svg width="25" height="25" viewBox="0 0 25 25" fill="none" xmlns="http://www.w3.org/2000/svg">
<path d="M23.6665 12.75L21.2265 9.96L21.5665 6.27L17.9565 5.45L16.0665 2.25L12.6665 3.71L9.2665 2.25L7.3765 5.44L3.7665 6.25L4.1065 9.95L1.6665 12.75L4.1065 15.54L3.7665 19.24L7.3765 20.06L9.2665 23.25L12.6665 21.78L16.0665 23.24L17.9565 20.05L21.5665 19.23L21.2265 15.54L23.6665 12.75Z" fill="#828282"/>
<path fill-rule="evenodd" clip-rule="evenodd" d="M14.0808 12.7501L16.3737 10.4572L14.9595 9.04297L12.6666 11.3359L10.3737 9.043L8.95947 10.4572L11.2524 12.7501L8.95947 15.043L10.3737 16.4572L12.6666 14.1643L14.9595 16.4572L16.3737 15.043L14.0808 12.7501Z" fill="white"/>
</svg>
