<svg width="17" height="16" viewBox="0 0 17 16" fill="currentColor" xmlns="http://www.w3.org/2000/svg">
<path d="M13.0002 3.33333V12.6667H3.66683V3.33333H13.0002ZM13.0002 2H3.66683C2.9335 2 2.3335 2.6 2.3335 3.33333V12.6667C2.3335 13.4 2.9335 14 3.66683 14H13.0002C13.7335 14 14.3335 13.4 14.3335 12.6667V3.33333C14.3335 2.6 13.7335 2 13.0002 2Z" fill="currentColor"/>
<path fill-rule="evenodd" clip-rule="evenodd" d="M6.33346 4.66663H5.00012V5.99996H6.33346V4.66663ZM6.33346 7.33329H5.00012V8.66663H6.33346V7.33329ZM5.00012 9.99996H6.33346V11.3333H5.00012V9.99996ZM11.6668 7.33329H10.3335V8.66663H11.6668V7.33329ZM10.3335 4.66663H11.6668V5.99996H10.3335V4.66663ZM11.6668 9.99996H10.3335V11.3333H11.6668V9.99996ZM7.66679 4.66663H9.00012V5.99996H7.66679V4.66663ZM9.00012 9.99996H7.66679V11.3333H9.00012V9.99996Z" fill="currentColor"/>
</svg>
