<svg width="24" height="24" viewBox="0 0 24 24" fill="none" xmlns="http://www.w3.org/2000/svg">
<path fill-rule="evenodd" clip-rule="evenodd" d="M2.85308 8.40282C2.31842 8.77708 2 9.38866 2 10.0413V20C2 21.1045 2.89543 22 4 22H20C21.1046 22 22 21.1045 22 20V10.0413C22 9.38866 21.6816 8.77708 21.1469 8.40282L13.1469 2.80282C12.4583 2.32077 11.5417 2.32077 10.8531 2.80282L2.85308 8.40282ZM12 17C13.6569 17 15 15.6568 15 14C15 12.3431 13.6569 11 12 11C10.3431 11 9 12.3431 9 14C9 15.6568 10.3431 17 12 17Z" fill="currentColor"/>
</svg>
