<svg width="24" height="24" viewBox="0 0 24 24" fill="none" xmlns="http://www.w3.org/2000/svg">
<path fill-rule="evenodd" clip-rule="evenodd" d="M8.99995 4C8.99995 2.89543 9.89538 2 11 2H17L23 8V12H22.9946L23 20C23 21.1 22.0464 22 20.8678 22H11.1428C9.97764 22 9.02193 21.1204 9.0003 20.0375L9.00007 20.0217L8.99995 20V4ZM16 4V9H21L16 4Z" fill="currentColor"/>
<path d="M7.80198 22H6.99989C5.89532 22 4.99989 21.1046 4.99989 20V6C4.99989 4.89543 5.89532 4 6.99989 4V20L7.00006 20.0324L7.00041 20.056L7.00043 20.0575C7.01563 20.818 7.32071 21.4906 7.80198 22Z" fill="currentColor"/>
<path d="M2.99994 22H3.76384C3.2888 21.4692 2.99994 20.7684 2.99994 20V7C1.89537 7 0.999939 7.89543 0.999939 9V20C0.999939 21.1046 1.89537 22 2.99994 22Z" fill="currentColor"/>
</svg>
