<svg width="16" height="14" viewBox="0 0 16 14" fill="none" xmlns="http://www.w3.org/2000/svg">
<path fill-rule="evenodd" clip-rule="evenodd" d="M6.00033 1.66683C6.00033 0.93045 6.59729 0.333496 7.33367 0.333496H11.3337L15.3337 4.3335V7.00016H15.3301L15.3337 12.3335C15.3337 13.0668 14.698 13.6668 13.9123 13.6668H7.42889C6.65213 13.6668 6.01499 13.0804 6.00056 12.3585L6.00041 12.348L6.00033 12.3335V1.66683ZM10.667 1.66683V5.00016H14.0004L10.667 1.66683Z" fill="currentColor"/>
<path d="M5.20169 13.6668H4.66696C3.93058 13.6668 3.33362 13.0699 3.33362 12.3335V3.00016C3.33362 2.26378 3.93058 1.66683 4.66696 1.66683V12.3335L4.66707 12.3551L4.6673 12.3708L4.66732 12.3718C4.67745 12.8789 4.88084 13.3272 5.20169 13.6668Z" fill="currentColor"/>
<path d="M2.00033 13.6668H2.50959C2.1929 13.313 2.00033 12.8457 2.00033 12.3335V3.66683C1.26395 3.66683 0.666992 4.26378 0.666992 5.00016V12.3335C0.666992 13.0699 1.26395 13.6668 2.00033 13.6668Z" fill="currentColor"/>
</svg>
