<svg width="24" height="24" viewBox="0 0 24 24" fill="none" xmlns="http://www.w3.org/2000/svg">
<path fill-rule="evenodd" clip-rule="evenodd" d="M17.9876 4.58724C13.8938 1.76915 8.2892 2.80358 5.47111 6.89738L3 5.19632L4.02673 10.7592L9.58963 9.73249L7.11852 8.03142C9.31289 4.84369 13.6659 4.04028 16.8536 6.23465C20.0413 8.42902 20.8447 12.782 18.6504 15.9697C16.456 19.1574 12.103 19.9609 8.9153 17.7665C7.6715 16.9103 6.79616 15.7129 6.30819 14.3936L4.32202 14.7745C4.9163 16.5919 6.08443 18.2458 7.78125 19.4139C11.8751 22.232 17.4797 21.1976 20.2978 17.1038C23.1159 13.01 22.0814 7.40533 17.9876 4.58724ZM16.6401 10.452L17.3091 9.70866L15.8225 8.37073L15.1535 9.11402L11.3586 13.3306L10.1039 12.0759L9.39683 11.3688L7.98261 12.783L8.68972 13.4901L10.6897 15.4901L11.435 16.2354L12.1401 15.452L16.6401 10.452Z" fill="currentColor"/>
</svg>
