<svg width="24" height="24" viewBox="0 0 24 24" fill="currentColor" xmlns="http://www.w3.org/2000/svg">
<g clip-path="url(#clip0)">
<path fill-rule="evenodd" clip-rule="evenodd" d="M10.029 8.4659C10.4752 6.14257 12.1558 4 15 4C15.9057 4 17.2866 4.24702 18.4577 5.23597C19.6647 6.25522 20.5 7.93587 20.5 10.5C20.5 11.8984 20.2249 13.158 19.7435 14.2527C20.4896 14.0342 21.1391 13.7797 21.6082 13.58L22.3918 15.42C21.4991 15.8002 19.9097 16.4065 18.1457 16.635C16.6717 18.1525 14.6633 19 12.5882 19C10.0266 19 7.9946 17.7827 6.82092 15.9423C6.65603 16.2626 6.46812 16.5657 6.25719 16.8483C5.27421 18.1649 3.80976 19 2 19V17C3.13142 17 4.01991 16.5018 4.65458 15.6517C5.30683 14.7781 5.70588 13.5022 5.70588 12H7.70588C7.70588 14.8298 9.6586 17 12.5882 17C13.3739 17 14.1571 16.8337 14.8843 16.513C14.0033 16.3012 13.1393 15.9134 12.3624 15.2704C10.2719 13.5401 9.58572 10.7737 10.029 8.4659ZM17.1639 14.7172C17.9833 13.6485 18.5 12.2269 18.5 10.5C18.5 8.39747 17.8353 7.32811 17.1673 6.76403C16.4634 6.16965 15.5943 6 15 6C13.4031 6 12.3189 7.1468 11.9931 8.84315C11.6643 10.555 12.1987 12.5387 13.6376 13.7296C14.6013 14.5273 15.8438 14.7821 17.1639 14.7172ZM7.70588 6V8H5.70588V6H7.70588Z" fill="currentColor"/>
</g>
<defs>
<clipPath id="clip0">
<rect width="24" height="24" fill="white"/>
</clipPath>
</defs>
</svg>
