<svg width="12" height="12" viewBox="0 0 12 12" fill="none" xmlns="http://www.w3.org/2000/svg">
<g clip-path="url(#clip0_16299_119821)">
<path d="M11.8764 6.32916L12.1642 6L11.8764 5.67084L10.7976 4.43729L10.9479 2.80588L10.9881 2.36949L10.5608 2.27242L8.96592 1.91016L8.13052 0.495726L7.90685 0.117028L7.50271 0.290567L6 0.935851L4.49729 0.290567L4.09371 0.117267L3.86983 0.495136L3.03488 1.9044L1.44053 2.26213L1.0119 2.35831L1.0521 2.79575L1.20253 4.43276L0.123045 5.67151L-0.163722 6.00059L0.123628 6.32916L1.20248 7.56276L1.0521 9.19925L1.01201 9.63553L1.43925 9.73258L3.03448 10.0949L3.86983 11.5049L4.09427 11.8837L4.49843 11.7089L6.00067 11.0594L7.50271 11.7044L7.90629 11.8777L8.13017 11.4999L8.96552 10.0899L10.5608 9.72758L10.9881 9.63051L10.9479 9.19412L10.7976 7.56271L11.8764 6.32916ZM3.88424 6.42287L4.69069 7.23279L5.04484 7.58847L5.39916 7.23295L7.9706 4.65271L8.00337 4.68548L5.04498 7.65194L3.85164 6.45546L3.88424 6.42287Z" fill="#66BB88" stroke="white"/>
</g>
<defs>
<clipPath id="clip0_16299_119821">
<rect width="12" height="12" fill="white"/>
</clipPath>
</defs>
</svg>
