<svg width="24" height="24" viewBox="0 0 24 24" fill="none" xmlns="http://www.w3.org/2000/svg">
<path d="M3 21H1V15H7V17H4.52C6.13 19.41 8.88 21 12 21C16.97 21 21 16.97 21 12H23C23 18.08 18.08 23 12 23C8.28 23 4.99 21.15 3 18.33V21ZM1 12C1 5.92 5.92 1 12 1C15.72 1 19.01 2.85 21 5.67V3H23V9H17V7H19.48C17.87 4.59 15.12 3 12 3C7.03 3 3 7.03 3 12H1Z" fill="currentColor"/>
<path d="M12 11C13.105 11 14 10.105 14 9C14 7.895 13.105 7 12 7C10.895 7 10 7.895 10 9C10 10.105 10.895 11 12 11ZM12 12C10.665 12 8 12.67 8 14V15H16V14C16 12.67 13.335 12 12 12Z" fill="currentColor"/>
</svg>
