<svg width="24" height="24" viewBox="0 0 24 24" fill="none" xmlns="http://www.w3.org/2000/svg">
  <path d="M13.0797 2.51275C13.5982 1.97389 14.5031 2.17392 14.7461 2.88112L17.4849 10.8517C17.7387 11.5902 17.0859 12.3216 16.3233 12.1531L7.74101 10.2558C6.97849 10.0872 6.6948 9.14876 7.23625 8.58602L13.0797 2.51275Z" fill="currentColor"/>
  <path d="M22 17.5001C22 19.9853 19.9853 22.0001 17.5 22.0001C15.0147 22.0001 13 19.9853 13 17.5001C13 15.0148 15.0147 13.0001 17.5 13.0001C19.9853 13.0001 22 15.0148 22 17.5001Z" fill="currentColor"/>
  <path d="M2.98803 13.231C2.44234 13.3162 2.06899 13.8275 2.15412 14.3732L3.23099 21.2757C3.31612 21.8213 3.8275 22.1947 4.37318 22.1096L11.2756 21.0327C11.8213 20.9476 12.1946 20.4362 12.1095 19.8905L11.0327 12.9881C10.9475 12.4424 10.4361 12.069 9.89046 12.1542L2.98803 13.231Z" fill="currentColor"/>
</svg>
