<svg width="24" height="24" viewBox="0 0 24 24" fill="none" xmlns="http://www.w3.org/2000/svg">
<path fill-rule="evenodd" clip-rule="evenodd" d="M17.4849 10.8517C17.5019 10.9013 17.5149 10.9508 17.524 11.0001C17.5534 11.1592 17.5427 11.3152 17.5 11.4588C17.3589 11.9331 16.8692 12.2737 16.3233 12.1531L7.74098 10.2558C6.97847 10.0872 6.69478 9.14876 7.23623 8.58602L13.0797 2.51275C13.5982 1.97389 14.503 2.17392 14.746 2.88112L17.4849 10.8517ZM13.3864 5.07861L15.014 9.81532L9.91372 8.68781L13.3864 5.07861Z" fill="#4F4F4F"/>
<path fill-rule="evenodd" clip-rule="evenodd" d="M17.5 13.0001C17.9412 13.0001 18.3676 13.0636 18.7705 13.1819C20.6371 13.7303 22 15.456 22 17.5001C22 19.9853 19.9852 22.0001 17.5 22.0001C16.1399 22.0001 14.9208 21.3967 14.0957 20.4431C13.8891 20.2044 13.7073 19.9437 13.5541 19.6651C13.2009 19.0228 13 18.2849 13 17.5001C13 16.7933 13.1629 16.1245 13.4533 15.5293C13.7745 14.8711 14.2515 14.3028 14.8364 13.8726C15.2126 13.5959 15.6334 13.3764 16.086 13.2267C16.5306 13.0796 17.006 13.0001 17.5 13.0001ZM20 17.5001C20 18.8808 18.8807 20.0001 17.5 20.0001C16.1192 20.0001 15 18.8808 15 17.5001C15 16.1193 16.1192 15.0001 17.5 15.0001C18.8807 15.0001 20 16.1193 20 17.5001Z" fill="#4F4F4F"/>
<path d="M11.3138 14.5812C11.6348 14.1318 11.5307 13.5072 11.0813 13.1862C10.6319 12.8652 10.0073 12.9693 9.68629 13.4187L5.4391 19.3648L3.76825 17.3598C3.41468 16.9355 2.78412 16.8782 2.35984 17.2317C1.93556 17.5853 1.87824 18.2159 2.2318 18.6401L4.7318 21.6401C4.93016 21.8782 5.22764 22.0108 5.53726 21.9993C5.84688 21.9877 6.13367 21.8333 6.31376 21.5812L11.3138 14.5812Z" fill="#4F4F4F"/>
</svg>
