<svg width="24" height="24" viewBox="0 0 24 24" fill="none" xmlns="http://www.w3.org/2000/svg">
<path fill-rule="evenodd" clip-rule="evenodd" d="M17.524 11.0001C17.5149 10.9508 17.5019 10.9013 17.4849 10.8517L14.746 2.88112C14.503 2.17392 13.5982 1.97389 13.0797 2.51275L7.23623 8.58602C6.69478 9.14876 6.97847 10.0872 7.74098 10.2558L16.3233 12.1531C16.8692 12.2737 17.3589 11.9331 17.5 11.4588C17.5427 11.3152 17.5534 11.1592 17.524 11.0001ZM15.014 9.81532L13.3864 5.07861L9.91372 8.68781L15.014 9.81532ZM18.7705 13.1819C18.3676 13.0636 17.9412 13.0001 17.5 13.0001C17.006 13.0001 16.5306 13.0796 16.086 13.2267C15.6334 13.3764 15.2126 13.5959 14.8364 13.8726C14.2515 14.3028 13.7745 14.8711 13.4533 15.5293C13.1629 16.1245 13 16.7933 13 17.5001C13 18.2849 13.2009 19.0228 13.5541 19.6651C13.7073 19.9437 13.8891 20.2044 14.0957 20.4431C14.9208 21.3967 16.1399 22.0001 17.5 22.0001C19.9852 22.0001 22 19.9853 22 17.5001C22 15.456 20.6371 13.7303 18.7705 13.1819ZM17.5 20.0001C18.8807 20.0001 20 18.8808 20 17.5001C20 16.1193 18.8807 15.0001 17.5 15.0001C16.1192 15.0001 15 16.1193 15 17.5001C15 18.8808 16.1192 20.0001 17.5 20.0001Z" fill="#4F4F4F"/>
<path d="M7.00002 12.0001C6.44774 12.0001 6.00002 12.4478 6.00002 13.0001L6.00002 16.0001L3 16.0001C2.44772 16.0001 2 16.4478 2 17.0001C2 17.5524 2.44772 18.0001 3 18.0001L6.00002 18.0001L6.00002 21.0001C6.00002 21.5524 6.44774 22.0001 7.00002 22.0001C7.55231 22.0001 8.00002 21.5524 8.00002 21.0001L8.00002 18.0001L11 18.0001C11.5523 18.0001 12 17.5524 12 17.0001C12 16.4478 11.5523 16.0001 11 16.0001L8.00002 16.0001L8.00002 13.0001C8.00002 12.4478 7.55231 12.0001 7.00002 12.0001Z" fill="#4F4F4F"/>
</svg>
