<svg width="24" height="24" viewBox="0 0 24 24" fill="none" xmlns="http://www.w3.org/2000/svg">
<path fill-rule="evenodd" clip-rule="evenodd" d="M17.524 11C17.5149 10.9507 17.502 10.9011 17.4849 10.8515L14.7461 2.88099C14.5031 2.1738 13.5982 1.97377 13.0798 2.51262L7.23628 8.58589C6.69482 9.14864 6.97851 10.0871 7.74103 10.2557L16.3234 12.1529C16.8693 12.2736 17.359 11.933 17.5 11.4587C17.5427 11.315 17.5534 11.1591 17.524 11ZM15.014 9.8152L13.3864 5.07849L9.91376 8.68769L15.014 9.8152ZM11.0327 12.988C10.9475 12.4423 10.4362 12.0689 9.89048 12.1541L2.98805 13.2309C2.44236 13.316 2.06901 13.8274 2.15415 14.3731L3.23101 21.2755C3.31614 21.8212 3.82752 22.1946 4.3732 22.1094L11.2756 21.0326C11.507 20.9965 11.7073 20.8838 11.8549 20.7244C12.0555 20.5077 12.1586 20.2048 12.1095 19.8904L11.0327 12.988ZM18.7705 13.1818C18.3676 13.0634 17.9412 12.9999 17.5 12.9999C17.006 12.9999 16.5307 13.0795 16.086 13.2266C15.6334 13.3762 15.2126 13.5958 14.8364 13.8725C14.2516 14.3027 13.7745 14.871 13.4533 15.5292C13.163 16.1244 13 16.7931 13 17.4999C13 18.2848 13.2009 19.0227 13.5541 19.665C13.7073 19.9436 13.8892 20.2043 14.0957 20.443C14.9208 21.3966 16.14 21.9999 17.5 21.9999C19.9853 21.9999 22 19.9852 22 17.4999C22 15.4559 20.6371 13.7301 18.7705 13.1818ZM17.5 19.9999C18.8807 19.9999 20 18.8806 20 17.4999C20 16.1192 18.8807 14.9999 17.5 14.9999C16.1193 14.9999 15 16.1192 15 17.4999C15 18.8806 16.1193 19.9999 17.5 19.9999ZM4.28439 15.0529L5.05296 19.9792L9.97929 19.2106L9.21073 14.2843L4.28439 15.0529Z" fill="currentColor"/>
</svg>
