<svg width="16" height="16" viewBox="0 0 16 16" fill="none" xmlns="http://www.w3.org/2000/svg">
<path d="M11.8402 0.958984V3.51898C9.28016 3.51898 9.28016 6.71898 9.28016 6.71898V9.27899C9.28016 11.199 8.46096 15.039 4.16016 15.039V12.479C6.72016 12.479 6.72016 9.27899 6.72016 9.27899V6.71898C6.72016 4.79898 7.53936 0.958984 11.8402 0.958984Z" fill="currentColor"/>
<path d="M7.06587 1.78458C6.48987 2.47578 6.07387 3.29498 5.80507 4.17818C5.65147 4.01818 5.47227 3.87658 5.26107 3.76858C5.25467 3.76858 5.24827 3.76218 5.24267 3.76218C5.17227 3.72378 5.10107 3.69178 5.02427 3.66618C4.96027 3.64058 4.88987 3.61498 4.81307 3.59578C4.70427 3.57018 4.59547 3.55098 4.47467 3.53818C4.37227 3.52538 4.26987 3.51898 4.16107 3.51898H1.28027V0.958984H4.16027C4.29467 0.958984 4.42267 0.965384 4.55067 0.971784C4.67787 0.978984 4.80667 0.990984 4.92827 1.00458C5.04347 1.01738 5.15787 1.03658 5.26747 1.05578C5.72827 1.13898 6.13147 1.26698 6.49627 1.44538C6.70027 1.54138 6.88587 1.65658 7.06587 1.78458Z" fill="currentColor"/>
<path d="M8.93439 14.2139C9.51039 13.5227 9.92639 12.7035 10.1952 11.8203C10.3488 11.9803 10.528 12.1219 10.7392 12.2307C10.7456 12.2307 10.752 12.2371 10.7576 12.2371C10.828 12.2755 10.8992 12.3075 10.976 12.3331C11.04 12.3587 11.1104 12.3843 11.1872 12.4035C11.296 12.4291 11.4048 12.4483 11.5256 12.4611C11.628 12.4739 11.7304 12.4803 11.8392 12.4803H14.7192V15.0403H11.8392C11.7048 15.0403 11.5768 15.0339 11.4488 15.0275C11.3216 15.0203 11.1928 15.0083 11.0712 14.9947C10.956 14.9819 10.8416 14.9627 10.732 14.9435C10.2712 14.8603 9.86799 14.7323 9.50319 14.5531C9.29919 14.4571 9.11359 14.3419 8.93359 14.2139H8.93439Z" fill="currentColor"/>
<path d="M16 5.11898C16 7.03898 14.4 9.27899 11.84 9.27899H4.192C2.88 9.27899 2.56 10.239 2.56 10.879C2.56 11.519 2.88 12.479 4.16 12.479V15.039C1.6 15.039 0 12.799 0 10.879C0 8.95899 1.6 6.71898 4.16 6.71898H11.808C13.12 6.71898 13.44 5.75898 13.44 5.11898C13.44 4.47898 13.12 3.51898 11.84 3.51898V0.958984C14.4 0.958984 16 3.19898 16 5.11898Z" fill="currentColor"/>
</svg>
