<svg width="24" height="24" viewBox="0 0 24 24" fill="none" xmlns="http://www.w3.org/2000/svg">
<g clip-path="url(#clip0_4003_12107)">
<path d="M20.0548 7.98316C20.0664 8.15675 20.0664 8.33034 20.0664 8.50553C20.0664 13.8436 16.1452 20 8.97518 20V19.9968C6.85712 20 4.78306 19.3712 3 18.1857C3.30798 18.2241 3.61751 18.2433 3.92781 18.2441C5.68308 18.2457 7.38818 17.6353 8.76908 16.5114C7.10104 16.4786 5.63831 15.3515 5.12732 13.706C5.71164 13.8228 6.31371 13.7988 6.88722 13.6364C5.06866 13.2556 3.76031 11.5997 3.76031 9.67665V9.62545C4.30217 9.93824 4.90888 10.1118 5.52947 10.131C3.81666 8.9447 3.28869 6.58325 4.32301 4.73696C6.30213 7.2608 9.22218 8.79511 12.3568 8.9575C12.0427 7.55439 12.4718 6.08408 13.4845 5.09774C15.0546 3.56824 17.5238 3.64663 18.9997 5.27293C19.8727 5.09454 20.7094 4.76256 21.4751 4.29219C21.1841 5.22733 20.5751 6.02168 19.7615 6.52645C20.5342 6.43206 21.2891 6.21767 22 5.89049C21.4767 6.70164 20.8182 7.4096 20.0556 7.98156L20.0548 7.98316Z" fill="#1D9BF0"/>
</g>
<defs>
<clipPath id="clip0_4003_12107">
<rect width="24" height="24" fill="white"/>
</clipPath>
</defs>
</svg>
