<svg width="15" height="16" viewBox="0 0 15 16" fill="none" xmlns="http://www.w3.org/2000/svg">
<path fill-rule="evenodd" clip-rule="evenodd" d="M10.6667 4.00033V9.16695L11.6667 10.1669V4.00033H10.6667ZM10.6667 11.0003L11.653 11.9866L14.0834 14.4169L13.1667 15.3336L11.2329 13.3998C10.615 14.5514 9.39972 15.3337 8.00004 15.3337C5.97337 15.3337 4.33337 13.6937 4.33337 11.667V6.5003L0.333374 2.50033L1.25004 1.58366L4.33337 4.66698L5.33337 5.66697L6.33337 6.66696L7.33337 7.66696L8.66671 9.00029L9.66671 10.0003L10.6667 11.0003ZM9.2588 11.4257C8.95315 11.7777 8.50244 12.0003 8.00004 12.0003C7.08004 12.0003 6.33337 11.2537 6.33337 10.3337V8.50029L5.33337 7.5003V11.667C5.33337 13.1403 6.52671 14.3337 8.00004 14.3337C9.12706 14.3337 10.0902 13.6354 10.4808 12.6477L9.2588 11.4257ZM7.33337 9.50029V10.3337C7.33337 10.7003 7.63337 11.0003 8.00004 11.0003C8.22571 11.0003 8.42613 10.8867 8.5469 10.7138L7.33337 9.50029ZM9.66671 3.33366V8.16695L8.66671 7.16696V3.33366C8.66671 2.41366 7.92004 1.66699 7.00004 1.66699C6.08004 1.66699 5.33337 2.41366 5.33337 3.33366V3.83364L4.37294 2.87321C4.59093 1.6195 5.68374 0.666992 7.00004 0.666992C8.47337 0.666992 9.66671 1.86033 9.66671 3.33366ZM7.33337 5.83363L6.33337 4.83364V4.00033H7.33337V5.83363Z" fill="currentColor"/>
</svg>
