<svg width="16" height="16" viewBox="0 0 16 16" fill="none" xmlns="http://www.w3.org/2000/svg">
<path fill-rule="evenodd" clip-rule="evenodd" d="M0.666992 1.66675C0.666992 1.11446 1.11471 0.666748 1.66699 0.666748H6.33366C6.88594 0.666748 7.33366 1.11446 7.33366 1.66675V3.33341H9.11357V2.33341L12.0003 0.666748L14.8871 2.33341V5.66675L12.667 6.94851V8.73343C14.1885 9.04227 15.3337 10.3874 15.3337 12.0001C15.3337 13.841 13.8413 15.3334 12.0003 15.3334C10.1594 15.3334 8.66699 13.841 8.66699 12.0001C8.66699 10.3874 9.81217 9.04227 11.3337 8.73343V6.94851L9.11357 5.66675V4.66675H7.33366V6.33342C7.33366 6.8857 6.88594 7.33342 6.33366 7.33342L4.66699 7.33341V9.33341L7.33366 12.0001L4.00033 15.3334L0.666992 12.0001L3.33366 9.33341V7.33341L1.66699 7.33342C1.11471 7.33342 0.666992 6.8857 0.666992 6.33342V1.66675Z" fill="currentColor"/>
</svg>
