<svg width="20" height="18" viewBox="0 0 20 18" fill="none" xmlns="http://www.w3.org/2000/svg">
<path d="M10.84 11.22L9.42 12.64C10.11 13.32 11 13.98 12.36 14.43L12.85 12.49C11.96 12.17 11.35 11.72 10.84 11.22ZM16 10L20 14L16 18L16 14.98C15.19 14.96 14.46 14.9 13.83 14.79L14.32 12.85C14.8 12.92 15.37 12.97 16 12.98L16 10ZM16 -1.74846e-07L20 4L16 8L16 5.01C12.32 5.11 11.25 6.29 10.12 7.55C9.68 8.05 9.2 8.56 8.57 9C9.06 9.34 9.45 9.73 9.81 10.13L8.4 11.54C7.55 10.61 6.86 10 5 10L3.49691e-07 10L4.37114e-07 8L5 8C7.02 8 7.66 7.29 8.63 6.21C9.87 4.83 11.41 3.13 16 3.01L16 -1.74846e-07V-1.74846e-07Z" fill="currentColor"/>
</svg>
