<svg width="32" height="33" viewBox="0 0 32 33" fill="none" xmlns="http://www.w3.org/2000/svg">
  <path fill-rule="evenodd" clip-rule="evenodd" d="M0.178652 0H31.8213C31.9203 0 32 0.0796758 32 0.178645V31.8736C32 31.9726 31.9203 32.0522 31.8213 32.0522H0.178652C0.0796824 32.0522 0 31.9726 0 31.8736V0.178645C0 0.0796758 0.0796824 0 0.178652 0Z" fill="#EF402B"/>
  <path d="M10.7149 5.28217C10.6531 5.37897 10.5738 5.45426 10.4769 5.50804C10.3801 5.56182 10.2739 5.58871 10.1583 5.58871C10.0561 5.58871 9.95662 5.56451 9.85982 5.51611C9.7657 5.46771 9.69175 5.40855 9.63797 5.33863C9.58688 5.26603 9.55194 5.19343 9.53311 5.12083C9.51698 5.04822 9.50891 4.96621 9.50891 4.87478V3.52356C9.50891 3.45633 9.51562 3.38911 9.52906 3.32188C9.54789 3.25466 9.59763 3.15919 9.6783 3.0355C9.76166 2.90374 9.92569 2.83786 10.1704 2.83786C10.278 2.83786 10.3788 2.86341 10.4729 2.9145C10.567 2.96559 10.6383 3.02878 10.6867 3.10407C10.7378 3.17668 10.77 3.24659 10.7835 3.31381C10.7996 3.37835 10.8077 3.44827 10.8077 3.52356V3.63649H10.4245V3.52356C10.4245 3.50205 10.4232 3.48322 10.4205 3.46709C10.4205 3.44826 10.4191 3.43213 10.4164 3.41869C10.4137 3.39448 10.3936 3.35549 10.3559 3.30171C10.3183 3.24793 10.2551 3.22104 10.1663 3.22104C10.0615 3.22104 9.99157 3.24928 9.95661 3.30575C9.92434 3.36222 9.90551 3.4039 9.90014 3.43079C9.89476 3.45768 9.89208 3.4886 9.89208 3.52356V4.87478C9.89208 4.90167 9.89208 4.92453 9.89208 4.94335C9.89208 4.96217 9.89342 4.97831 9.89611 4.99175C9.89881 5.01327 9.91898 5.05494 9.95662 5.11679C9.99158 5.17326 10.0601 5.20149 10.1623 5.20149C10.2672 5.20149 10.3344 5.17326 10.364 5.11679C10.3801 5.08721 10.3922 5.06301 10.4003 5.04419C10.4084 5.02268 10.4137 5.00386 10.4164 4.98772C10.4218 4.97159 10.4245 4.95545 10.4245 4.93932C10.4245 4.92049 10.4245 4.89898 10.4245 4.87478V4.40286H10.1139V4.06405H10.8077V4.87478C10.8077 4.93125 10.8063 4.97965 10.8036 5.01999C10.8009 5.05763 10.7956 5.09125 10.7875 5.12083C10.7794 5.15041 10.7687 5.17864 10.7552 5.20553C10.7445 5.22973 10.731 5.25527 10.7149 5.28217H10.7149Z" fill="white"/>
  <path d="M12.3492 5.17729V5.56451H11.1915V2.86206H12.3492V3.21701H11.5747V4.01564H12.2523V4.38269H11.5747V5.17729H12.3492Z" fill="white"/>
  <path d="M13.4784 5.56451L12.8774 3.92287V5.56451H12.4902V2.86206H12.8573L13.4542 4.49966V2.86206H13.8415V5.56451H13.4784Z" fill="white"/>
  <path d="M14.7232 2.86206C14.898 2.86206 15.0472 2.92391 15.1709 3.0476C15.2973 3.16861 15.3605 3.3165 15.3605 3.49129V4.89495C15.3605 5.09394 15.3 5.25528 15.179 5.37897C15.058 5.50266 14.902 5.56451 14.7111 5.56451H14.1101V2.86206H14.7232ZM14.9773 4.89495V3.49129C14.9773 3.416 14.9491 3.3528 14.8926 3.30171C14.8388 3.25062 14.7729 3.22508 14.695 3.22508H14.4933V5.20553H14.6829C14.8792 5.20553 14.9773 5.102 14.9773 4.89495Z" fill="white"/>
  <path d="M16.7842 5.17729V5.56451H15.6266V2.86206H16.7842V3.21701H16.0098V4.01564H16.6874V4.38269H16.0098V5.17729H16.7842Z" fill="white"/>
  <path d="M16.9824 5.56451V2.86206H17.66C17.8375 2.86206 17.9868 2.92391 18.1078 3.0476C18.2315 3.17129 18.2933 3.32322 18.2933 3.50339V3.75347C18.2933 4.00354 18.1871 4.19446 17.9747 4.32622L18.3861 5.56451H17.9747L17.6116 4.40689H17.3696V5.56451H16.9824ZM17.8416 3.97934C17.8658 3.94976 17.8819 3.91615 17.89 3.87851C17.9007 3.84086 17.9061 3.79918 17.9061 3.75347V3.50339C17.9061 3.42003 17.8832 3.3528 17.8375 3.30171C17.7918 3.24793 17.7273 3.22104 17.6439 3.22104H17.3697V4.06405H17.6399C17.7206 4.06405 17.7878 4.03581 17.8416 3.97934Z" fill="white"/>
  <path d="M10.6947 8.90403V9.29124H9.53711V6.58879H10.6947V6.94374H9.9203V7.74238H10.5979V8.10943H9.9203V8.90403H10.6947Z" fill="white"/>
  <path d="M10.9915 9.0815C10.9297 9.01428 10.888 8.94302 10.8665 8.86773C10.8477 8.79244 10.8383 8.70369 10.8383 8.60151V7.25836C10.8383 7.06206 10.9001 6.89803 11.0238 6.76627C11.1502 6.63182 11.3088 6.56459 11.4998 6.56459C11.6719 6.56459 11.8238 6.62778 11.9555 6.75417C12.0846 6.88055 12.1491 7.03114 12.1491 7.20592V8.60151C12.1491 8.67949 12.1451 8.73731 12.137 8.77495C12.1317 8.8126 12.1209 8.85025 12.1048 8.88789L12.3589 9.10167L12.1451 9.35981L11.9031 9.1662C11.7848 9.26301 11.6423 9.31141 11.4756 9.31141C11.3868 9.31141 11.2981 9.2899 11.2093 9.24688C11.1233 9.20385 11.0507 9.14873 10.9915 9.0815ZM11.6329 8.50068L11.7619 8.60151V7.25836C11.7619 7.17231 11.7377 7.0997 11.6893 7.04054C11.6409 6.9787 11.5737 6.94778 11.4876 6.94778C11.4339 6.94778 11.3868 6.96122 11.3465 6.98811C11.3061 7.015 11.2766 7.04727 11.2577 7.08492C11.2416 7.12256 11.2322 7.15214 11.2295 7.17366C11.2268 7.19248 11.2255 7.22071 11.2255 7.25836V8.60151V8.62975C11.2255 8.70773 11.247 8.77765 11.29 8.83949C11.3357 8.89865 11.4056 8.92957 11.4997 8.93226C11.5266 8.93226 11.5589 8.92419 11.5965 8.90806L11.4191 8.75882L11.6329 8.50068Z" fill="white"/>
  <path d="M13.6906 9.0089C13.6314 9.10032 13.5548 9.17427 13.4607 9.23074C13.3693 9.28721 13.2671 9.31545 13.1541 9.31545C13.0977 9.31545 13.0412 9.30738 12.9847 9.29124C12.931 9.27511 12.8799 9.25494 12.8315 9.23074C12.7831 9.20385 12.74 9.17427 12.7024 9.142C12.6647 9.10705 12.6365 9.07075 12.6177 9.0331C12.5774 8.95781 12.5505 8.89193 12.537 8.83546C12.5263 8.77899 12.5209 8.71848 12.5209 8.65395V6.58879H12.9081V8.65395C12.9081 8.67277 12.9081 8.69025 12.9081 8.70639C12.9108 8.71983 12.9135 8.73327 12.9161 8.74672C12.9188 8.76823 12.939 8.80588 12.9767 8.85966C13.0116 8.90806 13.0721 8.93226 13.1582 8.93226C13.2361 8.93226 13.294 8.90403 13.3316 8.84756C13.3719 8.7884 13.3921 8.72386 13.3921 8.65395V6.58879H13.7793V8.65395C13.7793 8.71848 13.7726 8.78033 13.7592 8.83949C13.7457 8.89865 13.7229 8.95512 13.6906 9.0089H13.6906Z" fill="white"/>
  <path d="M13.863 9.29124L14.4681 6.58879H14.8029L15.4079 9.29124H14.9924L14.8835 8.71042H14.3834L14.2704 9.29124H13.863ZM14.4519 8.35144H14.8149L14.6334 7.36726L14.4519 8.35144Z" fill="white"/>
  <path d="M16.7626 9.29124H15.609V6.58879H15.9962V8.90403H16.7626V9.29124Z" fill="white"/>
  <path d="M16.8712 9.29124V6.58879H17.2544V9.29124H16.8712Z" fill="white"/>
  <path d="M17.9243 9.29124V6.94778H17.4685V6.58879H18.7713V6.94778H18.3075V9.29124H17.9243Z" fill="white"/>
  <path d="M19.3381 9.29124V8.12959L18.8137 6.58879H19.2171L19.5317 7.64557L19.8503 6.58879H20.2577L19.7212 8.12959V9.29124H19.3381Z" fill="white"/>
  <path d="M5.2204 5.00838C5.38126 5.00838 5.54212 5.05342 5.70298 5.1435C5.87027 5.23358 5.99253 5.33975 6.06974 5.46201C6.15339 5.58426 6.20808 5.71294 6.23382 5.84807C6.26599 5.97676 6.28207 6.1151 6.28207 6.26309V7.71083C6.28207 7.85239 6.27564 7.97464 6.26278 8.07759C6.25634 8.17411 6.22095 8.30923 6.15661 8.48296C6.09227 8.65669 5.93463 8.82398 5.68368 8.98484C5.44561 9.1457 5.1818 9.22613 4.89225 9.22613C4.67348 9.22613 4.46437 9.17466 4.2649 9.07171C4.06543 8.96232 3.911 8.83042 3.80162 8.67599C3.69223 8.52157 3.61823 8.36392 3.57963 8.20306C3.54102 8.0422 3.52173 7.87812 3.52173 7.71083V7.54675H4.46758V7.90386C4.46758 7.93603 4.47723 7.97464 4.49653 8.01968C4.51583 8.06472 4.54158 8.10976 4.57375 8.1548C4.60592 8.19341 4.65096 8.2288 4.70887 8.26097C4.76678 8.28671 4.83434 8.29958 4.91155 8.29958C5.08528 8.29958 5.2011 8.25132 5.25901 8.1548C5.31692 8.05829 5.34909 7.98429 5.35553 7.93281C5.36197 7.8749 5.36519 7.81378 5.36519 7.74943V6.38856C5.36519 6.35639 5.36519 6.32743 5.36519 6.3017C5.36519 6.26952 5.36197 6.23735 5.35553 6.20518C5.35553 6.173 5.34588 6.1344 5.32658 6.08936C5.31371 6.04432 5.28797 6.00249 5.24936 5.96389C5.21719 5.91885 5.17215 5.88346 5.11424 5.85772C5.06277 5.82555 4.99842 5.80946 4.9212 5.80946C4.696 5.80946 4.5448 5.92528 4.46758 6.15692H3.63754V2.70164H6.28209V3.56064H4.46758V5.29793C4.68635 5.1049 4.9373 5.00838 5.22041 5.00838H5.2204Z" fill="white"/>
  <path fill-rule="evenodd" clip-rule="evenodd" d="M13.5627 17.8585V19.1297H18.3992V17.8585H13.5627ZM13.5627 19.8303V21.1614H18.3992V19.8303H13.5627ZM19.2829 12.2122V13.5943H20.9272L19.1757 15.3462C18.2586 14.6241 17.1258 14.2305 15.9586 14.2282C14.575 14.2282 13.2481 14.7779 12.2698 15.7562C11.2915 16.7345 10.7418 18.0614 10.7418 19.445C10.7433 20.7098 11.2043 21.9309 12.039 22.8813C12.8736 23.8316 14.0251 24.4463 15.2791 24.6111V26.1418H13.6349V27.6788H15.2791V29.1804H16.8043V27.6788H18.4367V26.1418H16.8043V24.5866C18.0239 24.3862 19.1327 23.7594 19.9332 22.8177C20.7337 21.8761 21.1739 20.6809 21.1753 19.445C21.173 18.3711 20.8393 17.324 20.2198 16.4468L21.9523 14.7144V16.2278H23.3699V12.2122H19.2829ZM15.9586 15.6517C16.9646 15.6518 17.9294 16.0514 18.6407 16.7628C19.3521 17.4742 19.7517 18.4389 19.7518 19.445C19.7519 20.451 19.3522 21.4159 18.6409 22.1274C17.9295 22.8388 16.9647 23.2386 15.9586 23.2386C15.4604 23.2386 14.967 23.1405 14.5068 22.9499C14.0465 22.7593 13.6283 22.4798 13.276 22.1275C12.9237 21.7753 12.6443 21.357 12.4536 20.8968C12.263 20.4365 12.1649 19.9432 12.1649 19.445C12.165 18.4389 12.5647 17.474 13.2761 16.7626C13.9876 16.0513 14.9525 15.6517 15.9586 15.6517Z" fill="white"/>
</svg>
