<svg width="32" height="33" viewBox="0 0 32 33" fill="none" xmlns="http://www.w3.org/2000/svg">
  <path fill-rule="evenodd" clip-rule="evenodd" d="M0.178646 0H31.8214C31.9203 0 32 0.0796758 32 0.178645V31.8736C32 31.9726 31.9203 32.0523 31.8214 32.0523H0.178646C0.0796762 32.0523 0 31.9726 0 31.8736V0.178645C0 0.0796758 0.0796762 0 0.178646 0Z" fill="#EB1C2D"/>
  <path d="M10.1233 5.56451L9.52229 3.92287V5.56451H9.13507V2.86206H9.50212L10.0991 4.49966V2.86206H10.4863V5.56451H10.1233Z" fill="white"/>
  <path d="M10.9035 3.11617C10.9653 3.03013 11.0433 2.9629 11.1374 2.9145C11.2342 2.86341 11.3337 2.83786 11.4359 2.83786C11.5354 2.83786 11.6282 2.85803 11.7142 2.89836C11.8029 2.9387 11.8769 2.99382 11.936 3.06374C11.9952 3.13365 12.0355 3.20625 12.0571 3.28155C12.0786 3.35415 12.0893 3.43347 12.0893 3.51952V4.89495C12.0893 4.97562 12.0813 5.04688 12.0651 5.10873C12.0517 5.17057 12.0194 5.23914 11.9683 5.31443C11.9199 5.38973 11.8487 5.45426 11.7545 5.50804C11.6631 5.56182 11.5609 5.58871 11.448 5.58871C11.3835 5.58871 11.3216 5.58065 11.2625 5.56451C11.2033 5.54569 11.1482 5.52149 11.0971 5.49191C11.046 5.46233 11.0003 5.42872 10.9599 5.39107C10.9223 5.35343 10.8927 5.31443 10.8712 5.2741C10.8309 5.19074 10.8067 5.12352 10.7986 5.07243C10.7905 5.02133 10.7865 4.96217 10.7865 4.89495V3.51952C10.7865 3.43885 10.7946 3.36759 10.8107 3.30575C10.8295 3.24121 10.8604 3.17802 10.9035 3.11617ZM11.6537 3.32995C11.6026 3.25465 11.5327 3.21701 11.444 3.21701C11.3982 3.21701 11.3525 3.23045 11.3068 3.25734C11.2638 3.28155 11.2329 3.30978 11.214 3.34205C11.1979 3.37432 11.1872 3.40658 11.1818 3.43885C11.1764 3.47112 11.1737 3.49801 11.1737 3.51952V4.89495C11.1737 4.90839 11.1737 4.92318 11.1737 4.93932C11.1737 4.95276 11.1751 4.96755 11.1777 4.98369C11.1804 5.01058 11.202 5.05494 11.2423 5.11679C11.2826 5.17326 11.3498 5.20149 11.444 5.20149C11.4924 5.20149 11.5354 5.19074 11.573 5.16923C11.6134 5.14503 11.6416 5.11814 11.6577 5.08856C11.6766 5.05629 11.6887 5.02671 11.694 4.99982C11.6994 4.97293 11.7021 4.93797 11.7021 4.89495V3.51952C11.7021 3.46574 11.6994 3.4281 11.694 3.40659C11.6913 3.38507 11.6779 3.35953 11.6537 3.32995H11.6537Z" fill="white"/>
  <path d="M9.13507 9.29126V6.58881H9.76833H9.7764C9.85707 6.58881 9.9337 6.60629 10.0063 6.64124C10.0789 6.67351 10.1434 6.71653 10.1999 6.77031C10.2564 6.82409 10.3008 6.88594 10.333 6.95586C10.368 7.02308 10.3868 7.093 10.3895 7.1656V7.55685V7.59719C10.3895 7.68592 10.372 7.76928 10.3371 7.84726C10.3048 7.92255 10.2604 7.98844 10.2039 8.04491C10.1475 8.10137 10.0803 8.14574 10.0023 8.17801C9.92698 8.21028 9.84631 8.22641 9.76026 8.22641H9.72396H9.52229V9.29126H9.13507ZM9.95387 7.78273C9.97807 7.75853 9.99286 7.73298 9.99824 7.70609C10.0063 7.6792 10.0103 7.64559 10.0103 7.60525V7.20594C10.0103 7.13065 9.98749 7.0688 9.94177 7.02039C9.89606 6.9693 9.83421 6.94376 9.75623 6.94376H9.52229V7.85936H9.72396C9.77774 7.85936 9.82077 7.85533 9.85304 7.84726C9.88799 7.8365 9.92161 7.81499 9.95387 7.78273Z" fill="white"/>
  <path d="M10.8438 6.84292C10.9056 6.75688 10.9836 6.68965 11.0777 6.64124C11.1745 6.59015 11.274 6.56461 11.3762 6.56461C11.4757 6.56461 11.5685 6.58477 11.6545 6.62511C11.7433 6.66544 11.8172 6.72057 11.8764 6.79049C11.9355 6.8604 11.9759 6.933 11.9974 7.00829C12.0189 7.0809 12.0296 7.16023 12.0296 7.24627V8.6217C12.0296 8.70237 12.0216 8.77362 12.0054 8.83547C11.992 8.89732 11.9597 8.96589 11.9086 9.04119C11.8602 9.11648 11.789 9.18101 11.6948 9.23479C11.6034 9.28857 11.5012 9.31546 11.3883 9.31546C11.3238 9.31546 11.2619 9.3074 11.2028 9.29126C11.1436 9.27244 11.0885 9.24824 11.0374 9.21866C10.9863 9.18908 10.9406 9.15547 10.9002 9.11782C10.8626 9.08017 10.833 9.04118 10.8115 9.00085C10.7712 8.91749 10.747 8.85026 10.7389 8.79917C10.7308 8.74808 10.7268 8.68893 10.7268 8.6217V7.24627C10.7268 7.1656 10.7349 7.09434 10.751 7.0325C10.7698 6.96796 10.8008 6.90477 10.8438 6.84292ZM11.594 7.0567C11.5429 6.9814 11.473 6.94376 11.3843 6.94376C11.3386 6.94376 11.2928 6.9572 11.2471 6.98409C11.2041 7.00829 11.1732 7.03653 11.1544 7.0688C11.1382 7.10106 11.1275 7.13333 11.1221 7.1656C11.1167 7.19787 11.114 7.22476 11.114 7.24627V8.6217C11.114 8.63514 11.114 8.64993 11.114 8.66607C11.114 8.67951 11.1154 8.6943 11.1181 8.71044C11.1207 8.73733 11.1423 8.7817 11.1826 8.84354C11.2229 8.90001 11.2902 8.92825 11.3843 8.92825C11.4327 8.92825 11.4757 8.91749 11.5133 8.89597C11.5537 8.87177 11.5819 8.84489 11.598 8.81531C11.6169 8.78304 11.629 8.75346 11.6343 8.72657C11.6397 8.69968 11.6424 8.66472 11.6424 8.6217V7.24627C11.6424 7.19249 11.6397 7.15485 11.6343 7.13333C11.6317 7.11182 11.6182 7.08627 11.594 7.0567Z" fill="white"/>
  <path d="M12.7843 9.29126L12.2318 6.58881H12.6351L12.9497 8.46439L13.2684 6.58881H13.6798L13.1151 9.29126H12.7843Z" fill="white"/>
  <path d="M15.0717 8.90405V9.29126H13.9141V6.58881H15.0717V6.94376H14.2973V7.74239H14.9749V8.10944H14.2973V8.90405H15.0717Z" fill="white"/>
  <path d="M15.2546 9.29126V6.58881H15.9323C16.1097 6.58881 16.259 6.65065 16.38 6.77435C16.5037 6.89804 16.5655 7.04998 16.5655 7.23014V7.48021C16.5655 7.73029 16.4593 7.92121 16.2469 8.05297L16.6583 9.29126H16.2469L15.8839 8.13364H15.6419V9.29126H15.2546ZM16.1138 7.70609C16.138 7.67651 16.1541 7.6429 16.1622 7.60525C16.1729 7.56761 16.1783 7.52592 16.1783 7.48021V7.23014C16.1783 7.14678 16.1555 7.07955 16.1097 7.02846C16.064 6.97468 15.9995 6.94779 15.9161 6.94779H15.6419V7.7908H15.9121C15.9928 7.7908 16.06 7.76256 16.1138 7.70609H16.1138Z" fill="white"/>
  <path d="M17.1172 9.29126V6.94779H16.6614V6.58881H17.9643V6.94779H17.5004V9.29126H17.1172Z" fill="white"/>
  <path d="M18.531 9.29126V8.12961L18.0067 6.58881H18.41L18.7246 7.64559L19.0433 6.58881H19.4507L18.9142 8.12961V9.29126H18.531Z" fill="white"/>
  <path d="M4.58634 9.16822V3.66681L3.65979 4.36172V3.37726L4.58634 2.70164H5.50325V9.16822H4.58634Z" fill="white"/>
  <path fill-rule="evenodd" clip-rule="evenodd" d="M6.9108 15.3207C6.9108 15.5567 6.81704 15.783 6.65015 15.9499C6.48326 16.1168 6.25691 16.2106 6.02089 16.2106C5.78487 16.2106 5.55852 16.1168 5.39163 15.9499C5.22474 15.783 5.13098 15.5567 5.13098 15.3207C5.13098 15.2038 5.154 15.0881 5.19872 14.9801C5.24344 14.8722 5.30899 14.7741 5.39163 14.6914C5.47427 14.6088 5.57237 14.5432 5.68034 14.4985C5.78831 14.4538 5.90403 14.4308 6.02089 14.4308C6.13775 14.4308 6.25348 14.4538 6.36144 14.4985C6.46941 14.5432 6.56752 14.6088 6.65015 14.6914C6.73279 14.7741 6.79834 14.8722 6.84306 14.9801C6.88778 15.0881 6.9108 15.2038 6.9108 15.3207Z" fill="white"/>
  <path fill-rule="evenodd" clip-rule="evenodd" d="M14.4468 15.8134C14.4468 16.0494 14.353 16.2757 14.1862 16.4426C14.0193 16.6095 13.7929 16.7033 13.5569 16.7033C13.3209 16.7033 13.0945 16.6095 12.9276 16.4426C12.7608 16.2757 12.667 16.0494 12.667 15.8134C12.667 15.5773 12.7607 15.351 12.9276 15.1841C13.0945 15.0172 13.3209 14.9234 13.5569 14.9234C13.6738 14.9234 13.7895 14.9465 13.8975 14.9912C14.0054 15.0359 14.1035 15.1015 14.1862 15.1841C14.2688 15.2667 14.3343 15.3648 14.3791 15.4728C14.4238 15.5808 14.4468 15.6965 14.4468 15.8134Z" fill="white"/>
  <path fill-rule="evenodd" clip-rule="evenodd" d="M19.4375 15.8134C19.4375 16.0494 19.3437 16.2757 19.1768 16.4426C19.0099 16.6095 18.7836 16.7033 18.5476 16.7033C18.3115 16.7033 18.0852 16.6095 17.9183 16.4426C17.7514 16.2757 17.6577 16.0494 17.6577 15.8134C17.6577 15.5773 17.7514 15.351 17.9183 15.1841C18.0852 15.0172 18.3115 14.9234 18.5476 14.9234C18.6644 14.9234 18.7801 14.9465 18.8881 14.9912C18.9961 15.0359 19.0942 15.1015 19.1768 15.1841C19.2595 15.2667 19.325 15.3648 19.3697 15.4728C19.4145 15.5808 19.4375 15.6965 19.4375 15.8134Z" fill="white"/>
  <path fill-rule="evenodd" clip-rule="evenodd" d="M26.4272 15.3412C26.4272 15.5772 26.3334 15.8036 26.1665 15.9705C25.9996 16.1374 25.7733 16.2311 25.5372 16.2311C25.3012 16.2311 25.0749 16.1374 24.908 15.9705C24.7411 15.8036 24.6473 15.5772 24.6473 15.3412C24.6473 15.2244 24.6704 15.1086 24.7151 15.0007C24.7598 14.8927 24.8254 14.7946 24.908 14.712C24.9906 14.6293 25.0887 14.5638 25.1967 14.5191C25.3047 14.4743 25.4204 14.4513 25.5372 14.4513C25.7733 14.4513 25.9996 14.5451 26.1665 14.712C26.3334 14.8789 26.4272 15.1052 26.4272 15.3412Z" fill="white"/>
  <path fill-rule="evenodd" clip-rule="evenodd" d="M10.3061 19.7976C10.3061 19.9864 10.2311 20.1675 10.0976 20.301C9.96409 20.4345 9.783 20.5095 9.59419 20.5095C9.40538 20.5095 9.22429 20.4345 9.09078 20.301C8.95727 20.1675 8.88226 19.9864 8.88226 19.7976C8.88226 19.7041 8.90068 19.6115 8.93645 19.5252C8.97223 19.4388 9.02467 19.3603 9.09078 19.2942C9.15689 19.2281 9.23537 19.1756 9.32175 19.1399C9.40812 19.1041 9.5007 19.0857 9.59419 19.0857C9.68768 19.0857 9.78026 19.1041 9.86663 19.1399C9.95301 19.1756 10.0315 19.2281 10.0976 19.2942C10.1637 19.3603 10.2161 19.4388 10.2519 19.5252C10.2877 19.6115 10.3061 19.7041 10.3061 19.7976Z" fill="white"/>
  <path fill-rule="evenodd" clip-rule="evenodd" d="M22.9107 19.7976C22.9107 19.8911 22.8923 19.9837 22.8565 20.0701C22.8207 20.1564 22.7683 20.2349 22.7022 20.301C22.636 20.3671 22.5576 20.4196 22.4712 20.4553C22.3848 20.4911 22.2922 20.5095 22.1987 20.5095C22.0099 20.5095 21.8288 20.4345 21.6953 20.301C21.5618 20.1675 21.4868 19.9864 21.4868 19.7976C21.4868 19.7041 21.5052 19.6115 21.541 19.5252C21.5768 19.4388 21.6292 19.3603 21.6953 19.2942C21.7614 19.2281 21.8399 19.1757 21.9263 19.1399C22.0127 19.1041 22.1053 19.0857 22.1987 19.0857C22.2922 19.0857 22.3848 19.1041 22.4712 19.1399C22.5576 19.1756 22.636 19.2281 22.7022 19.2942C22.7683 19.3603 22.8207 19.4388 22.8565 19.5252C22.8923 19.6115 22.9107 19.7041 22.9107 19.7976Z" fill="white"/>
  <path fill-rule="evenodd" clip-rule="evenodd" d="M25.3593 20.7765V24.4183C25.3593 25.0414 24.442 25.0442 24.442 24.4183V18.0383C24.442 17.8076 24.1271 17.7886 24.1271 18.0383V20.1878C24.1271 20.6963 23.4562 20.7176 23.4562 20.1878V17.5728C23.4562 17.0375 23.8614 16.5734 24.4557 16.5734H26.6188C27.2131 16.5734 27.6183 17.0375 27.6183 17.5728V20.1878C27.6183 20.7176 26.9474 20.6963 26.9474 20.1878V18.0383C26.9474 17.7886 26.6325 17.8076 26.6325 18.0383V24.4183C26.6325 25.0442 25.7152 25.0414 25.7152 24.4183V20.7765C25.7152 20.5749 25.3593 20.5681 25.3593 20.7765Z" fill="white"/>
  <path fill-rule="evenodd" clip-rule="evenodd" d="M4.90975 16.5734C4.31544 16.5734 3.91037 17.0375 3.91037 17.5728V20.1877C3.91037 20.3674 3.98776 20.4822 4.08974 20.5376L3.2807 24.5824C3.23325 24.8196 3.55064 24.8715 3.59258 24.6414L4.33663 20.5612C4.46894 20.5204 4.58098 20.3953 4.58098 20.1877V18.0383C4.58098 17.7886 4.89582 17.8076 4.89582 18.0383V24.4182C4.89582 25.0441 5.81332 25.0413 5.81332 24.4182V20.7765C5.81332 20.568 6.16909 20.5749 6.16909 20.7765V24.4182C6.16909 25.0413 7.08659 25.0441 7.08659 24.4182V18.0383C7.08659 17.8076 7.40143 17.7886 7.40143 18.0383V20.1877C7.40143 20.6962 8.07204 20.7175 8.07204 20.1877V17.5728C8.07204 17.0375 7.66698 16.5734 7.07267 16.5734H4.90975Z" fill="white"/>
  <path fill-rule="evenodd" clip-rule="evenodd" d="M13.3993 21.8647V24.4429C13.3993 25.0814 12.5083 25.0709 12.5083 24.4429V21.8647H11.6544L12.6222 18.4299C12.6659 18.2747 12.4109 18.1596 12.347 18.3635L11.7587 20.2422C11.6196 20.6864 11.0232 20.5288 11.18 20.0145L11.9201 17.5854C12.0046 17.308 12.2875 17.092 12.5937 17.092H14.4825C14.7887 17.092 15.0716 17.308 15.1561 17.5854L15.8962 20.0145C16.0529 20.5288 15.4565 20.6864 15.3174 20.2422L14.7292 18.3635C14.6653 18.1596 14.4102 18.2747 14.454 18.4299L15.4218 21.8647H14.5678V24.4429C14.5678 25.0709 13.6769 25.0814 13.6769 24.4429V21.8647H13.3993Z" fill="white"/>
  <path fill-rule="evenodd" clip-rule="evenodd" d="M18.4179 21.8647V24.4429C18.4179 25.0814 17.5269 25.0709 17.5269 24.4429V21.8647H16.6729L17.6407 18.4299C17.6845 18.2747 17.4294 18.1596 17.3656 18.3635L16.7773 20.2422C16.6382 20.6864 16.0418 20.5288 16.1985 20.0145L16.9386 17.5854C17.0231 17.308 17.306 17.092 17.6123 17.092H19.501C19.8073 17.092 20.0902 17.308 20.1747 17.5854L20.9148 20.0145C21.0715 20.5288 20.4751 20.6864 20.336 20.2422L19.7477 18.3635C19.6839 18.1596 19.4288 18.2747 19.4725 18.4299L20.4404 21.8647H19.5864V24.4429C19.5864 25.0709 18.6954 25.0814 18.6954 24.4429V21.8647H18.4179Z" fill="white"/>
  <path fill-rule="evenodd" clip-rule="evenodd" d="M22.3699 23.4303V24.5025C22.3699 24.9578 22.9962 25.0147 22.9962 24.5025V21.9453C22.9962 21.8098 23.1414 21.8058 23.1907 21.9359L23.5187 22.8013C23.6304 23.096 23.9739 22.9705 23.8508 22.6684L23.2002 21.0724C23.1437 20.9339 23.0059 20.821 22.8206 20.821H21.6029C21.4177 20.821 21.2798 20.9339 21.2234 21.0724L20.5728 22.6684C20.4496 22.9705 20.7932 23.096 20.9049 22.8013L21.2329 21.9359C21.2822 21.8058 21.4274 21.8098 21.4274 21.9453V24.5025C21.4274 25.0147 22.0536 24.9578 22.0536 24.5025V23.4303C22.0536 23.2401 22.3699 23.2266 22.3699 23.4303Z" fill="white"/>
  <path fill-rule="evenodd" clip-rule="evenodd" d="M9.46538 23.4955V24.5908C9.46538 24.9843 8.89244 25.0507 8.89244 24.5908V23.3859H8.49643L8.84188 22.1305C8.90127 21.9147 8.85563 21.6944 8.7492 21.507L8.15097 20.4538C7.97167 20.1381 8.40802 19.9624 8.54698 20.1842L8.98512 20.8835C9.04988 20.9869 9.13023 20.9762 9.22946 20.9762H10.0464C10.1456 20.9762 10.2259 20.9869 10.2907 20.8835L10.7288 20.1842C10.8678 19.9624 11.3042 20.1381 11.1248 20.4538L10.5266 21.507C10.4202 21.6944 10.3746 21.9147 10.4339 22.1305L10.7794 23.3859H10.3834V24.5908C10.3834 25.0507 9.81044 24.9843 9.81044 24.5908V23.4955C9.81044 23.248 9.46538 23.2548 9.46538 23.4955Z" fill="white"/>
</svg>
