<svg width="32" height="33" viewBox="0 0 32 33" fill="none" xmlns="http://www.w3.org/2000/svg">
  <path fill-rule="evenodd" clip-rule="evenodd" d="M0.178645 0.0522461H31.8214C31.9203 0.0522461 32 0.13192 32 0.230891V31.9259C32 32.0248 31.9203 32.1045 31.8214 32.1045H0.178645C0.0796737 32.1045 0 32.0248 0 31.9259V0.230891C0 0.13192 0.0796737 0.0522461 0.178645 0.0522461Z" fill="#8F1838"/>
  <path d="M9.24938 2.87625C9.42417 2.87625 9.57341 2.9381 9.6971 3.06179C9.82349 3.1828 9.88668 3.3307 9.88668 3.50548V4.90914C9.88668 5.10813 9.82617 5.26947 9.70517 5.39316C9.58416 5.51686 9.4282 5.57871 9.23728 5.57871H8.63629V2.87625H9.24938ZM9.50349 4.90914V3.50548C9.50349 3.43019 9.47526 3.367 9.41879 3.3159C9.36501 3.26481 9.29913 3.23927 9.22115 3.23927H9.01947V5.21973H9.20905C9.40534 5.21973 9.50349 5.1162 9.50349 4.90914Z" fill="white"/>
  <path d="M11.3771 5.19149V5.57871H10.2195V2.87625H11.3771V3.2312H10.6027V4.02984H11.2803V4.39689H10.6027V5.19149H11.3771Z" fill="white"/>
  <path d="M12.7921 4.89704C12.7921 4.98309 12.7867 5.05704 12.7759 5.11889C12.7679 5.18073 12.741 5.24796 12.6953 5.32056C12.6711 5.35821 12.6402 5.39451 12.6025 5.42946C12.5675 5.46173 12.5272 5.49131 12.4815 5.5182C12.4385 5.5424 12.3914 5.56257 12.3403 5.57871C12.2892 5.59484 12.2395 5.60291 12.1911 5.60291C12.0701 5.60291 11.9598 5.57736 11.8603 5.52627C11.7635 5.47518 11.6923 5.41064 11.6466 5.33266C11.6008 5.25468 11.5713 5.18208 11.5578 5.11485C11.5471 5.04763 11.5417 4.97503 11.5417 4.89704V3.50548C11.5417 3.43019 11.5484 3.36296 11.5618 3.3038C11.578 3.24196 11.6102 3.17608 11.6586 3.10617C11.7071 3.03625 11.7756 2.97709 11.8644 2.92869C11.9531 2.8776 12.0459 2.85205 12.1427 2.85205C12.3282 2.85205 12.4828 2.9139 12.6065 3.03759C12.7302 3.1586 12.7921 3.31456 12.7921 3.50548V3.65069H12.4089V3.50548C12.4089 3.43019 12.3874 3.367 12.3443 3.3159C12.304 3.26481 12.2435 3.23927 12.1628 3.23927C12.0875 3.23927 12.0284 3.26481 11.9854 3.3159C11.945 3.367 11.9249 3.43019 11.9249 3.50548V5.00191C11.9302 5.04225 11.9491 5.08796 11.9813 5.13905C12.019 5.19283 12.0808 5.21973 12.1669 5.21973C12.2583 5.21973 12.3188 5.19552 12.3484 5.14712C12.378 5.09872 12.3954 5.06376 12.4008 5.04225C12.4062 5.01805 12.4089 4.98578 12.4089 4.94545V4.8083H12.7921L12.7921 4.89704Z" fill="white"/>
  <path d="M14.2095 5.19149V5.57871H13.0519V2.87625H14.2095V3.2312H13.4351V4.02984H14.1127V4.39689H13.4351V5.19149H14.2095Z" fill="white"/>
  <path d="M15.4234 5.57871L14.8224 3.93707V5.57871H14.4352V2.87625H14.8022L15.3992 4.51386V2.87625H15.7864V5.57871H15.4234Z" fill="white"/>
  <path d="M16.3336 5.57871V3.23524H15.8778V2.87625H17.1806V3.23524H16.7168V5.57871H16.3336Z" fill="white"/>
  <path d="M19.0643 5.57871L18.7457 3.93303L18.4351 5.57871H18.0761L17.6849 2.87625H18.0963L18.2899 4.50982L18.6005 2.87625H18.8869L19.2055 4.50982L19.3991 2.87625H19.8065L19.4274 5.57871H19.0643Z" fill="white"/>
  <path d="M20.0517 3.13037C20.1136 3.04432 20.1916 2.97709 20.2857 2.92869C20.3825 2.8776 20.482 2.85205 20.5841 2.85205C20.6836 2.85205 20.7764 2.87222 20.8625 2.91255C20.9512 2.95289 21.0251 3.00802 21.0843 3.07793C21.1435 3.14784 21.1838 3.22045 21.2053 3.29574C21.2268 3.36834 21.2376 3.44767 21.2376 3.53372V4.90914C21.2376 4.98981 21.2295 5.06107 21.2134 5.12292C21.1999 5.18476 21.1677 5.25334 21.1166 5.32863C21.0682 5.40392 20.9969 5.46846 20.9028 5.52224C20.8114 5.57602 20.7092 5.60291 20.5963 5.60291C20.5317 5.60291 20.4699 5.59484 20.4107 5.57871C20.3515 5.55988 20.2964 5.53568 20.2453 5.5061C20.1942 5.47652 20.1485 5.44291 20.1082 5.40526C20.0706 5.36762 20.041 5.32863 20.0195 5.28829C19.9791 5.20493 19.9549 5.13771 19.9469 5.08662C19.9388 5.03552 19.9348 4.97637 19.9348 4.90914V3.53372C19.9348 3.45305 19.9428 3.38179 19.959 3.31994C19.9778 3.2554 20.0087 3.19222 20.0517 3.13037ZM20.802 3.34414C20.7509 3.26885 20.681 3.2312 20.5922 3.2312C20.5465 3.2312 20.5008 3.24465 20.4551 3.27154C20.4121 3.29574 20.3811 3.32397 20.3623 3.35624C20.3462 3.38851 20.3354 3.42078 20.33 3.45305C20.3247 3.48531 20.322 3.51221 20.322 3.53372V4.90914C20.322 4.92258 20.322 4.93737 20.322 4.95351C20.322 4.96695 20.3233 4.98174 20.326 4.99788C20.3287 5.02477 20.3502 5.06914 20.3906 5.13099C20.4309 5.18746 20.4981 5.21569 20.5922 5.21569C20.6406 5.21569 20.6837 5.20493 20.7213 5.18342C20.7616 5.15922 20.7899 5.13233 20.806 5.10275C20.8248 5.07048 20.8369 5.0409 20.8423 5.01401C20.8477 4.98712 20.8504 4.95217 20.8504 4.90914V3.53372C20.8504 3.47994 20.8477 3.44229 20.8423 3.42078C20.8396 3.39927 20.8262 3.37372 20.802 3.34414H20.802Z" fill="white"/>
  <path d="M21.5658 5.57871V2.87625H22.2434C22.4209 2.87625 22.5701 2.9381 22.6911 3.06179C22.8148 3.18549 22.8767 3.33742 22.8767 3.51758V3.76766C22.8767 4.01774 22.7705 4.20865 22.558 4.34041L22.9695 5.57871H22.558L22.195 4.42109H21.953V5.57871H21.5658ZM22.4249 3.99354C22.4491 3.96396 22.4653 3.93034 22.4733 3.8927C22.4841 3.85505 22.4895 3.81338 22.4895 3.76766V3.51758C22.4895 3.43422 22.4666 3.367 22.4209 3.3159C22.3752 3.26212 22.3107 3.23524 22.2273 3.23524H21.953V4.07824H22.2233C22.3039 4.07824 22.3712 4.05001 22.4249 3.99354H22.4249Z" fill="white"/>
  <path d="M24.1288 5.57871L23.6972 4.37269L23.4835 4.772V5.57871H23.1003V2.87625H23.4875V4.11858L24.0643 2.87625H24.4475L23.9191 3.9532L24.5402 5.57871H24.1288Z" fill="white"/>
  <path d="M24.929 5.57871L25.534 2.87625H25.8688L26.4738 5.57871H26.0583L25.9494 4.99788H25.4493L25.3363 5.57871H24.929ZM25.5178 4.6389H25.8809L25.6994 3.65472L25.5178 4.6389Z" fill="white"/>
  <path d="M27.6591 5.57871L27.0581 3.93707V5.57871H26.6709V2.87625H27.0379L27.6349 4.51386V2.87625H28.0221V5.57871H27.6591Z" fill="white"/>
  <path d="M28.9074 2.87625C29.0822 2.87625 29.2314 2.9381 29.3551 3.06179C29.4815 3.1828 29.5447 3.3307 29.5447 3.50548V4.90914C29.5447 5.10813 29.4842 5.26947 29.3632 5.39316C29.2422 5.51686 29.0862 5.57871 28.8953 5.57871H28.2943V2.87625H28.9074ZM29.1615 4.90914V3.50548C29.1615 3.43019 29.1333 3.367 29.0768 3.3159C29.023 3.26481 28.9572 3.23927 28.8792 3.23927H28.6775V5.21973H28.8671C29.0634 5.21973 29.1615 5.1162 29.1615 4.90914Z" fill="white"/>
  <path d="M9.79391 8.91824V9.30545H8.63629V6.603H9.79391V6.95795H9.01947V7.75658H9.6971V8.12363H9.01947V8.91824H9.79391Z" fill="white"/>
  <path d="M11.1922 8.62379C11.1922 8.70984 11.1869 8.78379 11.1761 8.84563C11.168 8.90748 11.1411 8.9747 11.0954 9.04731C11.0712 9.08495 11.0403 9.12125 11.0027 9.15621C10.9677 9.18848 10.9274 9.21806 10.8816 9.24495C10.8386 9.26915 10.7916 9.28932 10.7405 9.30545C10.6894 9.32159 10.6396 9.32965 10.5912 9.32965C10.4702 9.32965 10.36 9.30411 10.2605 9.25301C10.1637 9.20192 10.0924 9.13739 10.0467 9.05941C10.001 8.98143 9.97142 8.90882 9.95798 8.8416C9.94722 8.77437 9.94183 8.70177 9.94183 8.62379V7.23223C9.94183 7.15694 9.94856 7.08971 9.962 7.03056C9.97813 6.96871 10.0104 6.90283 10.0588 6.83291C10.1072 6.763 10.1758 6.70384 10.2645 6.65543C10.3532 6.60434 10.446 6.5788 10.5428 6.5788C10.7284 6.5788 10.883 6.64064 11.0067 6.76434C11.1304 6.88534 11.1922 7.04131 11.1922 7.23223V7.37743H10.809V7.23223C10.809 7.15694 10.7875 7.09375 10.7445 7.04266C10.7042 6.99156 10.6437 6.96602 10.563 6.96602C10.4877 6.96602 10.4285 6.99156 10.3855 7.04266C10.3452 7.09375 10.325 7.15694 10.325 7.23223V8.72866C10.3304 8.76899 10.3492 8.81471 10.3815 8.8658C10.4191 8.91958 10.481 8.94647 10.567 8.94647C10.6584 8.94647 10.719 8.92227 10.7485 8.87386C10.7781 8.82546 10.7956 8.79051 10.801 8.76899C10.8063 8.74479 10.809 8.71253 10.809 8.67219V8.53505H11.1922L11.1922 8.62379Z" fill="white"/>
  <path d="M11.5885 6.85711C11.6504 6.77107 11.7284 6.70384 11.8225 6.65543C11.9193 6.60434 12.0188 6.5788 12.121 6.5788C12.2204 6.5788 12.3132 6.59896 12.3993 6.6393C12.488 6.67963 12.562 6.73476 12.6211 6.80468C12.6803 6.87459 12.7206 6.94719 12.7421 7.02248C12.7636 7.09509 12.7744 7.17442 12.7744 7.26047V8.63589C12.7744 8.71656 12.7663 8.78782 12.7502 8.84966C12.7367 8.91151 12.7045 8.98008 12.6534 9.05537C12.605 9.13066 12.5337 9.1952 12.4396 9.24898C12.3482 9.30276 12.246 9.32965 12.1331 9.32965C12.0685 9.32965 12.0067 9.32159 11.9475 9.30545C11.8884 9.28663 11.8332 9.26243 11.7821 9.23285C11.731 9.20327 11.6853 9.16965 11.645 9.13201C11.6074 9.09436 11.5778 9.05538 11.5563 9.01504C11.5159 8.93168 11.4917 8.86445 11.4837 8.81336C11.4756 8.76227 11.4716 8.70312 11.4716 8.63589V7.26047C11.4716 7.17979 11.4796 7.10853 11.4958 7.04669C11.5146 6.98215 11.5455 6.91896 11.5885 6.85711ZM12.3388 7.07089C12.2877 6.9956 12.2178 6.95795 12.129 6.95795C12.0833 6.95795 12.0376 6.97139 11.9919 6.99828C11.9489 7.02248 11.9179 7.05072 11.8991 7.08299C11.883 7.11526 11.8722 7.14752 11.8668 7.17979C11.8615 7.21206 11.8588 7.23895 11.8588 7.26047V8.63589C11.8588 8.64933 11.8588 8.66412 11.8588 8.68026C11.8588 8.6937 11.8601 8.70849 11.8628 8.72463C11.8655 8.75152 11.887 8.79589 11.9274 8.85773C11.9677 8.9142 12.0349 8.94244 12.129 8.94244C12.1774 8.94244 12.2205 8.93168 12.2581 8.91016C12.2984 8.88596 12.3267 8.85908 12.3428 8.8295C12.3616 8.79723 12.3737 8.76765 12.3791 8.74076C12.3845 8.71387 12.3872 8.67891 12.3872 8.63589V7.26047C12.3872 7.20668 12.3845 7.16904 12.3791 7.14753C12.3764 7.12601 12.363 7.10047 12.3388 7.07089H12.3388Z" fill="white"/>
  <path d="M14.0719 9.30545L13.4709 7.66381V9.30545H13.0837V6.603H13.4507L14.0477 8.2406V6.603H14.4349V9.30545H14.0719Z" fill="white"/>
  <path d="M14.7882 6.85711C14.8501 6.77107 14.9281 6.70384 15.0222 6.65543C15.119 6.60434 15.2185 6.5788 15.3207 6.5788C15.4202 6.5788 15.5129 6.59896 15.599 6.6393C15.6877 6.67963 15.7617 6.73476 15.8208 6.80468C15.88 6.87459 15.9203 6.94719 15.9418 7.02248C15.9633 7.09509 15.9741 7.17442 15.9741 7.26047V8.63589C15.9741 8.71656 15.966 8.78782 15.9499 8.84966C15.9364 8.91151 15.9042 8.98008 15.8531 9.05537C15.8047 9.13066 15.7334 9.1952 15.6393 9.24898C15.5479 9.30276 15.4457 9.32965 15.3328 9.32965C15.2682 9.32965 15.2064 9.32159 15.1472 9.30545C15.0881 9.28663 15.0329 9.26243 14.9818 9.23285C14.9308 9.20327 14.885 9.16965 14.8447 9.13201C14.8071 9.09436 14.7775 9.05538 14.756 9.01504C14.7156 8.93168 14.6914 8.86445 14.6834 8.81336C14.6753 8.76227 14.6713 8.70312 14.6713 8.63589V7.26047C14.6713 7.17979 14.6793 7.10853 14.6955 7.04669C14.7143 6.98215 14.7452 6.91896 14.7882 6.85711ZM15.5385 7.07089C15.4874 6.9956 15.4175 6.95795 15.3287 6.95795C15.283 6.95795 15.2373 6.97139 15.1916 6.99828C15.1486 7.02248 15.1176 7.05072 15.0988 7.08299C15.0827 7.11526 15.0719 7.14752 15.0666 7.17979C15.0612 7.21206 15.0585 7.23895 15.0585 7.26047V8.63589C15.0585 8.64933 15.0585 8.66412 15.0585 8.68026C15.0585 8.6937 15.0598 8.70849 15.0625 8.72463C15.0652 8.75152 15.0867 8.79589 15.1271 8.85773C15.1674 8.9142 15.2346 8.94244 15.3287 8.94244C15.3771 8.94244 15.4202 8.93168 15.4578 8.91016C15.4982 8.88596 15.5264 8.85908 15.5425 8.8295C15.5613 8.79723 15.5734 8.76765 15.5788 8.74076C15.5842 8.71387 15.5869 8.67891 15.5869 8.63589V7.26047C15.5869 7.20668 15.5842 7.16904 15.5788 7.14753C15.5761 7.12601 15.5627 7.10047 15.5385 7.07089H15.5385Z" fill="white"/>
  <path d="M17.6085 9.30545V7.65978L17.2213 8.81336H17.0277L16.6445 7.65978V9.30545H16.2573V6.603H16.6203L17.1326 8.04296L17.6368 6.603H17.9917V9.30545H17.6085Z" fill="white"/>
  <path d="M18.2252 9.30545V6.603H18.6084V9.30545H18.2252Z" fill="white"/>
  <path d="M20.2027 8.62379C20.2027 8.70984 20.1974 8.78379 20.1866 8.84563C20.1785 8.90748 20.1516 8.9747 20.1059 9.04731C20.0817 9.08495 20.0508 9.12125 20.0132 9.15621C19.9782 9.18848 19.9379 9.21806 19.8921 9.24495C19.8491 9.26915 19.8021 9.28932 19.751 9.30545C19.6999 9.32159 19.6501 9.32965 19.6017 9.32965C19.4807 9.32965 19.3705 9.30411 19.271 9.25301C19.1742 9.20192 19.1029 9.13739 19.0572 9.05941C19.0115 8.98143 18.9819 8.90882 18.9685 8.8416C18.9577 8.77437 18.9523 8.70177 18.9523 8.62379V7.23223C18.9523 7.15694 18.9591 7.08971 18.9725 7.03056C18.9886 6.96871 19.0209 6.90283 19.0693 6.83291C19.1177 6.763 19.1863 6.70384 19.275 6.65543C19.3637 6.60434 19.4565 6.5788 19.5533 6.5788C19.7389 6.5788 19.8935 6.64064 20.0172 6.76434C20.1409 6.88534 20.2027 7.04131 20.2027 7.23223V7.37743H19.8195V7.23223C19.8195 7.15694 19.798 7.09375 19.755 7.04266C19.7147 6.99156 19.6542 6.96602 19.5735 6.96602C19.4982 6.96602 19.439 6.99156 19.396 7.04266C19.3557 7.09375 19.3355 7.15694 19.3355 7.23223V8.72866C19.3409 8.76899 19.3597 8.81471 19.392 8.8658C19.4296 8.91958 19.4915 8.94647 19.5775 8.94647C19.6689 8.94647 19.7294 8.92227 19.759 8.87386C19.7886 8.82546 19.8061 8.79051 19.8115 8.76899C19.8168 8.74479 19.8195 8.71253 19.8195 8.67219V8.53505H20.2027L20.2027 8.62379Z" fill="white"/>
  <path d="M22.1176 9.0231C22.0558 9.11991 21.9765 9.1952 21.8797 9.24898C21.7829 9.30276 21.6766 9.32965 21.561 9.32965C21.4588 9.32965 21.3593 9.30545 21.2625 9.25705C21.1684 9.20865 21.0945 9.14949 21.0407 9.07957C20.9896 9.00697 20.9546 8.93437 20.9358 8.86176C20.9197 8.78916 20.9116 8.70715 20.9116 8.61572V7.26449C20.9116 7.19727 20.9183 7.13005 20.9318 7.06282C20.9506 6.9956 21.0004 6.90013 21.081 6.77644C21.1644 6.64468 21.3284 6.5788 21.5731 6.5788C21.6807 6.5788 21.7815 6.60434 21.8756 6.65543C21.9697 6.70653 22.041 6.76972 22.0894 6.84501C22.1405 6.91762 22.1728 6.98753 22.1862 7.05476C22.2023 7.11929 22.2104 7.1892 22.2104 7.26449V7.37743H21.8272V7.26449C21.8272 7.24298 21.8259 7.22416 21.8232 7.20803C21.8232 7.1892 21.8218 7.17307 21.8191 7.15963C21.8164 7.13542 21.7963 7.09644 21.7586 7.04266C21.721 6.98888 21.6578 6.96198 21.5691 6.96198C21.4642 6.96198 21.3943 6.99022 21.3593 7.04669C21.3271 7.10315 21.3082 7.14484 21.3029 7.17173C21.2975 7.19862 21.2948 7.22954 21.2948 7.26449V8.61572C21.2948 8.64261 21.2948 8.66547 21.2948 8.68429C21.2948 8.70311 21.2961 8.71925 21.2988 8.73269C21.3015 8.7542 21.3217 8.79589 21.3593 8.85773C21.3943 8.9142 21.4629 8.94244 21.565 8.94244C21.6699 8.94244 21.7371 8.9142 21.7667 8.85773C21.7829 8.82815 21.795 8.80395 21.803 8.78513C21.8111 8.76362 21.8165 8.74479 21.8192 8.72866C21.8245 8.71252 21.8272 8.69639 21.8272 8.68026C21.8272 8.66143 21.8272 8.63993 21.8272 8.61572V8.1438H21.5166V7.80499H22.2104V8.61572C22.2104 8.67219 22.2091 8.72059 22.2064 8.76093C22.2037 8.79858 22.1983 8.83218 22.1902 8.86176C22.1822 8.89134 22.1714 8.91958 22.158 8.94647C22.1472 8.97067 22.1337 8.99621 22.1176 9.0231H22.1176Z" fill="white"/>
  <path d="M22.4858 9.30545V6.603H23.1634C23.3409 6.603 23.4901 6.66484 23.6111 6.78854C23.7348 6.91223 23.7967 7.06416 23.7967 7.24433V7.4944C23.7967 7.74448 23.6904 7.9354 23.478 8.06716L23.8894 9.30545H23.478L23.115 8.14783H22.873V9.30545H22.4858ZM23.3449 7.72028C23.3691 7.6907 23.3852 7.65709 23.3933 7.61944C23.4041 7.5818 23.4095 7.54012 23.4095 7.4944V7.24433C23.4095 7.16097 23.3866 7.09375 23.3409 7.04266C23.2952 6.98888 23.2306 6.96198 23.1473 6.96198H22.873V7.80499H23.1432C23.2239 7.80499 23.2911 7.77675 23.3449 7.72028H23.3449Z" fill="white"/>
  <path d="M24.1181 6.85711C24.1799 6.77107 24.2579 6.70384 24.352 6.65543C24.4488 6.60434 24.5483 6.5788 24.6505 6.5788C24.75 6.5788 24.8428 6.59896 24.9288 6.6393C25.0175 6.67963 25.0915 6.73476 25.1507 6.80468C25.2098 6.87459 25.2501 6.94719 25.2717 7.02248C25.2932 7.09509 25.3039 7.17442 25.3039 7.26047V8.63589C25.3039 8.71656 25.2959 8.78782 25.2797 8.84966C25.2663 8.91151 25.234 8.98008 25.1829 9.05537C25.1345 9.13066 25.0633 9.1952 24.9691 9.24898C24.8777 9.30276 24.7755 9.32965 24.6626 9.32965C24.5981 9.32965 24.5362 9.32159 24.4771 9.30545C24.4179 9.28663 24.3628 9.26243 24.3117 9.23285C24.2606 9.20327 24.2149 9.16965 24.1745 9.13201C24.1369 9.09436 24.1073 9.05538 24.0858 9.01504C24.0455 8.93168 24.0213 8.86445 24.0132 8.81336C24.0051 8.76227 24.0011 8.70312 24.0011 8.63589V7.26047C24.0011 7.17979 24.0092 7.10853 24.0253 7.04669C24.0441 6.98215 24.075 6.91896 24.1181 6.85711ZM24.8683 7.07089C24.8172 6.9956 24.7473 6.95795 24.6586 6.95795C24.6128 6.95795 24.5671 6.97139 24.5214 6.99828C24.4784 7.02248 24.4475 7.05072 24.4287 7.08299C24.4125 7.11526 24.4018 7.14752 24.3964 7.17979C24.391 7.21206 24.3883 7.23895 24.3883 7.26047V8.63589C24.3883 8.64933 24.3883 8.66412 24.3883 8.68026C24.3883 8.6937 24.3897 8.70849 24.3924 8.72463C24.3951 8.75152 24.4166 8.79589 24.4569 8.85773C24.4972 8.9142 24.5645 8.94244 24.6586 8.94244C24.707 8.94244 24.75 8.93168 24.7876 8.91016C24.828 8.88596 24.8562 8.85908 24.8724 8.8295C24.8912 8.79723 24.9033 8.76765 24.9087 8.74076C24.914 8.71387 24.9167 8.67891 24.9167 8.63589V7.26047C24.9167 7.20668 24.914 7.16904 24.9087 7.14753C24.906 7.12601 24.8925 7.10047 24.8683 7.07089H24.8683Z" fill="white"/>
  <path d="M26.8855 9.30545L26.5669 7.65978L26.2563 9.30545H25.8973L25.506 6.603H25.9175L26.1111 8.23657L26.4216 6.603H26.708L27.0267 8.23657L27.2203 6.603H27.6277L27.2485 9.30545H26.8855Z" fill="white"/>
  <path d="M28.1686 9.30545V6.96198H27.7128V6.603H29.0157V6.96198H28.5518V9.30545H28.1686Z" fill="white"/>
  <path d="M29.2056 9.30545V6.603H29.5888V7.75658H30.0808V6.603H30.464V9.30545H30.0808V8.09943H29.5888V9.30545H29.2056Z" fill="white"/>
  <path d="M6.0808 7.85049V7.91806C6.0808 8.05962 6.04862 8.20761 5.98428 8.36203C5.91993 8.51646 5.82985 8.66123 5.71403 8.79636C5.59821 8.92504 5.45988 9.03121 5.29902 9.11486C5.13816 9.1985 4.96443 9.24033 4.77783 9.24033H4.74887C4.61375 9.24033 4.47863 9.22102 4.34351 9.18242C4.21482 9.14381 4.09256 9.09234 3.97675 9.02799C3.86736 8.96365 3.77085 8.89287 3.6872 8.81566C3.60355 8.73201 3.54242 8.64515 3.50382 8.55507C3.42017 8.3749 3.36869 8.22691 3.34939 8.11109C3.33009 7.98883 3.32043 7.86658 3.32043 7.74433V6.61509C3.32043 6.2805 3.47486 5.99738 3.78371 5.76574C3.47486 5.53411 3.32043 5.2156 3.32043 4.81024V3.94159C3.32043 3.80647 3.34296 3.681 3.388 3.56518C3.43304 3.44293 3.54886 3.25955 3.73545 3.01504C3.91562 2.77697 4.24699 2.65793 4.72957 2.65793C4.9033 2.65793 5.07381 2.69654 5.24111 2.77375C5.40196 2.85096 5.58213 2.99252 5.78159 3.19842C5.98106 3.39789 6.0808 3.681 6.0808 4.04776V4.8778C6.0808 5.251 5.92637 5.54698 5.61752 5.76574C5.92637 5.99095 6.0808 6.29659 6.0808 6.68265V7.85049ZM4.71027 3.57483C4.57515 3.57483 4.46254 3.62309 4.37246 3.7196C4.28238 3.80969 4.23734 3.91907 4.23734 4.04776V4.8778C4.23734 5.02579 4.27595 5.15448 4.35316 5.26386C4.43681 5.36681 4.55263 5.41829 4.70062 5.41829C4.86148 5.41829 4.97729 5.37003 5.04807 5.27352C5.12528 5.17057 5.16389 5.03866 5.16389 4.8778V4.04776C5.16389 3.92551 5.11885 3.81612 5.02877 3.7196C4.94512 3.62309 4.83896 3.57483 4.71027 3.57483ZM4.71027 6.12286C4.56871 6.12286 4.45289 6.17112 4.36281 6.26763C4.27916 6.35772 4.23734 6.47353 4.23734 6.61509V7.74433C4.23734 7.91162 4.27595 8.04996 4.35316 8.15935C4.43037 8.2623 4.55584 8.31377 4.72957 8.31377C4.89686 8.31377 5.00947 8.25908 5.06738 8.1497C5.13172 8.03388 5.16389 7.89875 5.16389 7.74433V6.61509C5.16389 6.47353 5.12207 6.35772 5.03842 6.26763C4.96121 6.17112 4.85183 6.12286 4.71027 6.12286Z" fill="white"/>
  <path d="M23.6153 11.7924C23.602 11.7923 23.5882 11.7937 23.5743 11.7975L20.9341 12.5048C20.8236 12.5344 20.7867 12.6727 20.8678 12.7534L21.4384 13.3239L15.8009 18.9653L13.557 16.7217C13.346 16.5109 13.0041 16.5109 12.7931 16.7217L8.26257 21.2523L9.02687 22.0161L13.175 17.8676L15.4186 20.1115C15.6296 20.3227 15.9718 20.3227 16.1829 20.1115L22.2023 14.0878L22.8003 14.6858C22.8287 14.7142 22.8674 14.7299 22.9075 14.7293C22.9739 14.7285 23.0316 14.6837 23.0489 14.6196L23.7562 11.9794C23.7823 11.8827 23.7082 11.7933 23.6153 11.7924V11.7924ZM22.2023 15.616L18.6454 19.1754V27.8702C18.6454 28.0988 18.8296 28.2825 19.0582 28.2825H22.0833C22.3119 28.2825 22.4961 28.0988 22.4961 27.8702V15.9097L22.2023 15.616ZM13.0691 19.5017L9.2189 23.3523V27.8702C9.2189 28.0988 9.40303 28.2825 9.63165 28.2825H12.6568C12.8854 28.2825 13.0691 28.0988 13.0691 27.8702V19.5017ZM17.7824 20.0389L16.1829 21.6397C15.9718 21.8508 15.6296 21.8508 15.4186 21.6397L13.9322 20.1529V27.8702C13.9322 28.0988 14.1163 28.2825 14.3449 28.2825H17.37C17.5987 28.2825 17.7824 28.0988 17.7824 27.8702V20.0389Z" fill="white"/>
  <path d="M23.6153 11.7924C23.602 11.7923 23.5882 11.7937 23.5743 11.7975L20.9341 12.5048C20.8236 12.5344 20.7867 12.6727 20.8678 12.7534L21.4384 13.3239L15.8009 18.9653L13.557 16.7217C13.346 16.5109 13.0041 16.5109 12.7931 16.7217L8.26257 21.2523L9.02687 22.0161L13.175 17.8676L15.4186 20.1115C15.6296 20.3227 15.9718 20.3227 16.1829 20.1115L22.2023 14.0878L22.8003 14.6858C22.8287 14.7142 22.8674 14.7299 22.9075 14.7293C22.9739 14.7285 23.0316 14.6837 23.0489 14.6196L23.7562 11.9794C23.7823 11.8827 23.7082 11.7933 23.6153 11.7924V11.7924Z" fill="white"/>
</svg>
