<svg width="32" height="33" viewBox="0 0 32 33" fill="none" xmlns="http://www.w3.org/2000/svg">
  <path fill-rule="evenodd" clip-rule="evenodd" d="M0.178645 0.0522461H31.8213C31.9203 0.0522461 32 0.13192 32 0.230891V31.9258C32 32.0248 31.9203 32.1045 31.8213 32.1045H0.178645C0.0796758 32.1045 0 32.0248 0 31.9258V0.230891C0 0.13192 0.0796758 0.0522461 0.178645 0.0522461Z" fill="#F36D25"/>
  <path d="M7.70801 5.50485V2.8024H8.09119V5.50485H7.70801Z" fill="white"/>
  <path d="M9.23211 5.50485L8.63111 3.86321V5.50485H8.2439V2.8024H8.61095L9.2079 4.44V2.8024H9.59512V5.50485H9.23211Z" fill="white"/>
  <path d="M10.3986 2.8024C10.5734 2.8024 10.7226 2.86424 10.8463 2.98793C10.9727 3.10894 11.0359 3.25684 11.0359 3.43162V4.83528C11.0359 5.03427 10.9754 5.19561 10.8544 5.3193C10.7334 5.443 10.5774 5.50485 10.3865 5.50485H9.78552V2.8024H10.3986ZM10.6527 4.83528V3.43162C10.6527 3.35633 10.6245 3.29314 10.568 3.24204C10.5142 3.19095 10.4484 3.16541 10.3704 3.16541H10.1687V5.14586H10.3583C10.5546 5.14586 10.6527 5.04234 10.6527 4.83528Z" fill="white"/>
  <path d="M12.4277 5.2225C12.3685 5.31392 12.2919 5.38787 12.1977 5.44434C12.1063 5.50081 12.0041 5.52905 11.8912 5.52905C11.8347 5.52905 11.7783 5.52098 11.7218 5.50485C11.668 5.48871 11.6169 5.46854 11.5685 5.44434C11.5201 5.41745 11.4771 5.38787 11.4394 5.3556C11.4018 5.32065 11.3736 5.28435 11.3547 5.2467C11.3144 5.17141 11.2875 5.10553 11.2741 5.04906C11.2633 4.99259 11.2579 4.93209 11.2579 4.86755V2.8024H11.6452V4.86755C11.6452 4.88637 11.6452 4.90385 11.6452 4.91999C11.6479 4.93343 11.6505 4.94688 11.6532 4.96032C11.6559 4.98184 11.6761 5.01948 11.7137 5.07326C11.7487 5.12166 11.8092 5.14586 11.8952 5.14586C11.9732 5.14586 12.031 5.11763 12.0687 5.06116C12.109 5.002 12.1292 4.93746 12.1292 4.86755V2.8024H12.5164V4.86755C12.5164 4.93209 12.5097 4.99393 12.4962 5.05309C12.4828 5.11225 12.4599 5.16872 12.4277 5.2225H12.4277Z" fill="white"/>
  <path d="M13.0575 4.83125C13.0575 4.85814 13.0575 4.88099 13.0575 4.89982C13.0575 4.91864 13.0589 4.93478 13.0616 4.94822C13.0669 4.97512 13.0871 5.0141 13.1221 5.06519C13.1597 5.11897 13.2269 5.14586 13.3237 5.14586C13.3775 5.14586 13.4273 5.13511 13.473 5.1136C13.5187 5.08939 13.5523 5.05847 13.5738 5.02083C13.5899 4.99125 13.5994 4.96301 13.602 4.93612C13.6074 4.90924 13.6101 4.88503 13.6101 4.86351V4.82721V4.63764V4.60134C13.6101 4.54218 13.5994 4.49647 13.5778 4.4642C13.5563 4.42924 13.5079 4.39025 13.4326 4.34723C13.3815 4.32034 13.2901 4.28269 13.1583 4.23429C13.0266 4.18589 12.9163 4.10925 12.8276 4.00438C12.7389 3.89951 12.6945 3.75699 12.6945 3.57683V3.45582C12.6945 3.27028 12.7563 3.11163 12.88 2.97987C13.0064 2.84542 13.1597 2.7782 13.3399 2.7782C13.5281 2.7782 13.6841 2.84407 13.8077 2.97583C13.9341 3.1076 13.9973 3.26759 13.9973 3.45582V3.57683H13.6101V3.45582C13.6101 3.437 13.6088 3.41952 13.6061 3.40339C13.6061 3.38725 13.6047 3.37247 13.602 3.35902C13.5993 3.34558 13.5926 3.32945 13.5819 3.31062C13.5711 3.2918 13.5563 3.26894 13.5375 3.24205C13.4998 3.18827 13.4367 3.16138 13.3479 3.16138C13.2699 3.16138 13.2054 3.18961 13.1543 3.24608C13.1059 3.30255 13.0817 3.37246 13.0817 3.45582V3.57683V3.61313C13.0817 3.66691 13.0898 3.70993 13.1059 3.7422C13.1247 3.77178 13.1678 3.80539 13.235 3.84304C13.2565 3.8538 13.2888 3.86859 13.3318 3.88741C13.3775 3.90355 13.4326 3.92371 13.4972 3.94791C13.6262 3.99094 13.7419 4.06757 13.844 4.17782C13.9462 4.28807 13.9973 4.43328 13.9973 4.61344V4.83125C13.9973 4.92536 13.9879 5.00469 13.9691 5.06923C13.9529 5.13377 13.8978 5.22788 13.8037 5.35158C13.7096 5.46989 13.5523 5.52905 13.3318 5.52905C13.0978 5.52905 12.9284 5.45376 12.8236 5.30317C12.7187 5.1499 12.6663 4.99259 12.6663 4.83125V4.73445H13.0575L13.0575 4.83125Z" fill="white"/>
  <path d="M14.4001 5.50485V3.16138H13.9443V2.8024H15.2472V3.16138H14.7833V5.50485H14.4001Z" fill="white"/>
  <path d="M15.3268 5.50485V2.8024H16.0044C16.1819 2.8024 16.3311 2.86424 16.4521 2.98793C16.5758 3.11163 16.6377 3.26356 16.6377 3.44372V3.6938C16.6377 3.94388 16.5315 4.1348 16.319 4.26656L16.7304 5.50485H16.319L15.956 4.34723H15.714V5.50485H15.3268ZM16.1859 3.91968C16.2101 3.8901 16.2263 3.85648 16.2343 3.81884C16.2451 3.78119 16.2505 3.73951 16.2505 3.6938V3.44372C16.2505 3.36036 16.2276 3.29314 16.1819 3.24204C16.1362 3.18827 16.0716 3.16138 15.9883 3.16138H15.714V4.00438H15.9842C16.0649 4.00438 16.1321 3.97615 16.1859 3.91968H16.1859Z" fill="white"/>
  <path d="M17.1055 5.50485V4.34319L16.5812 2.8024H16.9845L17.2991 3.85918L17.6178 2.8024H18.0252L17.4887 4.34319V5.50485H17.1055Z" fill="white"/>
  <path d="M17.7897 5.79124V5.12167H18.1769V5.50486L17.7897 5.79124Z" fill="white"/>
  <path d="M18.7644 5.50485V2.8024H19.1476V5.50485H18.7644Z" fill="white"/>
  <path d="M20.3342 5.50485L19.7332 3.86321V5.50485H19.3459V2.8024H19.713L20.31 4.44V2.8024H20.6972V5.50485H20.3342Z" fill="white"/>
  <path d="M21.7934 5.50485L21.1924 3.86321V5.50485H20.8052V2.8024H21.1722L21.7692 4.44V2.8024H22.1564V5.50485H21.7934Z" fill="white"/>
  <path d="M22.3922 3.05651C22.4541 2.97046 22.5321 2.90323 22.6262 2.85483C22.723 2.80374 22.8225 2.7782 22.9247 2.7782C23.0242 2.7782 23.1169 2.79837 23.203 2.8387C23.2917 2.87904 23.3657 2.93416 23.4248 3.00407C23.484 3.07399 23.5243 3.14659 23.5458 3.22188C23.5673 3.29448 23.5781 3.37381 23.5781 3.45986V4.83528C23.5781 4.91596 23.57 4.98721 23.5539 5.04906C23.5404 5.1109 23.5082 5.17947 23.4571 5.25477C23.4087 5.33006 23.3374 5.3946 23.2433 5.44838C23.1519 5.50216 23.0497 5.52905 22.9368 5.52905C22.8722 5.52905 22.8104 5.52098 22.7512 5.50485C22.6921 5.48602 22.6369 5.46182 22.5859 5.43224C22.5348 5.40266 22.489 5.36905 22.4487 5.3314C22.4111 5.29376 22.3815 5.25477 22.36 5.21444C22.3196 5.13108 22.2954 5.06385 22.2874 5.01276C22.2793 4.96166 22.2753 4.90251 22.2753 4.83528V3.45986C22.2753 3.37919 22.2833 3.30793 22.2995 3.24608C22.3183 3.18154 22.3492 3.11836 22.3922 3.05651ZM23.1425 3.27028C23.0914 3.19499 23.0215 3.15734 22.9327 3.15734C22.887 3.15734 22.8413 3.17079 22.7956 3.19768C22.7526 3.22188 22.7216 3.25011 22.7028 3.28238C22.6867 3.31465 22.6759 3.34692 22.6706 3.37919C22.6652 3.41145 22.6625 3.43835 22.6625 3.45986V4.83528C22.6625 4.84873 22.6625 4.86351 22.6625 4.87965C22.6625 4.89309 22.6638 4.90789 22.6665 4.92402C22.6692 4.95091 22.6907 4.99528 22.7311 5.05713C22.7714 5.1136 22.8386 5.14183 22.9327 5.14183C22.9811 5.14183 23.0242 5.13107 23.0618 5.10956C23.1022 5.08536 23.1304 5.05847 23.1465 5.02889C23.1653 4.99662 23.1774 4.96704 23.1828 4.94015C23.1882 4.91326 23.1909 4.87831 23.1909 4.83528V3.45986C23.1909 3.40608 23.1882 3.36843 23.1828 3.34692C23.1801 3.32541 23.1667 3.29986 23.1425 3.27028H23.1425Z" fill="white"/>
  <path d="M24.1761 5.50485L23.6235 2.8024H24.0269L24.3415 4.67798L24.6601 2.8024H25.0716L24.5069 5.50485H24.1761Z" fill="white"/>
  <path d="M24.9043 5.50485L25.5093 2.8024H25.8441L26.4491 5.50485H26.0337L25.9248 4.92402H25.4246L25.3117 5.50485H24.9043ZM25.4932 4.56504H25.8562L25.6747 3.58086L25.4932 4.56504Z" fill="white"/>
  <path d="M26.7087 5.50485V3.16138H26.2529V2.8024H27.5558V3.16138H27.0919V5.50485H26.7087Z" fill="white"/>
  <path d="M27.6282 5.50485V2.8024H28.0114V5.50485H27.6282Z" fill="white"/>
  <path d="M28.2985 3.05651C28.3603 2.97046 28.4383 2.90323 28.5324 2.85483C28.6292 2.80374 28.7287 2.7782 28.8309 2.7782C28.9304 2.7782 29.0232 2.79837 29.1092 2.8387C29.198 2.87904 29.2719 2.93416 29.3311 3.00407C29.3902 3.07399 29.4306 3.14659 29.4521 3.22188C29.4736 3.29448 29.4843 3.37381 29.4843 3.45986V4.83528C29.4843 4.91596 29.4763 4.98721 29.4601 5.04906C29.4467 5.1109 29.4144 5.17947 29.3633 5.25477C29.3149 5.33006 29.2437 5.3946 29.1496 5.44838C29.0581 5.50216 28.956 5.52905 28.843 5.52905C28.7785 5.52905 28.7166 5.52098 28.6575 5.50485C28.5983 5.48602 28.5432 5.46182 28.4921 5.43224C28.441 5.40266 28.3953 5.36905 28.355 5.3314C28.3173 5.29376 28.2877 5.25477 28.2662 5.21444C28.2259 5.13108 28.2017 5.06385 28.1936 5.01276C28.1856 4.96166 28.1815 4.90251 28.1815 4.83528V3.45986C28.1815 3.37919 28.1896 3.30793 28.2057 3.24608C28.2245 3.18154 28.2555 3.11836 28.2985 3.05651ZM29.0487 3.27028C28.9976 3.19499 28.9277 3.15734 28.839 3.15734C28.7933 3.15734 28.7476 3.17079 28.7018 3.19768C28.6588 3.22188 28.6279 3.25011 28.6091 3.28238C28.5929 3.31465 28.5822 3.34692 28.5768 3.37919C28.5714 3.41145 28.5687 3.43835 28.5687 3.45986V4.83528C28.5687 4.84873 28.5687 4.86351 28.5687 4.87965C28.5687 4.89309 28.5701 4.90789 28.5728 4.92402C28.5755 4.95091 28.597 4.99528 28.6373 5.05713C28.6777 5.1136 28.7449 5.14183 28.839 5.14183C28.8874 5.14183 28.9304 5.13107 28.9681 5.10956C29.0084 5.08536 29.0366 5.05847 29.0528 5.02889C29.0716 4.99662 29.0837 4.96704 29.0891 4.94015C29.0944 4.91326 29.0971 4.87831 29.0971 4.83528V3.45986C29.0971 3.40608 29.0944 3.36843 29.0891 3.34692C29.0864 3.32541 29.0729 3.29986 29.0487 3.27028H29.0487Z" fill="white"/>
  <path d="M30.7035 5.50485L30.1025 3.86321V5.50485H29.7153V2.8024H30.0824L30.6793 4.44V2.8024H31.0666V5.50485H30.7035Z" fill="white"/>
  <path d="M7.58069 9.2316L8.18572 6.52914H8.5205L9.12552 9.2316H8.71007L8.60116 8.65078H8.10102L7.98808 9.2316H7.58069ZM8.16958 8.29179H8.5326L8.35109 7.30762L8.16958 8.29179Z" fill="white"/>
  <path d="M10.141 9.2316L9.54005 7.58996V9.2316H9.15283V6.52914H9.51988L10.1168 8.16675V6.52914H10.5041V9.2316H10.141Z" fill="white"/>
  <path d="M11.3165 6.52914C11.4913 6.52914 11.6405 6.59099 11.7642 6.71469C11.8906 6.83569 11.9538 6.98359 11.9538 7.15838V8.56204C11.9538 8.76102 11.8933 8.92236 11.7722 9.04606C11.6512 9.16975 11.4953 9.2316 11.3044 9.2316H10.7034V6.52914H11.3165ZM11.5706 8.56204V7.15838C11.5706 7.08308 11.5423 7.01989 11.4859 6.9688C11.4321 6.91771 11.3662 6.89217 11.2882 6.89217H11.0865V8.87261H11.2761C11.4724 8.87261 11.5706 8.76909 11.5706 8.56204Z" fill="white"/>
  <path d="M12.5105 9.2316V6.52914H12.8937V9.2316H12.5105Z" fill="white"/>
  <path d="M14.0673 9.2316L13.4663 7.58996V9.2316H13.0791V6.52914H13.4462L14.0431 8.16675V6.52914H14.4303V9.2316H14.0673Z" fill="white"/>
  <path d="M14.5513 9.2316V6.52914H15.7048V6.89217H14.9344V7.7029H15.608V8.06591H14.9344V9.2316H14.5513Z" fill="white"/>
  <path d="M15.762 9.2316V6.52914H16.4396C16.6171 6.52914 16.7663 6.59099 16.8873 6.71469C17.011 6.83838 17.0728 6.99031 17.0728 7.17048V7.42056C17.0728 7.67063 16.9666 7.86155 16.7542 7.99331L17.1656 9.2316H16.7542L16.3912 8.07398H16.1492V9.2316H15.762ZM16.6211 7.64643C16.6453 7.61685 16.6614 7.58324 16.6695 7.54559C16.6803 7.50794 16.6856 7.46627 16.6856 7.42056V7.17048C16.6856 7.08712 16.6628 7.01989 16.6171 6.9688C16.5714 6.91502 16.5068 6.88813 16.4235 6.88813H16.1492V7.73113H16.4194C16.5001 7.73113 16.5673 7.7029 16.6211 7.64643H16.6211Z" fill="white"/>
  <path d="M17.1129 9.2316L17.7179 6.52914H18.0527L18.6578 9.2316H18.2423L18.1334 8.65078H17.6332L17.5203 9.2316H17.1129ZM17.7018 8.29179H18.0648L17.8833 7.30762L17.7018 8.29179Z" fill="white"/>
  <path d="M18.9715 8.558C18.9715 8.58489 18.9715 8.60775 18.9715 8.62657C18.9715 8.6454 18.9728 8.66153 18.9755 8.67498C18.9809 8.70187 19.001 8.74086 19.036 8.79195C19.0736 8.84573 19.1409 8.87261 19.2377 8.87261C19.2915 8.87261 19.3412 8.86186 19.3869 8.84035C19.4326 8.81615 19.4662 8.78523 19.4878 8.74758C19.5039 8.718 19.5133 8.68977 19.516 8.66288C19.5214 8.63599 19.5241 8.61179 19.5241 8.59027V8.55397V8.36439V8.32809C19.5241 8.26893 19.5133 8.22322 19.4918 8.19095C19.4703 8.15599 19.4219 8.11701 19.3466 8.07398C19.2955 8.04709 19.2041 8.00944 19.0723 7.96104C18.9405 7.91264 18.8303 7.836 18.7415 7.73113C18.6528 7.62626 18.6084 7.48375 18.6084 7.30358V7.18258C18.6084 6.99704 18.6703 6.83838 18.794 6.70662C18.9204 6.57217 19.0736 6.50494 19.2538 6.50494C19.442 6.50494 19.598 6.57083 19.7217 6.70259C19.8481 6.83435 19.9113 6.99435 19.9113 7.18258V7.30358H19.5241V7.18258C19.5241 7.16375 19.5227 7.14627 19.52 7.13014C19.52 7.11401 19.5187 7.09922 19.516 7.08577C19.5133 7.07233 19.5066 7.0562 19.4958 7.03737C19.485 7.01855 19.4703 6.99569 19.4514 6.9688C19.4138 6.91502 19.3506 6.88813 19.2619 6.88813C19.1839 6.88813 19.1193 6.91636 19.0683 6.97283C19.0199 7.0293 18.9957 7.09922 18.9957 7.18258V7.30358V7.33988C18.9957 7.39366 19.0037 7.43669 19.0199 7.46896C19.0387 7.49854 19.0817 7.53215 19.1489 7.56979C19.1704 7.58055 19.2027 7.59535 19.2457 7.61416C19.2914 7.6303 19.3466 7.65047 19.4111 7.67467C19.5402 7.71769 19.6558 7.79433 19.758 7.90458C19.8602 8.01482 19.9113 8.16003 19.9113 8.34019V8.558C19.9113 8.65212 19.9018 8.73145 19.883 8.79598C19.8669 8.86052 19.8118 8.95463 19.7177 9.07833C19.6235 9.19664 19.4662 9.2558 19.2457 9.2558C19.0118 9.2558 18.8424 9.18051 18.7375 9.02993C18.6326 8.87665 18.5802 8.71934 18.5802 8.558V8.4612H18.9715L18.9715 8.558Z" fill="white"/>
  <path d="M20.3022 9.2316V6.88813H19.8464V6.52914H21.1493V6.88813H20.6854V9.2316H20.3022Z" fill="white"/>
  <path d="M21.2177 9.2316V6.52914H21.8953C22.0728 6.52914 22.222 6.59099 22.343 6.71469C22.4667 6.83838 22.5285 6.99031 22.5285 7.17048V7.42056C22.5285 7.67063 22.4223 7.86155 22.2099 7.99331L22.6213 9.2316H22.2099L21.8469 8.07398H21.6049V9.2316H21.2177ZM22.0768 7.64643C22.101 7.61685 22.1171 7.58324 22.1252 7.54559C22.136 7.50794 22.1413 7.46627 22.1413 7.42056V7.17048C22.1413 7.08712 22.1185 7.01989 22.0728 6.9688C22.027 6.91502 21.9625 6.88813 21.8792 6.88813H21.6049V7.73113H21.8751C21.9558 7.73113 22.023 7.7029 22.0768 7.64643H22.0768Z" fill="white"/>
  <path d="M23.7873 8.94925C23.7281 9.04068 23.6515 9.11463 23.5574 9.1711C23.4659 9.22756 23.3638 9.2558 23.2508 9.2558C23.1944 9.2558 23.1379 9.24773 23.0814 9.2316C23.0276 9.21546 22.9765 9.1953 22.9281 9.1711C22.8797 9.14421 22.8367 9.11462 22.7991 9.08236C22.7614 9.0474 22.7332 9.0111 22.7144 8.97345C22.674 8.89816 22.6471 8.83228 22.6337 8.77581C22.6229 8.71934 22.6176 8.65884 22.6176 8.5943V6.52914H23.0048V8.5943C23.0048 8.61312 23.0048 8.63061 23.0048 8.64674C23.0075 8.66018 23.0101 8.67363 23.0128 8.68708C23.0155 8.70859 23.0357 8.74623 23.0733 8.80001C23.1083 8.84841 23.1688 8.87261 23.2548 8.87261C23.3328 8.87261 23.3906 8.84438 23.4283 8.78791C23.4686 8.72875 23.4888 8.66422 23.4888 8.5943V6.52914H23.876V8.5943C23.876 8.65884 23.8693 8.72069 23.8558 8.77984C23.8424 8.839 23.8195 8.89547 23.7873 8.94925H23.7873Z" fill="white"/>
  <path d="M25.3442 8.54994C25.3442 8.63599 25.3388 8.70993 25.328 8.77178C25.3199 8.83363 25.2931 8.90085 25.2473 8.97345C25.2231 9.0111 25.1922 9.0474 25.1546 9.08236C25.1196 9.11463 25.0793 9.14421 25.0336 9.1711C24.9905 9.1953 24.9435 9.21546 24.8924 9.2316C24.8413 9.24773 24.7916 9.2558 24.7432 9.2558C24.6221 9.2558 24.5119 9.23025 24.4124 9.17916C24.3156 9.12807 24.2443 9.06354 24.1986 8.98555C24.1529 8.90757 24.1233 8.83497 24.1099 8.76775C24.0991 8.70052 24.0938 8.62792 24.0938 8.54994V7.15838C24.0938 7.08308 24.1005 7.01586 24.1139 6.9567C24.13 6.89485 24.1623 6.82898 24.2107 6.75906C24.2591 6.68915 24.3277 6.62998 24.4164 6.58158C24.5052 6.53049 24.5979 6.50494 24.6947 6.50494C24.8803 6.50494 25.0349 6.56679 25.1586 6.69049C25.2823 6.81149 25.3441 6.96746 25.3441 7.15838V7.30358H24.9609V7.15838C24.9609 7.08308 24.9394 7.01989 24.8964 6.9688C24.8561 6.91771 24.7956 6.89217 24.7149 6.89217C24.6396 6.89217 24.5805 6.91771 24.5374 6.9688C24.4971 7.01989 24.4769 7.08308 24.4769 7.15838V8.65481C24.4823 8.69514 24.5011 8.74086 24.5334 8.79195C24.571 8.84573 24.6329 8.87261 24.7189 8.87261C24.8104 8.87261 24.8709 8.84841 24.9004 8.80001C24.93 8.75161 24.9475 8.71666 24.9529 8.69514C24.9583 8.67094 24.9609 8.63867 24.9609 8.59834V8.4612H25.3441L25.3442 8.54994Z" fill="white"/>
  <path d="M25.8318 9.2316V6.88813H25.376V6.52914H26.6788V6.88813H26.2149V9.2316H25.8318Z" fill="white"/>
  <path d="M27.9079 8.94925C27.8487 9.04068 27.7721 9.11463 27.678 9.1711C27.5865 9.22756 27.4844 9.2558 27.3714 9.2558C27.315 9.2558 27.2585 9.24773 27.202 9.2316C27.1482 9.21546 27.0971 9.1953 27.0487 9.1711C27.0003 9.14421 26.9573 9.11462 26.9197 9.08236C26.882 9.0474 26.8538 9.0111 26.835 8.97345C26.7946 8.89816 26.7677 8.83228 26.7543 8.77581C26.7435 8.71934 26.7382 8.65884 26.7382 8.5943V6.52914H27.1254V8.5943C27.1254 8.61312 27.1254 8.63061 27.1254 8.64674C27.1281 8.66018 27.1308 8.67363 27.1334 8.68708C27.1361 8.70859 27.1563 8.74623 27.1939 8.80001C27.2289 8.84841 27.2894 8.87261 27.3754 8.87261C27.4534 8.87261 27.5112 8.84438 27.5489 8.78791C27.5892 8.72875 27.6094 8.66422 27.6094 8.5943V6.52914H27.9966V8.5943C27.9966 8.65884 27.9899 8.72069 27.9764 8.77984C27.963 8.839 27.9401 8.89547 27.9079 8.94925H27.9079Z" fill="white"/>
  <path d="M28.1823 9.2316V6.52914H28.8599C29.0374 6.52914 29.1866 6.59099 29.3076 6.71469C29.4313 6.83838 29.4931 6.99031 29.4931 7.17048V7.42056C29.4931 7.67063 29.3869 7.86155 29.1745 7.99331L29.5859 9.2316H29.1745L28.8115 8.07398H28.5695V9.2316H28.1823ZM29.0414 7.64643C29.0656 7.61685 29.0817 7.58324 29.0898 7.54559C29.1006 7.50794 29.1059 7.46627 29.1059 7.42056V7.17048C29.1059 7.08712 29.0831 7.01989 29.0374 6.9688C28.9916 6.91502 28.9271 6.88813 28.8438 6.88813H28.5695V7.73113H28.8397C28.9204 7.73113 28.9876 7.7029 29.0414 7.64643Z" fill="white"/>
  <path d="M30.7659 8.84438V9.2316H29.6083V6.52914H30.7659V6.88409H29.9915V7.68273H30.6691V8.04978H29.9915V8.84438H30.7659Z" fill="white"/>
  <path d="M3.29195 5.91052C3.24691 5.82044 3.21796 5.73679 3.20509 5.65958C3.19865 5.57593 3.19543 5.45368 3.19543 5.29282V3.9802C3.19543 3.83864 3.21795 3.70995 3.26299 3.59414C3.28873 3.52979 3.32734 3.45258 3.37881 3.3625C3.43672 3.27242 3.51072 3.16303 3.6008 3.03434C3.78096 2.7834 4.10268 2.65793 4.56596 2.65793C5.0035 2.65793 5.34131 2.80592 5.57938 3.1019C5.83032 3.39145 5.95579 3.72604 5.95579 4.10567V5.15769C5.95579 5.40864 5.90432 5.65958 5.80137 5.91052L4.58526 9.18242H3.53324L4.61422 6.46066C4.44692 6.49927 4.31824 6.51857 4.22816 6.51857C4.02225 6.51857 3.83244 6.46388 3.65871 6.35449C3.49141 6.23867 3.36916 6.09069 3.29195 5.91052H3.29195ZM4.59492 3.56518C4.4405 3.56518 4.32468 3.61987 4.24746 3.72926C4.17025 3.83221 4.13165 3.95768 4.13165 4.10567V5.15769C4.13165 5.31856 4.17347 5.45046 4.25712 5.55341C4.34076 5.65636 4.46302 5.70783 4.62388 5.70783C4.76543 5.70783 4.86838 5.65958 4.93273 5.56306C5.00351 5.46011 5.0389 5.32499 5.0389 5.15769V4.10567C5.0389 3.94481 5.00351 3.81612 4.93273 3.7196C4.86838 3.61665 4.75578 3.56518 4.59492 3.56518Z" fill="white"/>
  <path d="M20.3991 14.4467V18.9804L16.4728 21.2473L12.5465 18.9804V14.4467L16.4728 12.1798L20.3991 14.4467Z" stroke="white" stroke-width="2.6" stroke-linejoin="round"/>
  <path d="M24.3558 21.2648V25.7986L20.4295 28.0654L16.5032 25.7986V21.2648L20.4295 18.998L24.3558 21.2648Z" stroke="white" stroke-width="2.6" stroke-linejoin="round"/>
  <path d="M16.4727 21.2473V25.781L12.5464 28.0479L8.62012 25.781V21.2473L12.5464 18.9804L16.4727 21.2473Z" stroke="white" stroke-width="2.6" stroke-linejoin="round"/>
  <path d="M12.5332 28.0907V18.9376L16.4291 16.6884L24.3558 21.2649L16.5032 25.7986L12.5465 23.5142L12.5332 28.0907" stroke="white" stroke-width="2.6" stroke-linejoin="round"/>
  <path d="M16.5032 16.6455V21.2297" stroke="white" stroke-width="2.6" stroke-linejoin="round"/>
  <path d="M16.4401 16.682L20.4101 14.3899L16.5032 12.1343L12.5332 14.4264L16.4401 16.682Z" fill="white" stroke="white" stroke-width="2.6" stroke-linejoin="round"/>
  <path d="M12.5332 23.5218L16.5032 21.2297L12.5963 18.9741L8.62634 21.2662L12.5332 23.5218Z" fill="white" stroke="white" stroke-width="2.6" stroke-linejoin="round"/>
  <path d="M16.4595 25.7733L20.4295 28.0654V23.5542L16.4595 21.2621V25.7733Z" fill="white" stroke="white" stroke-width="2.6" stroke-linejoin="round"/>
</svg>
