<svg width="32" height="33" viewBox="0 0 32 33" fill="none" xmlns="http://www.w3.org/2000/svg">
  <path fill-rule="evenodd" clip-rule="evenodd" d="M0.178645 0H31.8213C31.9203 0 32 0.0796758 32 0.178645V31.8736C32 31.9726 31.9203 32.0522 31.8213 32.0522H0.178645C0.0796758 32.0522 0 31.9726 0 31.8736V0.178645C0 0.0796758 0.0796758 0 0.178645 0Z" fill="#279B48"/>
  <path d="M10.6594 5.28217C10.5975 5.37897 10.5182 5.45426 10.4214 5.50804C10.3246 5.56182 10.2184 5.58871 10.1028 5.58871C10.0006 5.58871 9.90109 5.56451 9.80428 5.51611C9.71017 5.46771 9.63622 5.40855 9.58244 5.33863C9.53135 5.26603 9.49639 5.19343 9.47757 5.12083C9.46144 5.04822 9.45337 4.96621 9.45337 4.87478V3.52356C9.45337 3.45633 9.46009 3.38911 9.47353 3.32188C9.49235 3.25466 9.5421 3.15919 9.62277 3.0355C9.70613 2.90374 9.87016 2.83786 10.1149 2.83786C10.2224 2.83786 10.3233 2.86341 10.4174 2.9145C10.5115 2.96559 10.5827 3.02878 10.6312 3.10407C10.6822 3.17668 10.7145 3.24659 10.728 3.31381C10.7441 3.37835 10.7522 3.44827 10.7522 3.52356V3.63649H10.369V3.52356C10.369 3.50205 10.3676 3.48322 10.3649 3.46709C10.3649 3.44826 10.3636 3.43213 10.3609 3.41869C10.3582 3.39448 10.338 3.35549 10.3004 3.30171C10.2627 3.24793 10.1995 3.22104 10.1108 3.22104C10.0059 3.22104 9.93602 3.24928 9.90107 3.30575C9.8688 3.36222 9.84998 3.4039 9.8446 3.43079C9.83923 3.45768 9.83654 3.4886 9.83654 3.52356V4.87478C9.83654 4.90167 9.83654 4.92453 9.83654 4.94335C9.83654 4.96217 9.83788 4.97831 9.84058 4.99175C9.84327 5.01327 9.86344 5.05494 9.90108 5.11679C9.93604 5.17326 10.0046 5.20149 10.1068 5.20149C10.2117 5.20149 10.2789 5.17326 10.3085 5.11679C10.3246 5.08721 10.3367 5.06301 10.3448 5.04419C10.3528 5.02268 10.3582 5.00386 10.3609 4.98772C10.3663 4.97159 10.369 4.95545 10.369 4.93932C10.369 4.92049 10.369 4.89898 10.369 4.87478V4.40286H10.0584V4.06405H10.7522V4.87478C10.7522 4.93125 10.7508 4.97965 10.7481 5.01999C10.7454 5.05763 10.74 5.09125 10.732 5.12083C10.7239 5.15041 10.7131 5.17864 10.6997 5.20553C10.6889 5.22973 10.6755 5.25527 10.6594 5.28217H10.6594Z" fill="white"/>
  <path d="M11.1789 3.11617C11.2407 3.03013 11.3187 2.9629 11.4128 2.9145C11.5096 2.86341 11.6091 2.83786 11.7113 2.83786C11.8108 2.83786 11.9035 2.85803 11.9896 2.89836C12.0783 2.9387 12.1523 2.99382 12.2114 3.06374C12.2706 3.13365 12.3109 3.20625 12.3324 3.28155C12.354 3.35415 12.3647 3.43347 12.3647 3.51952V4.89495C12.3647 4.97562 12.3566 5.04688 12.3405 5.10873C12.3271 5.17057 12.2948 5.23914 12.2437 5.31443C12.1953 5.38973 12.124 5.45426 12.0299 5.50804C11.9385 5.56182 11.8363 5.58871 11.7234 5.58871C11.6588 5.58871 11.597 5.58065 11.5378 5.56451C11.4787 5.54569 11.4236 5.52149 11.3725 5.49191C11.3214 5.46233 11.2757 5.42872 11.2353 5.39107C11.1977 5.35343 11.1681 5.31443 11.1466 5.2741C11.1063 5.19074 11.0821 5.12352 11.074 5.07242C11.0659 5.02133 11.0619 4.96217 11.0619 4.89495V3.51952C11.0619 3.43885 11.07 3.36759 11.0861 3.30575C11.1049 3.24121 11.1358 3.17802 11.1789 3.11617ZM11.9291 3.32995C11.878 3.25465 11.8081 3.21701 11.7194 3.21701C11.6736 3.21701 11.6279 3.23045 11.5822 3.25734C11.5392 3.28155 11.5083 3.30978 11.4894 3.34205C11.4733 3.37432 11.4625 3.40658 11.4572 3.43885C11.4518 3.47112 11.4491 3.49801 11.4491 3.51952V4.89495C11.4491 4.90839 11.4491 4.92318 11.4491 4.93932C11.4491 4.95276 11.4505 4.96755 11.4532 4.98369C11.4558 5.01058 11.4774 5.05494 11.5177 5.11679C11.558 5.17326 11.6252 5.20149 11.7194 5.20149C11.7678 5.20149 11.8108 5.19074 11.8484 5.16923C11.8888 5.14503 11.917 5.11814 11.9331 5.08856C11.952 5.05629 11.9641 5.02671 11.9694 4.99982C11.9748 4.97293 11.9775 4.93797 11.9775 4.89495V3.51952C11.9775 3.46574 11.9748 3.4281 11.9694 3.40659C11.9667 3.38507 11.9533 3.35953 11.9291 3.32995H11.9291Z" fill="white"/>
  <path d="M12.8106 3.11617C12.8724 3.03013 12.9504 2.9629 13.0445 2.9145C13.1413 2.86341 13.2408 2.83786 13.343 2.83786C13.4425 2.83786 13.5353 2.85803 13.6213 2.89836C13.71 2.9387 13.784 2.99382 13.8431 3.06374C13.9023 3.13365 13.9426 3.20625 13.9642 3.28155C13.9857 3.35415 13.9964 3.43347 13.9964 3.51952V4.89495C13.9964 4.97562 13.9884 5.04688 13.9722 5.10873C13.9588 5.17057 13.9265 5.23914 13.8754 5.31443C13.827 5.38973 13.7558 5.45426 13.6616 5.50804C13.5702 5.56182 13.468 5.58871 13.3551 5.58871C13.2906 5.58871 13.2287 5.58065 13.1696 5.56451C13.1104 5.54569 13.0553 5.52149 13.0042 5.49191C12.9531 5.46233 12.9074 5.42872 12.867 5.39107C12.8294 5.35343 12.7998 5.31443 12.7783 5.2741C12.738 5.19074 12.7138 5.12352 12.7057 5.07242C12.6976 5.02133 12.6936 4.96217 12.6936 4.89495V3.51952C12.6936 3.43885 12.7017 3.36759 12.7178 3.30575C12.7366 3.24121 12.7675 3.17802 12.8106 3.11617ZM13.5608 3.32995C13.5097 3.25465 13.4398 3.21701 13.3511 3.21701C13.3054 3.21701 13.2596 3.23045 13.2139 3.25734C13.1709 3.28155 13.14 3.30978 13.1212 3.34205C13.105 3.37432 13.0943 3.40658 13.0889 3.43885C13.0835 3.47112 13.0808 3.49801 13.0808 3.51952V4.89495C13.0808 4.90839 13.0808 4.92318 13.0808 4.93932C13.0808 4.95276 13.0822 4.96755 13.0849 4.98369C13.0876 5.01058 13.1091 5.05494 13.1494 5.11679C13.1897 5.17326 13.257 5.20149 13.3511 5.20149C13.3995 5.20149 13.4425 5.19074 13.4801 5.16923C13.5205 5.14503 13.5487 5.11814 13.5649 5.08856C13.5837 5.05629 13.5958 5.02671 13.6012 4.99982C13.6065 4.97293 13.6092 4.93797 13.6092 4.89495V3.51952C13.6092 3.46574 13.6065 3.4281 13.6012 3.40659C13.5985 3.38507 13.585 3.35953 13.5608 3.32995H13.5608Z" fill="white"/>
  <path d="M14.9666 2.86206C15.1414 2.86206 15.2906 2.92391 15.4143 3.0476C15.5407 3.16861 15.6039 3.3165 15.6039 3.49129V4.89495C15.6039 5.09394 15.5434 5.25528 15.4224 5.37897C15.3014 5.50266 15.1454 5.56451 14.9545 5.56451H14.3535V2.86206H14.9666ZM15.2207 4.89495V3.49129C15.2207 3.416 15.1925 3.3528 15.136 3.30171C15.0822 3.25062 15.0164 3.22508 14.9384 3.22508H14.7367V5.20553H14.9263C15.1226 5.20553 15.2207 5.102 15.2207 4.89495Z" fill="white"/>
  <path d="M16.3425 5.56451V2.86206H16.7257V4.01564H17.2178V2.86206H17.601V5.56451H17.2178V4.35849H16.7257V5.56451H16.3425Z" fill="white"/>
  <path d="M19.1171 5.17729V5.56451H17.9595V2.86206H19.1171V3.21701H18.3427V4.01564H19.0203V4.38269H18.3427V5.17729H19.1171Z" fill="white"/>
  <path d="M19.1747 5.56451L19.7797 2.86206H20.1145L20.7195 5.56451H20.3041L20.1952 4.98369H19.695L19.5821 5.56451H19.1747ZM19.7636 4.6247H20.1266L19.9451 3.64053L19.7636 4.6247Z" fill="white"/>
  <path d="M22.0742 5.56451H20.9207V2.86206H21.3079V5.17729H22.0742V5.56451Z" fill="white"/>
  <path d="M22.2491 5.56451V3.22104H21.7933V2.86206H23.0962V3.22104H22.6323V5.56451H22.2491Z" fill="white"/>
  <path d="M23.3033 5.56451V2.86206H23.6865V4.01564H24.1786V2.86206H24.5618V5.56451H24.1786V4.35849H23.6865V5.56451H23.3033Z" fill="white"/>
  <path d="M9.27588 9.29124L9.8809 6.58879H10.2157L10.8207 9.29124H10.4053L10.2964 8.71042H9.7962L9.68326 9.29124H9.27588ZM9.86477 8.35144H10.2278L10.0463 7.36726L9.86477 8.35144Z" fill="white"/>
  <path d="M12.006 9.29124L11.405 7.64961V9.29124H11.0178V6.58879H11.3849L11.9818 8.2264V6.58879H12.369V9.29124H12.006Z" fill="white"/>
  <path d="M13.4034 6.58879C13.5782 6.58879 13.7274 6.65064 13.8511 6.77433C13.9775 6.89534 14.0407 7.04324 14.0407 7.21802V8.62168C14.0407 8.82067 13.9802 8.98201 13.8592 9.1057C13.7382 9.2294 13.5822 9.29124 13.3913 9.29124H12.7903V6.58879H13.4034ZM13.6575 8.62168V7.21802C13.6575 7.14273 13.6293 7.07954 13.5728 7.02844C13.519 6.97735 13.4531 6.95181 13.3751 6.95181H13.1735V8.93226H13.363C13.5593 8.93226 13.6575 8.82874 13.6575 8.62168Z" fill="white"/>
  <path d="M16.0344 9.29124L15.7157 7.64557L15.4051 9.29124H15.0462L14.6549 6.58879H15.0663L15.2599 8.22236L15.5705 6.58879H15.8569L16.1755 8.22236L16.3692 6.58879H16.7765L16.3974 9.29124H16.0344Z" fill="white"/>
  <path d="M18.1339 8.90403V9.29124H16.9763V6.58879H18.1339V6.94374H17.3595V7.74238H18.0371V8.10943H17.3595V8.90403H18.1339Z" fill="white"/>
  <path d="M19.4326 9.29124H18.2791V6.58879H18.6663V8.90403H19.4326V9.29124Z" fill="white"/>
  <path d="M20.699 9.29124H19.5454V6.58879H19.9326V8.90403H20.699V9.29124Z" fill="white"/>
  <path d="M21.9642 6.58879C22.0476 6.58879 22.1255 6.60627 22.1981 6.64123C22.2788 6.67887 22.3608 6.73938 22.4442 6.82274C22.5329 6.90878 22.5773 7.04323 22.5773 7.22609V7.43179C22.5773 7.63885 22.4953 7.78406 22.3312 7.86742C22.4953 7.96422 22.5773 8.1148 22.5773 8.31916V8.63378C22.5773 8.8247 22.5154 8.98201 22.3917 9.1057C22.2707 9.2294 22.1148 9.29124 21.9239 9.29124H21.3269V6.58879H21.9642ZM22.1941 7.39146V7.22609C22.1941 7.14273 22.1699 7.07685 22.1215 7.02844C22.0731 6.97735 22.0086 6.95181 21.9279 6.95181H21.7101V7.69801H21.94C22.0287 7.69801 22.0933 7.67112 22.1336 7.61734C22.1739 7.56087 22.1941 7.48558 22.1941 7.39146ZM22.1941 8.63378V8.31916C22.1941 8.23312 22.1699 8.16589 22.1215 8.11749C22.0758 8.0664 22.0113 8.04085 21.9279 8.04085H21.7101V8.90806H21.9319C22.0099 8.90806 22.0731 8.88252 22.1215 8.83143C22.1699 8.77765 22.1941 8.71177 22.1941 8.63378Z" fill="white"/>
  <path d="M24.0236 8.90403V9.29124H22.866V6.58879H24.0236V6.94374H23.2492V7.74238H23.9268V8.10943H23.2492V8.90403H24.0236Z" fill="white"/>
  <path d="M24.1953 9.29124V6.58879H24.5785V9.29124H24.1953Z" fill="white"/>
  <path d="M25.8954 9.29124L25.2944 7.64961V9.29124H24.9072V6.58879H25.2743L25.8712 8.2264V6.58879H26.2585V9.29124H25.8954Z" fill="white"/>
  <path d="M27.6743 9.0089C27.6124 9.1057 27.5331 9.181 27.4363 9.23478C27.3395 9.28856 27.2333 9.31545 27.1177 9.31545C27.0155 9.31545 26.916 9.29125 26.8192 9.24284C26.7251 9.19444 26.6511 9.13529 26.5973 9.06537C26.5462 8.99277 26.5113 8.92016 26.4925 8.84756C26.4763 8.77495 26.4683 8.69294 26.4683 8.60151V7.25029C26.4683 7.18306 26.475 7.11584 26.4884 7.04862C26.5072 6.98139 26.557 6.88593 26.6377 6.76223C26.721 6.63047 26.8851 6.56459 27.1298 6.56459C27.2373 6.56459 27.3381 6.59014 27.4323 6.64123C27.5264 6.69232 27.5976 6.75552 27.646 6.83081C27.6971 6.90341 27.7294 6.97332 27.7428 7.04054C27.759 7.10508 27.767 7.175 27.767 7.25029V7.36323H27.3839V7.25029C27.3839 7.22878 27.3825 7.20996 27.3798 7.19382C27.3798 7.175 27.3785 7.15887 27.3758 7.14542C27.3731 7.12122 27.3529 7.08222 27.3153 7.02844C27.2776 6.97466 27.2144 6.94778 27.1257 6.94778C27.0208 6.94778 26.9509 6.97601 26.916 7.03248C26.8837 7.08895 26.8649 7.13063 26.8595 7.15752C26.8541 7.18441 26.8514 7.21533 26.8514 7.25029V8.60151C26.8514 8.6284 26.8514 8.65126 26.8514 8.67009C26.8514 8.68891 26.8528 8.70504 26.8555 8.71849C26.8582 8.74 26.8783 8.78168 26.916 8.84353C26.9509 8.9 27.0195 8.92823 27.1217 8.92823C27.2266 8.92823 27.2938 8.9 27.3234 8.84353C27.3395 8.81395 27.3516 8.78975 27.3597 8.77093C27.3677 8.74941 27.3731 8.73059 27.3758 8.71445C27.3812 8.69832 27.3839 8.68218 27.3839 8.66605C27.3839 8.64723 27.3839 8.62571 27.3839 8.60151V8.12959H27.0733V7.79078H27.767V8.60151C27.767 8.65798 27.7657 8.70639 27.763 8.74672C27.7603 8.78437 27.7549 8.81798 27.7469 8.84756C27.7388 8.87714 27.728 8.90537 27.7146 8.93226C27.7038 8.95646 27.6904 8.98201 27.6743 9.0089H27.6743Z" fill="white"/>
  <path d="M6.33276 7.68187V7.79769C6.33276 7.84273 6.32954 7.89421 6.3231 7.95212C6.3231 8.00359 6.31345 8.0808 6.29414 8.18375C6.20406 8.4926 6.03355 8.74355 5.78261 8.93658C5.5381 9.12961 5.25177 9.22613 4.92362 9.22613C4.66624 9.22613 4.42173 9.14892 4.19009 8.99449C3.95845 8.83363 3.81046 8.67598 3.74612 8.52156C3.70751 8.43791 3.67534 8.36392 3.6496 8.29957C3.6303 8.23523 3.61421 8.1741 3.60134 8.11619C3.58848 8.05829 3.57883 7.99715 3.57239 7.93281C3.57239 7.86203 3.57239 7.77839 3.57239 7.68187V7.30546H4.49894V7.83629C4.5118 7.91994 4.5472 8.01324 4.60512 8.11619C4.66946 8.23201 4.78528 8.28992 4.95257 8.28992C5.11987 8.28992 5.2389 8.23201 5.30968 8.11619C5.38046 8.00038 5.41585 7.8556 5.41585 7.68187V6.68775C5.40941 6.5655 5.38367 6.4722 5.33863 6.40786C5.30003 6.34351 5.25177 6.29847 5.19386 6.27274C5.13595 6.24056 5.07482 6.22448 5.01048 6.22448C4.94613 6.21804 4.88823 6.21482 4.83675 6.21482H4.67267V5.39443H4.83675C5.22282 5.39443 5.41585 5.21427 5.41585 4.85394V4.08181C5.41585 4.0046 5.40942 3.94025 5.39655 3.88878C5.39655 3.86948 5.3869 3.84052 5.3676 3.80192C5.34829 3.76331 5.31934 3.7247 5.28073 3.68609C5.24856 3.64749 5.20674 3.61532 5.15526 3.58958C5.10378 3.56384 5.04266 3.55097 4.97188 3.55097C4.81102 3.55097 4.69198 3.60245 4.61477 3.7054C4.53756 3.80191 4.49895 3.92738 4.49895 4.08181V4.55474H3.57239V4.08181C3.57239 3.67644 3.7043 3.33542 3.96812 3.05874C4.22549 2.78206 4.56008 2.64372 4.97188 2.64372C5.19709 2.64372 5.41264 2.70163 5.61854 2.81745C5.83088 2.93327 5.9853 3.06839 6.08181 3.22282C6.18476 3.37724 6.25233 3.52202 6.2845 3.65714C6.31667 3.79226 6.33276 3.93382 6.33276 4.08181V4.83464C6.33276 5.25287 6.14938 5.57138 5.78262 5.79014C5.98852 5.93814 6.13007 6.08613 6.20728 6.23412C6.29093 6.37568 6.33276 6.56871 6.33276 6.81321V7.68187Z" fill="white"/>
  <path d="M5.81836 21.0179H11.1089L12.9678 16.9428L13.8972 23.1628L16.1136 19.1829L17.4481 26.7375L21.7378 12.5816L23.7158 16.6568" stroke="white" stroke-width="3.4" stroke-linecap="round" stroke-linejoin="round"/>
  <path fill-rule="evenodd" clip-rule="evenodd" d="M24.3929 23.327C24.3929 23.327 25.8491 21.8454 26.5836 21.111C26.8094 20.8852 26.988 20.5393 26.988 20.1252C26.988 19.3947 26.673 18.4232 25.5894 18.4232C24.9725 18.4232 24.4574 19.0175 24.4013 19.0804C24.317 19.175 24.2193 19.1704 24.1485 19.0804C24.0963 19.0142 23.5773 18.4232 22.9604 18.4232C21.8768 18.4232 21.5618 19.3947 21.5618 20.1252C21.5618 20.5393 21.7404 20.8852 21.9662 21.111C22.7007 21.8454 24.1569 23.327 24.1569 23.327C24.237 23.412 24.3002 23.4136 24.3929 23.327Z" fill="white"/>
</svg>
