<svg width="32" height="33" viewBox="0 0 32 33" fill="none" xmlns="http://www.w3.org/2000/svg">
  <path fill-rule="evenodd" clip-rule="evenodd" d="M0.178645 0H31.8214C31.9203 0 32 0.0796758 32 0.178645V31.8736C32 31.9726 31.9203 32.0523 31.8214 32.0523H0.178645C0.0796737 32.0523 0 31.9726 0 31.8736V0.178645C0 0.0796758 0.0796737 0 0.178645 0Z" fill="#D3A029"/>
  <path d="M9.24146 5.56451V5.21763L9.96749 3.22104H9.29389V2.86206H10.3991V3.17264L9.67708 5.17729H10.3991V5.56451H9.24146Z" fill="white"/>
  <path d="M11.882 5.17729V5.56451H10.7244V2.86206H11.882V3.21701H11.1076V4.01564H11.7852V4.38269H11.1076V5.17729H11.882Z" fill="white"/>
  <path d="M12.0802 5.56451V2.86206H12.7578C12.9353 2.86206 13.0845 2.92391 13.2056 3.0476C13.3292 3.17129 13.3911 3.32323 13.3911 3.50339V3.75347C13.3911 4.00354 13.2849 4.19446 13.0724 4.32622L13.4839 5.56451H13.0724L12.7094 4.4069H12.4674V5.56451H12.0802ZM12.9393 3.97934C12.9635 3.94976 12.9797 3.91615 12.9877 3.87851C12.9985 3.84086 13.0039 3.79918 13.0039 3.75347V3.50339C13.0039 3.42003 12.981 3.3528 12.9353 3.30171C12.8896 3.24793 12.8251 3.22104 12.7417 3.22104H12.4674V4.06405H12.7377C12.8183 4.06405 12.8856 4.03581 12.9393 3.97934H12.9393Z" fill="white"/>
  <path d="M13.7362 3.11617C13.7981 3.03013 13.8761 2.9629 13.9702 2.9145C14.067 2.86341 14.1665 2.83786 14.2687 2.83786C14.3681 2.83786 14.4609 2.85803 14.547 2.89836C14.6357 2.9387 14.7096 2.99382 14.7688 3.06374C14.828 3.13365 14.8683 3.20625 14.8898 3.28155C14.9113 3.35415 14.9221 3.43347 14.9221 3.51952V4.89495C14.9221 4.97562 14.914 5.04688 14.8979 5.10873C14.8844 5.17057 14.8522 5.23914 14.8011 5.31443C14.7527 5.38973 14.6814 5.45426 14.5873 5.50804C14.4959 5.56182 14.3937 5.58871 14.2808 5.58871C14.2162 5.58871 14.1544 5.58065 14.0952 5.56451C14.0361 5.54569 13.9809 5.52149 13.9298 5.49191C13.8787 5.46233 13.833 5.42872 13.7927 5.39107C13.7551 5.35343 13.7255 5.31443 13.704 5.2741C13.6636 5.19074 13.6394 5.12352 13.6314 5.07242C13.6233 5.02133 13.6193 4.96217 13.6193 4.89495V3.51952C13.6193 3.43885 13.6273 3.36759 13.6435 3.30575C13.6623 3.24121 13.6932 3.17802 13.7362 3.11617V3.11617ZM14.4865 3.32995C14.4354 3.25465 14.3655 3.21701 14.2767 3.21701C14.231 3.21701 14.1853 3.23045 14.1396 3.25734C14.0966 3.28155 14.0656 3.30978 14.0468 3.34205C14.0307 3.37432 14.0199 3.40658 14.0145 3.43885C14.0092 3.47112 14.0065 3.49801 14.0065 3.51952V4.89495C14.0065 4.90839 14.0065 4.92318 14.0065 4.93932C14.0065 4.95276 14.0078 4.96755 14.0105 4.98369C14.0132 5.01058 14.0347 5.05494 14.0751 5.11679C14.1154 5.17326 14.1826 5.20149 14.2767 5.20149C14.3251 5.20149 14.3682 5.19074 14.4058 5.16923C14.4461 5.14503 14.4744 5.11814 14.4905 5.08856C14.5093 5.05629 14.5214 5.02671 14.5268 4.99982C14.5322 4.97293 14.5349 4.93797 14.5349 4.89495V3.51952C14.5349 3.46574 14.5322 3.4281 14.5268 3.40659C14.5241 3.38507 14.5107 3.35953 14.4865 3.32995H14.4865Z" fill="white"/>
  <path d="M9.32214 9.29126V6.58881H9.70533V7.74239H10.1974V6.58881H10.5806V9.29126H10.1974V8.08524H9.70533V9.29126H9.32214Z" fill="white"/>
  <path d="M12.1698 9.00891C12.1107 9.10034 12.0341 9.17429 11.9399 9.23076C11.8485 9.28723 11.7463 9.31546 11.6334 9.31546C11.5769 9.31546 11.5205 9.30739 11.464 9.29126C11.4102 9.27513 11.3591 9.25496 11.3107 9.23076C11.2623 9.20387 11.2193 9.17429 11.1816 9.14202C11.144 9.10706 11.1158 9.07076 11.0969 9.03311C11.0566 8.95782 11.0297 8.89194 11.0163 8.83547C11.0055 8.779 11.0001 8.7185 11.0001 8.65396V6.58881H11.3873V8.65396C11.3873 8.67279 11.3873 8.69027 11.3873 8.7064C11.39 8.71984 11.3927 8.73329 11.3954 8.74674C11.3981 8.76825 11.4183 8.80589 11.4559 8.85967C11.4909 8.90807 11.5514 8.93228 11.6374 8.93228C11.7154 8.93228 11.7732 8.90404 11.8108 8.84757C11.8512 8.78841 11.8713 8.72388 11.8713 8.65396V6.58881H12.2586V8.65396C12.2586 8.7185 12.2518 8.78035 12.2384 8.83951C12.225 8.89867 12.2021 8.95513 12.1698 9.00891H12.1698Z" fill="white"/>
  <path d="M13.4905 9.29126L12.8895 7.64963V9.29126H12.5023V6.58881H12.8693L13.4663 8.22641V6.58881H13.8535V9.29126H13.4905Z" fill="white"/>
  <path d="M15.3457 9.0089C15.2838 9.1057 15.2045 9.181 15.1077 9.23478C15.0109 9.28856 14.9047 9.31545 14.789 9.31545C14.6869 9.31545 14.5874 9.29125 14.4906 9.24284C14.3964 9.19444 14.3225 9.13529 14.2687 9.06537C14.2176 8.99277 14.1827 8.92016 14.1638 8.84756C14.1477 8.77495 14.1396 8.69294 14.1396 8.60151V7.25029C14.1396 7.18306 14.1464 7.11584 14.1598 7.04862C14.1786 6.98139 14.2284 6.88593 14.309 6.76223C14.3924 6.63047 14.5564 6.56459 14.8011 6.56459C14.9087 6.56459 15.0095 6.59014 15.1037 6.64123C15.1978 6.69232 15.269 6.75552 15.3174 6.83081C15.3685 6.90341 15.4008 6.97332 15.4142 7.04054C15.4304 7.10508 15.4384 7.175 15.4384 7.25029V7.36323H15.0552V7.25029C15.0552 7.22878 15.0539 7.20996 15.0512 7.19382C15.0512 7.175 15.0499 7.15887 15.0472 7.14542C15.0445 7.12122 15.0243 7.08222 14.9867 7.02844C14.949 6.97466 14.8858 6.94778 14.7971 6.94778C14.6922 6.94778 14.6223 6.97601 14.5873 7.03248C14.5551 7.08895 14.5363 7.13063 14.5309 7.15752C14.5255 7.18441 14.5228 7.21533 14.5228 7.25029V8.60151C14.5228 8.6284 14.5228 8.65126 14.5228 8.67009C14.5228 8.68891 14.5242 8.70504 14.5269 8.71849C14.5296 8.74 14.5497 8.78168 14.5874 8.84353C14.6223 8.9 14.6909 8.92823 14.7931 8.92823C14.8979 8.92823 14.9652 8.9 14.9947 8.84353C15.0109 8.81395 15.023 8.78975 15.031 8.77093C15.0391 8.74941 15.0445 8.73059 15.0472 8.71445C15.0526 8.69832 15.0552 8.68218 15.0552 8.66605C15.0552 8.64723 15.0552 8.62571 15.0552 8.60151V8.12959H14.7447V7.79078H15.4384V8.60151C15.4384 8.65798 15.4371 8.70639 15.4344 8.74672C15.4317 8.78437 15.4263 8.81798 15.4182 8.84756C15.4102 8.87714 15.3994 8.90537 15.386 8.93226C15.3752 8.95646 15.3618 8.98201 15.3456 9.0089H15.3457Z" fill="white"/>
  <path d="M16.8883 8.90405V9.29126H15.7307V6.58881H16.8883V6.94376H16.1138V7.74239H16.7915V8.10944H16.1138V8.90405H16.8883Z" fill="white"/>
  <path d="M17.0559 9.29126V6.58881H17.7335C17.911 6.58881 18.0603 6.65065 18.1813 6.77435C18.305 6.89804 18.3668 7.04998 18.3668 7.23014V7.48021C18.3668 7.73029 18.2606 7.92121 18.0482 8.05297L18.4596 9.29126H18.0482L17.6851 8.13364H17.4431V9.29126H17.0559ZM17.915 7.70609C17.9392 7.67651 17.9554 7.6429 17.9635 7.60525C17.9742 7.56761 17.9796 7.52592 17.9796 7.48021V7.23014C17.9796 7.14678 17.9567 7.07955 17.911 7.02846C17.8653 6.97468 17.8008 6.94779 17.7174 6.94779H17.4431V7.7908H17.7134C17.7941 7.7908 17.8613 7.76256 17.9151 7.70609H17.915Z" fill="white"/>
  <path d="M6.16363 9.16823H3.41292V8.31889L5.13091 4.97943C5.20812 4.825 5.24673 4.66736 5.24673 4.5065V4.02392C5.24673 3.89523 5.20169 3.78585 5.1116 3.69577C5.02152 3.59925 4.91214 3.55099 4.78345 3.55099C4.66763 3.55099 4.56146 3.59282 4.46495 3.67646C4.37486 3.76011 4.32982 3.86306 4.32982 3.98531V4.55476H3.39362V4.09148C3.39362 3.84054 3.48692 3.53491 3.67351 3.17458C3.86654 2.82069 4.25261 2.64374 4.83171 2.64374C5.19847 2.64374 5.51054 2.78208 5.76791 3.05876C6.03172 3.34187 6.16363 3.66359 6.16363 4.02392V4.61267C6.16363 4.87648 6.09285 5.14029 5.95129 5.4041L4.50355 8.25132H6.16363V9.16823Z" fill="white"/>
  <path fill-rule="evenodd" clip-rule="evenodd" d="M18.0526 27.919C18.3063 27.919 18.3516 27.6428 18.3391 27.464C18.3239 27.2467 18.5329 27.2122 18.6424 27.1775C19.8775 26.786 21.173 26.0348 22.1981 24.9531C23.1808 23.9161 23.9562 22.84 24.2371 21.0436C24.2711 20.826 24.1485 20.656 23.9338 20.656H7.22265C7.00794 20.656 6.8853 20.826 6.91932 21.0436C7.20021 22.84 7.97568 23.9161 8.95835 24.9531C9.98338 26.0348 11.2789 26.786 12.514 27.1775C12.6235 27.2122 12.8325 27.2467 12.8173 27.464C12.8049 27.6428 12.8501 27.919 13.1038 27.919H18.0526ZM12.3542 19.9217H13.4624C13.4624 19.9217 13.9703 18.5023 12.7593 17.2883C12.3719 16.8999 12.1264 16.3177 12.1264 15.7691C12.1264 14.7257 12.5947 14.1214 12.7331 13.8986C13.0898 13.3242 12.2396 12.9201 11.8736 13.3593C11.3084 14.0378 10.9805 14.9703 10.9805 15.8534C10.9805 16.8485 11.4637 17.3538 11.9579 17.9429C12.8757 19.037 12.3542 19.9217 12.3542 19.9217V19.9217ZM19.0274 19.9217H20.1355C20.1355 19.9217 20.6434 18.5023 19.4325 17.2883C19.0451 16.8999 18.7996 16.3177 18.7996 15.7691C18.7996 14.7257 19.2678 14.1214 19.4062 13.8986C19.763 13.3242 18.9127 12.9201 18.5468 13.3593C17.9816 14.0378 17.6537 14.9703 17.6537 15.8534C17.6537 16.8485 18.1368 17.3538 18.6311 17.9429C19.5489 19.037 19.0274 19.9217 19.0274 19.9217V19.9217ZM15.7076 19.9217H16.8158C16.8158 19.9217 17.3237 18.5023 16.1128 17.2883C15.7254 16.8999 15.4798 16.3177 15.4798 15.7691C15.4798 14.7257 15.9481 14.1214 16.0865 13.8986C16.4432 13.3242 15.593 12.9201 15.2271 13.3593C14.6619 14.0378 14.3339 14.9703 14.3339 15.8534C14.3339 16.8485 14.8171 17.3538 15.3113 17.9429C16.2291 19.037 15.7076 19.9217 15.7076 19.9217V19.9217Z" fill="white"/>
</svg>
