<svg width="32" height="33" viewBox="0 0 32 33" fill="none" xmlns="http://www.w3.org/2000/svg">
  <path fill-rule="evenodd" clip-rule="evenodd" d="M0.178646 0.0522461H31.8214C31.9203 0.0522461 32 0.13192 32 0.230891V31.9259C32 32.0248 31.9203 32.1045 31.8214 32.1045H0.178646C0.0796762 32.1045 0 32.0248 0 31.9259V0.230891C0 0.13192 0.0796762 0.0522461 0.178646 0.0522461Z" fill="#FDB713"/>
  <path d="M9.07025 5.57871L9.67528 2.87625H10.0101L10.6151 5.57871H10.1996L10.0907 4.99788H9.59057L9.47764 5.57871H9.07025ZM9.65914 4.6389H10.0222L9.84065 3.65472L9.65914 4.6389Z" fill="white"/>
  <path d="M10.7873 5.57871V2.87625H11.9409V3.23927H11.1705V4.05H11.8441V4.41302H11.1705V5.57871H10.7873Z" fill="white"/>
  <path d="M12.1272 5.57871V2.87625H13.2808V3.23927H12.5104V4.05H13.184V4.41302H12.5104V5.57871H12.1272Z" fill="white"/>
  <path d="M13.4564 3.13037C13.5182 3.04432 13.5962 2.97709 13.6903 2.92869C13.7871 2.8776 13.8866 2.85205 13.9888 2.85205C14.0883 2.85205 14.1811 2.87222 14.2671 2.91255C14.3559 2.95289 14.4298 3.00802 14.489 3.07793C14.5481 3.14784 14.5885 3.22045 14.61 3.29574C14.6315 3.36834 14.6422 3.44767 14.6422 3.53372V4.90914C14.6422 4.98981 14.6342 5.06107 14.618 5.12292C14.6046 5.18476 14.5723 5.25334 14.5212 5.32863C14.4728 5.40392 14.4016 5.46846 14.3075 5.52224C14.216 5.57602 14.1139 5.60291 14.0009 5.60291C13.9364 5.60291 13.8745 5.59484 13.8154 5.57871C13.7562 5.55988 13.7011 5.53568 13.65 5.5061C13.5989 5.47652 13.5532 5.44291 13.5129 5.40526C13.4752 5.36762 13.4456 5.32863 13.4241 5.28829C13.3838 5.20494 13.3596 5.13771 13.3515 5.08662C13.3434 5.03552 13.3394 4.97637 13.3394 4.90914V3.53372C13.3394 3.45305 13.3475 3.38179 13.3636 3.31994C13.3824 3.2554 13.4134 3.19222 13.4564 3.13037ZM14.2066 3.34414C14.1555 3.26885 14.0856 3.2312 13.9969 3.2312C13.9512 3.2312 13.9055 3.24465 13.8597 3.27154C13.8167 3.29574 13.7858 3.32397 13.767 3.35624C13.7508 3.38851 13.7401 3.42078 13.7347 3.45305C13.7293 3.48531 13.7266 3.51221 13.7266 3.53372V4.90914C13.7266 4.92258 13.7266 4.93737 13.7266 4.95351C13.7266 4.96695 13.728 4.98175 13.7307 4.99788C13.7334 5.02477 13.7549 5.06914 13.7952 5.13099C13.8356 5.18746 13.9028 5.21569 13.9969 5.21569C14.0453 5.21569 14.0883 5.20493 14.126 5.18342C14.1663 5.15922 14.1945 5.13233 14.2107 5.10275C14.2295 5.07048 14.2416 5.0409 14.247 5.01401C14.2523 4.98712 14.255 4.95217 14.255 4.90914V3.53372C14.255 3.47994 14.2523 3.44229 14.247 3.42078C14.2443 3.39927 14.2308 3.37372 14.2066 3.34414H14.2066Z" fill="white"/>
  <path d="M14.9762 5.57871V2.87625H15.6538C15.8313 2.87625 15.9805 2.9381 16.1015 3.06179C16.2252 3.18549 16.2871 3.33742 16.2871 3.51758V3.76766C16.2871 4.01774 16.1809 4.20865 15.9684 4.34042L16.3799 5.57871H15.9684L15.6054 4.42109H15.3634V5.57871H14.9762ZM15.8353 3.99354C15.8595 3.96396 15.8757 3.93034 15.8837 3.8927C15.8945 3.85505 15.8999 3.81338 15.8999 3.76766V3.51758C15.8999 3.43422 15.877 3.367 15.8313 3.3159C15.7856 3.26212 15.7211 3.23524 15.6377 3.23524H15.3634V4.07824H15.6337C15.7143 4.07824 15.7816 4.05001 15.8353 3.99354H15.8353Z" fill="white"/>
  <path d="M17.1392 2.87625C17.314 2.87625 17.4632 2.9381 17.5869 3.06179C17.7133 3.1828 17.7765 3.3307 17.7765 3.50548V4.90914C17.7765 5.10813 17.716 5.26947 17.595 5.39316C17.474 5.51686 17.318 5.57871 17.1271 5.57871H16.5261V2.87625H17.1392ZM17.3933 4.90914V3.50548C17.3933 3.43019 17.3651 3.367 17.3086 3.3159C17.2548 3.26481 17.189 3.23927 17.111 3.23927H16.9093V5.21973H17.0989C17.2952 5.21973 17.3933 5.1162 17.3933 4.90914Z" fill="white"/>
  <path d="M17.959 5.57871L18.564 2.87625H18.8988L19.5038 5.57871H19.0884L18.9795 4.99788H18.4793L18.3664 5.57871H17.959ZM18.5479 4.6389H18.9109L18.7294 3.65472L18.5479 4.6389Z" fill="white"/>
  <path d="M20.3382 2.87625C20.4216 2.87625 20.4996 2.89373 20.5722 2.92869C20.6528 2.96633 20.7349 3.02684 20.8182 3.1102C20.9069 3.19624 20.9513 3.33069 20.9513 3.51355V3.71926C20.9513 3.92631 20.8693 4.07152 20.7053 4.15488C20.8693 4.25168 20.9513 4.40227 20.9513 4.60663V4.92124C20.9513 5.11216 20.8895 5.26947 20.7658 5.39316C20.6448 5.51686 20.4888 5.57871 20.2979 5.57871H19.7009V2.87625H20.3382ZM20.5681 3.67892V3.51355C20.5681 3.43019 20.5439 3.36431 20.4955 3.3159C20.4471 3.26481 20.3826 3.23927 20.3019 3.23927H20.0841V3.98547H20.314C20.4028 3.98547 20.4673 3.95858 20.5076 3.9048C20.548 3.84833 20.5681 3.77304 20.5681 3.67892ZM20.5681 4.92124V4.60663C20.5681 4.52058 20.5439 4.45336 20.4955 4.40495C20.4498 4.35386 20.3853 4.32831 20.3019 4.32831H20.0841V5.19552H20.306C20.3839 5.19552 20.4471 5.16998 20.4955 5.11889C20.5439 5.06511 20.5681 4.99923 20.5681 4.92124Z" fill="white"/>
  <path d="M22.4148 5.57871H21.2612V2.87625H21.6484V5.19149H22.4148V5.57871Z" fill="white"/>
  <path d="M23.6903 5.19149V5.57871H22.5327V2.87625H23.6903V3.2312H22.9159V4.02984H23.5935V4.39689H22.9159V5.19149H23.6903Z" fill="white"/>
  <path d="M24.1093 5.57871L24.7143 2.87625H25.0491L25.6541 5.57871H25.2386L25.1297 4.99788H24.6296L24.5166 5.57871H24.1093ZM24.6981 4.6389H25.0612L24.8797 3.65472L24.6981 4.6389Z" fill="white"/>
  <path d="M26.8394 5.57871L26.2384 3.93707V5.57871H25.8512V2.87625H26.2182L26.8152 4.51386V2.87625H27.2024V5.57871H26.8394Z" fill="white"/>
  <path d="M28.0877 2.87625C28.2625 2.87625 28.4117 2.9381 28.5354 3.06179C28.6618 3.1828 28.725 3.3307 28.725 3.50548V4.90914C28.725 5.10813 28.6645 5.26947 28.5435 5.39316C28.4225 5.51686 28.2665 5.57871 28.0756 5.57871H27.4746V2.87625H28.0877ZM28.3418 4.90914V3.50548C28.3418 3.43019 28.3136 3.367 28.2571 3.3159C28.2033 3.26481 28.1374 3.23927 28.0595 3.23927H27.8578V5.21973H28.0474C28.2437 5.21973 28.3418 5.1162 28.3418 4.90914Z" fill="white"/>
  <path d="M10.4773 8.62379C10.4773 8.70984 10.4719 8.78379 10.4612 8.84563C10.4531 8.90748 10.4262 8.9747 10.3805 9.04731C10.3563 9.08495 10.3254 9.12125 10.2877 9.15621C10.2528 9.18848 10.2124 9.21806 10.1667 9.24495C10.1237 9.26915 10.0767 9.28932 10.0256 9.30545C9.97447 9.32159 9.92473 9.32965 9.87633 9.32965C9.75532 9.32965 9.64507 9.30411 9.54558 9.25301C9.44877 9.20192 9.37751 9.13739 9.3318 9.05941C9.28609 8.98143 9.25651 8.90882 9.24306 8.8416C9.23231 8.77437 9.22693 8.70177 9.22693 8.62379V7.23223C9.22693 7.15694 9.23365 7.08971 9.2471 7.03056C9.26323 6.96871 9.2955 6.90283 9.3439 6.83291C9.3923 6.763 9.46087 6.70384 9.54961 6.65543C9.63835 6.60434 9.73112 6.5788 9.82792 6.5788C10.0135 6.5788 10.1681 6.64064 10.2918 6.76434C10.4155 6.88534 10.4773 7.04131 10.4773 7.23223V7.37743H10.0941V7.23223C10.0941 7.15694 10.0726 7.09375 10.0296 7.04266C9.98926 6.99157 9.92876 6.96602 9.84809 6.96602C9.7728 6.96602 9.71364 6.99157 9.67061 7.04266C9.63028 7.09375 9.61011 7.15694 9.61011 7.23223V8.72866C9.61549 8.76899 9.63431 8.81471 9.66658 8.8658C9.70423 8.91958 9.76607 8.94647 9.85212 8.94647C9.94355 8.94647 10.0041 8.92227 10.0336 8.87386C10.0632 8.82546 10.0807 8.79051 10.0861 8.769C10.0914 8.74479 10.0941 8.71253 10.0941 8.67219V8.53505H10.4773L10.4773 8.62379Z" fill="white"/>
  <path d="M11.894 9.30545H10.7404V6.603H11.1276V8.91824H11.894V9.30545Z" fill="white"/>
  <path d="M13.1448 8.91824V9.30545H11.9872V6.603H13.1448V6.95795H12.3704V7.75658H13.048V8.12363H12.3704V8.91824H13.1448Z" fill="white"/>
  <path d="M13.1946 9.30545L13.7997 6.603H14.1344L14.7395 9.30545H14.324L14.2151 8.72463H13.715L13.602 9.30545H13.1946ZM13.7835 8.36564H14.1465L13.965 7.38147L13.7835 8.36564Z" fill="white"/>
  <path d="M15.9248 9.30545L15.3238 7.66381V9.30545H14.9366V6.603H15.3036L15.9006 8.2406V6.603H16.2878V9.30545H15.9248Z" fill="white"/>
  <path d="M18.1115 8.91824V9.30545H16.9539V6.603H18.1115V6.95795H17.3371V7.75658H18.0147V8.12363H17.3371V8.91824H18.1115Z" fill="white"/>
  <path d="M19.256 9.30545L18.655 7.66381V9.30545H18.2678V6.603H18.6348L19.2318 8.2406V6.603H19.619V9.30545H19.256Z" fill="white"/>
  <path d="M20.9743 8.91824V9.30545H19.8167V6.603H20.9743V6.95795H20.1998V7.75658H20.8775V8.12363H20.1998V8.91824H20.9743Z" fill="white"/>
  <path d="M21.1761 9.30545V6.603H21.8538C22.0313 6.603 22.1805 6.66484 22.3015 6.78854C22.4252 6.91223 22.487 7.06416 22.487 7.24433V7.4944C22.487 7.74448 22.3808 7.9354 22.1684 8.06716L22.5798 9.30545H22.1684L21.8054 8.14783H21.5634V9.30545H21.1761ZM22.0353 7.72028C22.0595 7.6907 22.0756 7.65709 22.0837 7.61944C22.0945 7.5818 22.0998 7.54012 22.0998 7.4944V7.24433C22.0998 7.16097 22.077 7.09375 22.0313 7.04266C21.9855 6.98888 21.921 6.96198 21.8377 6.96198H21.5634V7.80499H21.8336C21.9143 7.80499 21.9815 7.77675 22.0353 7.72028H22.0353Z" fill="white"/>
  <path d="M23.9287 9.02311C23.8668 9.11991 23.7875 9.1952 23.6907 9.24898C23.5939 9.30276 23.4877 9.32965 23.3721 9.32965C23.2699 9.32965 23.1704 9.30545 23.0736 9.25705C22.9795 9.20865 22.9055 9.14949 22.8517 9.07957C22.8006 9.00697 22.7657 8.93437 22.7469 8.86176C22.7307 8.78916 22.7227 8.70715 22.7227 8.61572V7.26449C22.7227 7.19727 22.7294 7.13005 22.7428 7.06282C22.7616 6.9956 22.8114 6.90013 22.8921 6.77644C22.9754 6.64468 23.1394 6.5788 23.3841 6.5788C23.4917 6.5788 23.5925 6.60434 23.6867 6.65543C23.7808 6.70653 23.852 6.76972 23.9004 6.84501C23.9515 6.91762 23.9838 6.98753 23.9972 7.05476C24.0134 7.11929 24.0214 7.1892 24.0214 7.26449V7.37743H23.6383V7.26449C23.6383 7.24298 23.6369 7.22416 23.6342 7.20803C23.6342 7.1892 23.6329 7.17307 23.6302 7.15963C23.6275 7.13542 23.6073 7.09644 23.5697 7.04266C23.532 6.98888 23.4688 6.96198 23.3801 6.96198C23.2752 6.96198 23.2053 6.99022 23.1704 7.04669C23.1381 7.10315 23.1193 7.14484 23.1139 7.17173C23.1085 7.19862 23.1058 7.22954 23.1058 7.26449V8.61572C23.1058 8.64261 23.1058 8.66547 23.1058 8.68429C23.1058 8.70312 23.1072 8.71925 23.1099 8.73269C23.1126 8.75421 23.1327 8.79589 23.1704 8.85773C23.2053 8.9142 23.2739 8.94244 23.3761 8.94244C23.4809 8.94244 23.5482 8.9142 23.5778 8.85773C23.5939 8.82815 23.606 8.80395 23.6141 8.78513C23.6221 8.76362 23.6275 8.74479 23.6302 8.72866C23.6356 8.71252 23.6383 8.69639 23.6383 8.68026C23.6383 8.66143 23.6383 8.63993 23.6383 8.61572V8.1438H23.3277V7.80499H24.0214V8.61572C24.0214 8.67219 24.0201 8.7206 24.0174 8.76093C24.0147 8.79858 24.0093 8.83218 24.0013 8.86176C23.9932 8.89134 23.9824 8.91958 23.969 8.94647C23.9582 8.97067 23.9448 8.99621 23.9287 9.02311H23.9287Z" fill="white"/>
  <path d="M24.6044 9.30545V8.1438L24.08 6.603H24.4834L24.798 7.65978L25.1166 6.603H25.524L24.9876 8.1438V9.30545H24.6044Z" fill="white"/>
  <path d="M4.11824 4.33732H3.29785V2.71585H6.05821V3.55554L4.55256 9.18243H3.5681L5.14131 3.57485H4.11824V4.33732Z" fill="white"/>
  <path fill-rule="evenodd" clip-rule="evenodd" d="M9.56848 15.9685L11.305 16.971C11.5029 17.0853 11.5703 17.3367 11.456 17.5347C11.3417 17.7327 11.0903 17.8001 10.8923 17.6858L9.15582 16.6832C8.95783 16.5689 8.89046 16.3175 9.00477 16.1195C9.11908 15.9215 9.37049 15.8542 9.56848 15.9685ZM12.5861 13.2758L13.5887 15.0123C13.703 15.2103 13.6356 15.4617 13.4376 15.576C13.2396 15.6903 12.9882 15.623 12.8739 15.425L11.8714 13.6885C11.7571 13.4905 11.8244 13.2391 12.0224 13.1248C12.2204 13.0105 12.4718 13.0778 12.5861 13.2758ZM16.5458 12.4528L16.5458 14.4579C16.5458 14.6865 16.3617 14.8705 16.1331 14.8705C15.9045 14.8705 15.7205 14.6865 15.7205 14.4579L15.7205 12.4527C15.7205 12.2241 15.9045 12.0401 16.1331 12.0401C16.3618 12.0401 16.5458 12.2241 16.5458 12.4528ZM20.3865 13.7198L19.3839 15.4563C19.2696 15.6543 19.0182 15.7216 18.8203 15.6073C18.6223 15.493 18.5549 15.2416 18.6692 15.0436L19.6718 13.3071C19.7861 13.1091 20.0375 13.0418 20.2355 13.1561C20.4335 13.2704 20.5008 13.5218 20.3865 13.7198ZM23.0792 16.7374L21.3427 17.74C21.1447 17.8543 20.8933 17.7869 20.779 17.589C20.6647 17.391 20.732 17.1396 20.93 17.0252L22.6665 16.0227C22.8645 15.9084 23.1159 15.9757 23.2302 16.1737C23.3445 16.3717 23.2771 16.6231 23.0792 16.7374ZM23.9022 20.6971L21.8971 20.6971C21.6685 20.6971 21.4844 20.5131 21.4844 20.2844C21.4844 20.0558 21.6685 19.8718 21.8971 19.8718L23.9022 19.8718C24.1308 19.8718 24.3149 20.0558 24.3149 20.2844C24.3149 20.5131 24.1308 20.6971 23.9022 20.6971ZM22.6352 24.5378L20.8987 23.5353C20.7007 23.421 20.6333 23.1696 20.7477 22.9716C20.862 22.7736 21.1134 22.7062 21.3114 22.8205L23.0479 23.8231C23.2458 23.9374 23.3132 24.1888 23.1989 24.3868C23.0846 24.5848 22.8332 24.6521 22.6352 24.5378ZM19.6175 27.2305L18.615 25.494C18.5007 25.296 18.568 25.0446 18.766 24.9303C18.964 24.816 19.2154 24.8833 19.3297 25.0813L20.3323 26.8178C20.4466 27.0158 20.3792 27.2672 20.1812 27.3815C19.9833 27.4958 19.7319 27.4285 19.6175 27.2305ZM15.6579 28.0535L15.6579 26.0484C15.6579 25.8198 15.8419 25.6358 16.0705 25.6358C16.2991 25.6358 16.4832 25.8198 16.4832 26.0484L16.4832 28.0535C16.4832 28.2822 16.2991 28.4662 16.0705 28.4662C15.8419 28.4662 15.6579 28.2822 15.6579 28.0535ZM11.8171 26.7865L12.8197 25.05C12.934 24.852 13.1854 24.7847 13.3834 24.899C13.5814 25.0133 13.6488 25.2647 13.5345 25.4627L12.5319 27.1992C12.4176 27.3972 12.1662 27.4645 11.9682 27.3502C11.7702 27.2359 11.7028 26.9845 11.8171 26.7865ZM9.1245 23.7689L10.861 22.7663C11.059 22.652 11.3104 22.7194 11.4247 22.9173C11.539 23.1153 11.4716 23.3667 11.2737 23.481L9.53717 24.4836C9.33918 24.5979 9.08777 24.5305 8.97346 24.3326C8.85916 24.1346 8.92652 23.8832 9.1245 23.7689ZM8.30143 19.8092L10.3066 19.8092C10.5352 19.8092 10.7192 19.9932 10.7192 20.2218C10.7192 20.4505 10.5352 20.6345 10.3066 20.6345L8.30144 20.6345C8.07282 20.6345 7.88878 20.4505 7.88878 20.2218C7.88878 19.9932 8.07282 19.8092 8.30143 19.8092ZM16.1017 15.5193C14.8462 15.5194 13.6422 16.0182 12.7545 16.906C11.8668 17.7938 11.3681 18.9978 11.3681 20.2533C11.3682 21.5087 11.8669 22.7126 12.7546 23.6003C13.6423 24.488 14.8463 24.9867 16.1017 24.9868C17.3571 24.9869 18.5612 24.4882 19.4489 23.6005C20.3367 22.7128 20.8355 21.5088 20.8356 20.2533C20.8356 19.6316 20.7132 19.016 20.4753 18.4417C20.2374 17.8673 19.8887 17.3455 19.4491 16.9059C19.0095 16.4663 18.4876 16.1176 17.9133 15.8797C17.3389 15.6418 16.7233 15.5193 16.1017 15.5193ZM16.0839 17.1277C16.2386 17.1277 16.3629 17.2524 16.3629 17.4071L16.3629 19.0024C16.3629 19.1571 16.2386 19.2818 16.0839 19.2818C15.9292 19.2818 15.8045 19.1571 15.8045 19.0024L15.8045 17.4071C15.8045 17.2524 15.9292 17.1277 16.0839 17.1277ZM15.3555 17.946L15.3555 18.7715C15.0811 18.9098 14.8504 19.1215 14.6892 19.3831C14.528 19.6448 14.4427 19.946 14.4426 20.2533C14.4427 20.6933 14.6175 21.1152 14.9286 21.4264C15.2397 21.7375 15.6617 21.9123 16.1017 21.9123C16.3195 21.9123 16.5353 21.8695 16.7366 21.7861C16.938 21.7028 17.1209 21.5806 17.275 21.4265C17.4291 21.2724 17.5513 21.0895 17.6347 20.8882C17.7181 20.6869 17.7611 20.4712 17.7611 20.2533C17.7608 19.9479 17.6762 19.6485 17.5166 19.3881C17.357 19.1277 17.1287 18.9164 16.8567 18.7775L16.8567 17.9507C17.3422 18.1096 17.7652 18.4178 18.0653 18.8313C18.3654 19.2447 18.5273 19.7424 18.5279 20.2533C18.5279 20.5719 18.4651 20.8874 18.3432 21.1817C18.2213 21.4761 18.0425 21.7435 17.8172 21.9688C17.5919 22.194 17.3245 22.3727 17.0301 22.4946C16.7357 22.6165 16.4203 22.6792 16.1017 22.6791C15.4583 22.6791 14.8413 22.4235 14.3863 21.9686C13.9314 21.5137 13.6758 20.8967 13.6758 20.2533C13.676 19.7406 13.8387 19.2411 14.1405 18.8265C14.4423 18.412 14.8676 18.1038 15.3555 17.946Z" fill="white"/>
</svg>
