<svg width="32" height="33" viewBox="0 0 32 33" fill="none" xmlns="http://www.w3.org/2000/svg">
  <path fill-rule="evenodd" clip-rule="evenodd" d="M0.178652 0.104492H31.8213C31.9203 0.104492 32 0.184175 32 0.283144V31.9781C32 32.0771 31.9203 32.1567 31.8213 32.1567H0.178652C0.0796803 32.1567 0 32.0771 0 31.9781V0.283144C0 0.184175 0.0796803 0.104492 0.178652 0.104492Z" fill="#02558B"/>
  <path d="M10.1472 5.62325V2.92081H10.7805H10.7885C10.8692 2.92081 10.9458 2.93829 11.0185 2.97324C11.0911 3.00551 11.1556 3.04853 11.2121 3.10231C11.2685 3.15609 11.3129 3.21794 11.3452 3.28786C11.3801 3.35508 11.3989 3.42499 11.4016 3.49759V3.88884V3.92918C11.4016 4.01791 11.3842 4.10128 11.3492 4.17926C11.3169 4.25455 11.2726 4.32043 11.2161 4.3769C11.1596 4.43337 11.0924 4.47774 11.0144 4.51001C10.9391 4.54228 10.8585 4.55841 10.7724 4.55841H10.7361H10.5344V5.62325H10.1472ZM10.966 4.11472C10.9902 4.09052 11.005 4.06498 11.0104 4.03809C11.0185 4.0112 11.0225 3.97758 11.0225 3.93725V3.53792C11.0225 3.46263 10.9996 3.40079 10.9539 3.35239C10.9082 3.3013 10.8464 3.27575 10.7684 3.27575H10.5344V4.19136H10.7361C10.7899 4.19136 10.8329 4.18732 10.8652 4.17926C10.9001 4.16849 10.9338 4.14699 10.966 4.11472Z" fill="white"/>
  <path d="M12.8332 5.23604V5.62325H11.6755V2.92081H12.8332V3.27575H12.0587V4.07439H12.7364V4.44144H12.0587V5.23604H12.8332Z" fill="white"/>
  <path d="M12.9436 5.62325L13.5486 2.92081H13.8834L14.4884 5.62325H14.073L13.9641 5.04243H13.4639L13.351 5.62325H12.9436ZM13.5325 4.68345H13.8955L13.714 3.69927L13.5325 4.68345Z" fill="white"/>
  <path d="M15.8924 4.94159C15.8924 5.02764 15.887 5.10159 15.8762 5.16344C15.8682 5.22528 15.8413 5.29251 15.7956 5.36512C15.7714 5.40276 15.7404 5.43906 15.7028 5.47401C15.6678 5.50628 15.6275 5.53586 15.5818 5.56275C15.5388 5.58695 15.4917 5.60712 15.4406 5.62325C15.3895 5.63939 15.3398 5.64746 15.2914 5.64746C15.1704 5.64746 15.0601 5.62191 14.9606 5.57082C14.8638 5.51973 14.7926 5.45519 14.7468 5.37721C14.7011 5.29923 14.6716 5.22663 14.6581 5.1594C14.6473 5.09218 14.642 5.01957 14.642 4.94159V3.55003C14.642 3.47474 14.6487 3.40751 14.6621 3.34835C14.6783 3.28651 14.7105 3.22062 14.7589 3.15071C14.8073 3.0808 14.8759 3.02165 14.9646 2.97324C15.0534 2.92215 15.1462 2.89661 15.243 2.89661C15.4285 2.89661 15.5831 2.95845 15.7068 3.08214C15.8305 3.20315 15.8923 3.35911 15.8923 3.55003V3.69524H15.5092V3.55003C15.5092 3.47474 15.4876 3.41155 15.4446 3.36046C15.4043 3.30937 15.3438 3.28382 15.2631 3.28382C15.1878 3.28382 15.1287 3.30937 15.0856 3.36046C15.0453 3.41155 15.0251 3.47474 15.0251 3.55003V5.04647C15.0305 5.0868 15.0493 5.13251 15.0816 5.1836C15.1193 5.23738 15.1811 5.26428 15.2672 5.26428C15.3586 5.26428 15.4191 5.24008 15.4487 5.19167C15.4782 5.14327 15.4957 5.10831 15.5011 5.0868C15.5065 5.0626 15.5092 5.03033 15.5092 4.98999V4.85286H15.8923L15.8924 4.94159Z" fill="white"/>
  <path d="M17.3256 5.23604V5.62325H16.168V2.92081H17.3256V3.27575H16.5511V4.07439H17.2288V4.44144H16.5511V5.23604H17.3256Z" fill="white"/>
  <path d="M17.5135 5.90964V5.24008H17.9008V5.62326L17.5135 5.90964Z" fill="white"/>
  <path d="M19.6671 5.35301C19.608 5.44175 19.5313 5.513 19.4372 5.56678C19.3431 5.62056 19.2436 5.64745 19.1387 5.64745C19.0366 5.64745 18.9398 5.62595 18.8483 5.58292C18.7596 5.53721 18.6803 5.47535 18.6104 5.39737L18.9088 5.15536C18.9734 5.22259 19.0473 5.2562 19.1307 5.2562C19.2436 5.2562 19.3135 5.22663 19.3404 5.16747C19.37 5.10562 19.3861 5.0626 19.3888 5.0384C19.3915 5.01419 19.3929 4.98595 19.3929 4.95369V2.92081H19.772V4.91739C19.772 5.04378 19.7639 5.13251 19.7478 5.1836C19.737 5.232 19.7102 5.28847 19.6671 5.35301H19.6671Z" fill="white"/>
  <path d="M21.2947 5.34091C21.2356 5.43234 21.1589 5.50628 21.0648 5.56275C20.9734 5.61921 20.8712 5.64745 20.7583 5.64745C20.7018 5.64745 20.6453 5.63939 20.5889 5.62325C20.5351 5.60712 20.484 5.58695 20.4356 5.56275C20.3872 5.53585 20.3442 5.50628 20.3065 5.47401C20.2689 5.43906 20.2406 5.40276 20.2218 5.36512C20.1815 5.28982 20.1546 5.22394 20.1411 5.16747C20.1304 5.111 20.125 5.05049 20.125 4.98596V2.92081H20.5122V4.98596C20.5122 5.00478 20.5122 5.02226 20.5122 5.0384C20.5149 5.05184 20.5176 5.06528 20.5203 5.07873C20.523 5.10024 20.5431 5.13789 20.5808 5.19167C20.6157 5.24007 20.6762 5.26428 20.7623 5.26428C20.8403 5.26428 20.8981 5.23603 20.9357 5.17957C20.9761 5.12041 20.9962 5.05587 20.9962 4.98596V2.92081H21.3834V4.98596C21.3834 5.05049 21.3767 5.11234 21.3633 5.17149C21.3499 5.23065 21.327 5.28713 21.2947 5.34091Z" fill="white"/>
  <path d="M22.0235 4.94966C22.0235 4.97655 22.0235 4.99941 22.0235 5.01823C22.0235 5.03705 22.0248 5.05319 22.0275 5.06663C22.0329 5.09352 22.053 5.13251 22.088 5.1836C22.1257 5.23738 22.1929 5.26428 22.2897 5.26428C22.3435 5.26428 22.3932 5.25352 22.4389 5.232C22.4846 5.2078 22.5182 5.17688 22.5398 5.13924C22.5559 5.10966 22.5653 5.08142 22.568 5.05453C22.5734 5.02764 22.5761 5.00343 22.5761 4.98192V4.94563V4.75606V4.71975C22.5761 4.66059 22.5653 4.61488 22.5438 4.58261C22.5223 4.54766 22.4739 4.50867 22.3986 4.46565C22.3475 4.43875 22.2561 4.4011 22.1243 4.3527C21.9925 4.3043 21.8823 4.22767 21.7936 4.1228C21.7048 4.01793 21.6604 3.8754 21.6604 3.69524V3.57423C21.6604 3.38869 21.7223 3.23005 21.846 3.09829C21.9724 2.96383 22.1256 2.89661 22.3058 2.89661C22.494 2.89661 22.65 2.96249 22.7737 3.09425C22.9001 3.22601 22.9633 3.386 22.9633 3.57423V3.69524H22.5761V3.57423C22.5761 3.55541 22.5747 3.53793 22.572 3.5218C22.572 3.50566 22.5707 3.49088 22.568 3.47743C22.5653 3.46399 22.5586 3.44785 22.5478 3.42903C22.5371 3.41021 22.5223 3.38735 22.5034 3.36046C22.4658 3.30668 22.4026 3.27979 22.3139 3.27979C22.2359 3.27979 22.1713 3.30803 22.1203 3.3645C22.0719 3.42096 22.0477 3.49087 22.0477 3.57423V3.69524V3.73155C22.0477 3.78533 22.0557 3.82834 22.0719 3.86061C22.0907 3.89019 22.1337 3.9238 22.2009 3.96145C22.2224 3.97221 22.2547 3.98699 22.2977 4.00581C22.3434 4.02195 22.3986 4.04212 22.4631 4.06632C22.5922 4.10935 22.7078 4.18598 22.81 4.29623C22.9122 4.40647 22.9633 4.55169 22.9633 4.73186V4.94966C22.9633 5.04378 22.9539 5.1231 22.935 5.18764C22.9189 5.25217 22.8638 5.34628 22.7696 5.46998C22.6755 5.58829 22.5182 5.64746 22.2977 5.64746C22.0638 5.64746 21.8944 5.57216 21.7895 5.42158C21.6846 5.2683 21.6322 5.111 21.6322 4.94966V4.85286H22.0235L22.0235 4.94966Z" fill="white"/>
  <path d="M23.4604 5.62325V3.27979H23.0046V2.92081H24.3075V3.27979H23.8436V5.62325H23.4604Z" fill="white"/>
  <path d="M24.5177 5.62325V2.92081H24.9009V5.62325H24.5177Z" fill="white"/>
  <path d="M26.47 4.94159C26.47 5.02764 26.4646 5.10159 26.4539 5.16344C26.4458 5.22528 26.4189 5.29251 26.3732 5.36512C26.349 5.40276 26.3181 5.43906 26.2804 5.47401C26.2455 5.50628 26.2051 5.53586 26.1594 5.56275C26.1164 5.58695 26.0693 5.60712 26.0182 5.62325C25.9671 5.63939 25.9174 5.64746 25.869 5.64746C25.748 5.64746 25.6377 5.62191 25.5383 5.57082C25.4414 5.51973 25.3702 5.45519 25.3245 5.37721C25.2788 5.29923 25.2492 5.22663 25.2357 5.1594C25.225 5.09218 25.2196 5.01957 25.2196 4.94159V3.55003C25.2196 3.47474 25.2263 3.40751 25.2398 3.34835C25.2559 3.28651 25.2882 3.22062 25.3366 3.15071C25.385 3.0808 25.4535 3.02165 25.5423 2.97324C25.631 2.92215 25.7238 2.89661 25.8206 2.89661C26.0061 2.89661 26.1607 2.95845 26.2844 3.08214C26.4081 3.20315 26.47 3.35911 26.47 3.55003V3.69524H26.0868V3.55003C26.0868 3.47474 26.0653 3.41155 26.0223 3.36046C25.9819 3.30937 25.9214 3.28382 25.8408 3.28382C25.7655 3.28382 25.7063 3.30937 25.6633 3.36046C25.6229 3.41155 25.6028 3.47474 25.6028 3.55003V5.04647C25.6081 5.0868 25.627 5.13251 25.6592 5.1836C25.6969 5.23738 25.7587 5.26428 25.8448 5.26428C25.9362 5.26428 25.9967 5.24008 26.0263 5.19167C26.0559 5.14327 26.0734 5.10831 26.0787 5.0868C26.0841 5.0626 26.0868 5.03033 26.0868 4.98999V4.85286H26.47L26.47 4.94159Z" fill="white"/>
  <path d="M27.9225 5.23604V5.62325H26.7649V2.92081H27.9225V3.27575H27.1481V4.07439H27.8257V4.44144H27.1481V5.23604H27.9225Z" fill="white"/>
  <path d="M10.0189 9.35001L10.6239 6.64755H10.9587L11.5638 9.35001H11.1483L11.0394 8.76918H10.5392L10.4263 9.35001H10.0189ZM10.6078 8.4102H10.9708L10.7893 7.42602L10.6078 8.4102Z" fill="white"/>
  <path d="M12.7491 9.35001L12.1481 7.70837V9.35001H11.7609V6.64755H12.1279L12.7249 8.28516V6.64755H13.1121V9.35001H12.7491Z" fill="white"/>
  <path d="M14.0109 6.64755C14.1857 6.64755 14.335 6.70941 14.4586 6.8331C14.585 6.95411 14.6482 7.10199 14.6482 7.27678V8.68044C14.6482 8.87943 14.5877 9.04077 14.4667 9.16446C14.3457 9.28816 14.1897 9.35001 13.9988 9.35001H13.3978V6.64755H14.0109ZM14.265 8.68044V7.27678C14.265 7.20148 14.2368 7.1383 14.1803 7.08721C14.1265 7.03611 14.0607 7.01057 13.9827 7.01057H13.781V8.99102H13.9706C14.1669 8.99102 14.265 8.8875 14.265 8.68044Z" fill="white"/>
  <path d="M15.7106 8.67641C15.7106 8.7033 15.7106 8.72615 15.7106 8.74498C15.7106 8.7638 15.7119 8.77993 15.7146 8.79338C15.72 8.82027 15.7402 8.85927 15.7751 8.91036C15.8128 8.96414 15.88 8.99102 15.9768 8.99102C16.0306 8.99102 16.0803 8.98027 16.1261 8.95876C16.1718 8.93456 16.2054 8.90363 16.2269 8.86598C16.243 8.8364 16.2524 8.80817 16.2551 8.78128C16.2605 8.75439 16.2632 8.73019 16.2632 8.70868V8.67237V8.4828V8.44649C16.2632 8.38734 16.2524 8.34163 16.2309 8.30936C16.2094 8.2744 16.161 8.23542 16.0857 8.19239C16.0346 8.1655 15.9432 8.12786 15.8114 8.07946C15.6797 8.03106 15.5694 7.95441 15.4807 7.84954C15.3919 7.74467 15.3476 7.60216 15.3476 7.422V7.30098C15.3476 7.11544 15.4094 6.95679 15.5331 6.82503C15.6595 6.69058 15.8128 6.62335 15.9929 6.62335C16.1812 6.62335 16.3371 6.68923 16.4608 6.821C16.5872 6.95276 16.6504 7.11275 16.6504 7.30098V7.422H16.2632V7.30098C16.2632 7.28215 16.2618 7.26469 16.2592 7.24855C16.2592 7.23242 16.2578 7.21762 16.2551 7.20417C16.2524 7.19073 16.2457 7.1746 16.2349 7.15577C16.2242 7.13695 16.2094 7.11409 16.1906 7.08721C16.1529 7.03342 16.0897 7.00653 16.001 7.00653C15.923 7.00653 15.8585 7.03477 15.8074 7.09124C15.759 7.14771 15.7348 7.21762 15.7348 7.30098V7.422V7.45829C15.7348 7.51207 15.7429 7.5551 15.759 7.58737C15.7778 7.61695 15.8208 7.65056 15.8881 7.68821C15.9096 7.69897 15.9418 7.71376 15.9849 7.73257C16.0306 7.74871 16.0857 7.76887 16.1502 7.79307C16.2793 7.83609 16.3949 7.91274 16.4971 8.02298C16.5993 8.13323 16.6504 8.27844 16.6504 8.4586V8.67641C16.6504 8.77053 16.641 8.84985 16.6222 8.91438C16.606 8.97892 16.5509 9.07304 16.4568 9.19674C16.3627 9.31505 16.2054 9.37421 15.9849 9.37421C15.7509 9.37421 15.5815 9.29892 15.4766 9.14833C15.3718 8.99506 15.3193 8.83775 15.3193 8.67641V8.57961H15.7106L15.7106 8.67641Z" fill="white"/>
  <path d="M17.2057 9.35001V7.00653H16.7499V6.64755H18.0527V7.00653H17.5889V9.35001H17.2057Z" fill="white"/>
  <path d="M18.2201 9.35001V6.64755H18.8977C19.0752 6.64755 19.2244 6.70941 19.3454 6.8331C19.4691 6.9568 19.531 7.10872 19.531 7.28888V7.53896C19.531 7.78904 19.4248 7.97995 19.2123 8.11172L19.6238 9.35001H19.2123L18.8493 8.19239H18.6073V9.35001H18.2201ZM19.0792 7.76484C19.1034 7.73526 19.1196 7.70165 19.1276 7.66401C19.1384 7.62636 19.1438 7.58468 19.1438 7.53896V7.28888C19.1438 7.20552 19.1209 7.1383 19.0752 7.08721C19.0295 7.03342 18.965 7.00653 18.8816 7.00653H18.6073V7.84954H18.8776C18.9582 7.84954 19.0255 7.82131 19.0792 7.76484H19.0792Z" fill="white"/>
  <path d="M19.8668 6.90167C19.9287 6.81562 20.0067 6.74839 20.1008 6.69999C20.1976 6.6489 20.2971 6.62335 20.3993 6.62335C20.4988 6.62335 20.5915 6.64353 20.6776 6.68386C20.7663 6.7242 20.8403 6.77932 20.8994 6.84923C20.9586 6.91915 20.9989 6.99175 21.0204 7.06704C21.0419 7.13964 21.0527 7.21896 21.0527 7.30501V8.68045C21.0527 8.76112 21.0446 8.83237 21.0285 8.89422C21.0151 8.95607 20.9828 9.02464 20.9317 9.09993C20.8833 9.17523 20.812 9.23976 20.7179 9.29354C20.6265 9.34732 20.5243 9.37421 20.4114 9.37421C20.3468 9.37421 20.285 9.36615 20.2258 9.35001C20.1667 9.33119 20.1115 9.30699 20.0605 9.27741C20.0094 9.24783 19.9636 9.21422 19.9233 9.17657C19.8857 9.13893 19.8561 9.09992 19.8346 9.05959C19.7942 8.97623 19.77 8.90901 19.762 8.85792C19.7539 8.80683 19.7499 8.74767 19.7499 8.68045V7.30501C19.7499 7.22434 19.7579 7.15309 19.7741 7.09124C19.7929 7.02671 19.8238 6.96352 19.8668 6.90167ZM20.6171 7.11544C20.566 7.04015 20.4961 7.00251 20.4073 7.00251C20.3616 7.00251 20.3159 7.01595 20.2702 7.04284C20.2272 7.06704 20.1962 7.09528 20.1774 7.12755C20.1613 7.15982 20.1505 7.19209 20.1452 7.22435C20.1398 7.25662 20.1371 7.2835 20.1371 7.30501V8.68045C20.1371 8.69389 20.1371 8.70867 20.1371 8.72481C20.1371 8.73825 20.1384 8.75304 20.1411 8.76918C20.1438 8.79607 20.1653 8.84044 20.2057 8.90229C20.246 8.95876 20.3132 8.98699 20.4074 8.98699C20.4558 8.98699 20.4988 8.97624 20.5364 8.95473C20.5768 8.93053 20.605 8.90363 20.6211 8.87405C20.6399 8.84178 20.6521 8.81221 20.6574 8.78532C20.6628 8.75843 20.6655 8.72347 20.6655 8.68045V7.30501C20.6655 7.25123 20.6628 7.21359 20.6574 7.19208C20.6547 7.17057 20.6413 7.14502 20.6171 7.11544H20.6171Z" fill="white"/>
  <path d="M22.3705 9.35001L21.7695 7.70837V9.35001H21.3823V6.64755H21.7494L22.3463 8.28516V6.64755H22.7335V9.35001H22.3705Z" fill="white"/>
  <path d="M24.1777 9.06766C24.1159 9.16446 24.0365 9.23976 23.9397 9.29354C23.8429 9.34732 23.7367 9.37421 23.6211 9.37421C23.5189 9.37421 23.4194 9.35001 23.3226 9.30161C23.2285 9.25321 23.1545 9.19405 23.1008 9.12413C23.0497 9.05153 23.0147 8.97893 22.9959 8.90633C22.9797 8.83372 22.9717 8.75171 22.9717 8.66028V7.30905C22.9717 7.24183 22.9784 7.1746 22.9918 7.10737C23.0107 7.04015 23.0604 6.94469 23.1411 6.821C23.2244 6.68923 23.3885 6.62335 23.6332 6.62335C23.7407 6.62335 23.8416 6.6489 23.9357 6.69999C24.0298 6.75108 24.1011 6.81427 24.1495 6.88956C24.2005 6.96217 24.2328 7.03209 24.2463 7.09931C24.2624 7.16385 24.2705 7.23376 24.2705 7.30905V7.422H23.8873V7.30905C23.8873 7.28754 23.8859 7.26871 23.8832 7.25258C23.8832 7.23375 23.8819 7.21762 23.8792 7.20417C23.8765 7.17997 23.8563 7.14099 23.8187 7.08721C23.7811 7.03342 23.7179 7.00653 23.6291 7.00653C23.5242 7.00653 23.4543 7.03477 23.4194 7.09124C23.3871 7.14771 23.3683 7.18939 23.3629 7.21628C23.3575 7.24317 23.3548 7.27409 23.3548 7.30905V8.66028C23.3548 8.68717 23.3548 8.71002 23.3548 8.72885C23.3548 8.74767 23.3562 8.7638 23.3589 8.77725C23.3616 8.79876 23.3817 8.84044 23.4194 8.90229C23.4543 8.95876 23.5229 8.98699 23.6251 8.98699C23.73 8.98699 23.7972 8.95876 23.8268 8.90229C23.8429 8.87271 23.855 8.84851 23.8631 8.82969C23.8711 8.80817 23.8765 8.78935 23.8792 8.77321C23.8846 8.75708 23.8873 8.74095 23.8873 8.72481C23.8873 8.70599 23.8873 8.68448 23.8873 8.66028V8.18836H23.5767V7.84954H24.2705V8.66028C24.2705 8.71675 24.2691 8.76515 24.2664 8.80549C24.2637 8.84313 24.2583 8.87675 24.2503 8.90633C24.2422 8.93591 24.2315 8.96413 24.218 8.99102C24.2072 9.01522 24.1938 9.04077 24.1777 9.06766H24.1777Z" fill="white"/>
  <path d="M10.1472 13.0767V10.3743H10.5304V13.0767H10.1472Z" fill="white"/>
  <path d="M11.8421 13.0767L11.2411 11.4351V13.0767H10.8539V10.3743H11.2209L11.8179 12.0119V10.3743H12.2051V13.0767H11.8421Z" fill="white"/>
  <path d="M12.758 12.4032C12.758 12.43 12.758 12.4529 12.758 12.4717C12.758 12.4905 12.7593 12.5067 12.762 12.5201C12.7674 12.547 12.7875 12.586 12.8225 12.6371C12.8602 12.6909 12.9274 12.7178 13.0242 12.7178C13.078 12.7178 13.1277 12.707 13.1734 12.6855C13.2191 12.6613 13.2527 12.6304 13.2743 12.5927C13.2904 12.5631 13.2998 12.5349 13.3025 12.508C13.3079 12.4811 13.3105 12.4569 13.3105 12.4354V12.3991V12.2095V12.1732C13.3105 12.1141 13.2998 12.0684 13.2783 12.0361C13.2568 12.0011 13.2084 11.9621 13.1331 11.9191C13.082 11.8922 12.9906 11.8546 12.8588 11.8062C12.727 11.7578 12.6168 11.6811 12.528 11.5763C12.4393 11.4714 12.3949 11.3289 12.3949 11.1487V11.0277C12.3949 10.8422 12.4568 10.6835 12.5805 10.5518C12.7069 10.4173 12.8601 10.3501 13.0403 10.3501C13.2285 10.3501 13.3845 10.416 13.5082 10.5477C13.6346 10.6795 13.6978 10.8395 13.6978 11.0277V11.1487H13.3105V11.0277C13.3105 11.0089 13.3092 10.9914 13.3065 10.9753C13.3065 10.9592 13.3052 10.9444 13.3025 10.9309C13.2998 10.9175 13.2931 10.9013 13.2823 10.8825C13.2716 10.8637 13.2568 10.8408 13.2379 10.814C13.2003 10.7602 13.1371 10.7333 13.0484 10.7333C12.9704 10.7333 12.9058 10.7615 12.8548 10.818C12.8064 10.8745 12.7822 10.9444 12.7822 11.0277V11.1487V11.185C12.7822 11.2388 12.7902 11.2818 12.8064 11.3141C12.8252 11.3437 12.8682 11.3773 12.9354 11.4149C12.9569 11.4257 12.9892 11.4405 13.0322 11.4593C13.0779 11.4754 13.1331 11.4956 13.1976 11.5198C13.3267 11.5628 13.4423 11.6395 13.5445 11.7497C13.6467 11.86 13.6978 12.0052 13.6978 12.1853V12.4032C13.6978 12.4973 13.6884 12.5766 13.6695 12.6411C13.6534 12.7057 13.5983 12.7998 13.5042 12.9235C13.41 13.0418 13.2527 13.1009 13.0322 13.1009C12.7983 13.1009 12.6289 13.0257 12.524 12.8751C12.4191 12.7218 12.3667 12.5645 12.3667 12.4032V12.3064H12.7579L12.758 12.4032Z" fill="white"/>
  <path d="M14.2337 13.0767V10.7333H13.778V10.3743H15.0808V10.7333H14.6169V13.0767H14.2337Z" fill="white"/>
  <path d="M15.2716 13.0767V10.3743H15.6548V13.0767H15.2716Z" fill="white"/>
  <path d="M16.3082 13.0767V10.7333H15.8524V10.3743H17.1552V10.7333H16.6914V13.0767H16.3082Z" fill="white"/>
  <path d="M18.5352 12.7944C18.476 12.8858 18.3994 12.9598 18.3053 13.0162C18.2139 13.0727 18.1117 13.1009 17.9988 13.1009C17.9423 13.1009 17.8858 13.0929 17.8293 13.0767C17.7756 13.0606 17.7245 13.0404 17.6761 13.0162C17.6277 12.9893 17.5847 12.9598 17.547 12.9275C17.5094 12.8925 17.4811 12.8562 17.4623 12.8186C17.422 12.7433 17.3951 12.6774 17.3816 12.621C17.3709 12.5645 17.3655 12.504 17.3655 12.4394V10.3743H17.7527V12.4394C17.7527 12.4583 17.7527 12.4758 17.7527 12.4919C17.7554 12.5053 17.7581 12.5188 17.7608 12.5322C17.7635 12.5537 17.7836 12.5914 17.8213 12.6452C17.8562 12.6936 17.9167 12.7178 18.0028 12.7178C18.0808 12.7178 18.1386 12.6895 18.1762 12.6331C18.2166 12.5739 18.2367 12.5094 18.2367 12.4394V10.3743H18.6239V12.4394C18.6239 12.504 18.6172 12.5658 18.6038 12.625C18.5903 12.6841 18.5675 12.7406 18.5352 12.7944H18.5352Z" fill="white"/>
  <path d="M19.2494 13.0767V10.7333H18.7936V10.3743H20.0964V10.7333H19.6326V13.0767H19.2494Z" fill="white"/>
  <path d="M20.2872 13.0767V10.3743H20.6704V13.0767H20.2872Z" fill="white"/>
  <path d="M21.1215 10.6284C21.1833 10.5424 21.2613 10.4751 21.3554 10.4267C21.4522 10.3756 21.5517 10.3501 21.6539 10.3501C21.7534 10.3501 21.8462 10.3703 21.9322 10.4106C22.021 10.4509 22.0949 10.5061 22.1541 10.576C22.2132 10.6459 22.2536 10.7185 22.2751 10.7938C22.2966 10.8664 22.3073 10.9457 22.3073 11.0318V12.4072C22.3073 12.4878 22.2993 12.5591 22.2831 12.621C22.2697 12.6828 22.2374 12.7514 22.1863 12.8267C22.1379 12.902 22.0667 12.9665 21.9726 13.0203C21.8811 13.0741 21.779 13.1009 21.666 13.1009C21.6015 13.1009 21.5396 13.0929 21.4805 13.0767C21.4213 13.0579 21.3662 13.0337 21.3151 13.0041C21.264 12.9746 21.2183 12.941 21.178 12.9033C21.1403 12.8657 21.1107 12.8267 21.0892 12.7863C21.0489 12.703 21.0247 12.6357 21.0166 12.5847C21.0086 12.5336 21.0045 12.4744 21.0045 12.4072V11.0318C21.0045 10.9511 21.0126 10.8798 21.0287 10.818C21.0475 10.7535 21.0785 10.6902 21.1215 10.6284ZM21.8717 10.8422C21.8206 10.7669 21.7507 10.7292 21.662 10.7292C21.6163 10.7292 21.5706 10.7427 21.5248 10.7696C21.4818 10.7938 21.4509 10.822 21.4321 10.8543C21.4159 10.8865 21.4052 10.9188 21.3998 10.9511C21.3944 10.9834 21.3917 11.0102 21.3917 11.0318V12.4072C21.3917 12.4206 21.3917 12.4354 21.3917 12.4516C21.3917 12.465 21.3931 12.4798 21.3958 12.4959C21.3985 12.5228 21.42 12.5672 21.4603 12.629C21.5006 12.6855 21.5679 12.7137 21.662 12.7137C21.7104 12.7137 21.7534 12.703 21.7911 12.6815C21.8314 12.6573 21.8596 12.6304 21.8758 12.6008C21.8946 12.5685 21.9067 12.5389 21.9121 12.5121C21.9174 12.4852 21.9201 12.4502 21.9201 12.4072V11.0318C21.9201 10.978 21.9174 10.9403 21.9121 10.9188C21.9094 10.8973 21.8959 10.8718 21.8717 10.8422H21.8717Z" fill="white"/>
  <path d="M23.5863 13.0767L22.9854 11.4351V13.0767H22.5981V10.3743H22.9652L23.5621 12.0119V10.3743H23.9494V13.0767H23.5863Z" fill="white"/>
  <path d="M24.5215 12.4032C24.5215 12.43 24.5215 12.4529 24.5215 12.4717C24.5215 12.4905 24.5229 12.5067 24.5255 12.5201C24.5309 12.547 24.5511 12.586 24.586 12.6371C24.6237 12.6909 24.6909 12.7178 24.7877 12.7178C24.8415 12.7178 24.8913 12.707 24.937 12.6855C24.9827 12.6613 25.0163 12.6304 25.0378 12.5927C25.0539 12.5631 25.0634 12.5349 25.066 12.508C25.0714 12.4811 25.0741 12.4569 25.0741 12.4354V12.3991V12.2095V12.1732C25.0741 12.1141 25.0633 12.0684 25.0418 12.0361C25.0203 12.0011 24.9719 11.9621 24.8966 11.9191C24.8455 11.8922 24.7541 11.8546 24.6223 11.8062C24.4906 11.7578 24.3803 11.6811 24.2916 11.5763C24.2029 11.4714 24.1585 11.3289 24.1585 11.1487V11.0277C24.1585 10.8422 24.2203 10.6835 24.344 10.5518C24.4704 10.4173 24.6237 10.3501 24.8039 10.3501C24.9921 10.3501 25.148 10.416 25.2717 10.5477C25.3981 10.6795 25.4613 10.8395 25.4613 11.0277V11.1487H25.0741V11.0277C25.0741 11.0089 25.0727 10.9914 25.0701 10.9753C25.0701 10.9592 25.0687 10.9444 25.066 10.9309C25.0633 10.9175 25.0566 10.9013 25.0458 10.8825C25.0351 10.8637 25.0203 10.8408 25.0015 10.814C24.9638 10.7602 24.9006 10.7333 24.8119 10.7333C24.7339 10.7333 24.6694 10.7615 24.6183 10.818C24.5699 10.8745 24.5457 10.9444 24.5457 11.0277V11.1487V11.185C24.5457 11.2388 24.5538 11.2818 24.5699 11.3141C24.5887 11.3437 24.6317 11.3773 24.699 11.4149C24.7205 11.4257 24.7527 11.4405 24.7958 11.4593C24.8415 11.4754 24.8966 11.4956 24.9612 11.5198C25.0902 11.5628 25.2058 11.6395 25.308 11.7497C25.4102 11.86 25.4613 12.0052 25.4613 12.1853V12.4032C25.4613 12.4973 25.4519 12.5766 25.4331 12.6411C25.4169 12.7057 25.3618 12.7998 25.2677 12.9235C25.1736 13.0418 25.0163 13.1009 24.7958 13.1009C24.5618 13.1009 24.3924 13.0257 24.2875 12.8751C24.1827 12.7218 24.1302 12.5645 24.1302 12.4032V12.3064H24.5215V12.4032Z" fill="white"/>
  <path d="M3.45903 9.38364V3.88222L2.53247 4.57713V3.59267L3.45903 2.91705H4.37594V9.38364H3.45903Z" fill="white"/>
  <path d="M7.78626 6.07313C7.83774 6.16322 7.86991 6.25652 7.88277 6.35303C7.90208 6.44955 7.91174 6.56858 7.91174 6.71014V7.94555C7.91174 8.09354 7.89565 8.24153 7.86348 8.38953C7.83131 8.53108 7.73478 8.73055 7.57392 8.98793C7.40663 9.25174 7.09135 9.40294 6.62807 9.44155C6.33852 9.44155 6.0747 9.38042 5.83663 9.25816C5.60499 9.12947 5.44092 8.97827 5.3444 8.80454C5.25432 8.62438 5.19641 8.47316 5.17067 8.35091C5.15137 8.22866 5.14172 8.09354 5.14172 7.94555V6.93213C5.14172 6.79057 5.14494 6.69084 5.15138 6.63293C5.15782 6.56859 5.18034 6.48493 5.21894 6.38198L6.50259 2.91705H7.54498L6.50259 5.62917C6.61841 5.58413 6.75676 5.5616 6.91762 5.5616H7.00448C7.35838 5.61308 7.61897 5.78358 7.78626 6.07313ZM6.90796 6.56537C6.81144 6.43668 6.68276 6.37234 6.5219 6.37234C6.38035 6.37234 6.27096 6.42381 6.19375 6.52677C6.11653 6.62971 6.07792 6.76483 6.07792 6.93213V7.94555C6.07792 8.08067 6.11009 8.20936 6.17444 8.33161C6.24522 8.44743 6.36425 8.50533 6.53154 8.50533H6.58945C6.75675 8.50533 6.86614 8.44743 6.91761 8.33161C6.96909 8.2158 6.99483 8.0871 6.99483 7.94555V6.93213C6.99483 6.84848 6.9884 6.78092 6.97554 6.72945C6.9691 6.67154 6.94657 6.61684 6.90797 6.56537H6.90796Z" fill="white"/>
  <path fill-rule="evenodd" clip-rule="evenodd" d="M23.2865 14.464C22.5542 14.4573 22.4433 14.8794 22.4281 15.3675C23.1603 15.3742 23.2712 14.9522 23.2865 14.464ZM21.3181 14.5792C20.8939 15.1761 21.177 15.5085 21.5688 15.8001C21.993 15.2032 21.7099 14.8709 21.3181 14.5792ZM20.4643 15.4731C20.0428 16.0719 20.3274 16.4028 20.7205 16.6927C21.142 16.0939 20.8574 15.763 20.4643 15.4731ZM22.1554 15.5904C22.1302 15.5901 22.1058 15.5996 22.0875 15.617C21.5148 16.1431 21.0192 16.6988 20.7471 17.3338C20.6831 17.4832 20.6331 17.6374 20.5964 17.7959C20.2153 17.4155 20.0767 17.0095 19.5848 17.0181C18.4067 17.0388 17.7938 18.8712 16.1562 18.8827C13.8419 18.8989 14.0254 16.0904 9.67169 16.0677C12.2795 18.1548 9.63466 20.0725 13.4974 21.5537C11.8582 21.86 11.822 23.2619 9.6603 22.5674C10.6678 22.9584 11.7545 24.2308 13.7831 24.3045V25.8259C11.4742 25.7572 9.23489 25.6639 9.23489 25.6639V26.6291C9.23489 26.6291 14.6229 26.3961 17.3291 26.3961C18.2244 26.3961 18.9688 26.577 19.289 26.6687V27.2794C19.289 27.5033 19.4694 27.6833 19.6933 27.6833H21.9727C22.1965 27.6833 22.377 27.5033 22.377 27.2794V25.0253C22.377 24.8015 22.1965 24.6215 21.9727 24.6215H19.6933C19.4694 24.6215 19.289 24.8015 19.289 25.0253V25.6238C18.9688 25.7155 18.2244 25.8968 17.3291 25.8968C16.7209 25.8968 15.9692 25.8843 15.1818 25.866V24.2399C19.132 23.784 18.9975 21.2631 18.9834 20.6873C18.9365 18.7714 19.8281 18.3602 20.5357 18.2521C20.5176 18.6403 20.5839 19.0539 20.764 19.4971C20.7688 19.509 20.7759 19.5197 20.7849 19.5288C20.7939 19.5379 20.8046 19.5451 20.8163 19.5501C20.8281 19.5551 20.8408 19.5576 20.8535 19.5577C20.8663 19.5578 20.879 19.5553 20.8908 19.5505C20.9026 19.5457 20.9134 19.5386 20.9225 19.5296C20.9316 19.5206 20.9388 19.5099 20.9438 19.4982C20.9487 19.4864 20.9513 19.4738 20.9514 19.461C20.9515 19.4482 20.949 19.4355 20.9442 19.4237C20.7685 18.9912 20.7073 18.5983 20.7294 18.231C20.9016 18.2153 21.0605 18.2087 21.1729 18.1973C21.01 18.1241 20.8772 18.0383 20.7636 17.9479C20.7979 17.7631 20.8512 17.5839 20.9256 17.4102C21.18 16.8164 21.6556 16.2781 22.2192 15.7605C22.2339 15.7474 22.2443 15.7302 22.2491 15.7111C22.2538 15.692 22.2527 15.6719 22.2458 15.6535C22.2389 15.6351 22.2265 15.6192 22.2104 15.6079C22.1943 15.5966 22.1751 15.5905 22.1554 15.5904ZM22.71 15.9799C22.4763 15.9923 22.2749 16.1514 22.0816 16.3467C22.6132 16.8503 22.982 16.6169 23.3257 16.2699C23.0931 16.0495 22.8917 15.9703 22.71 15.9799ZM21.9355 16.9097C21.7302 16.9097 21.5277 17.0186 21.3261 17.1565C21.753 17.7516 22.1592 17.5919 22.5623 17.3161C22.3488 17.0185 22.1408 16.9096 21.9355 16.9097ZM19.4223 23.5107C19.1985 23.5107 19.018 23.6911 19.018 23.915V23.9973C19.018 24.2211 19.1985 24.4012 19.4223 24.4012H22.2251C22.4489 24.4012 22.6289 24.2211 22.6289 23.9973V23.915C22.6289 23.6911 22.4489 23.5107 22.2251 23.5107H19.4223ZM14.7361 24.2809V25.8551C14.5659 25.8507 14.4005 25.8443 14.2288 25.8394V24.3054C14.4042 24.3005 14.5734 24.2924 14.7361 24.2809ZM8.43092 25.3773C8.20705 25.3773 8.02661 25.5573 8.02661 25.7812V26.4653C8.02661 26.6892 8.20705 26.8692 8.43092 26.8692H8.54487C8.76873 26.8692 8.94875 26.6892 8.94875 26.4653V25.7812C8.94875 25.5573 8.76873 25.3773 8.54487 25.3773H8.43092ZM19.4223 27.8416C19.1985 27.8416 19.018 28.022 19.018 28.2459V28.3282C19.018 28.552 19.1985 28.7325 19.4223 28.7325H22.2251C22.4489 28.7325 22.6289 28.552 22.6289 28.3282V28.2459C22.6289 28.022 22.4489 27.8416 22.2251 27.8416H19.4223Z" fill="white"/>
</svg>
