<svg width="32" height="33" viewBox="0 0 32 33" fill="none" xmlns="http://www.w3.org/2000/svg">
  <path fill-rule="evenodd" clip-rule="evenodd" d="M0.178639 0.0522461H31.8214C31.9203 0.0522461 32 0.13192 32 0.230891V31.9258C32 32.0248 31.9203 32.1045 31.8214 32.1045H0.178639C0.0796692 32.1045 0 32.0248 0 31.9258V0.230891C0 0.13192 0.0796692 0.0522461 0.178639 0.0522461Z" fill="#CF8D2A"/>
  <path d="M10.2975 5.50485V2.8024H10.9751C11.1526 2.8024 11.3018 2.86424 11.4228 2.98793C11.5465 3.11163 11.6084 3.26356 11.6084 3.44372V3.6938C11.6084 3.94388 11.5022 4.1348 11.2897 4.26656L11.7011 5.50485H11.2897L10.9267 4.34723H10.6847V5.50485H10.2975ZM11.1566 3.91968C11.1808 3.8901 11.1969 3.85648 11.205 3.81884C11.2158 3.78119 11.2212 3.73951 11.2212 3.6938V3.44372C11.2212 3.36036 11.1983 3.29314 11.1526 3.24204C11.1069 3.18827 11.0423 3.16138 10.959 3.16138H10.6847V4.00438H10.9549C11.0356 4.00438 11.1028 3.97615 11.1566 3.91968H11.1566Z" fill="white"/>
  <path d="M12.9632 5.11763V5.50485H11.8055V2.8024H12.9632V3.15734H12.1887V3.95598H12.8663V4.32303H12.1887V5.11763H12.9632Z" fill="white"/>
  <path d="M13.4013 4.83125C13.4013 4.85814 13.4013 4.88099 13.4013 4.89982C13.4013 4.91864 13.4026 4.93478 13.4053 4.94822C13.4107 4.97512 13.4309 5.0141 13.4658 5.06519C13.5035 5.11897 13.5707 5.14586 13.6675 5.14586C13.7213 5.14586 13.771 5.13511 13.8167 5.1136C13.8624 5.08939 13.8961 5.05847 13.9176 5.02083C13.9337 4.99125 13.9431 4.96301 13.9458 4.93612C13.9512 4.90924 13.9539 4.88503 13.9539 4.86351V4.82721V4.63764V4.60134C13.9539 4.54218 13.9431 4.49647 13.9216 4.4642C13.9001 4.42924 13.8517 4.39025 13.7764 4.34723C13.7253 4.32034 13.6339 4.28269 13.5021 4.23429C13.3704 4.18589 13.2601 4.10925 13.1714 4.00438C13.0826 3.89951 13.0383 3.75699 13.0383 3.57683V3.45582C13.0383 3.27028 13.1001 3.11163 13.2238 2.97987C13.3502 2.84542 13.5034 2.7782 13.6836 2.7782C13.8718 2.7782 14.0278 2.84407 14.1515 2.97583C14.2779 3.1076 14.3411 3.26759 14.3411 3.45582V3.57683H13.9539V3.45582C13.9539 3.437 13.9525 3.41952 13.9498 3.40339C13.9498 3.38725 13.9485 3.37247 13.9458 3.35902C13.9431 3.34558 13.9364 3.32945 13.9256 3.31062C13.9149 3.2918 13.9001 3.26894 13.8812 3.24205C13.8436 3.18827 13.7804 3.16138 13.6917 3.16138C13.6137 3.16138 13.5492 3.18961 13.4981 3.24608C13.4497 3.30255 13.4255 3.37246 13.4255 3.45582V3.57683V3.61313C13.4255 3.66691 13.4335 3.70993 13.4497 3.7422C13.4685 3.77178 13.5115 3.80539 13.5787 3.84304C13.6003 3.8538 13.6325 3.86859 13.6755 3.88741C13.7213 3.90355 13.7764 3.92371 13.8409 3.94791C13.97 3.99094 14.0856 4.06757 14.1878 4.17782C14.29 4.28807 14.3411 4.43328 14.3411 4.61344V4.83125C14.3411 4.92536 14.3317 5.00469 14.3128 5.06923C14.2967 5.13377 14.2416 5.22788 14.1475 5.35158C14.0533 5.46989 13.896 5.52905 13.6755 5.52905C13.4416 5.52905 13.2722 5.45376 13.1673 5.30317C13.0625 5.1499 13.01 4.99259 13.01 4.83125V4.73445H13.4013L13.4013 4.83125Z" fill="white"/>
  <path d="M14.5165 5.50485V2.8024H15.1497H15.1578C15.2385 2.8024 15.3151 2.81987 15.3877 2.85483C15.4603 2.8871 15.5249 2.93012 15.5813 2.98391C15.6378 3.03769 15.6822 3.09953 15.7144 3.16944C15.7494 3.23667 15.7682 3.30658 15.7709 3.37919V3.77044V3.81077C15.7709 3.89951 15.7534 3.98287 15.7185 4.06085C15.6862 4.13614 15.6418 4.20202 15.5853 4.25849C15.5289 4.31496 15.4617 4.35933 15.3837 4.3916C15.3084 4.42386 15.2277 4.44 15.1417 4.44H15.1054H14.9037V5.50485H14.5165ZM15.3353 3.99632C15.3595 3.97212 15.3743 3.94657 15.3796 3.91968C15.3877 3.89279 15.3917 3.85917 15.3917 3.81884V3.41952C15.3917 3.34423 15.3689 3.28238 15.3232 3.23398C15.2775 3.18289 15.2156 3.15734 15.1376 3.15734H14.9037V4.07295H15.1054C15.1592 4.07295 15.2022 4.06891 15.2344 4.06085C15.2694 4.05009 15.303 4.02858 15.3353 3.99632Z" fill="white"/>
  <path d="M16.0782 3.05651C16.14 2.97046 16.218 2.90323 16.3121 2.85483C16.4089 2.80374 16.5084 2.7782 16.6106 2.7782C16.7101 2.7782 16.8028 2.79837 16.8889 2.8387C16.9776 2.87904 17.0516 2.93416 17.1107 3.00407C17.1699 3.07399 17.2102 3.14659 17.2317 3.22188C17.2532 3.29448 17.264 3.37381 17.264 3.45986V4.83528C17.264 4.91596 17.2559 4.98721 17.2398 5.04906C17.2264 5.1109 17.1941 5.17947 17.143 5.25477C17.0946 5.33006 17.0233 5.3946 16.9292 5.44838C16.8378 5.50216 16.7356 5.52905 16.6227 5.52905C16.5581 5.52905 16.4963 5.52098 16.4371 5.50485C16.378 5.48602 16.3229 5.46182 16.2718 5.43224C16.2207 5.40266 16.175 5.36905 16.1346 5.3314C16.097 5.29376 16.0674 5.25477 16.0459 5.21444C16.0056 5.13108 15.9814 5.06385 15.9733 5.01276C15.9652 4.96166 15.9612 4.90251 15.9612 4.83528V3.45986C15.9612 3.37919 15.9692 3.30793 15.9854 3.24608C16.0042 3.18154 16.0351 3.11836 16.0782 3.05651ZM16.8284 3.27028C16.7773 3.19499 16.7074 3.15734 16.6186 3.15734C16.5729 3.15734 16.5272 3.17079 16.4815 3.19768C16.4385 3.22188 16.4076 3.25011 16.3887 3.28238C16.3726 3.31465 16.3618 3.34692 16.3565 3.37919C16.3511 3.41145 16.3484 3.43835 16.3484 3.45986V4.83528C16.3484 4.84873 16.3484 4.86351 16.3484 4.87965C16.3484 4.89309 16.3498 4.90789 16.3524 4.92402C16.3551 4.95091 16.3767 4.99528 16.417 5.05713C16.4573 5.1136 16.5245 5.14183 16.6187 5.14183C16.6671 5.14183 16.7101 5.13107 16.7477 5.10956C16.7881 5.08536 16.8163 5.05847 16.8324 5.02889C16.8513 4.99662 16.8634 4.96704 16.8687 4.94015C16.8741 4.91326 16.8768 4.87831 16.8768 4.83528V3.45986C16.8768 3.40608 16.8741 3.36843 16.8687 3.34692C16.866 3.32541 16.8526 3.29986 16.8284 3.27028H16.8284Z" fill="white"/>
  <path d="M18.529 5.50485L17.928 3.86321V5.50485H17.5408V2.8024H17.9078L18.5048 4.44V2.8024H18.892V5.50485H18.529Z" fill="white"/>
  <path d="M19.3966 4.83125C19.3966 4.85814 19.3966 4.88099 19.3966 4.89982C19.3966 4.91864 19.398 4.93478 19.4007 4.94822C19.406 4.97512 19.4262 5.0141 19.4612 5.06519C19.4988 5.11897 19.566 5.14586 19.6628 5.14586C19.7166 5.14586 19.7664 5.13511 19.8121 5.1136C19.8578 5.08939 19.8914 5.05847 19.9129 5.02083C19.9291 4.99125 19.9385 4.96301 19.9412 4.93612C19.9465 4.90924 19.9492 4.88503 19.9492 4.86351V4.82721V4.63764V4.60134C19.9492 4.54218 19.9385 4.49647 19.9169 4.4642C19.8954 4.42924 19.847 4.39025 19.7717 4.34723C19.7207 4.32034 19.6292 4.28269 19.4975 4.23429C19.3657 4.18589 19.2555 4.10925 19.1667 4.00438C19.078 3.89951 19.0336 3.75699 19.0336 3.57683V3.45582C19.0336 3.27028 19.0955 3.11163 19.2192 2.97987C19.3455 2.84542 19.4988 2.7782 19.679 2.7782C19.8672 2.7782 20.0232 2.84407 20.1469 2.97583C20.2732 3.1076 20.3364 3.26759 20.3364 3.45582V3.57683H19.9492V3.45582C19.9492 3.437 19.9479 3.41952 19.9452 3.40339C19.9452 3.38725 19.9438 3.37247 19.9411 3.35902C19.9384 3.34558 19.9317 3.32945 19.921 3.31062C19.9102 3.2918 19.8954 3.26894 19.8766 3.24205C19.839 3.18827 19.7758 3.16138 19.687 3.16138C19.6091 3.16138 19.5445 3.18961 19.4934 3.24608C19.445 3.30255 19.4208 3.37246 19.4208 3.45582V3.57683V3.61313C19.4208 3.66691 19.4289 3.70993 19.445 3.7422C19.4638 3.77178 19.5069 3.80539 19.5741 3.84304C19.5956 3.8538 19.6279 3.86859 19.6709 3.88741C19.7166 3.90355 19.7717 3.92371 19.8363 3.94791C19.9653 3.99094 20.081 4.06757 20.1832 4.17782C20.2853 4.28807 20.3364 4.43328 20.3364 4.61344V4.83125C20.3364 4.92536 20.327 5.00469 20.3082 5.06923C20.2921 5.13377 20.2369 5.22788 20.1428 5.35158C20.0487 5.46989 19.8914 5.52905 19.6709 5.52905C19.437 5.52905 19.2676 5.45376 19.1627 5.30317C19.0578 5.1499 19.0054 4.99259 19.0054 4.83125V4.73445H19.3966V4.83125Z" fill="white"/>
  <path d="M20.5487 5.50485V2.8024H20.9319V5.50485H20.5487Z" fill="white"/>
  <path d="M21.8419 2.8024C21.9252 2.8024 22.0032 2.81987 22.0758 2.85483C22.1565 2.89248 22.2385 2.95298 22.3219 3.03634C22.4106 3.12239 22.455 3.25684 22.455 3.43969V3.6454C22.455 3.85245 22.373 3.99766 22.2089 4.08102C22.373 4.17782 22.455 4.32841 22.455 4.53277V4.84738C22.455 5.0383 22.3931 5.19561 22.2694 5.3193C22.1484 5.443 21.9925 5.50485 21.8015 5.50485H21.2046V2.8024H21.8419ZM22.0718 3.60507V3.43969C22.0718 3.35633 22.0476 3.29045 21.9992 3.24204C21.9508 3.19095 21.8862 3.16541 21.8056 3.16541H21.5878V3.91161H21.8177C21.9064 3.91161 21.971 3.88472 22.0113 3.83094C22.0516 3.77447 22.0718 3.69918 22.0718 3.60507ZM22.0718 4.84738V4.53277C22.0718 4.44672 22.0476 4.3795 21.9992 4.33109C21.9535 4.28 21.8889 4.25446 21.8056 4.25446H21.5878V5.12166H21.8096C21.8876 5.12166 21.9508 5.09612 21.9992 5.04503C22.0476 4.99125 22.0718 4.92537 22.0718 4.84738Z" fill="white"/>
  <path d="M23.8083 5.50485H22.6547V2.8024H23.0419V5.11763H23.8083V5.50485Z" fill="white"/>
  <path d="M25.0732 5.11763V5.50485H23.9155V2.8024H25.0732V3.15734H24.2987V3.95598H24.9763V4.32303H24.2987V5.11763H25.0732Z" fill="white"/>
  <path d="M11.5277 8.54994C11.5277 8.63599 11.5224 8.70993 11.5116 8.77178C11.5035 8.83363 11.4767 8.90085 11.4309 8.97345C11.4067 9.0111 11.3758 9.0474 11.3382 9.08236C11.3032 9.11463 11.2629 9.14421 11.2172 9.1711C11.1741 9.1953 11.1271 9.21546 11.076 9.2316C11.0249 9.24773 10.9751 9.2558 10.9267 9.2558C10.8057 9.2558 10.6955 9.23025 10.596 9.17916C10.4992 9.12807 10.4279 9.06354 10.3822 8.98555C10.3365 8.90757 10.3069 8.83497 10.2935 8.76775C10.2827 8.70052 10.2773 8.62792 10.2773 8.54994V7.15838C10.2773 7.08308 10.2841 7.01586 10.2975 6.9567C10.3136 6.89485 10.3459 6.82898 10.3943 6.75906C10.4427 6.68915 10.5113 6.62998 10.6 6.58158C10.6888 6.53049 10.7815 6.50494 10.8783 6.50494C11.0639 6.50494 11.2185 6.56679 11.3422 6.69049C11.4659 6.81149 11.5277 6.96746 11.5277 7.15838V7.30358H11.1445V7.15838C11.1445 7.08308 11.123 7.01989 11.08 6.9688C11.0397 6.91771 10.9792 6.89217 10.8985 6.89217C10.8232 6.89217 10.7641 6.91771 10.721 6.9688C10.6807 7.01989 10.6605 7.08308 10.6605 7.15838V8.65481C10.6659 8.69514 10.6847 8.74086 10.717 8.79195C10.7546 8.84573 10.8165 8.87261 10.9025 8.87261C10.994 8.87261 11.0545 8.84841 11.084 8.80001C11.1136 8.75161 11.1311 8.71666 11.1365 8.69514C11.1419 8.67094 11.1445 8.63867 11.1445 8.59834V8.4612H11.5277L11.5277 8.54994Z" fill="white"/>
  <path d="M11.9501 6.78326C12.012 6.69721 12.0899 6.62998 12.1841 6.58158C12.2809 6.53049 12.3803 6.50494 12.4825 6.50494C12.582 6.50494 12.6748 6.52511 12.7609 6.56545C12.8496 6.60578 12.9235 6.66091 12.9827 6.73082C13.0418 6.80074 13.0822 6.87334 13.1037 6.94863C13.1252 7.02124 13.136 7.10056 13.136 7.18661V8.56204C13.136 8.64271 13.1279 8.71396 13.1118 8.77581C13.0983 8.83766 13.066 8.90623 13.015 8.98152C12.9666 9.05682 12.8953 9.12135 12.8012 9.17513C12.7098 9.22891 12.6076 9.2558 12.4946 9.2558C12.4301 9.2558 12.3682 9.24773 12.3091 9.2316C12.2499 9.21277 12.1948 9.18857 12.1437 9.159C12.0926 9.12942 12.0469 9.0958 12.0066 9.05816C11.9689 9.02051 11.9394 8.98152 11.9178 8.94119C11.8775 8.85783 11.8533 8.7906 11.8452 8.73951C11.8372 8.68842 11.8331 8.62926 11.8331 8.56204V7.18661C11.8331 7.10594 11.8412 7.03468 11.8573 6.97283C11.8762 6.9083 11.9071 6.84511 11.9501 6.78326ZM12.7003 6.99703C12.6492 6.92174 12.5793 6.88409 12.4906 6.88409C12.4449 6.88409 12.3992 6.89754 12.3535 6.92443C12.3104 6.94863 12.2795 6.97687 12.2607 7.00913C12.2446 7.0414 12.2338 7.07367 12.2284 7.10594C12.223 7.13821 12.2204 7.1651 12.2204 7.18661V8.56204C12.2204 8.57548 12.2204 8.59026 12.2204 8.6064C12.2204 8.61984 12.2217 8.63464 12.2244 8.65078C12.2271 8.67767 12.2486 8.72203 12.2889 8.78388C12.3293 8.84035 12.3965 8.86858 12.4906 8.86858C12.539 8.86858 12.582 8.85782 12.6197 8.83631C12.66 8.81211 12.6883 8.78522 12.7044 8.75564C12.7232 8.72338 12.7353 8.69379 12.7407 8.66691C12.7461 8.64002 12.7488 8.60506 12.7488 8.56204V7.18661C12.7488 7.13283 12.7461 7.09519 12.7407 7.07367C12.738 7.05216 12.7245 7.02661 12.7004 6.99703H12.7003Z" fill="white"/>
  <path d="M14.3826 9.2316L13.7816 7.58996V9.2316H13.3944V6.52914H13.7615L14.3584 8.16675V6.52914H14.7456V9.2316H14.3826Z" fill="white"/>
  <path d="M15.2317 8.558C15.2317 8.58489 15.2317 8.60775 15.2317 8.62657C15.2317 8.6454 15.2331 8.66153 15.2358 8.67498C15.2411 8.70187 15.2613 8.74086 15.2962 8.79195C15.3339 8.84573 15.4011 8.87261 15.4979 8.87261C15.5517 8.87261 15.6015 8.86186 15.6472 8.84035C15.6929 8.81615 15.7265 8.78523 15.748 8.74758C15.7641 8.718 15.7736 8.68977 15.7762 8.66288C15.7816 8.63599 15.7843 8.61179 15.7843 8.59027V8.55397V8.36439V8.32809C15.7843 8.26893 15.7735 8.22322 15.752 8.19095C15.7305 8.15599 15.6821 8.11701 15.6068 8.07398C15.5557 8.04709 15.4643 8.00944 15.3325 7.96104C15.2008 7.91264 15.0905 7.836 15.0018 7.73113C14.9131 7.62626 14.8687 7.48375 14.8687 7.30358V7.18258C14.8687 6.99704 14.9305 6.83838 15.0542 6.70662C15.1806 6.57217 15.3339 6.50494 15.5141 6.50494C15.7023 6.50494 15.8583 6.57083 15.9819 6.70259C16.1083 6.83435 16.1715 6.99435 16.1715 7.18258V7.30358H15.7843V7.18258C15.7843 7.16375 15.7829 7.14627 15.7803 7.13014C15.7803 7.11401 15.7789 7.09922 15.7762 7.08577C15.7735 7.07233 15.7668 7.0562 15.7561 7.03737C15.7453 7.01855 15.7305 6.99569 15.7117 6.9688C15.674 6.91502 15.6109 6.88813 15.5221 6.88813C15.4441 6.88813 15.3796 6.91636 15.3285 6.97283C15.2801 7.0293 15.2559 7.09922 15.2559 7.18258V7.30358V7.33988C15.2559 7.39366 15.264 7.43669 15.2801 7.46896C15.2989 7.49854 15.342 7.53215 15.4092 7.56979C15.4307 7.58055 15.463 7.59535 15.506 7.61416C15.5517 7.6303 15.6068 7.65047 15.6714 7.67467C15.8004 7.71769 15.9161 7.79433 16.0182 7.90458C16.1204 8.01482 16.1715 8.16003 16.1715 8.34019V8.558C16.1715 8.65212 16.1621 8.73145 16.1433 8.79598C16.1271 8.86052 16.072 8.95463 15.9779 9.07833C15.8838 9.19664 15.7265 9.2558 15.506 9.2558C15.272 9.2558 15.1026 9.18051 14.9978 9.02993C14.8929 8.87665 14.8405 8.71934 14.8405 8.558V8.4612H15.2317L15.2317 8.558Z" fill="white"/>
  <path d="M17.5165 8.94925C17.4574 9.04068 17.3807 9.11463 17.2866 9.1711C17.1952 9.22756 17.093 9.2558 16.9801 9.2558C16.9236 9.2558 16.8671 9.24773 16.8107 9.2316C16.7569 9.21546 16.7058 9.1953 16.6574 9.1711C16.609 9.14421 16.566 9.11462 16.5283 9.08236C16.4907 9.0474 16.4624 9.0111 16.4436 8.97345C16.4033 8.89816 16.3764 8.83228 16.3629 8.77581C16.3522 8.71934 16.3468 8.65884 16.3468 8.5943V6.52914H16.734V8.5943C16.734 8.61312 16.734 8.63061 16.734 8.64674C16.7367 8.66018 16.7394 8.67363 16.7421 8.68708C16.7448 8.70859 16.7649 8.74623 16.8026 8.80001C16.8375 8.84841 16.898 8.87261 16.9841 8.87261C17.0621 8.87261 17.1199 8.84438 17.1575 8.78791C17.1979 8.72875 17.218 8.66422 17.218 8.5943V6.52914H17.6053V8.5943C17.6053 8.65884 17.5985 8.72069 17.5851 8.77984C17.5716 8.839 17.5488 8.89547 17.5165 8.94925H17.5165Z" fill="white"/>
  <path d="M19.0912 9.2316V7.58593L18.704 8.73951H18.5104L18.1272 7.58593V9.2316H17.74V6.52914H18.103L18.6153 7.96911L19.1195 6.52914H19.4744V9.2316H19.0912Z" fill="white"/>
  <path d="M19.7429 9.2316V6.52914H20.3762H20.3842C20.4649 6.52914 20.5416 6.54662 20.6142 6.58158C20.6868 6.61385 20.7513 6.65687 20.8078 6.71065C20.8642 6.76443 20.9086 6.82628 20.9409 6.89619C20.9758 6.96342 20.9946 7.03333 20.9973 7.10594V7.49719V7.53753C20.9973 7.62626 20.9799 7.70962 20.9449 7.7876C20.9126 7.86289 20.8683 7.92877 20.8118 7.98524C20.7553 8.04171 20.6881 8.08608 20.6101 8.11835C20.5348 8.15062 20.4542 8.16675 20.3681 8.16675H20.3318H20.1301V9.2316H19.7429ZM20.5617 7.72307C20.5859 7.69887 20.6007 7.67332 20.6061 7.64643C20.6142 7.61954 20.6182 7.58593 20.6182 7.54559V7.14627C20.6182 7.07098 20.5953 7.00913 20.5496 6.96073C20.5039 6.90964 20.4421 6.88409 20.3641 6.88409H20.1301V7.7997H20.3318C20.3856 7.7997 20.4286 7.79567 20.4609 7.7876C20.4958 7.77684 20.5295 7.75533 20.5617 7.72307Z" fill="white"/>
  <path d="M21.5265 9.2316V6.88813H21.0707V6.52914H22.3735V6.88813H21.9097V9.2316H21.5265Z" fill="white"/>
  <path d="M22.5126 9.2316V6.52914H22.8958V9.2316H22.5126Z" fill="white"/>
  <path d="M23.294 6.78326C23.3558 6.69721 23.4338 6.62998 23.5279 6.58158C23.6247 6.53049 23.7242 6.50494 23.8264 6.50494C23.9259 6.50494 24.0187 6.52511 24.1047 6.56545C24.1934 6.60578 24.2674 6.66091 24.3266 6.73082C24.3857 6.80074 24.426 6.87334 24.4476 6.94863C24.4691 7.02124 24.4798 7.10056 24.4798 7.18661V8.56204C24.4798 8.64271 24.4718 8.71396 24.4556 8.77581C24.4422 8.83766 24.4099 8.90623 24.3588 8.98152C24.3104 9.05682 24.2392 9.12135 24.1451 9.17513C24.0536 9.22891 23.9514 9.2558 23.8385 9.2558C23.774 9.2558 23.7121 9.24773 23.653 9.2316C23.5938 9.21277 23.5387 9.18857 23.4876 9.159C23.4365 9.12942 23.3908 9.0958 23.3504 9.05816C23.3128 9.02051 23.2832 8.98152 23.2617 8.94119C23.2214 8.85783 23.1972 8.7906 23.1891 8.73951C23.181 8.68842 23.177 8.62926 23.177 8.56204V7.18661C23.177 7.10594 23.1851 7.03468 23.2012 6.97283C23.22 6.9083 23.2509 6.84511 23.294 6.78326ZM24.0442 6.99703C23.9931 6.92174 23.9232 6.88409 23.8345 6.88409C23.7887 6.88409 23.743 6.89754 23.6973 6.92443C23.6543 6.94863 23.6234 6.97687 23.6046 7.00913C23.5884 7.0414 23.5777 7.07367 23.5723 7.10594C23.5669 7.13821 23.5642 7.1651 23.5642 7.18661V8.56204C23.5642 8.57548 23.5642 8.59026 23.5642 8.6064C23.5642 8.61984 23.5656 8.63464 23.5683 8.65078C23.571 8.67767 23.5925 8.72203 23.6328 8.78388C23.6731 8.84035 23.7404 8.86858 23.8345 8.86858C23.8829 8.86858 23.9259 8.85782 23.9636 8.83631C24.0039 8.81211 24.0321 8.78522 24.0483 8.75564C24.0671 8.72338 24.0792 8.69379 24.0846 8.66691C24.0899 8.64002 24.0926 8.60506 24.0926 8.56204V7.18661C24.0926 7.13283 24.0899 7.09519 24.0846 7.07367C24.0819 7.05216 24.0684 7.02661 24.0442 6.99703H24.0442Z" fill="white"/>
  <path d="M25.7633 9.2316L25.1624 7.58996V9.2316H24.7751V6.52914H25.1422L25.7391 8.16675V6.52914H26.1264V9.2316H25.7633Z" fill="white"/>
  <path d="M10.1512 12.9583L10.7563 10.2559H11.0911L11.6961 12.9583H11.2806L11.1717 12.3775H10.6716L10.5586 12.9583H10.1512ZM10.7401 12.0185H11.1032L10.9217 11.0343L10.7401 12.0185Z" fill="white"/>
  <path d="M12.863 12.9583L12.262 11.3167V12.9583H11.8748V10.2559H12.2418L12.8388 11.8935V10.2559H13.226V12.9583H12.863Z" fill="white"/>
  <path d="M14.0572 10.2559C14.232 10.2559 14.3812 10.3177 14.5049 10.4414C14.6313 10.5624 14.6945 10.7103 14.6945 10.8851V12.2888C14.6945 12.4877 14.634 12.6491 14.513 12.7728C14.392 12.8965 14.236 12.9583 14.0451 12.9583H13.4441V10.2559H14.0572ZM14.3113 12.2888V10.8851C14.3113 10.8098 14.2831 10.7466 14.2266 10.6955C14.1728 10.6444 14.1069 10.6189 14.029 10.6189H13.8273V12.5993H14.0169C14.2132 12.5993 14.3113 12.4958 14.3113 12.2888Z" fill="white"/>
  <path d="M15.338 12.9583V10.2559H15.9713H15.9793C16.06 10.2559 16.1366 10.2733 16.2092 10.3083C16.2818 10.3406 16.3464 10.3836 16.4029 10.4374C16.4593 10.4912 16.5037 10.553 16.536 10.6229C16.5709 10.6901 16.5897 10.76 16.5924 10.8327V11.2239V11.2642C16.5924 11.353 16.5749 11.4363 16.54 11.5143C16.5077 11.5896 16.4633 11.6555 16.4069 11.712C16.3504 11.7684 16.2832 11.8128 16.2052 11.8451C16.1299 11.8773 16.0492 11.8935 15.9632 11.8935H15.9269H15.7252V12.9583H15.338ZM16.1568 11.4498C16.181 11.4256 16.1958 11.4 16.2012 11.3731C16.2092 11.3463 16.2133 11.3126 16.2133 11.2723V10.873C16.2133 10.7977 16.1904 10.7358 16.1447 10.6874C16.099 10.6364 16.0371 10.6108 15.9592 10.6108H15.7252V11.5264H15.9269C15.9807 11.5264 16.0237 11.5224 16.056 11.5143C16.0909 11.5036 16.1245 11.482 16.1568 11.4498Z" fill="white"/>
  <path d="M16.8253 12.9583V10.2559H17.503C17.6804 10.2559 17.8297 10.3177 17.9507 10.4414C18.0744 10.5651 18.1362 10.717 18.1362 10.8972V11.1473C18.1362 11.3973 18.03 11.5883 17.8176 11.72L18.229 12.9583H17.8176L17.4546 11.8007H17.2125V12.9583H16.8253ZM17.6845 11.3731C17.7087 11.3436 17.7248 11.31 17.7329 11.2723C17.7436 11.2347 17.749 11.193 17.749 11.1473V10.8972C17.749 10.8138 17.7261 10.7466 17.6804 10.6955C17.6347 10.6417 17.5702 10.6148 17.4868 10.6148H17.2125V11.4578H17.4828C17.5635 11.4578 17.6307 11.4296 17.6845 11.3731H17.6845Z" fill="white"/>
  <path d="M18.422 10.51C18.4839 10.4239 18.5618 10.3567 18.656 10.3083C18.7528 10.2572 18.8523 10.2317 18.9544 10.2317C19.0539 10.2317 19.1467 10.2518 19.2328 10.2922C19.3215 10.3325 19.3954 10.3876 19.4546 10.4575C19.5138 10.5275 19.5541 10.6001 19.5756 10.6753C19.5971 10.748 19.6079 10.8273 19.6079 10.9133V12.2888C19.6079 12.3694 19.5998 12.4407 19.5837 12.5025C19.5702 12.5644 19.538 12.6329 19.4869 12.7082C19.4385 12.7835 19.3672 12.8481 19.2731 12.9018C19.1817 12.9556 19.0795 12.9825 18.9666 12.9825C18.902 12.9825 18.8402 12.9744 18.781 12.9583C18.7218 12.9395 18.6667 12.9153 18.6156 12.8857C18.5645 12.8561 18.5188 12.8225 18.4785 12.7849C18.4409 12.7472 18.4113 12.7082 18.3898 12.6679C18.3494 12.5845 18.3252 12.5173 18.3171 12.4662C18.3091 12.4151 18.3051 12.356 18.3051 12.2888V10.9133C18.3051 10.8327 18.3131 10.7614 18.3293 10.6995C18.3481 10.635 18.379 10.5718 18.422 10.51ZM19.1723 10.7237C19.1212 10.6485 19.0513 10.6108 18.9625 10.6108C18.9168 10.6108 18.8711 10.6243 18.8254 10.6511C18.7823 10.6753 18.7514 10.7036 18.7326 10.7358C18.7165 10.7681 18.7057 10.8004 18.7003 10.8327C18.695 10.8649 18.6923 10.8918 18.6923 10.9133V12.2888C18.6923 12.3022 18.6923 12.317 18.6923 12.3331C18.6923 12.3466 18.6936 12.3614 18.6963 12.3775C18.699 12.4044 18.7205 12.4487 18.7608 12.5106C18.8012 12.5671 18.8684 12.5953 18.9625 12.5953C19.0109 12.5953 19.054 12.5845 19.0916 12.563C19.1319 12.5388 19.1602 12.5119 19.1763 12.4824C19.1951 12.4501 19.2072 12.4205 19.2126 12.3936C19.218 12.3667 19.2207 12.3318 19.2207 12.2888V10.9133C19.2207 10.8595 19.218 10.8219 19.2126 10.8004C19.2099 10.7789 19.1965 10.7533 19.1723 10.7237H19.1723Z" fill="white"/>
  <path d="M20.4794 10.2559C20.6542 10.2559 20.8035 10.3177 20.9272 10.4414C21.0535 10.5624 21.1167 10.7103 21.1167 10.8851V12.2888C21.1167 12.4877 21.0562 12.6491 20.9352 12.7728C20.8142 12.8965 20.6582 12.9583 20.4673 12.9583H19.8663V10.2559H20.4794ZM20.7335 12.2888V10.8851C20.7335 10.8098 20.7053 10.7466 20.6488 10.6955C20.5951 10.6444 20.5292 10.6189 20.4512 10.6189H20.2495V12.5993H20.4391C20.6354 12.5993 20.7335 12.4958 20.7335 12.2888Z" fill="white"/>
  <path d="M22.6008 12.676C22.5416 12.7674 22.465 12.8413 22.3708 12.8978C22.2794 12.9543 22.1772 12.9825 22.0643 12.9825C22.0078 12.9825 21.9514 12.9744 21.8949 12.9583C21.8411 12.9422 21.79 12.922 21.7416 12.8978C21.6932 12.8709 21.6502 12.8413 21.6125 12.8091C21.5749 12.7741 21.5467 12.7378 21.5278 12.7002C21.4875 12.6249 21.4606 12.559 21.4472 12.5025C21.4364 12.4461 21.431 12.3856 21.431 12.321V10.2559H21.8182V12.321C21.8182 12.3398 21.8182 12.3573 21.8182 12.3735C21.8209 12.3869 21.8236 12.4003 21.8263 12.4138C21.829 12.4353 21.8492 12.4729 21.8868 12.5267C21.9218 12.5751 21.9823 12.5993 22.0683 12.5993C22.1463 12.5993 22.2041 12.5711 22.2418 12.5146C22.2821 12.4555 22.3023 12.3909 22.3023 12.321V10.2559H22.6895V12.321C22.6895 12.3856 22.6828 12.4474 22.6693 12.5066C22.6559 12.5657 22.633 12.6222 22.6007 12.676H22.6008Z" fill="white"/>
  <path d="M24.235 12.2767C24.235 12.3627 24.2296 12.4366 24.2189 12.4985C24.2108 12.5603 24.1839 12.6276 24.1382 12.7002C24.114 12.7378 24.0831 12.7741 24.0454 12.8091C24.0105 12.8413 23.9701 12.8709 23.9244 12.8978C23.8814 12.922 23.8344 12.9422 23.7833 12.9583C23.7322 12.9744 23.6824 12.9825 23.634 12.9825C23.513 12.9825 23.4028 12.957 23.3033 12.9059C23.2065 12.8548 23.1352 12.7902 23.0895 12.7123C23.0438 12.6343 23.0142 12.5617 23.0008 12.4945C22.99 12.4272 22.9846 12.3546 22.9846 12.2767V10.8851C22.9846 10.8098 22.9913 10.7426 23.0048 10.6834C23.0209 10.6216 23.0532 10.5557 23.1016 10.4858C23.15 10.4159 23.2186 10.3567 23.3073 10.3083C23.396 10.2572 23.4888 10.2317 23.5856 10.2317C23.7711 10.2317 23.9258 10.2935 24.0495 10.4172C24.1732 10.5382 24.235 10.6942 24.235 10.8851V11.0303H23.8518V10.8851C23.8518 10.8098 23.8303 10.7466 23.7873 10.6955C23.7469 10.6444 23.6864 10.6189 23.6058 10.6189C23.5305 10.6189 23.4713 10.6444 23.4283 10.6955C23.388 10.7466 23.3678 10.8098 23.3678 10.8851V12.3815C23.3732 12.4219 23.392 12.4676 23.4243 12.5187C23.4619 12.5724 23.5238 12.5993 23.6098 12.5993C23.7012 12.5993 23.7617 12.5751 23.7913 12.5267C23.8209 12.4783 23.8384 12.4434 23.8437 12.4219C23.8491 12.3977 23.8518 12.3654 23.8518 12.3251V12.1879H24.235L24.235 12.2767Z" fill="white"/>
  <path d="M24.75 12.9583V10.6148H24.2942V10.2559H25.597V10.6148H25.1332V12.9583H24.75Z" fill="white"/>
  <path d="M25.7545 12.9583V10.2559H26.1377V12.9583H25.7545Z" fill="white"/>
  <path d="M26.499 10.51C26.5609 10.4239 26.6389 10.3567 26.733 10.3083C26.8298 10.2572 26.9293 10.2317 27.0315 10.2317C27.131 10.2317 27.2237 10.2518 27.3098 10.2922C27.3985 10.3325 27.4725 10.3876 27.5316 10.4575C27.5908 10.5275 27.6311 10.6001 27.6526 10.6753C27.6741 10.748 27.6849 10.8273 27.6849 10.9133V12.2888C27.6849 12.3694 27.6768 12.4407 27.6607 12.5025C27.6473 12.5644 27.615 12.6329 27.5639 12.7082C27.5155 12.7835 27.4442 12.8481 27.3501 12.9018C27.2587 12.9556 27.1565 12.9825 27.0436 12.9825C26.979 12.9825 26.9172 12.9744 26.858 12.9583C26.7989 12.9395 26.7437 12.9153 26.6927 12.8857C26.6416 12.8561 26.5959 12.8225 26.5555 12.7849C26.5179 12.7472 26.4883 12.7082 26.4668 12.6679C26.4264 12.5845 26.4022 12.5173 26.3942 12.4662C26.3861 12.4151 26.3821 12.356 26.3821 12.2888V10.9133C26.3821 10.8327 26.3901 10.7614 26.4063 10.6995C26.4251 10.635 26.456 10.5718 26.499 10.51ZM27.2493 10.7237C27.1982 10.6485 27.1283 10.6108 27.0395 10.6108C26.9938 10.6108 26.9481 10.6243 26.9024 10.6511C26.8594 10.6753 26.8284 10.7036 26.8096 10.7358C26.7935 10.7681 26.7827 10.8004 26.7774 10.8327C26.772 10.8649 26.7693 10.8918 26.7693 10.9133V12.2888C26.7693 12.3022 26.7693 12.317 26.7693 12.3331C26.7693 12.3466 26.7707 12.3614 26.7733 12.3775C26.776 12.4044 26.7975 12.4487 26.8379 12.5106C26.8782 12.5671 26.9454 12.5953 27.0396 12.5953C27.088 12.5953 27.131 12.5845 27.1686 12.563C27.209 12.5388 27.2372 12.5119 27.2533 12.4824C27.2721 12.4501 27.2843 12.4205 27.2896 12.3936C27.295 12.3667 27.2977 12.3318 27.2977 12.2888V10.9133C27.2977 10.8595 27.295 10.8219 27.2896 10.8004C27.2869 10.7789 27.2735 10.7533 27.2493 10.7237H27.2493Z" fill="white"/>
  <path d="M28.9316 12.9583L28.3306 11.3167V12.9583H27.9434V10.2559H28.3104L28.9074 11.8935V10.2559H29.2946V12.9583H28.9316Z" fill="white"/>
  <path d="M3.30498 9.18243V3.68101L2.37842 4.37593V3.39146L3.30498 2.71585H4.22188V9.18243H3.30498Z" fill="white"/>
  <path d="M7.74743 9.18242H4.99672V8.33308L6.7147 4.99362C6.79191 4.83919 6.83052 4.68155 6.83052 4.52069V4.03811C6.83052 3.90942 6.78549 3.80004 6.69541 3.70996C6.60532 3.61344 6.49594 3.56518 6.36725 3.56518C6.25143 3.56518 6.14526 3.607 6.04875 3.69065C5.95867 3.7743 5.91362 3.87725 5.91362 3.9995V4.56895H4.97742V4.10567C4.97742 3.85473 5.07072 3.54909 5.25732 3.18877C5.45035 2.83488 5.83641 2.65793 6.41551 2.65793C6.78227 2.65793 7.09433 2.79627 7.35171 3.07294C7.61552 3.35606 7.74743 3.67778 7.74743 4.03811V4.62686C7.74743 4.89067 7.67665 5.15448 7.53509 5.41829L6.08735 8.26551H7.74743V9.18242Z" fill="white"/>
  <path fill-rule="evenodd" clip-rule="evenodd" d="M14.8191 21.9468L11.9633 22.8955C11.8371 22.9375 11.8036 23.1003 11.903 23.1887L14.1521 25.1875C14.2515 25.2758 14.4092 25.2236 14.4363 25.0934L15.0429 22.1459C15.0699 22.0155 14.9455 21.9048 14.8191 21.9468ZM20.9995 15.5831C18.6818 15.5831 17.1783 17.2503 16.4378 18.1175C16.4378 18.1175 17.0045 19.2915 17.3215 19.4662C17.3215 19.4662 18.7952 17.0741 20.9995 17.0741C21.7769 17.0741 22.6347 17.3289 23.2747 17.9026C23.9147 18.4763 24.3935 19.3679 24.3935 20.8636C24.3935 21.7634 24.097 22.6407 23.5858 23.2628C23.0745 23.885 22.3806 24.2736 21.4169 24.2736C20.3781 24.2736 19.555 23.976 18.7632 23.3426C17.9714 22.7092 17.2228 21.7116 16.5024 20.3322C16.1326 19.6244 15.5361 18.4778 14.6024 17.4801C13.6686 16.4825 12.3374 15.6135 10.6209 15.6135C9.471 15.6135 8.2749 15.9712 7.35986 16.8302C6.44481 17.6892 5.86569 19.0292 5.85785 20.7842C5.84467 23.7295 8.081 25.7182 10.6361 25.7182C12.4751 25.7182 13.7123 24.5838 13.7123 24.5838L12.7129 23.4772C12.7129 23.4772 11.8646 24.2272 10.6361 24.2272C8.80454 24.2272 7.33848 23.0227 7.34847 20.791C7.35493 19.3474 7.78843 18.473 8.38034 17.9174C8.97225 17.3617 9.77768 17.1045 10.6209 17.1045C11.8461 17.1045 12.7568 17.6899 13.5139 18.4989C14.2711 19.3079 14.8143 20.3207 15.181 21.0227C15.9596 22.5134 16.8069 23.6867 17.8318 24.5066C18.8566 25.3264 20.0714 25.7646 21.4169 25.7646C22.8099 25.7646 23.9768 25.135 24.7375 24.2094C25.4981 23.2839 25.8846 22.0836 25.8846 20.8636C25.8846 19.0298 25.2309 17.6541 24.2699 16.7926C23.3088 15.9312 22.0965 15.5831 20.9995 15.5831Z" fill="white"/>
</svg>
