<svg width="32" height="33" viewBox="0 0 32 33" fill="none" xmlns="http://www.w3.org/2000/svg">
  <path fill-rule="evenodd" clip-rule="evenodd" d="M0.178639 0H31.8214C31.9203 0 32 0.0796758 32 0.178645V31.8736C32 31.9726 31.9203 32.0522 31.8214 32.0522H0.178639C0.0796692 32.0522 0 31.9726 0 31.8736V0.178645C0 0.0796758 0.0796692 0 0.178639 0Z" fill="#00AED9"/>
  <path d="M10.5959 4.88285C10.5959 4.9689 10.5905 5.04284 10.5797 5.10469C10.5717 5.16654 10.5448 5.23377 10.499 5.30637C10.4748 5.34401 10.4439 5.38032 10.4063 5.41527C10.3713 5.44754 10.331 5.47712 10.2853 5.50401C10.2423 5.52821 10.1952 5.54838 10.1441 5.56451C10.093 5.58065 10.0433 5.58871 9.99486 5.58871C9.87386 5.58871 9.7636 5.56317 9.66411 5.51208C9.5673 5.46099 9.49605 5.39645 9.45033 5.31847C9.40462 5.24049 9.37505 5.16788 9.3616 5.10066C9.35084 5.03343 9.34546 4.96083 9.34546 4.88285V3.49129C9.34546 3.416 9.35218 3.34877 9.36562 3.28961C9.38176 3.22777 9.41403 3.16189 9.46243 3.09197C9.51083 3.02206 9.57939 2.9629 9.66813 2.9145C9.75687 2.86341 9.84964 2.83786 9.94645 2.83786C10.132 2.83786 10.2866 2.89971 10.4103 3.0234C10.534 3.1444 10.5958 3.30037 10.5958 3.49129V3.63649H10.2127V3.49129C10.2127 3.416 10.1911 3.35281 10.1481 3.30171C10.1078 3.25062 10.0473 3.22508 9.96661 3.22508C9.89132 3.22508 9.83216 3.25062 9.78913 3.30171C9.7488 3.35281 9.72864 3.416 9.72864 3.49129V4.98772C9.73401 5.02806 9.75284 5.07377 9.78511 5.12486C9.82276 5.17864 9.8846 5.20553 9.97065 5.20553C10.0621 5.20553 10.1226 5.18133 10.1521 5.13293C10.1817 5.08452 10.1992 5.04957 10.2046 5.02806C10.21 5.00385 10.2126 4.97159 10.2126 4.93125V4.79411H10.5958L10.5959 4.88285Z" fill="white"/>
  <path d="M12.026 5.56451H10.8724V2.86206H11.2597V5.17729H12.026V5.56451Z" fill="white"/>
  <path d="M13.3076 5.17729V5.56451H12.15V2.86206H13.3076V3.21701H12.5332V4.01564H13.2108V4.38269H12.5332V5.17729H13.3076Z" fill="white"/>
  <path d="M13.3805 5.56451L13.9855 2.86206H14.3203L14.9253 5.56451H14.5099L14.401 4.98369H13.9008L13.7879 5.56451H13.3805ZM13.9694 4.6247H14.3324L14.1509 3.64053L13.9694 4.6247Z" fill="white"/>
  <path d="M16.0801 5.56451L15.4791 3.92287V5.56451H15.0919V2.86206H15.459L16.0559 4.49966V2.86206H16.4431V5.56451H16.0801Z" fill="white"/>
  <path d="M18.3935 5.56451L18.0748 3.91884L17.7643 5.56451H17.4053L17.014 2.86206H17.4255L17.6191 4.49563L17.9296 2.86206H18.216L18.5347 4.49563L18.7283 2.86206H19.1357L18.7565 5.56451H18.3935Z" fill="white"/>
  <path d="M19.0381 5.56451L19.6431 2.86206H19.9779L20.5829 5.56451H20.1675L20.0586 4.98369H19.5584L19.4455 5.56451H19.0381ZM19.627 4.6247H19.99L19.8085 3.64053L19.627 4.6247Z" fill="white"/>
  <path d="M20.8768 5.56451V3.22104H20.421V2.86206H21.7238V3.22104H21.26V5.56451H20.8768Z" fill="white"/>
  <path d="M23.1039 5.17729V5.56451H21.9463V2.86206H23.1039V3.21701H22.3295V4.01564H23.0071V4.38269H22.3295V5.17729H23.1039Z" fill="white"/>
  <path d="M23.3021 5.56451V2.86206H23.9798C24.1572 2.86206 24.3065 2.92391 24.4275 3.0476C24.5512 3.17129 24.613 3.32322 24.613 3.50339V3.75347C24.613 4.00354 24.5068 4.19446 24.2944 4.32622L24.7058 5.56451H24.2944L23.9313 4.40689H23.6893V5.56451H23.3021ZM24.1613 3.97934C24.1855 3.94976 24.2016 3.91615 24.2097 3.87851C24.2204 3.84086 24.2258 3.79918 24.2258 3.75347V3.50339C24.2258 3.42003 24.2029 3.3528 24.1572 3.30171C24.1115 3.24793 24.047 3.22104 23.9636 3.22104H23.6893V4.06405H23.9596C24.0403 4.06405 24.1075 4.03581 24.1613 3.97934Z" fill="white"/>
  <path d="M9.25562 9.29124L9.86064 6.58879H10.1954L10.8005 9.29124H10.385L10.2761 8.71042H9.77594L9.663 9.29124H9.25562ZM9.84451 8.35144H10.2075L10.026 7.36726L9.84451 8.35144Z" fill="white"/>
  <path d="M11.9552 9.29124L11.3543 7.64961V9.29124H10.967V6.58879H11.3341L11.931 8.2264V6.58879H12.3183V9.29124H11.9552Z" fill="white"/>
  <path d="M13.1694 6.58879C13.3442 6.58879 13.4934 6.65064 13.6171 6.77433C13.7435 6.89534 13.8067 7.04324 13.8067 7.21802V8.62168C13.8067 8.82067 13.7462 8.98201 13.6252 9.1057C13.5041 9.2294 13.3482 9.29124 13.1573 9.29124H12.5563V6.58879H13.1694ZM13.4235 8.62168V7.21802C13.4235 7.14273 13.3952 7.07954 13.3388 7.02844C13.285 6.97735 13.2191 6.95181 13.1411 6.95181H12.9395V8.93226H13.129C13.3253 8.93226 13.4235 8.82874 13.4235 8.62168Z" fill="white"/>
  <path d="M14.9385 8.61765C14.9385 8.64454 14.9385 8.6674 14.9385 8.68622C14.9385 8.70505 14.9398 8.72118 14.9425 8.73462C14.9479 8.76151 14.9681 8.8005 15.003 8.85159C15.0407 8.90537 15.1079 8.93226 15.2047 8.93226C15.2585 8.93226 15.3082 8.92151 15.354 8.89999C15.3997 8.87579 15.4333 8.84487 15.4548 8.80723C15.4709 8.77765 15.4803 8.74941 15.483 8.72252C15.4884 8.69563 15.4911 8.67143 15.4911 8.64991V8.61361V8.42404V8.38774C15.4911 8.32858 15.4803 8.28287 15.4588 8.2506C15.4373 8.21564 15.3889 8.17665 15.3136 8.13363C15.2625 8.10674 15.1711 8.06909 15.0393 8.02069C14.9076 7.97229 14.7973 7.89565 14.7086 7.79078C14.6199 7.68591 14.5755 7.54339 14.5755 7.36323V7.24222C14.5755 7.05668 14.6373 6.89803 14.761 6.76627C14.8874 6.63182 15.0407 6.56459 15.2208 6.56459C15.4091 6.56459 15.565 6.63047 15.6887 6.76223C15.8151 6.894 15.8783 7.05399 15.8783 7.24222V7.36323H15.4911V7.24222C15.4911 7.2234 15.4897 7.20592 15.487 7.18979C15.487 7.17365 15.4857 7.15887 15.483 7.14542C15.4803 7.13198 15.4736 7.11585 15.4628 7.09702C15.4521 7.0782 15.4373 7.05533 15.4185 7.02844C15.3808 6.97466 15.3176 6.94778 15.2289 6.94778C15.1509 6.94778 15.0864 6.97601 15.0353 7.03248C14.9869 7.08895 14.9627 7.15887 14.9627 7.24222V7.36323V7.39953C14.9627 7.45331 14.9708 7.49634 14.9869 7.52861C15.0057 7.55818 15.0487 7.59179 15.116 7.62944C15.1375 7.6402 15.1697 7.65499 15.2128 7.67381C15.2585 7.68995 15.3136 7.71011 15.3781 7.73431C15.5072 7.77734 15.6228 7.85397 15.725 7.96422C15.8272 8.07447 15.8783 8.21968 15.8783 8.39984V8.61765C15.8783 8.71176 15.8689 8.79109 15.8501 8.85563C15.8339 8.92016 15.7788 9.01428 15.6847 9.13797C15.5906 9.25629 15.4333 9.31545 15.2128 9.31545C14.9788 9.31545 14.8094 9.24016 14.7045 9.08957C14.5997 8.9363 14.5472 8.77899 14.5472 8.61765V8.52084H14.9385V8.61765Z" fill="white"/>
  <path d="M15.9531 9.29124L16.5581 6.58879H16.8929L17.498 9.29124H17.0825L16.9736 8.71042H16.4735L16.3605 9.29124H15.9531ZM16.542 8.35144H16.905L16.7235 7.36726L16.542 8.35144Z" fill="white"/>
  <path d="M18.6831 9.29124L18.0822 7.64961V9.29124H17.6949V6.58879H18.062L18.6589 8.2264V6.58879H19.0462V9.29124H18.6831Z" fill="white"/>
  <path d="M19.2996 9.29124V6.58879H19.6827V9.29124H19.2996Z" fill="white"/>
  <path d="M20.3526 9.29124V6.94778H19.8969V6.58879H21.1997V6.94778H20.7358V9.29124H20.3526Z" fill="white"/>
  <path d="M21.0637 9.29124L21.6688 6.58879H22.0035L22.6086 9.29124H22.1931L22.0842 8.71042H21.584L21.4711 9.29124H21.0637ZM21.6526 8.35144H22.0156L21.8341 7.36726L21.6526 8.35144Z" fill="white"/>
  <path d="M22.9482 9.29124V6.94778H22.4924V6.58879H23.7953V6.94778H23.3314V9.29124H22.9482Z" fill="white"/>
  <path d="M24.0024 9.29124V6.58879H24.3856V9.29124H24.0024Z" fill="white"/>
  <path d="M24.8184 6.84291C24.8802 6.75686 24.9582 6.68963 25.0523 6.64123C25.1491 6.59014 25.2486 6.56459 25.3508 6.56459C25.4503 6.56459 25.5431 6.58476 25.6291 6.62509C25.7179 6.66543 25.7918 6.72056 25.851 6.79047C25.9101 6.86038 25.9505 6.93299 25.972 7.00828C25.9935 7.08088 26.0042 7.16021 26.0042 7.24626V8.62168C26.0042 8.70235 25.9962 8.77361 25.98 8.83546C25.9666 8.8973 25.9343 8.96588 25.8832 9.04117C25.8348 9.11646 25.7636 9.181 25.6695 9.23478C25.578 9.28856 25.4759 9.31545 25.3629 9.31545C25.2984 9.31545 25.2365 9.30738 25.1774 9.29125C25.1182 9.27242 25.0631 9.24822 25.012 9.21864C24.9609 9.18906 24.9152 9.15545 24.8749 9.1178C24.8372 9.08016 24.8076 9.04117 24.7861 9.00083C24.7458 8.91747 24.7216 8.85024 24.7135 8.79915C24.7055 8.74806 24.7014 8.68891 24.7014 8.62168V7.24626C24.7014 7.16559 24.7095 7.09433 24.7256 7.03248C24.7444 6.96794 24.7754 6.90476 24.8184 6.84291ZM25.5686 7.05668C25.5175 6.98139 25.4476 6.94374 25.3589 6.94374C25.3132 6.94374 25.2675 6.95719 25.2217 6.98408C25.1787 7.00828 25.1478 7.03651 25.129 7.06878C25.1128 7.10105 25.1021 7.13332 25.0967 7.16558C25.0913 7.19785 25.0886 7.22475 25.0886 7.24626V8.62168C25.0886 8.63512 25.0886 8.64991 25.0886 8.66605C25.0886 8.67949 25.09 8.69428 25.0927 8.71042C25.0954 8.73731 25.1169 8.78168 25.1572 8.84353C25.1976 8.9 25.2648 8.92823 25.3589 8.92823C25.4073 8.92823 25.4503 8.91747 25.488 8.89596C25.5283 8.87176 25.5565 8.84487 25.5727 8.81529C25.5915 8.78302 25.6036 8.75344 25.609 8.72655C25.6143 8.69966 25.617 8.66471 25.617 8.62168V7.24626C25.617 7.19248 25.6143 7.15483 25.609 7.13332C25.6063 7.11181 25.5928 7.08626 25.5686 7.05668H25.5686Z" fill="white"/>
  <path d="M27.319 9.29124L26.718 7.64961V9.29124H26.3308V6.58879H26.6979L27.2948 8.2264V6.58879H27.682V9.29124H27.319Z" fill="white"/>
  <path d="M6.13477 5.85772C6.18625 5.9478 6.21842 6.0411 6.23128 6.13762C6.25059 6.23413 6.26025 6.35317 6.26025 6.49472V7.73013C6.26025 7.87812 6.24415 8.02611 6.21198 8.1741C6.1798 8.31566 6.08329 8.51513 5.92244 8.77251C5.75514 9.03632 5.43986 9.18753 4.97658 9.22613C4.68703 9.22613 4.42322 9.16501 4.18515 9.04275C3.95351 8.91407 3.78943 8.76286 3.69292 8.58913C3.60283 8.40896 3.54492 8.25776 3.51918 8.1355C3.49988 8.01325 3.49023 7.87812 3.49023 7.73013V6.71671C3.49023 6.57516 3.49345 6.47542 3.49989 6.41751C3.50633 6.35317 3.52885 6.26952 3.56745 6.16657L4.85112 2.70164H5.89349L4.85112 5.41375C4.96694 5.36871 5.10528 5.34618 5.26613 5.34618H5.35299C5.70689 5.39766 5.96748 5.56817 6.13477 5.85772ZM5.25647 6.34995C5.15995 6.22127 5.03127 6.15692 4.87041 6.15692C4.72886 6.15692 4.61947 6.20839 4.54226 6.31134C4.46504 6.41429 4.42643 6.54942 4.42643 6.71671V7.73013C4.42643 7.86525 4.4586 7.99395 4.52295 8.1162C4.59373 8.23202 4.71276 8.28993 4.88005 8.28993H4.93797C5.10526 8.28993 5.21465 8.23202 5.26612 8.1162C5.3176 8.00038 5.34334 7.87169 5.34334 7.73013V6.71671C5.34334 6.63307 5.33691 6.56551 5.32405 6.51403C5.31761 6.45612 5.29508 6.40143 5.25648 6.34995H5.25647Z" fill="white"/>
  <path d="M10.3343 12.9212C10.1811 12.9212 10.0313 13.0557 10.0646 13.2584L11.952 24.7339C11.9764 24.8824 12.0706 25.0204 12.2216 25.0204H14.5133L14.6821 26.8909H13.7047L16.0216 29.2083L18.3386 26.8909H17.3612L17.53 25.0204H19.8216C19.9726 25.0204 20.0669 24.8824 20.0913 24.7339L21.9786 13.2584C22.0119 13.0557 21.8622 12.9212 21.7089 12.9212H10.3343ZM10.6829 13.493H21.3603L21.0451 15.4103C19.8075 15.2671 17.9519 16.8524 15.8672 15.8049C13.3012 14.5157 13.2456 15.9055 11.0602 15.788L10.6829 13.493ZM16.0132 17.5049C17.0207 19.2499 17.8807 19.922 17.8807 21.1027C17.8807 21.8918 17.3827 22.9141 16.0132 22.9141C14.6437 22.9141 14.1457 21.8918 14.1457 21.1027C14.1457 19.922 15.0057 19.2499 16.0132 17.5049Z" fill="white"/>
</svg>
