<svg width="32" height="33" viewBox="0 0 32 33" fill="none" xmlns="http://www.w3.org/2000/svg">
  <path fill-rule="evenodd" clip-rule="evenodd" d="M0.178652 0.104492H31.8213C31.9203 0.104492 32 0.184175 32 0.283144V31.9781C32 32.0771 31.9203 32.1567 31.8213 32.1567H0.178652C0.0796824 32.1567 0 32.0771 0 31.9781V0.283144C0 0.184175 0.0796824 0.104492 0.178652 0.104492Z" fill="#183668"/>
  <path d="M10.4188 5.62325V2.92081H11.0521H11.0602C11.1408 2.92081 11.2175 2.93829 11.2901 2.97324C11.3627 3.00551 11.4272 3.04853 11.4837 3.10231C11.5401 3.15609 11.5845 3.21794 11.6168 3.28786C11.6517 3.35508 11.6705 3.42499 11.6732 3.49759V3.88884V3.92918C11.6732 4.01791 11.6558 4.10128 11.6208 4.17926C11.5885 4.25455 11.5442 4.32043 11.4877 4.3769C11.4312 4.43337 11.364 4.47774 11.286 4.51001C11.2107 4.54228 11.1301 4.55841 11.044 4.55841H11.0077H10.806V5.62325H10.4188ZM11.2376 4.11472C11.2618 4.09052 11.2766 4.06498 11.282 4.03809C11.2901 4.0112 11.2941 3.97758 11.2941 3.93725V3.53792C11.2941 3.46263 11.2712 3.40079 11.2255 3.35239C11.1798 3.3013 11.118 3.27575 11.04 3.27575H10.8061V4.19136H11.0077C11.0615 4.19136 11.1045 4.18732 11.1368 4.17926C11.1718 4.16849 11.2054 4.14699 11.2376 4.11472Z" fill="white"/>
  <path d="M11.7028 5.62325L12.3078 2.92081H12.6426L13.2476 5.62325H12.8321L12.7232 5.04243H12.2231L12.1102 5.62325H11.7028ZM12.2917 4.68345H12.6547L12.4732 3.69927L12.2917 4.68345Z" fill="white"/>
  <path d="M13.4406 5.62325V2.92081H14.1182C14.2957 2.92081 14.4449 2.98265 14.5659 3.10634C14.6896 3.23004 14.7514 3.38196 14.7514 3.56213V3.81221C14.7514 4.06228 14.6452 4.25321 14.4328 4.38497L14.8442 5.62325H14.4328L14.0698 4.46564H13.8278V5.62325H13.4406ZM14.2997 4.03809C14.3239 4.00851 14.34 3.97489 14.3481 3.93725C14.3589 3.8996 14.3642 3.85792 14.3642 3.81221V3.56213C14.3642 3.47877 14.3414 3.41155 14.2957 3.36046C14.2499 3.30668 14.1854 3.27979 14.102 3.27979H13.8278V4.1228H14.098C14.1787 4.1228 14.2459 4.09455 14.2997 4.03809Z" fill="white"/>
  <path d="M15.2898 5.62325V3.27979H14.834V2.92081H16.1368V3.27979H15.673V5.62325H15.2898Z" fill="white"/>
  <path d="M17.2771 5.62325L16.6762 3.98161V5.62325H16.2889V2.92081H16.656L17.2529 4.55841V2.92081H17.6402V5.62325H17.2771Z" fill="white"/>
  <path d="M19.0255 5.23604V5.62325H17.8679V2.92081H19.0255V3.27575H18.2511V4.07439H18.9287V4.44144H18.2511V5.23604H19.0255Z" fill="white"/>
  <path d="M19.2021 5.62325V2.92081H19.8798C20.0573 2.92081 20.2065 2.98265 20.3275 3.10634C20.4512 3.23004 20.513 3.38196 20.513 3.56213V3.81221C20.513 4.06228 20.4068 4.25321 20.1944 4.38497L20.6058 5.62325H20.1944L19.8314 4.46564H19.5894V5.62325H19.2021ZM20.0613 4.03809C20.0855 4.00851 20.1016 3.97489 20.1097 3.93725C20.1205 3.8996 20.1258 3.85792 20.1258 3.81221V3.56213C20.1258 3.47877 20.103 3.41155 20.0573 3.36046C20.0116 3.30668 19.947 3.27979 19.8637 3.27979H19.5894V4.1228H19.8596C19.9403 4.1228 20.0075 4.09455 20.0613 4.03809H20.0613Z" fill="white"/>
  <path d="M21.0465 4.94966C21.0465 4.97655 21.0465 4.99941 21.0465 5.01823C21.0465 5.03705 21.0479 5.05319 21.0506 5.06663C21.0559 5.09352 21.0761 5.13251 21.1111 5.1836C21.1487 5.23738 21.2159 5.26428 21.3127 5.26428C21.3665 5.26428 21.4163 5.25352 21.462 5.232C21.5077 5.2078 21.5413 5.17688 21.5628 5.13924C21.579 5.10966 21.5884 5.08142 21.5911 5.05453C21.5964 5.02764 21.5991 5.00343 21.5991 4.98192V4.94563V4.75606V4.71975C21.5991 4.66059 21.5884 4.61488 21.5669 4.58261C21.5453 4.54766 21.4969 4.50867 21.4216 4.46565C21.3706 4.43875 21.2791 4.4011 21.1474 4.3527C21.0156 4.3043 20.9054 4.22767 20.8166 4.1228C20.7279 4.01793 20.6835 3.8754 20.6835 3.69524V3.57423C20.6835 3.38869 20.7454 3.23005 20.8691 3.09829C20.9954 2.96383 21.1487 2.89661 21.3289 2.89661C21.5171 2.89661 21.6731 2.96249 21.7968 3.09425C21.9231 3.22601 21.9863 3.386 21.9863 3.57423V3.69524H21.5991V3.57423C21.5991 3.55541 21.5978 3.53793 21.5951 3.5218C21.5951 3.50566 21.5937 3.49088 21.591 3.47743C21.5883 3.46399 21.5816 3.44785 21.5709 3.42903C21.5601 3.41021 21.5453 3.38735 21.5265 3.36046C21.4889 3.30668 21.4257 3.27979 21.3369 3.27979C21.259 3.27979 21.1944 3.30803 21.1433 3.3645C21.0949 3.42096 21.0707 3.49087 21.0707 3.57423V3.69524V3.73155C21.0707 3.78533 21.0788 3.82834 21.0949 3.86061C21.1137 3.89019 21.1568 3.9238 21.224 3.96145C21.2455 3.97221 21.2778 3.98699 21.3208 4.00581C21.3665 4.02195 21.4216 4.04212 21.4862 4.06632C21.6152 4.10935 21.7309 4.18598 21.8331 4.29623C21.9352 4.40647 21.9863 4.55169 21.9863 4.73186V4.94966C21.9863 5.04378 21.9769 5.1231 21.9581 5.18764C21.942 5.25217 21.8868 5.34628 21.7927 5.46998C21.6986 5.58829 21.5413 5.64746 21.3208 5.64746C21.0869 5.64746 20.9175 5.57216 20.8126 5.42158C20.7077 5.2683 20.6553 5.111 20.6553 4.94966V4.85286H21.0465L21.0465 4.94966Z" fill="white"/>
  <path d="M22.2117 5.62325V2.92081H22.5949V4.07439H23.0869V2.92081H23.4701V5.62325H23.0869V4.41724H22.5949V5.62325H22.2117Z" fill="white"/>
  <path d="M23.851 5.62325V2.92081H24.2341V5.62325H23.851Z" fill="white"/>
  <path d="M24.5577 5.62325V2.92081H25.191H25.1991C25.2797 2.92081 25.3564 2.93829 25.429 2.97324C25.5016 3.00551 25.5661 3.04853 25.6226 3.10231C25.679 3.15609 25.7234 3.21794 25.7557 3.28786C25.7906 3.35508 25.8095 3.42499 25.8122 3.49759V3.88884V3.92918C25.8122 4.01791 25.7947 4.10128 25.7597 4.17926C25.7274 4.25455 25.6831 4.32043 25.6266 4.3769C25.5701 4.43337 25.5029 4.47774 25.4249 4.51001C25.3496 4.54228 25.269 4.55841 25.1829 4.55841H25.1466H24.9449V5.62325H24.5577ZM25.3765 4.11472C25.4007 4.09052 25.4155 4.06498 25.4209 4.03809C25.429 4.0112 25.433 3.97758 25.433 3.93725V3.53792C25.433 3.46263 25.4102 3.40079 25.3644 3.35239C25.3187 3.3013 25.2569 3.27575 25.1789 3.27575H24.945V4.19136H25.1466C25.2004 4.19136 25.2434 4.18732 25.2757 4.17926C25.3107 4.16849 25.3443 4.14699 25.3765 4.11472Z" fill="white"/>
  <path d="M26.3918 4.94966C26.3918 4.97655 26.3918 4.99941 26.3918 5.01823C26.3918 5.03705 26.3931 5.05319 26.3958 5.06663C26.4012 5.09352 26.4213 5.13251 26.4563 5.1836C26.4939 5.23738 26.5612 5.26428 26.658 5.26428C26.7117 5.26428 26.7615 5.25352 26.8072 5.232C26.8529 5.2078 26.8865 5.17688 26.908 5.13924C26.9242 5.10966 26.9336 5.08142 26.9363 5.05453C26.9417 5.02764 26.9443 5.00343 26.9443 4.98192V4.94563V4.75606V4.71975C26.9443 4.66059 26.9336 4.61488 26.9121 4.58261C26.8906 4.54766 26.8422 4.50867 26.7669 4.46565C26.7158 4.43875 26.6243 4.4011 26.4926 4.3527C26.3608 4.3043 26.2506 4.22767 26.1618 4.1228C26.0731 4.01793 26.0287 3.8754 26.0287 3.69524V3.57423C26.0287 3.38869 26.0906 3.23005 26.2143 3.09829C26.3407 2.96383 26.4939 2.89661 26.6741 2.89661C26.8623 2.89661 27.0183 2.96249 27.142 3.09425C27.2684 3.22601 27.3316 3.386 27.3316 3.57423V3.69524H26.9443V3.57423C26.9443 3.55541 26.943 3.53793 26.9403 3.5218C26.9403 3.50566 26.9389 3.49088 26.9363 3.47743C26.9336 3.46399 26.9268 3.44785 26.9161 3.42903C26.9053 3.41021 26.8905 3.38735 26.8717 3.36046C26.8341 3.30668 26.7709 3.27979 26.6822 3.27979C26.6042 3.27979 26.5396 3.30803 26.4885 3.3645C26.4401 3.42096 26.4159 3.49087 26.4159 3.57423V3.69524V3.73155C26.4159 3.78533 26.424 3.82834 26.4401 3.86061C26.459 3.89019 26.502 3.9238 26.5692 3.96145C26.5907 3.97221 26.623 3.98699 26.666 4.00581C26.7117 4.02195 26.7669 4.04212 26.8314 4.06632C26.9605 4.10935 27.0761 4.18598 27.1783 4.29623C27.2805 4.40647 27.3316 4.55169 27.3316 4.73186V4.94966C27.3316 5.04378 27.3221 5.1231 27.3033 5.18764C27.2872 5.25217 27.232 5.34628 27.1379 5.46998C27.0438 5.58829 26.8865 5.64746 26.666 5.64746C26.4321 5.64746 26.2627 5.57216 26.1578 5.42158C26.0529 5.2683 26.0005 5.111 26.0005 4.94966V4.85286H26.3917L26.3918 4.94966Z" fill="white"/>
  <path d="M10.4188 9.35001V6.64755H11.5724V7.01057H10.802V7.8213H11.4756V8.18432H10.802V9.35001H10.4188Z" fill="white"/>
  <path d="M11.7642 6.90167C11.826 6.81562 11.904 6.74839 11.9981 6.69999C12.0949 6.6489 12.1944 6.62335 12.2966 6.62335C12.3961 6.62335 12.4889 6.64353 12.5749 6.68386C12.6637 6.7242 12.7376 6.77932 12.7968 6.84923C12.8559 6.91915 12.8963 6.99175 12.9178 7.06704C12.9393 7.13964 12.95 7.21896 12.95 7.30501V8.68045C12.95 8.76112 12.942 8.83237 12.9258 8.89422C12.9124 8.95607 12.8801 9.02464 12.829 9.09993C12.7806 9.17523 12.7094 9.23976 12.6153 9.29354C12.5238 9.34732 12.4216 9.37421 12.3087 9.37421C12.2442 9.37421 12.1823 9.36615 12.1232 9.35001C12.064 9.33119 12.0089 9.30699 11.9578 9.27741C11.9067 9.24783 11.861 9.21422 11.8206 9.17657C11.783 9.13893 11.7534 9.09992 11.7319 9.05959C11.6916 8.97623 11.6674 8.90901 11.6593 8.85792C11.6512 8.80683 11.6472 8.74767 11.6472 8.68045V7.30501C11.6472 7.22434 11.6553 7.15309 11.6714 7.09124C11.6902 7.02671 11.7212 6.96352 11.7642 6.90167ZM12.5144 7.11544C12.4633 7.04015 12.3934 7.00251 12.3047 7.00251C12.259 7.00251 12.2132 7.01595 12.1675 7.04284C12.1245 7.06704 12.0936 7.09528 12.0748 7.12755C12.0586 7.15982 12.0479 7.19209 12.0425 7.22435C12.0371 7.25662 12.0344 7.2835 12.0344 7.30501V8.68045C12.0344 8.69389 12.0344 8.70867 12.0344 8.72481C12.0344 8.73825 12.0358 8.75304 12.0385 8.76918C12.0412 8.79607 12.0627 8.84044 12.103 8.90229C12.1433 8.95876 12.2106 8.98699 12.3047 8.98699C12.3531 8.98699 12.3961 8.97624 12.4338 8.95473C12.4741 8.93053 12.5023 8.90363 12.5185 8.87405C12.5373 8.84178 12.5494 8.81221 12.5548 8.78532C12.5601 8.75843 12.5628 8.72347 12.5628 8.68045V7.30501C12.5628 7.25123 12.5601 7.21359 12.5548 7.19208C12.5521 7.17057 12.5386 7.14502 12.5144 7.11544H12.5144Z" fill="white"/>
  <path d="M13.2755 9.35001V6.64755H13.9531C14.1306 6.64755 14.2798 6.70941 14.4008 6.8331C14.5245 6.9568 14.5864 7.10872 14.5864 7.28888V7.53896C14.5864 7.78904 14.4802 7.97995 14.2678 8.11172L14.6792 9.35001H14.2678L13.9047 8.19239H13.6627V9.35001H13.2755ZM14.1346 7.76484C14.1588 7.73526 14.175 7.70165 14.183 7.66401C14.1938 7.62636 14.1992 7.58468 14.1992 7.53896V7.28888C14.1992 7.20552 14.1763 7.1383 14.1306 7.08721C14.0849 7.03342 14.0204 7.00653 13.937 7.00653H13.6627V7.84954H13.933C14.0136 7.84954 14.0809 7.82131 14.1347 7.76484H14.1346Z" fill="white"/>
  <path d="M15.5705 9.35001V7.00653H15.1147V6.64755H16.4176V7.00653H15.9537V9.35001H15.5705Z" fill="white"/>
  <path d="M16.5697 9.35001V6.64755H16.9529V7.80114H17.445V6.64755H17.8282V9.35001H17.445V8.14399H16.9529V9.35001H16.5697Z" fill="white"/>
  <path d="M19.3473 8.96278V9.35001H18.1897V6.64755H19.3473V7.00251H18.5729V7.80114H19.2505V8.16819H18.5729V8.96278H19.3473Z" fill="white"/>
  <path d="M21.1322 9.06766C21.0703 9.16446 20.991 9.23976 20.8942 9.29354C20.7974 9.34732 20.6912 9.37421 20.5755 9.37421C20.4734 9.37421 20.3739 9.35001 20.2771 9.30161C20.1829 9.25321 20.109 9.19405 20.0552 9.12413C20.0041 9.05153 19.9692 8.97893 19.9503 8.90633C19.9342 8.83372 19.9261 8.75171 19.9261 8.66028V7.30905C19.9261 7.24183 19.9329 7.1746 19.9463 7.10737C19.9651 7.04015 20.0149 6.94469 20.0955 6.821C20.1789 6.68923 20.3429 6.62335 20.5876 6.62335C20.6952 6.62335 20.796 6.6489 20.8901 6.69999C20.9843 6.75108 21.0555 6.81427 21.1039 6.88956C21.155 6.96217 21.1873 7.03209 21.2007 7.09931C21.2169 7.16385 21.2249 7.23376 21.2249 7.30905V7.422H20.8417V7.30905C20.8417 7.28754 20.8404 7.26871 20.8377 7.25258C20.8377 7.23375 20.8364 7.21762 20.8337 7.20417C20.831 7.17997 20.8108 7.14099 20.7732 7.08721C20.7355 7.03342 20.6723 7.00653 20.5836 7.00653C20.4787 7.00653 20.4088 7.03477 20.3738 7.09124C20.3416 7.14771 20.3228 7.18939 20.3174 7.21628C20.312 7.24317 20.3093 7.27409 20.3093 7.30905V8.66028C20.3093 8.68717 20.3093 8.71002 20.3093 8.72885C20.3093 8.74767 20.3107 8.7638 20.3133 8.77725C20.316 8.79876 20.3362 8.84044 20.3739 8.90229C20.4088 8.95876 20.4774 8.98699 20.5796 8.98699C20.6844 8.98699 20.7517 8.95876 20.7812 8.90229C20.7974 8.87271 20.8095 8.84851 20.8175 8.82969C20.8256 8.80817 20.831 8.78935 20.8337 8.77321C20.8391 8.75708 20.8417 8.74095 20.8417 8.72481C20.8417 8.70599 20.8417 8.68448 20.8417 8.66028V8.18836H20.5312V7.84954H21.2249V8.66028C21.2249 8.71675 21.2236 8.76515 21.2209 8.80549C21.2182 8.84313 21.2128 8.87675 21.2047 8.90633C21.1967 8.93591 21.1859 8.96413 21.1725 8.99102C21.1617 9.01522 21.1483 9.04077 21.1321 9.06766H21.1322Z" fill="white"/>
  <path d="M21.6588 6.90167C21.7207 6.81562 21.7987 6.74839 21.8928 6.69999C21.9896 6.6489 22.0891 6.62335 22.1913 6.62335C22.2908 6.62335 22.3835 6.64353 22.4696 6.68386C22.5583 6.7242 22.6323 6.77932 22.6914 6.84923C22.7506 6.91915 22.7909 6.99175 22.8124 7.06704C22.8339 7.13964 22.8447 7.21896 22.8447 7.30501V8.68045C22.8447 8.76112 22.8366 8.83237 22.8205 8.89422C22.807 8.95607 22.7748 9.02464 22.7237 9.09993C22.6753 9.17523 22.604 9.23976 22.5099 9.29354C22.4185 9.34732 22.3163 9.37421 22.2034 9.37421C22.1388 9.37421 22.077 9.36615 22.0178 9.35001C21.9587 9.33119 21.9035 9.30699 21.8524 9.27741C21.8014 9.24783 21.7556 9.21422 21.7153 9.17657C21.6777 9.13893 21.6481 9.09992 21.6266 9.05959C21.5862 8.97623 21.562 8.90901 21.554 8.85792C21.5459 8.80683 21.5419 8.74767 21.5419 8.68045V7.30501C21.5419 7.22434 21.5499 7.15309 21.5661 7.09124C21.5849 7.02671 21.6158 6.96352 21.6588 6.90167ZM22.4091 7.11544C22.358 7.04015 22.2881 7.00251 22.1993 7.00251C22.1536 7.00251 22.1079 7.01595 22.0622 7.04284C22.0192 7.06704 21.9882 7.09528 21.9694 7.12755C21.9533 7.15982 21.9425 7.19209 21.9371 7.22435C21.9318 7.25662 21.9291 7.2835 21.9291 7.30501V8.68045C21.9291 8.69389 21.9291 8.70867 21.9291 8.72481C21.9291 8.73825 21.9304 8.75304 21.9331 8.76918C21.9358 8.79607 21.9573 8.84044 21.9977 8.90229C22.038 8.95876 22.1052 8.98699 22.1993 8.98699C22.2477 8.98699 22.2908 8.97624 22.3284 8.95473C22.3687 8.93053 22.397 8.90363 22.4131 8.87405C22.4319 8.84178 22.444 8.81221 22.4494 8.78532C22.4548 8.75843 22.4575 8.72347 22.4575 8.68045V7.30501C22.4575 7.25123 22.4548 7.21359 22.4494 7.19208C22.4467 7.17057 22.4333 7.14502 22.4091 7.11544H22.4091Z" fill="white"/>
  <path d="M23.0072 9.35001L23.6122 6.64755H23.947L24.552 9.35001H24.1366L24.0277 8.76918H23.5275L23.4146 9.35001H23.0072ZM23.5961 8.4102H23.9591L23.7776 7.42602L23.5961 8.4102Z" fill="white"/>
  <path d="M25.8874 9.35001H24.7338V6.64755H25.121V8.96278H25.8874V9.35001Z" fill="white"/>
  <path d="M26.2914 8.67641C26.2914 8.7033 26.2914 8.72615 26.2914 8.74498C26.2914 8.7638 26.2928 8.77993 26.2954 8.79338C26.3008 8.82027 26.321 8.85927 26.3559 8.91036C26.3936 8.96414 26.4608 8.99102 26.5576 8.99102C26.6114 8.99102 26.6611 8.98027 26.7069 8.95876C26.7526 8.93456 26.7862 8.90363 26.8077 8.86598C26.8238 8.8364 26.8332 8.80817 26.8359 8.78128C26.8413 8.75439 26.844 8.73019 26.844 8.70868V8.67237V8.4828V8.44649C26.844 8.38734 26.8332 8.34163 26.8117 8.30936C26.7902 8.2744 26.7418 8.23542 26.6665 8.19239C26.6154 8.1655 26.524 8.12786 26.3922 8.07946C26.2605 8.03106 26.1502 7.95441 26.0615 7.84954C25.9728 7.74467 25.9284 7.60216 25.9284 7.422V7.30098C25.9284 7.11544 25.9902 6.95679 26.1139 6.82503C26.2403 6.69058 26.3936 6.62335 26.5738 6.62335C26.762 6.62335 26.9179 6.68923 27.0416 6.821C27.168 6.95276 27.2312 7.11275 27.2312 7.30098V7.422H26.844V7.30098C26.844 7.28215 26.8427 7.26469 26.84 7.24855C26.84 7.23242 26.8386 7.21762 26.8359 7.20417C26.8332 7.19073 26.8265 7.1746 26.8158 7.15577C26.805 7.13695 26.7902 7.11409 26.7714 7.08721C26.7337 7.03342 26.6705 7.00653 26.5818 7.00653C26.5038 7.00653 26.4393 7.03477 26.3882 7.09124C26.3398 7.14771 26.3156 7.21762 26.3156 7.30098V7.422V7.45829C26.3156 7.51207 26.3237 7.5551 26.3398 7.58737C26.3586 7.61695 26.4016 7.65056 26.4689 7.68821C26.4904 7.69897 26.5227 7.71376 26.5657 7.73257C26.6114 7.74871 26.6665 7.76887 26.731 7.79307C26.8601 7.83609 26.9758 7.91274 27.0779 8.02298C27.1801 8.13323 27.2312 8.27844 27.2312 8.4586V8.67641C27.2312 8.77053 27.2218 8.84985 27.203 8.91438C27.1868 8.97892 27.1317 9.07304 27.0376 9.19674C26.9435 9.31505 26.7862 9.37421 26.5657 9.37421C26.3317 9.37421 26.1623 9.29892 26.0575 9.14833C25.9526 8.99506 25.9001 8.83775 25.9001 8.67641V8.57961H26.2914V8.67641Z" fill="white"/>
  <path d="M3.8129 9.38364V3.88222L2.88635 4.57713V3.59267L3.8129 2.91705H4.7298V9.38364H3.8129Z" fill="white"/>
  <path d="M6.12203 4.53853H5.30164V2.91705H8.06201V3.75675L6.55635 9.38364H5.57188L7.1451 3.77605H6.12203V4.53853Z" fill="white"/>
  <path fill-rule="evenodd" clip-rule="evenodd" d="M16.1764 19.6494C16.1764 20.141 16.0796 20.6277 15.8915 21.0818C15.7034 21.536 15.4277 21.9486 15.0801 22.2962C14.7325 22.6437 14.3199 22.9194 13.8658 23.1075C13.4116 23.2956 12.9249 23.3925 12.4334 23.3925C11.4406 23.3925 10.4886 22.9981 9.78662 22.2962C9.08466 21.5942 8.69031 20.6421 8.69031 19.6494C8.69031 18.6567 9.08466 17.7046 9.78662 17.0027C10.4886 16.3007 11.4406 15.9064 12.4334 15.9064C13.4261 15.9064 14.3781 16.3007 15.0801 17.0027C15.7821 17.7046 16.1764 18.6567 16.1764 19.6494V19.6494Z" stroke="white" stroke-width="4" stroke-linecap="round" stroke-linejoin="round"/>
  <path fill-rule="evenodd" clip-rule="evenodd" d="M19.97 16.8858C19.97 17.8785 19.5756 18.8306 18.8737 19.5325C18.1717 20.2345 17.2197 20.6288 16.2269 20.6288C15.2342 20.6288 14.2822 20.2345 13.5802 19.5325C12.8782 18.8306 12.4839 17.8785 12.4839 16.8858C12.4839 16.3942 12.5807 15.9075 12.7688 15.4534C12.9569 14.9992 13.2326 14.5866 13.5802 14.239C13.9278 13.8915 14.3404 13.6158 14.7945 13.4277C15.2487 13.2395 15.7354 13.1427 16.2269 13.1427C17.2197 13.1427 18.1717 13.5371 18.8737 14.239C19.5756 14.941 19.97 15.8931 19.97 16.8858V16.8858Z" stroke="white" stroke-width="4" stroke-linecap="round" stroke-linejoin="round"/>
  <path fill-rule="evenodd" clip-rule="evenodd" d="M22.2799 24.056C22.2799 25.0488 21.8856 26.0008 21.1836 26.7028C20.4817 27.4047 19.5296 27.7991 18.5369 27.7991C18.0453 27.7991 17.5586 27.7023 17.1045 27.5142C16.6503 27.3261 16.2377 27.0504 15.8901 26.7028C15.5426 26.3552 15.2669 25.9426 15.0787 25.4884C14.8906 25.0343 14.7938 24.5476 14.7938 24.056C14.7938 23.0633 15.1882 22.1113 15.8901 21.4093C16.5921 20.7073 17.5442 20.313 18.5369 20.313C19.5296 20.313 20.4817 20.7073 21.1836 21.4093C21.8856 22.1113 22.2799 23.0633 22.2799 24.056V24.056Z" stroke="white" stroke-width="4" stroke-linecap="round" stroke-linejoin="round"/>
  <path fill-rule="evenodd" clip-rule="evenodd" d="M23.7235 19.6047C23.7235 20.0962 23.6267 20.583 23.4386 21.0371C23.2505 21.4912 22.9748 21.9038 22.6272 22.2514C22.2796 22.599 21.867 22.8747 21.4129 23.0628C20.9588 23.2509 20.472 23.3477 19.9805 23.3477C19.4889 23.3477 19.0022 23.2509 18.5481 23.0628C18.0939 22.8747 17.6813 22.599 17.3337 22.2514C16.9862 21.9038 16.7104 21.4912 16.5223 21.0371C16.3342 20.583 16.2374 20.0962 16.2374 19.6047C16.2374 19.1131 16.3342 18.6264 16.5223 18.1723C16.7104 17.7181 16.9862 17.3055 17.3337 16.9579C17.6813 16.6104 18.0939 16.3347 18.5481 16.1465C19.0022 15.9584 19.4889 15.8616 19.9805 15.8616C20.472 15.8616 20.9588 15.9584 21.4129 16.1465C21.867 16.3347 22.2796 16.6104 22.6272 16.9579C22.9748 17.3055 23.2505 17.7181 23.4386 18.1723C23.6267 18.6264 23.7235 19.1131 23.7235 19.6047V19.6047Z" stroke="white" stroke-width="4" stroke-linecap="round" stroke-linejoin="round"/>
  <path fill-rule="evenodd" clip-rule="evenodd" d="M17.612 24.0801C17.612 24.5716 17.5151 25.0584 17.327 25.5125C17.1389 25.9666 16.8632 26.3792 16.5156 26.7268C16.1681 27.0744 15.7554 27.3501 15.3013 27.5382C14.8472 27.7263 14.3604 27.8231 13.8689 27.8231C13.3774 27.8231 12.8906 27.7263 12.4365 27.5382C11.9824 27.3501 11.5697 27.0744 11.2222 26.7268C10.8746 26.3792 10.5989 25.9666 10.4108 25.5125C10.2227 25.0584 10.1259 24.5716 10.1259 24.0801C10.1259 23.5885 10.2227 23.1018 10.4108 22.6477C10.5989 22.1936 10.8746 21.7809 11.2222 21.4333C11.5697 21.0858 11.9824 20.8101 12.4365 20.6219C12.8906 20.4338 13.3774 20.337 13.8689 20.337C14.3604 20.337 14.8472 20.4338 15.3013 20.6219C15.7554 20.8101 16.1681 21.0858 16.5156 21.4333C16.8632 21.7809 17.1389 22.1936 17.327 22.6477C17.5151 23.1018 17.612 23.5885 17.612 24.0801Z" stroke="white" stroke-width="4" stroke-linecap="round" stroke-linejoin="round"/>
</svg>
