<svg width="32" height="33" viewBox="0 0 32 33" fill="none" xmlns="http://www.w3.org/2000/svg">
  <path fill-rule="evenodd" clip-rule="evenodd" d="M0.178645 0.104492H31.8214C31.9203 0.104492 32 0.184175 32 0.283144V31.9781C32 32.0771 31.9203 32.1567 31.8214 32.1567H0.178645C0.0796737 32.1567 0 32.0771 0 31.9781V0.283144C0 0.184175 0.0796737 0.104492 0.178645 0.104492Z" fill="#007DBC"/>
  <path d="M11.6081 5.62325H10.4545V2.92081H10.8417V5.23604H11.6081V5.62325Z" fill="white"/>
  <path d="M11.7338 5.62325V2.92081H12.117V5.62325H11.7338Z" fill="white"/>
  <path d="M12.4451 5.62325V2.92081H13.5986V3.28382H12.8283V4.09456H13.5018V4.45757H12.8283V5.62325H12.4451Z" fill="white"/>
  <path d="M14.8885 5.23604V5.62325H13.7309V2.92081H14.8885V3.27575H14.1141V4.07439H14.7917V4.44144H14.1141V5.23604H14.8885Z" fill="white"/>
  <path d="M11.0878 6.64755C11.1711 6.64755 11.2491 6.66503 11.3217 6.69999C11.4024 6.73764 11.4844 6.79814 11.5678 6.8815C11.6565 6.96755 11.7009 7.102 11.7009 7.28485V7.49056C11.7009 7.69762 11.6189 7.84282 11.4548 7.92618C11.6189 8.02298 11.7009 8.17356 11.7009 8.37793V8.69254C11.7009 8.88346 11.639 9.04077 11.5153 9.16446C11.3943 9.28816 11.2384 9.35001 11.0475 9.35001H10.4505V6.64755H11.0878ZM11.3177 7.45022V7.28485C11.3177 7.20149 11.2935 7.13561 11.2451 7.08721C11.1967 7.03611 11.1322 7.01057 11.0515 7.01057H10.8337V7.75677H11.0636C11.1523 7.75677 11.2169 7.72988 11.2572 7.6761C11.2975 7.61963 11.3177 7.54433 11.3177 7.45022ZM11.3177 8.69254V8.37793C11.3177 8.29188 11.2935 8.22466 11.2451 8.17626C11.1994 8.12517 11.1348 8.09962 11.0515 8.09962H10.8337V8.96682H11.0555C11.1335 8.96682 11.1967 8.94127 11.2451 8.89018C11.2935 8.8364 11.3177 8.77052 11.3177 8.69254Z" fill="white"/>
  <path d="M13.2389 8.96279V9.35001H12.0812V6.64755H13.2389V7.00251H12.4644V7.80114H13.1421V8.16819H12.4644V8.96279H13.2389Z" fill="white"/>
  <path d="M14.5483 9.35001H13.3947V6.64755H13.7819V8.96279H14.5483V9.35001Z" fill="white"/>
  <path d="M14.7074 6.90167C14.7692 6.81562 14.8472 6.74839 14.9413 6.69999C15.0381 6.6489 15.1376 6.62335 15.2398 6.62335C15.3393 6.62335 15.4321 6.64353 15.5181 6.68386C15.6068 6.7242 15.6808 6.77932 15.7399 6.84923C15.7991 6.91915 15.8394 6.99175 15.8609 7.06704C15.8825 7.13964 15.8932 7.21897 15.8932 7.30501V8.68045C15.8932 8.76112 15.8851 8.83237 15.869 8.89422C15.8556 8.95607 15.8233 9.02464 15.7722 9.09993C15.7238 9.17523 15.6526 9.23976 15.5584 9.29354C15.467 9.34732 15.3648 9.37421 15.2519 9.37421C15.1874 9.37421 15.1255 9.36615 15.0663 9.35001C15.0072 9.33119 14.9521 9.30699 14.901 9.27741C14.8499 9.24783 14.8042 9.21422 14.7638 9.17657C14.7262 9.13893 14.6966 9.09992 14.6751 9.05959C14.6348 8.97623 14.6106 8.90901 14.6025 8.85792C14.5944 8.80683 14.5904 8.74767 14.5904 8.68045V7.30501C14.5904 7.22434 14.5985 7.15309 14.6146 7.09124C14.6334 7.02671 14.6643 6.96352 14.7074 6.90167ZM15.4576 7.11544C15.4065 7.04015 15.3366 7.00251 15.2479 7.00251C15.2021 7.00251 15.1564 7.01595 15.1107 7.04284C15.0677 7.06704 15.0368 7.09528 15.0179 7.12755C15.0018 7.15982 14.9911 7.19209 14.9857 7.22435C14.9803 7.25662 14.9776 7.2835 14.9776 7.30501V8.68045C14.9776 8.69389 14.9776 8.70867 14.9776 8.72481C14.9776 8.73825 14.979 8.75304 14.9817 8.76918C14.9844 8.79607 15.0059 8.84044 15.0462 8.90229C15.0865 8.95876 15.1538 8.98699 15.2479 8.98699C15.2963 8.98699 15.3393 8.97624 15.3769 8.95473C15.4173 8.93053 15.4455 8.90363 15.4616 8.87405C15.4805 8.84178 15.4926 8.81221 15.4979 8.78532C15.5033 8.75843 15.506 8.72347 15.506 8.68045V7.30501C15.506 7.25123 15.5033 7.21359 15.4979 7.19208C15.4952 7.17057 15.4818 7.14502 15.4576 7.11544H15.4576Z" fill="white"/>
  <path d="M17.4748 9.35001L17.1561 7.70434L16.8456 9.35001H16.4866L16.0953 6.64755H16.5068L16.7004 8.28112L17.0109 6.64755H17.2973L17.616 8.28112L17.8096 6.64755H18.217L17.8378 9.35001H17.4748Z" fill="white"/>
  <path d="M20.0996 9.35001L19.781 7.70434L19.4704 9.35001H19.1114L18.7202 6.64755H19.1316L19.3252 8.28112L19.6358 6.64755H19.9221L20.2408 8.28112L20.4344 6.64755H20.8418L20.4626 9.35001H20.0996Z" fill="white"/>
  <path d="M20.7556 9.35001L21.3606 6.64755H21.6954L22.3005 9.35001H21.885L21.7761 8.76918H21.2759L21.163 9.35001H20.7556ZM21.3445 8.4102H21.7075L21.526 7.42602L21.3445 8.4102Z" fill="white"/>
  <path d="M22.6235 9.35001V7.00653H22.1677V6.64755H23.4705V7.00653H23.0066V9.35001H22.6235Z" fill="white"/>
  <path d="M24.841 8.96279V9.35001H23.6834V6.64755H24.841V7.00251H24.0666V7.80114H24.7442V8.16819H24.0666V8.96279H24.841Z" fill="white"/>
  <path d="M24.9888 9.35001V6.64755H25.6664C25.8439 6.64755 25.9931 6.70941 26.1141 6.8331C26.2378 6.9568 26.2997 7.10872 26.2997 7.28888V7.53896C26.2997 7.78904 26.1934 7.97995 25.981 8.11172L26.3924 9.35001H25.981L25.618 8.19239H25.376V9.35001H24.9888ZM25.8479 7.76484C25.8721 7.73526 25.8882 7.70165 25.8963 7.66401C25.9071 7.62636 25.9125 7.58468 25.9125 7.53896V7.28888C25.9125 7.20552 25.8896 7.1383 25.8439 7.08721C25.7982 7.03342 25.7336 7.00653 25.6503 7.00653H25.376V7.84954H25.6462C25.7269 7.84954 25.7941 7.82131 25.8479 7.76484H25.8479Z" fill="white"/>
  <path d="M3.16618 9.38364V3.88222L2.23962 4.57713V3.59267L3.16618 2.91705H4.08308V9.38364H3.16618Z" fill="white"/>
  <path d="M6.52779 9.38364V8.39918H4.68433V7.53053L6.0259 2.91705H7.00071L5.62053 7.53053H6.52779V5.68708H7.45434V7.53053H7.90796V8.39918H7.45434V9.38364H6.52779Z" fill="white"/>
  <path d="M17.868 19.7786C15.6852 19.8294 13.5449 20.9823 11.4211 22.5573C10.4859 20.9511 9.25283 19.8082 7.28894 19.8023C9.16595 22.5964 8.78916 25.0851 7.28894 27.4212C9.25283 27.4153 10.4859 26.2724 11.4211 24.6662C15.6688 27.8163 19.9818 29.2771 24.5708 23.612C22.2763 20.7794 20.0509 19.7279 17.868 19.7786ZM19.9816 21.9825C20.1191 21.9825 20.2553 22.0095 20.3823 22.0621C20.5094 22.1148 20.6248 22.1919 20.722 22.2891C20.8193 22.3864 20.8964 22.5018 20.949 22.6288C21.0016 22.7559 21.0287 22.8921 21.0286 23.0296C21.0286 23.3072 20.9182 23.5735 20.7219 23.7697C20.5255 23.966 20.2592 24.0763 19.9816 24.0762C19.704 24.0761 19.4378 23.9659 19.2416 23.7696C19.0453 23.5733 18.935 23.3071 18.9349 23.0296C18.9349 22.7519 19.0451 22.4856 19.2414 22.2893C19.4377 22.0929 19.7039 21.9826 19.9816 21.9825ZM24.4095 16.1329L24.4848 16.9938C22.8554 18.115 21.6452 17.6695 20.5571 16.7679C19.2125 17.7599 17.7319 18.0552 15.9299 16.7033C14.6001 17.5174 13.2387 18.2278 11.2058 16.7356C10.1449 17.563 9.08036 18.3781 7.37492 17.0476L7.33188 16.1437C8.89899 17.0614 10.132 16.5381 11.3027 15.6057C12.8558 16.6567 14.3909 16.9649 15.8868 15.6702C17.6218 17.261 19.0793 16.581 20.5033 15.6272C21.5467 16.2953 22.5078 17.1517 24.4095 16.1329ZM24.4095 13.4858L24.4848 14.3466C22.8554 15.4678 21.6452 15.0223 20.5571 14.1207C19.2125 15.1127 17.7319 15.408 15.9299 14.0561C14.6001 14.8702 13.2387 15.5806 11.2058 14.0884C10.1449 14.9158 9.08036 15.7309 7.37492 14.4004L7.33188 13.4965C8.89899 14.4142 10.132 13.8909 11.3027 12.9585C12.8558 14.0095 14.3909 14.3177 15.8868 13.023C17.6218 14.6138 19.0793 13.9338 20.5033 12.98C21.5467 13.6481 22.5078 14.5045 24.4095 13.4858Z" fill="white"/>
</svg>
