<svg width="32" height="33" viewBox="0 0 32 33" fill="none" xmlns="http://www.w3.org/2000/svg">
  <path fill-rule="evenodd" clip-rule="evenodd" d="M0.178646 0.104492H31.8214C31.9203 0.104492 32 0.184175 32 0.283144V31.9781C32 32.0771 31.9203 32.1568 31.8214 32.1568H0.178646C0.0796762 32.1568 0 32.0771 0 31.9781V0.283144C0 0.184175 0.0796762 0.104492 0.178646 0.104492Z" fill="#48773E"/>
  <path d="M11.2202 4.94159C11.2202 5.02764 11.2149 5.10159 11.2041 5.16344C11.196 5.22528 11.1691 5.29251 11.1234 5.36512C11.0992 5.40276 11.0683 5.43906 11.0307 5.47401C10.9957 5.50628 10.9554 5.53586 10.9097 5.56275C10.8666 5.58695 10.8196 5.60712 10.7685 5.62326C10.7174 5.63939 10.6676 5.64746 10.6192 5.64746C10.4982 5.64746 10.388 5.62191 10.2885 5.57082C10.1917 5.51973 10.1204 5.45519 10.0747 5.37721C10.029 5.29923 9.99943 5.22663 9.98598 5.1594C9.97523 5.09218 9.96985 5.01958 9.96985 4.94159V3.55003C9.96985 3.47474 9.97657 3.40751 9.99002 3.34835C10.0061 3.28651 10.0384 3.22062 10.0868 3.15071C10.1352 3.0808 10.2038 3.02165 10.2925 2.97324C10.3813 2.92215 10.474 2.89661 10.5708 2.89661C10.7564 2.89661 10.911 2.95845 11.0347 3.08214C11.1584 3.20315 11.2202 3.35911 11.2202 3.55003V3.69524H10.8371V3.55003C10.8371 3.47474 10.8155 3.41155 10.7725 3.36046C10.7322 3.30937 10.6717 3.28382 10.591 3.28382C10.5157 3.28382 10.4566 3.30937 10.4135 3.36046C10.3732 3.41155 10.353 3.47474 10.353 3.55003V5.04647C10.3584 5.0868 10.3772 5.13251 10.4095 5.1836C10.4471 5.23738 10.509 5.26428 10.595 5.26428C10.6865 5.26428 10.747 5.24008 10.7765 5.19167C10.8061 5.14327 10.8236 5.10831 10.829 5.0868C10.8344 5.0626 10.8371 5.03033 10.8371 4.99V4.85286H11.2202L11.2202 4.94159Z" fill="white"/>
  <path d="M12.6469 5.62325H11.4933V2.92081H11.8805V5.23604H12.6469V5.62325Z" fill="white"/>
  <path d="M12.7357 5.62325V2.92081H13.1189V5.62325H12.7357Z" fill="white"/>
  <path d="M14.8074 5.62325V3.97758L14.4202 5.13116H14.2266L13.8434 3.97758V5.62325H13.4562V2.92081H13.8192L14.3314 4.36077L14.8356 2.92081H15.1906V5.62325H14.8074Z" fill="white"/>
  <path d="M15.2626 5.62325L15.8677 2.92081H16.2024L16.8075 5.62325H16.392L16.2831 5.04243H15.783L15.67 5.62325H15.2626ZM15.8515 4.68345H16.2145L16.033 3.69927L15.8515 4.68345Z" fill="white"/>
  <path d="M17.1582 5.62325V3.27979H16.7024V2.92081H18.0052V3.27979H17.5414V5.62325H17.1582Z" fill="white"/>
  <path d="M19.348 5.23604V5.62325H18.1904V2.92081H19.348V3.27575H18.5736V4.07439H19.2512V4.44144H18.5736V5.23604H19.348Z" fill="white"/>
  <path d="M9.80682 9.35001L10.4118 6.64755H10.7466L11.3517 9.35001H10.9362L10.8273 8.76918H10.3271L10.2142 9.35001H9.80682ZM10.3957 8.4102H10.7587L10.5772 7.42602L10.3957 8.4102Z" fill="white"/>
  <path d="M12.7749 8.66834C12.7749 8.75439 12.7696 8.82833 12.7588 8.89018C12.7507 8.95203 12.7238 9.01926 12.6781 9.09186C12.6539 9.12951 12.623 9.16582 12.5853 9.20077C12.5504 9.23304 12.5101 9.26261 12.4643 9.28951C12.4213 9.31371 12.3743 9.33388 12.3232 9.35001C12.2721 9.36615 12.2223 9.37421 12.1739 9.37421C12.0529 9.37421 11.9427 9.34867 11.8432 9.29758C11.7464 9.24648 11.6751 9.18195 11.6294 9.10397C11.5837 9.02599 11.5541 8.95337 11.5407 8.88615C11.5299 8.81892 11.5245 8.74632 11.5245 8.66834V7.27678C11.5245 7.20148 11.5313 7.13427 11.5447 7.07511C11.5608 7.01326 11.5931 6.94738 11.6415 6.87747C11.6899 6.80755 11.7585 6.74839 11.8472 6.69999C11.936 6.6489 12.0287 6.62335 12.1255 6.62335C12.3111 6.62335 12.4657 6.68521 12.5894 6.8089C12.7131 6.92991 12.7749 7.08586 12.7749 7.27678V7.422H12.3917V7.27678C12.3917 7.20148 12.3702 7.1383 12.3272 7.08721C12.2869 7.03611 12.2264 7.01057 12.1457 7.01057C12.0704 7.01057 12.0112 7.03611 11.9682 7.08721C11.9279 7.1383 11.9077 7.20148 11.9077 7.27678V8.77321C11.9131 8.81355 11.9319 8.85927 11.9642 8.91036C12.0018 8.96414 12.0637 8.99102 12.1497 8.99102C12.2412 8.99102 12.3017 8.96682 12.3312 8.91842C12.3608 8.87002 12.3783 8.83506 12.3837 8.81354C12.389 8.78934 12.3917 8.75708 12.3917 8.71674V8.57961H12.7749L12.7749 8.66834Z" fill="white"/>
  <path d="M13.4192 9.35001V7.00653H12.9634V6.64755H14.2662V7.00653H13.8023V9.35001H13.4192Z" fill="white"/>
  <path d="M14.4606 9.35001V6.64755H14.8438V9.35001H14.4606Z" fill="white"/>
  <path d="M15.2606 6.90167C15.3224 6.81562 15.4004 6.74839 15.4945 6.69999C15.5913 6.6489 15.6908 6.62335 15.793 6.62335C15.8925 6.62335 15.9853 6.64353 16.0713 6.68386C16.1601 6.7242 16.234 6.77932 16.2932 6.84923C16.3523 6.91915 16.3927 6.99175 16.4142 7.06704C16.4357 7.13964 16.4464 7.21897 16.4464 7.30501V8.68045C16.4464 8.76112 16.4384 8.83237 16.4222 8.89422C16.4088 8.95607 16.3765 9.02464 16.3254 9.09993C16.277 9.17523 16.2058 9.23976 16.1117 9.29354C16.0202 9.34732 15.918 9.37421 15.8051 9.37421C15.7406 9.37421 15.6787 9.36615 15.6196 9.35001C15.5604 9.33119 15.5053 9.30699 15.4542 9.27741C15.4031 9.24783 15.3574 9.21422 15.3171 9.17657C15.2794 9.13893 15.2498 9.09992 15.2283 9.05959C15.188 8.97623 15.1638 8.90902 15.1557 8.85792C15.1476 8.80683 15.1436 8.74767 15.1436 8.68045V7.30501C15.1436 7.22434 15.1517 7.15309 15.1678 7.09124C15.1866 7.02671 15.2176 6.96352 15.2606 6.90167ZM16.0108 7.11544C15.9597 7.04015 15.8898 7.00251 15.8011 7.00251C15.7554 7.00251 15.7097 7.01595 15.6639 7.04284C15.6209 7.06704 15.59 7.09528 15.5712 7.12755C15.555 7.15982 15.5443 7.19209 15.5389 7.22435C15.5335 7.25662 15.5308 7.2835 15.5308 7.30501V8.68045C15.5308 8.69389 15.5308 8.70867 15.5308 8.72481C15.5308 8.73825 15.5322 8.75304 15.5349 8.76918C15.5376 8.79607 15.5591 8.84044 15.5994 8.90229C15.6398 8.95876 15.707 8.98699 15.8011 8.98699C15.8495 8.98699 15.8925 8.97624 15.9302 8.95473C15.9705 8.93053 15.9987 8.90363 16.0149 8.87405C16.0337 8.84179 16.0458 8.81221 16.0512 8.78532C16.0565 8.75843 16.0592 8.72347 16.0592 8.68045V7.30501C16.0592 7.25123 16.0565 7.21359 16.0512 7.19208C16.0485 7.17057 16.035 7.14502 16.0108 7.11544H16.0108Z" fill="white"/>
  <path d="M17.7669 9.35001L17.1659 7.70837V9.35001H16.7787V6.64755H17.1457L17.7427 8.28516V6.64755H18.1299V9.35001H17.7669Z" fill="white"/>
  <path d="M3.1345 9.38364V3.88222L2.20795 4.57713V3.59268L3.1345 2.91705H4.0514V9.38364H3.1345Z" fill="white"/>
  <path d="M7.52251 7.89728V8.0131C7.52251 8.05814 7.51929 8.10962 7.51286 8.16753C7.51286 8.219 7.5032 8.29622 7.4839 8.39917C7.39382 8.70802 7.22331 8.95895 6.97236 9.15198C6.72786 9.34502 6.44153 9.44154 6.11337 9.44154C5.856 9.44154 5.61149 9.36432 5.37985 9.20989C5.14821 9.04903 5.00022 8.89139 4.93588 8.73697C4.89727 8.65332 4.8651 8.57932 4.83936 8.51498C4.82006 8.45063 4.80397 8.38951 4.7911 8.3316C4.77823 8.27369 4.76858 8.21256 4.76215 8.14822C4.76215 8.07744 4.76215 7.9938 4.76215 7.89728V7.52087H5.6887V8.0517C5.70157 8.13535 5.73696 8.22866 5.79487 8.3316C5.85921 8.44742 5.97503 8.50532 6.14233 8.50532C6.30962 8.50532 6.42866 8.44742 6.49944 8.3316C6.57021 8.21579 6.6056 8.07101 6.6056 7.89728V6.90317C6.59917 6.78091 6.57343 6.68761 6.52839 6.62327C6.48978 6.55893 6.44153 6.51388 6.38362 6.48814C6.32571 6.45597 6.26458 6.43988 6.20024 6.43988C6.13589 6.43344 6.07798 6.43023 6.02651 6.43023H5.86243V5.60984H6.02651C6.41257 5.60984 6.60561 5.42968 6.60561 5.06936V4.29722C6.60561 4.22001 6.59917 4.15567 6.5863 4.10419C6.5863 4.08489 6.57665 4.05593 6.55735 4.01732C6.53805 3.97871 6.50909 3.94011 6.47048 3.9015C6.43831 3.86289 6.39649 3.83072 6.34501 3.80499C6.29354 3.77925 6.23241 3.76638 6.16163 3.76638C6.00077 3.76638 5.88174 3.81786 5.80452 3.92081C5.72731 4.01732 5.6887 4.1428 5.6887 4.29722V4.77015H4.76215V4.29722C4.76215 3.89185 4.89405 3.55083 5.15786 3.27415C5.41524 2.99747 5.74983 2.85913 6.16163 2.85913C6.38684 2.85913 6.60239 2.91704 6.80829 3.03286C7.02063 3.14868 7.17505 3.2838 7.27157 3.43823C7.37452 3.59265 7.44208 3.73743 7.47425 3.87255C7.50642 4.00767 7.52251 4.14923 7.52251 4.29722V5.05005C7.52251 5.46828 7.33913 5.78679 6.97237 6.00556C7.17827 6.15355 7.31982 6.30155 7.39704 6.44954C7.48068 6.59109 7.52251 6.78412 7.52251 7.02863L7.52251 7.89728Z" fill="white"/>
  <path d="M16.5895 14.3678C11.9256 14.3242 7.23074 16.4514 4.49744 20.4695C9.79839 28.2622 22.4775 28.9433 27.9996 20.4695C25.3248 16.365 20.9707 14.4086 16.5895 14.3678ZM16.3211 15.5338C16.5689 15.5339 16.812 15.5481 16.9208 15.5769C17.0156 15.6019 17.1902 15.6383 17.3087 15.6575C17.5712 15.7 17.9574 15.8159 18.1122 15.8989C18.1751 15.9326 18.2592 15.9605 18.2988 15.9605C18.3383 15.9605 18.3995 15.9895 18.4351 16.0251C18.4706 16.0606 18.5371 16.0896 18.5828 16.0896C18.6285 16.0896 18.6659 16.1092 18.6659 16.1335C18.6659 16.1578 18.7149 16.1964 18.7748 16.2192C18.8347 16.242 18.9075 16.281 18.9364 16.3057C18.9654 16.3305 19.0921 16.4262 19.2184 16.5184C19.4457 16.6846 20.0447 17.2337 20.0447 17.276C20.0447 17.2881 20.1415 17.4211 20.2599 17.5718C20.3784 17.7226 20.4756 17.8661 20.4756 17.8909C20.4756 17.9156 20.4996 17.9622 20.5292 17.9939C20.6936 18.1697 21.0356 19.0675 21.0356 19.3237C21.0356 19.6207 20.7789 19.7183 20.5895 19.4933C20.3117 19.1631 20.0438 19.5241 20.2857 19.9027C20.3284 19.9695 20.3291 20.0035 20.2895 20.0551C20.2243 20.14 19.893 20.3121 19.7944 20.3121C19.6774 20.3121 19.4991 20.547 19.4678 20.743C19.4354 20.9453 19.4974 21.2242 19.5923 21.303C19.6521 21.3527 19.6856 21.5613 19.6336 21.5613C19.5991 21.5613 19.3577 21.3855 19.1947 21.2414C19.0663 21.1279 18.9994 21.0129 18.8157 20.5919C18.7847 20.5208 18.7484 20.4128 18.7351 20.3518C18.693 20.1577 18.5186 20.0103 18.3313 20.0103C18.07 20.0103 18.0019 20.0866 17.9953 20.3872C17.9914 20.5648 17.9642 20.6792 17.9075 20.7569C17.8094 20.8915 17.7996 20.8931 17.6834 20.7966C17.4769 20.6249 17.3963 20.5704 17.3483 20.5704C17.3205 20.5704 17.2736 20.5413 17.2441 20.5058C17.2146 20.4702 17.1397 20.4401 17.0774 20.4387C16.8527 20.4336 16.5838 20.2599 16.4802 20.053C16.427 19.9465 16.383 19.8398 16.3827 19.8158C16.3823 19.7773 15.9891 19.4933 15.9362 19.4933C15.925 19.4933 15.8151 19.4268 15.6919 19.3456C15.437 19.1778 15.3483 19.1858 15.3483 19.3764C15.3483 19.4856 15.4085 19.5668 15.6902 19.8377C16.0661 20.1993 16.1394 20.3479 16.0113 20.4893C15.9369 20.5716 15.6873 20.6995 15.6011 20.6995C15.58 20.6995 15.4181 20.5528 15.2415 20.3733C14.9978 20.1255 14.8968 20.0504 14.822 20.061C14.7498 20.0712 14.7197 20.1078 14.7094 20.1986C14.7016 20.2666 14.7163 20.3431 14.7419 20.3686C14.7674 20.3942 14.7883 20.4494 14.7883 20.491C14.7883 20.6274 15.1584 21.0874 15.2681 21.0874C15.2882 21.0874 15.3544 21.1304 15.415 21.1832C15.5604 21.3096 15.5285 21.4321 15.2871 21.6769C15.1065 21.8602 15.1013 21.8732 15.0782 22.21C15.0652 22.3999 15.0355 22.5788 15.0124 22.6075C14.9892 22.6363 14.9581 22.7183 14.9428 22.7894C14.9274 22.8605 14.8574 22.9844 14.787 23.0646C14.7135 23.1484 14.6591 23.2592 14.6591 23.3254C14.6591 23.3888 14.6306 23.4782 14.5958 23.5242C14.561 23.5702 14.5316 23.6313 14.5308 23.6596C14.5291 23.726 14.34 23.931 14.2806 23.931C14.2557 23.931 14.2279 23.9529 14.219 23.9795C14.21 24.0063 14.1054 24.0373 13.9864 24.0488C13.7903 24.0676 13.7636 24.0594 13.6978 23.9589V23.9584C13.6488 23.8837 13.6247 23.758 13.6247 23.5727C13.6247 23.3405 13.6082 23.2784 13.5163 23.1726C13.4564 23.1038 13.398 23.0039 13.3867 22.9506C13.3755 22.8973 13.3559 22.8038 13.3432 22.743C13.3277 22.6684 13.2718 22.6125 13.1711 22.5704C13.089 22.5361 13.0217 22.4905 13.0217 22.4691C13.0217 22.4477 12.9432 22.3482 12.8474 22.2484C12.6794 22.0736 12.6656 22.068 12.4734 22.0943C12.3637 22.1094 12.2421 22.1509 12.2029 22.1863C12.1638 22.2218 12.0654 22.2502 11.9843 22.2496C11.8592 22.2488 11.8255 22.2255 11.7615 22.0969C11.72 22.0135 11.6859 21.9082 11.6859 21.8626C11.6859 21.817 11.6586 21.7159 11.6251 21.6381C11.5457 21.4532 11.4684 20.9503 11.4424 20.4518C11.4221 20.0626 11.4248 20.0484 11.5538 19.8571C11.6265 19.7494 11.6859 19.6444 11.6859 19.6237C11.6859 19.5806 11.9874 19.4692 12.0522 19.4883C12.0759 19.4953 12.205 19.5185 12.3388 19.5402C12.4726 19.5619 12.6371 19.6087 12.7047 19.644C12.7724 19.6793 12.857 19.7089 12.8925 19.7098C12.9281 19.7107 12.9946 19.7396 13.0406 19.7744C13.0866 19.8092 13.168 19.8377 13.2213 19.8377C13.2746 19.8377 13.3285 19.8548 13.3411 19.8753C13.3538 19.8958 13.4359 19.9239 13.5235 19.9382C13.8023 19.9834 14.183 19.7467 14.1844 19.5271C14.1852 19.3633 14.0326 19.2346 13.8374 19.2346C13.7487 19.2346 13.6547 19.2061 13.6247 19.1701C13.5952 19.1345 13.5024 19.1055 13.4179 19.1055C13.3219 19.1055 13.2288 19.0719 13.1694 19.016C13.0435 18.8978 12.7195 18.8811 12.6026 18.9869C12.5568 19.0283 12.4763 19.0624 12.4236 19.0624C12.371 19.0624 12.2758 19.0891 12.2118 19.1215C12.1478 19.154 12.002 19.1939 11.8877 19.2106L11.6796 19.241L11.6935 19.1194C11.7059 19.0109 11.7286 18.9949 11.9016 18.9709C12.2794 18.9183 12.4819 18.8316 12.4975 18.716C12.5099 18.6239 12.5552 18.5713 12.7849 18.3821C12.8086 18.3626 12.9318 18.3126 13.0588 18.2711C13.2747 18.2006 13.3079 18.2004 13.5682 18.2656C13.9063 18.3504 14.0599 18.3224 14.2477 18.1424C14.3256 18.0677 14.4403 17.963 14.5026 17.9099C14.6328 17.7987 14.6413 17.7584 14.5507 17.6832C14.4419 17.593 14.1867 17.6625 14.0409 17.8221C13.9295 17.944 13.884 17.963 13.7142 17.9605C13.4774 17.957 13.1611 17.8266 13.1267 17.7183C13.0656 17.5258 13.4103 17.3605 13.9522 17.3224C14.184 17.3061 14.3943 17.2763 14.4194 17.2557C14.483 17.2038 15.0474 17.1478 15.0449 17.1937C15.0438 17.2142 14.9613 17.2713 14.8617 17.3203C14.7017 17.399 14.6807 17.4264 14.6807 17.5566C14.6807 17.6644 14.7014 17.7082 14.7583 17.7191C14.8495 17.7367 15.1842 17.5881 15.3711 17.4473C15.443 17.3932 15.5383 17.3416 15.583 17.333C15.6276 17.3243 15.6831 17.2605 15.7062 17.1912C15.7441 17.0775 15.7341 17.0521 15.6024 16.9358C15.3973 16.7547 15.306 16.6063 15.3057 16.453C15.305 16.183 15.2465 16.1569 14.587 16.1293C14.2592 16.1156 14.0322 16.1009 14.0826 16.0968C14.1331 16.0927 14.1987 16.0602 14.2282 16.0247C14.2577 15.9891 14.3145 15.9601 14.3544 15.9601C14.3944 15.9601 14.4646 15.9316 14.5106 15.8968C14.5566 15.862 14.6301 15.833 14.6739 15.8322C14.7177 15.8313 14.8149 15.8024 14.8896 15.7676C14.9642 15.7328 15.1319 15.6853 15.2622 15.6621C15.3926 15.6389 15.5865 15.6003 15.6931 15.5765C15.821 15.5478 16.0733 15.5338 16.3211 15.5338ZM12.8803 16.951C13.0371 16.951 13.0107 17.138 12.8347 17.2722C12.6711 17.397 12.5047 17.4177 12.5047 17.3135C12.5047 17.207 12.7698 16.951 12.8803 16.951ZM12.4823 17.7748C12.5061 17.7729 12.5295 17.7733 12.5524 17.7765C12.6462 17.7898 12.6264 17.819 12.3392 18.093C11.9993 18.4174 11.9449 18.4547 11.9438 18.3657C11.9436 18.3341 11.9871 18.2196 12.0409 18.1112C12.1341 17.9231 12.316 17.7883 12.4823 17.7748ZM21.0023 19.9301C21.0247 19.9355 21.0546 19.9598 21.0935 20.0027C21.1924 20.1121 21.2009 21.1735 21.1027 21.1735C21.0686 21.1735 21.0255 21.1491 21.0069 21.1194C20.8136 20.8112 20.7599 20.4507 20.8833 20.2876C20.9181 20.2416 20.9471 20.1409 20.9479 20.0639C20.9488 19.9648 20.965 19.9211 21.0023 19.9301ZM17.4378 20.9582C17.4734 20.9582 17.5024 20.9658 17.5024 20.9751C17.5024 20.9844 17.4734 21.0032 17.4378 21.0169C17.4023 21.0305 17.3732 21.0225 17.3732 20.9996C17.3732 20.9766 17.4023 20.9582 17.4378 20.9582ZM20.1494 21.4541C20.1635 21.452 20.1798 21.4536 20.1966 21.46C20.2313 21.4733 20.2486 21.5013 20.2355 21.5225C20.2075 21.5677 20.1567 21.5728 20.1177 21.5339C20.0833 21.4995 20.1069 21.4605 20.1494 21.4541ZM15.6281 21.7765C15.6753 21.7765 15.6454 21.978 15.58 22.0998C15.5419 22.1709 15.4951 22.2773 15.4762 22.3366C15.4501 22.4184 15.441 22.3851 15.4382 22.1969C15.4353 22.0033 15.4532 21.93 15.5205 21.8626C15.5679 21.8152 15.6163 21.7765 15.6281 21.7765ZM20.6718 21.7841C20.721 21.7908 20.7602 21.8508 20.8023 21.9719C20.8539 22.1209 20.8527 22.162 20.7934 22.2935C20.6702 22.5665 20.557 22.7873 20.4731 22.9186C20.4276 22.9896 20.3719 23.0893 20.3494 23.1401C20.3269 23.191 20.2928 23.2393 20.2734 23.2477C20.2541 23.2561 20.1823 23.3454 20.1139 23.4461C20.0455 23.5468 19.9732 23.6293 19.9527 23.6293C19.9322 23.6293 19.9151 23.6583 19.9151 23.6938C19.9151 23.7294 19.8815 23.7604 19.84 23.7626C19.3973 23.7867 19.3161 23.7781 19.2969 23.7048C19.2726 23.6124 19.1259 23.6061 19.0382 23.6938C19.0026 23.7294 18.9235 23.7584 18.8626 23.7584C18.7699 23.7584 18.752 23.739 18.752 23.6377C18.752 23.5711 18.7235 23.479 18.6887 23.433C18.6506 23.3826 18.625 23.2504 18.6241 23.1005C18.6226 22.8346 18.7231 22.6186 18.9297 22.4442C19.0273 22.3618 19.5708 22.1627 19.694 22.164C19.8442 22.1655 20.4369 21.9381 20.5697 21.828C20.6091 21.7953 20.6424 21.7802 20.6718 21.7841ZM18.9487 24.2805C19.0116 24.285 19.056 24.306 19.0715 24.3463C19.0864 24.3852 19.0936 24.4193 19.0871 24.4218C19.0806 24.4244 19.0362 24.4513 18.9888 24.4818C18.9414 24.5123 18.8497 24.5601 18.7845 24.5881C18.7193 24.6162 18.6659 24.6525 18.6659 24.6692C18.6659 24.6857 18.6092 24.7121 18.5397 24.7274C18.4703 24.7426 18.3903 24.7828 18.3621 24.8169C18.3338 24.8509 18.2827 24.8789 18.2485 24.8789C18.2143 24.8789 18.1437 24.9023 18.092 24.9312C17.9776 24.9952 17.7111 25.0758 17.3087 25.1676C16.9754 25.2435 15.7701 25.2862 15.6286 25.2271H15.6281C15.5807 25.2073 15.4356 25.1768 15.3053 25.1591C15.0495 25.1244 15.0054 25.089 15.0044 24.9194C15.0037 24.7994 15.2428 24.5341 15.3517 24.5341C15.3868 24.5341 15.4587 24.5036 15.5116 24.4666C15.6949 24.3382 16.641 24.425 16.9997 24.6029C17.0668 24.6362 17.1599 24.6632 17.2065 24.6632C17.2532 24.6632 17.3439 24.69 17.4078 24.7223C17.5573 24.798 17.8062 24.8379 17.8949 24.8004C17.9329 24.7843 18.0541 24.6949 18.1645 24.602C18.4042 24.4005 18.7598 24.2668 18.9487 24.2805Z" fill="white"/>
</svg>
