<svg width="32" height="33" viewBox="0 0 32 33" fill="none" xmlns="http://www.w3.org/2000/svg">
  <path fill-rule="evenodd" clip-rule="evenodd" d="M0.178652 0.0522461H31.8213C31.9203 0.0522461 32 0.13192 32 0.230891V31.9258C32 32.0248 31.9203 32.1045 31.8213 32.1045H0.178652C0.0796824 32.1045 0 32.0248 0 31.9258V0.230891C0 0.13192 0.0796824 0.0522461 0.178652 0.0522461Z" fill="#F99D26"/>
  <path d="M9.21744 4.83125C9.21744 4.85814 9.21744 4.88099 9.21744 4.89982C9.21744 4.91864 9.21878 4.93478 9.22147 4.94822C9.22684 4.97512 9.24702 5.0141 9.28198 5.06519C9.31963 5.11897 9.38684 5.14586 9.48365 5.14586C9.53743 5.14586 9.58717 5.13511 9.63289 5.1136C9.6786 5.08939 9.71222 5.05847 9.73373 5.02083C9.74986 4.99125 9.75927 4.96301 9.76196 4.93612C9.76734 4.90924 9.77002 4.88503 9.77002 4.86351V4.82721V4.63764V4.60134C9.77002 4.54218 9.75927 4.49647 9.73776 4.4642C9.71625 4.42924 9.66783 4.39025 9.59254 4.34723C9.54145 4.32034 9.45004 4.28269 9.31828 4.23429C9.18651 4.18589 9.07626 4.10925 8.98752 4.00438C8.89878 3.89951 8.85442 3.75699 8.85442 3.57683V3.45582C8.85442 3.27028 8.91626 3.11163 9.03996 2.97987C9.16634 2.84542 9.31961 2.7782 9.49978 2.7782C9.68801 2.7782 9.84397 2.84407 9.96766 2.97583C10.094 3.1076 10.1572 3.26759 10.1572 3.45582V3.57683H9.77002V3.45582C9.77002 3.437 9.76868 3.41952 9.76599 3.40339C9.76599 3.38725 9.76463 3.37247 9.76194 3.35902C9.75924 3.34558 9.75253 3.32945 9.74179 3.31062C9.73102 3.2918 9.71624 3.26894 9.69742 3.24205C9.65977 3.18827 9.59657 3.16138 9.50783 3.16138C9.42985 3.16138 9.36532 3.18961 9.31423 3.24608C9.26582 3.30255 9.24162 3.37246 9.24162 3.45582V3.57683V3.61313C9.24162 3.66691 9.24969 3.70993 9.26582 3.7422C9.28465 3.77178 9.32767 3.80539 9.3949 3.84304C9.41641 3.8538 9.44868 3.86859 9.4917 3.88741C9.53742 3.90355 9.59254 3.92371 9.65708 3.94791C9.78615 3.99094 9.90178 4.06757 10.004 4.17782C10.1061 4.28807 10.1572 4.43328 10.1572 4.61344V4.83125C10.1572 4.92536 10.1478 5.00469 10.129 5.06923C10.1129 5.13377 10.0577 5.22788 9.96363 5.35158C9.86951 5.46989 9.7122 5.52905 9.4917 5.52905C9.25776 5.52905 9.08836 5.45376 8.98348 5.30317C8.87861 5.1499 8.82617 4.99259 8.82617 4.83125V4.73445H9.21742L9.21744 4.83125Z" fill="white"/>
  <path d="M11.5901 5.2225C11.531 5.31392 11.4543 5.38787 11.3602 5.44434C11.2688 5.50081 11.1666 5.52905 11.0537 5.52905C10.9972 5.52905 10.9407 5.52098 10.8843 5.50485C10.8305 5.48871 10.7794 5.46854 10.731 5.44434C10.6826 5.41745 10.6396 5.38787 10.6019 5.3556C10.5643 5.32065 10.5361 5.28435 10.5172 5.2467C10.4769 5.17141 10.45 5.10553 10.4366 5.04906C10.4258 4.99259 10.4204 4.93209 10.4204 4.86755V2.8024H10.8076V4.86755C10.8076 4.88637 10.8076 4.90385 10.8076 4.91999C10.8103 4.93343 10.813 4.94688 10.8157 4.96032C10.8184 4.98184 10.8386 5.01948 10.8762 5.07326C10.9111 5.12166 10.9716 5.14586 11.0577 5.14586C11.1357 5.14586 11.1935 5.11763 11.2311 5.06116C11.2715 5.002 11.2916 4.93746 11.2916 4.86755V2.8024H11.6789V4.86755C11.6789 4.93209 11.6721 4.99393 11.6587 5.05309C11.6453 5.11225 11.6224 5.16872 11.5901 5.2225H11.5901Z" fill="white"/>
  <path d="M12.2464 4.83125C12.2464 4.85814 12.2464 4.88099 12.2464 4.89982C12.2464 4.91864 12.2477 4.93478 12.2504 4.94822C12.2558 4.97512 12.2759 5.0141 12.3109 5.06519C12.3485 5.11897 12.4158 5.14586 12.5126 5.14586C12.5664 5.14586 12.6161 5.13511 12.6618 5.1136C12.7075 5.08939 12.7411 5.05847 12.7627 5.02083C12.7788 4.99125 12.7882 4.96301 12.7909 4.93612C12.7963 4.90924 12.799 4.88503 12.799 4.86351V4.82721V4.63764V4.60134C12.799 4.54218 12.7882 4.49647 12.7667 4.4642C12.7452 4.42924 12.6968 4.39025 12.6215 4.34723C12.5704 4.32034 12.479 4.28269 12.3472 4.23429C12.2154 4.18589 12.1052 4.10925 12.0165 4.00438C11.9277 3.89951 11.8833 3.75699 11.8833 3.57683V3.45582C11.8833 3.27028 11.9452 3.11163 12.0689 2.97987C12.1953 2.84542 12.3485 2.7782 12.5287 2.7782C12.7169 2.7782 12.8729 2.84407 12.9966 2.97583C13.123 3.1076 13.1862 3.26759 13.1862 3.45582V3.57683H12.799V3.45582C12.799 3.437 12.7976 3.41952 12.7949 3.40339C12.7949 3.38725 12.7936 3.37247 12.7909 3.35902C12.7882 3.34558 12.7814 3.32945 12.7707 3.31062C12.7599 3.2918 12.7452 3.26894 12.7263 3.24205C12.6887 3.18827 12.6255 3.16138 12.5368 3.16138C12.4588 3.16138 12.3942 3.18961 12.3432 3.24608C12.2948 3.30255 12.2706 3.37246 12.2706 3.45582V3.57683V3.61313C12.2706 3.66691 12.2786 3.70993 12.2948 3.7422C12.3136 3.77178 12.3566 3.80539 12.4238 3.84304C12.4453 3.8538 12.4776 3.86859 12.5206 3.88741C12.5663 3.90355 12.6215 3.92371 12.686 3.94791C12.8151 3.99094 12.9307 4.06757 13.0329 4.17782C13.1351 4.28807 13.1862 4.43328 13.1862 4.61344V4.83125C13.1862 4.92536 13.1767 5.00469 13.1579 5.06923C13.1418 5.13377 13.0867 5.22788 12.9925 5.35158C12.8984 5.46989 12.7411 5.52905 12.5206 5.52905C12.2867 5.52905 12.1173 5.45376 12.0124 5.30317C11.9075 5.1499 11.8551 4.99259 11.8551 4.83125V4.73445H12.2464V4.83125Z" fill="white"/>
  <path d="M13.7077 5.50485V3.16138H13.252V2.8024H14.5548V3.16138H14.0909V5.50485H13.7077Z" fill="white"/>
  <path d="M14.3562 5.50485L14.9612 2.8024H15.296L15.901 5.50485H15.4856L15.3767 4.92402H14.8765L14.7636 5.50485H14.3562ZM14.9451 4.56504H15.3081L15.1266 3.58086L14.9451 4.56504Z" fill="white"/>
  <path d="M16.098 5.50485V2.8024H16.4812V5.50485H16.098Z" fill="white"/>
  <path d="M17.7592 5.50485L17.1582 3.86321V5.50485H16.771V2.8024H17.138L17.735 4.44V2.8024H18.1222V5.50485H17.7592Z" fill="white"/>
  <path d="M18.1812 5.50485L18.7862 2.8024H19.121L19.726 5.50485H19.3105L19.2016 4.92402H18.7015L18.5885 5.50485H18.1812ZM18.77 4.56504H19.1331L18.9515 3.58086L18.77 4.56504Z" fill="white"/>
  <path d="M20.5081 2.8024C20.5915 2.8024 20.6695 2.81987 20.7421 2.85483C20.8228 2.89248 20.9048 2.95298 20.9881 3.03634C21.0769 3.12239 21.1212 3.25684 21.1212 3.43969V3.6454C21.1212 3.85245 21.0392 3.99766 20.8752 4.08102C21.0392 4.17782 21.1212 4.32841 21.1212 4.53277V4.84738C21.1212 5.0383 21.0594 5.19561 20.9357 5.3193C20.8147 5.443 20.6587 5.50485 20.4678 5.50485H19.8708V2.8024H20.5081ZM20.7381 3.60507V3.43969C20.7381 3.35633 20.7139 3.29045 20.6655 3.24204C20.6171 3.19095 20.5525 3.16541 20.4719 3.16541H20.254V3.91161H20.4839C20.5727 3.91161 20.6372 3.88472 20.6776 3.83094C20.7179 3.77447 20.7381 3.69918 20.7381 3.60507ZM20.7381 4.84738V4.53277C20.7381 4.44672 20.7139 4.3795 20.6655 4.33109C20.6197 4.28 20.5552 4.25446 20.4719 4.25446H20.254V5.12166H20.4759C20.5539 5.12166 20.6171 5.09612 20.6655 5.04503C20.7139 4.99125 20.7381 4.92537 20.7381 4.84738Z" fill="white"/>
  <path d="M22.4765 5.50485H21.3229V2.8024H21.7101V5.11763H22.4765V5.50485Z" fill="white"/>
  <path d="M23.7432 5.11763V5.50485H22.5856V2.8024H23.7432V3.15734H22.9688V3.95598H23.6464V4.32303H22.9688V5.11763H23.7432Z" fill="white"/>
  <path d="M25.4928 4.82318C25.4928 4.90923 25.4875 4.98318 25.4767 5.04503C25.4686 5.10688 25.4417 5.1741 25.396 5.2467C25.3718 5.28435 25.3409 5.32065 25.3033 5.35561C25.2683 5.38787 25.228 5.41745 25.1822 5.44434C25.1392 5.46854 25.0922 5.48871 25.0411 5.50485C24.99 5.52098 24.9402 5.52905 24.8918 5.52905C24.7708 5.52905 24.6606 5.5035 24.5611 5.45241C24.4643 5.40132 24.393 5.33678 24.3473 5.2588C24.3016 5.18082 24.272 5.10822 24.2586 5.04099C24.2478 4.97377 24.2424 4.90117 24.2424 4.82318V3.43162C24.2424 3.35633 24.2491 3.2891 24.2626 3.22994C24.2787 3.1681 24.311 3.10222 24.3594 3.03231C24.4078 2.96239 24.4764 2.90323 24.5651 2.85483C24.6538 2.80374 24.7466 2.7782 24.8434 2.7782C25.029 2.7782 25.1836 2.84004 25.3073 2.96373C25.431 3.08474 25.4928 3.2407 25.4928 3.43162V3.57683H25.1096V3.43162C25.1096 3.35633 25.0881 3.29314 25.0451 3.24205C25.0048 3.19096 24.9443 3.16541 24.8636 3.16541C24.7883 3.16541 24.7291 3.19096 24.6861 3.24205C24.6458 3.29314 24.6256 3.35633 24.6256 3.43162V4.92805C24.631 4.96839 24.6498 5.0141 24.6821 5.06519C24.7197 5.11897 24.7816 5.14586 24.8676 5.14586C24.959 5.14586 25.0195 5.12166 25.0491 5.07326C25.0787 5.02486 25.0962 4.9899 25.1016 4.96839C25.1069 4.94419 25.1096 4.91192 25.1096 4.87159V4.73445H25.4928L25.4928 4.82318Z" fill="white"/>
  <path d="M25.722 5.50485V2.8024H26.1052V5.50485H25.722Z" fill="white"/>
  <path d="M26.7317 5.50485V3.16138H26.2759V2.8024H27.5787V3.16138H27.1149V5.50485H26.7317Z" fill="white"/>
  <path d="M27.7426 5.50485V2.8024H28.1257V5.50485H27.7426Z" fill="white"/>
  <path d="M29.4948 5.11763V5.50485H28.3372V2.8024H29.4948V3.15734H28.7203V3.95598H29.398V4.32303H28.7203V5.11763H29.4948Z" fill="white"/>
  <path d="M30.0055 4.83125C30.0055 4.85814 30.0055 4.88099 30.0055 4.89982C30.0055 4.91864 30.0069 4.93478 30.0096 4.94822C30.0149 4.97512 30.0351 5.0141 30.0701 5.06519C30.1077 5.11897 30.1749 5.14586 30.2717 5.14586C30.3255 5.14586 30.3753 5.13511 30.421 5.1136C30.4667 5.08939 30.5003 5.05847 30.5218 5.02083C30.5379 4.99125 30.5474 4.96301 30.55 4.93612C30.5554 4.90924 30.5581 4.88503 30.5581 4.86351V4.82721V4.63764V4.60134C30.5581 4.54218 30.5473 4.49647 30.5258 4.4642C30.5043 4.42924 30.4559 4.39025 30.3806 4.34723C30.3295 4.32034 30.2381 4.28269 30.1064 4.23429C29.9746 4.18589 29.8643 4.10925 29.7756 4.00438C29.6869 3.89951 29.6425 3.75699 29.6425 3.57683V3.45582C29.6425 3.27028 29.7043 3.11163 29.828 2.97987C29.9544 2.84542 30.1077 2.7782 30.2879 2.7782C30.4761 2.7782 30.6321 2.84407 30.7558 2.97583C30.8821 3.1076 30.9453 3.26759 30.9453 3.45582V3.57683H30.5581V3.45582C30.5581 3.437 30.5568 3.41952 30.5541 3.40339C30.5541 3.38725 30.5527 3.37247 30.55 3.35902C30.5473 3.34558 30.5406 3.32945 30.5299 3.31062C30.5191 3.2918 30.5043 3.26894 30.4855 3.24205C30.4478 3.18827 30.3847 3.16138 30.2959 3.16138C30.2179 3.16138 30.1534 3.18961 30.1023 3.24608C30.0539 3.30255 30.0297 3.37246 30.0297 3.45582V3.57683V3.61313C30.0297 3.66691 30.0378 3.70993 30.0539 3.7422C30.0727 3.77178 30.1158 3.80539 30.183 3.84304C30.2045 3.8538 30.2368 3.86859 30.2798 3.88741C30.3255 3.90355 30.3806 3.92371 30.4452 3.94791C30.5742 3.99094 30.6899 4.06757 30.792 4.17782C30.8942 4.28807 30.9453 4.43328 30.9453 4.61344V4.83125C30.9453 4.92536 30.9359 5.00469 30.9171 5.06923C30.901 5.13377 30.8458 5.22788 30.7517 5.35158C30.6576 5.46989 30.5003 5.52905 30.2798 5.52905C30.0458 5.52905 29.8764 5.45376 29.7716 5.30317C29.6667 5.1499 29.6143 4.99259 29.6143 4.83125V4.73445H30.0055L30.0055 4.83125Z" fill="white"/>
  <path d="M8.82983 9.2316L9.43486 6.52914H9.76965L10.3747 9.2316H9.95922L9.85031 8.65078H9.35016L9.23723 9.2316H8.82983ZM9.41873 8.29179H9.78174L9.60024 7.30762L9.41873 8.29179Z" fill="white"/>
  <path d="M11.5077 9.2316L10.9067 7.58996V9.2316H10.5195V6.52914H10.8866L11.4835 8.16675V6.52914H11.8707V9.2316H11.5077Z" fill="white"/>
  <path d="M12.7223 6.52914C12.8971 6.52914 13.0464 6.59099 13.1701 6.71469C13.2964 6.83569 13.3596 6.98359 13.3596 7.15838V8.56204C13.3596 8.76102 13.2991 8.92236 13.1781 9.04606C13.0571 9.16975 12.9012 9.2316 12.7102 9.2316H12.1093V6.52914H12.7223ZM12.9765 8.56204V7.15838C12.9765 7.08308 12.9482 7.01989 12.8918 6.9688C12.838 6.91771 12.7721 6.89217 12.6941 6.89217H12.4924V8.87261H12.682C12.8783 8.87261 12.9765 8.76909 12.9765 8.56204Z" fill="white"/>
  <path d="M15.2731 8.54994C15.2731 8.63599 15.2677 8.70993 15.257 8.77178C15.2489 8.83363 15.222 8.90085 15.1763 8.97345C15.1521 9.0111 15.1212 9.0474 15.0835 9.08236C15.0486 9.11463 15.0082 9.14421 14.9625 9.1711C14.9195 9.1953 14.8724 9.21546 14.8213 9.2316C14.7703 9.24773 14.7205 9.2558 14.6721 9.2558C14.5511 9.2558 14.4409 9.23025 14.3414 9.17916C14.2446 9.12807 14.1733 9.06354 14.1276 8.98555C14.0819 8.90757 14.0523 8.83497 14.0388 8.76775C14.0281 8.70052 14.0227 8.62792 14.0227 8.54994V7.15838C14.0227 7.08308 14.0294 7.01586 14.0429 6.9567C14.059 6.89485 14.0913 6.82898 14.1397 6.75906C14.1881 6.68915 14.2567 6.62998 14.3454 6.58158C14.4341 6.53049 14.5269 6.50494 14.6237 6.50494C14.8092 6.50494 14.9639 6.56679 15.0875 6.69049C15.2112 6.81149 15.2731 6.96746 15.2731 7.15838V7.30358H14.8899V7.15838C14.8899 7.08308 14.8684 7.01989 14.8254 6.9688C14.785 6.91771 14.7245 6.89217 14.6439 6.89217C14.5686 6.89217 14.5094 6.91771 14.4664 6.9688C14.4261 7.01989 14.4059 7.08308 14.4059 7.15838V8.65481C14.4113 8.69514 14.4301 8.74086 14.4624 8.79195C14.5 8.84573 14.5618 8.87261 14.6479 8.87261C14.7393 8.87261 14.7998 8.84841 14.8294 8.80001C14.859 8.75161 14.8765 8.71666 14.8818 8.69514C14.8872 8.67094 14.8899 8.63867 14.8899 8.59834V8.4612H15.2731L15.2731 8.54994Z" fill="white"/>
  <path d="M15.6432 6.78326C15.7051 6.69721 15.783 6.62998 15.8772 6.58158C15.974 6.53049 16.0735 6.50494 16.1756 6.50494C16.2751 6.50494 16.3679 6.52511 16.454 6.56545C16.5427 6.60578 16.6166 6.66091 16.6758 6.73082C16.735 6.80074 16.7753 6.87334 16.7968 6.94863C16.8183 7.02124 16.8291 7.10056 16.8291 7.18661V8.56204C16.8291 8.64271 16.821 8.71396 16.8049 8.77581C16.7914 8.83766 16.7592 8.90623 16.7081 8.98152C16.6597 9.05682 16.5884 9.12135 16.4943 9.17513C16.4029 9.22891 16.3007 9.2558 16.1877 9.2558C16.1232 9.2558 16.0614 9.24773 16.0022 9.2316C15.943 9.21277 15.8879 9.18857 15.8368 9.159C15.7857 9.12942 15.74 9.0958 15.6997 9.05816C15.662 9.02051 15.6325 8.98152 15.611 8.94119C15.5706 8.85783 15.5464 8.7906 15.5384 8.73951C15.5303 8.68842 15.5262 8.62926 15.5262 8.56204V7.18661C15.5262 7.10594 15.5343 7.03468 15.5504 6.97283C15.5693 6.9083 15.6002 6.84511 15.6432 6.78326ZM16.3935 6.99703C16.3424 6.92174 16.2724 6.88409 16.1837 6.88409C16.138 6.88409 16.0923 6.89754 16.0466 6.92443C16.0035 6.94863 15.9726 6.97687 15.9538 7.00913C15.9377 7.0414 15.9269 7.07367 15.9215 7.10594C15.9162 7.13821 15.9135 7.1651 15.9135 7.18661V8.56204C15.9135 8.57548 15.9135 8.59026 15.9135 8.6064C15.9135 8.61984 15.9148 8.63464 15.9175 8.65078C15.9202 8.67767 15.9417 8.72203 15.9821 8.78388C16.0224 8.84035 16.0896 8.86858 16.1837 8.86858C16.2321 8.86858 16.2751 8.85782 16.3128 8.83631C16.3531 8.81211 16.3814 8.78522 16.3975 8.75564C16.4163 8.72338 16.4284 8.69379 16.4338 8.66691C16.4392 8.64002 16.4419 8.60506 16.4419 8.56204V7.18661C16.4419 7.13283 16.4392 7.09519 16.4338 7.07367C16.4311 7.05216 16.4177 7.02661 16.3935 6.99703H16.3935Z" fill="white"/>
  <path d="M18.3329 9.2316V7.58593L17.9457 8.73951H17.7521L17.3689 7.58593V9.2316H16.9817V6.52914H17.3447L17.857 7.96911L18.3611 6.52914H18.7161V9.2316H18.3329Z" fill="white"/>
  <path d="M20.2224 9.2316V7.58593L19.8352 8.73951H19.6416L19.2584 7.58593V9.2316H18.8712V6.52914H19.2342L19.7465 7.96911L20.2507 6.52914H20.6056V9.2316H20.2224Z" fill="white"/>
  <path d="M22.0611 8.94925C22.0019 9.04068 21.9253 9.11463 21.8312 9.1711C21.7397 9.22756 21.6376 9.2558 21.5246 9.2558C21.4682 9.2558 21.4117 9.24773 21.3552 9.2316C21.3014 9.21546 21.2503 9.1953 21.2019 9.1711C21.1535 9.14421 21.1105 9.11462 21.0729 9.08236C21.0352 9.0474 21.007 9.0111 20.9882 8.97345C20.9478 8.89816 20.9209 8.83228 20.9075 8.77581C20.8967 8.71934 20.8914 8.65884 20.8914 8.5943V6.52914H21.2786V8.5943C21.2786 8.61312 21.2786 8.63061 21.2786 8.64674C21.2813 8.66018 21.284 8.67363 21.2866 8.68708C21.2893 8.70859 21.3095 8.74623 21.3471 8.80001C21.3821 8.84841 21.4426 8.87261 21.5286 8.87261C21.6066 8.87261 21.6644 8.84438 21.7021 8.78791C21.7424 8.72875 21.7626 8.66422 21.7626 8.5943V6.52914H22.1498V8.5943C22.1498 8.65884 22.1431 8.72069 22.1296 8.77984C22.1162 8.839 22.0933 8.89547 22.0611 8.94925H22.0611Z" fill="white"/>
  <path d="M23.3669 9.2316L22.7659 7.58996V9.2316H22.3787V6.52914H22.7457L23.3427 8.16675V6.52914H23.7299V9.2316H23.3669Z" fill="white"/>
  <path d="M23.9423 9.2316V6.52914H24.3254V9.2316H23.9423Z" fill="white"/>
  <path d="M25.0304 9.2316V6.88813H24.5746V6.52914H25.8774V6.88813H25.4136V9.2316H25.0304Z" fill="white"/>
  <path d="M25.9629 9.2316V6.52914H26.3461V9.2316H25.9629Z" fill="white"/>
  <path d="M27.7412 8.84438V9.2316H26.5836V6.52914H27.7412V6.88409H26.9668V7.68273H27.6444V8.04978H26.9668V8.84438H27.7412Z" fill="white"/>
  <path d="M28.1997 8.558C28.1997 8.58489 28.1997 8.60775 28.1997 8.62657C28.1997 8.6454 28.2011 8.66153 28.2038 8.67498C28.2091 8.70187 28.2293 8.74086 28.2643 8.79195C28.3019 8.84573 28.3691 8.87261 28.4659 8.87261C28.5197 8.87261 28.5695 8.86186 28.6152 8.84035C28.6609 8.81615 28.6945 8.78523 28.716 8.74758C28.7322 8.718 28.7416 8.68977 28.7443 8.66288C28.7496 8.63599 28.7523 8.61179 28.7523 8.59027V8.55397V8.36439V8.32809C28.7523 8.26893 28.7416 8.22322 28.72 8.19095C28.6985 8.15599 28.6501 8.11701 28.5748 8.07398C28.5238 8.04709 28.4323 8.00944 28.3006 7.96104C28.1688 7.91264 28.0586 7.836 27.9698 7.73113C27.8811 7.62626 27.8367 7.48375 27.8367 7.30358V7.18258C27.8367 6.99704 27.8986 6.83838 28.0222 6.70662C28.1486 6.57217 28.3019 6.50494 28.4821 6.50494C28.6703 6.50494 28.8263 6.57083 28.95 6.70259C29.0763 6.83435 29.1395 6.99435 29.1395 7.18258V7.30358H28.7523V7.18258C28.7523 7.16375 28.751 7.14627 28.7483 7.13014C28.7483 7.11401 28.7469 7.09922 28.7442 7.08577C28.7415 7.07233 28.7348 7.0562 28.7241 7.03737C28.7133 7.01855 28.6985 6.99569 28.6797 6.9688C28.6421 6.91502 28.5789 6.88813 28.4901 6.88813C28.4122 6.88813 28.3476 6.91636 28.2965 6.97283C28.2481 7.0293 28.2239 7.09922 28.2239 7.18258V7.30358V7.33988C28.2239 7.39366 28.232 7.43669 28.2481 7.46896C28.2669 7.49854 28.31 7.53215 28.3772 7.56979C28.3987 7.58055 28.431 7.59535 28.474 7.61416C28.5197 7.6303 28.5748 7.65047 28.6394 7.67467C28.7684 7.71769 28.8841 7.79433 28.9863 7.90458C29.0884 8.01482 29.1395 8.16003 29.1395 8.34019V8.558C29.1395 8.65212 29.1301 8.73145 29.1113 8.79598C29.0952 8.86052 29.04 8.95463 28.9459 9.07833C28.8518 9.19664 28.6945 9.2558 28.474 9.2558C28.24 9.2558 28.0706 9.18051 27.9658 9.02993C27.8609 8.87665 27.8085 8.71934 27.8085 8.558V8.4612H28.1997V8.558Z" fill="white"/>
  <path d="M3.20879 9.18243V3.68101L2.28223 4.37593V3.39146L3.20879 2.71585H4.12569V9.18243H3.20879Z" fill="white"/>
  <path d="M5.66057 9.18243V3.68101L4.73401 4.37593V3.39146L5.66057 2.71585H6.57747V9.18243H5.66057Z" fill="white"/>
  <path d="M8.11233 21.1821L10.3784 24.1581C10.4627 24.2687 10.4397 24.3997 10.2596 24.3997H5.63856C5.4585 24.3997 5.43551 24.2687 5.51977 24.1581L7.78585 21.1821C7.89561 21.038 8.00407 21.04 8.11233 21.1821ZM22.2998 22.2998H26.8814C26.9887 22.2998 27.0751 22.3862 27.0751 22.4935V23.3051C27.0751 23.4124 26.9887 23.4988 26.8814 23.4988H22.2998C22.1925 23.4988 22.1061 23.4124 22.1061 23.3051V22.4935C22.1061 22.3862 22.1925 22.2998 22.2998 22.2998ZM22.3 23.8279C22.1927 23.8279 22.1063 23.9143 22.1063 24.0216V28.6855C22.1063 28.7928 22.1927 28.8792 22.3 28.8792H26.8816C26.9889 28.8792 27.0753 28.7928 27.0753 28.6855V24.0216C27.0753 23.9143 26.9889 23.8279 26.8816 23.8279H22.3ZM22.9706 24.5319H24.1413C24.2486 24.5319 24.335 24.6183 24.335 24.7256V25.2683C24.335 25.3756 24.2486 25.462 24.1413 25.462H22.9706C22.8633 25.462 22.7773 25.3756 22.7773 25.2683V24.7256C22.7773 24.6183 22.8633 24.5319 22.9706 24.5319ZM25.123 24.5319H26.2933C26.4006 24.5319 26.487 24.6183 26.487 24.7256V25.2683C26.487 25.3756 26.4006 25.462 26.2933 25.462H25.123C25.0157 25.462 24.9293 25.3756 24.9293 25.2683V24.7256C24.9293 24.6183 25.0157 24.5319 25.123 24.5319ZM22.9706 26.1246H24.1413C24.2486 26.1246 24.335 26.211 24.335 26.3183V26.8607C24.335 26.968 24.2486 27.0544 24.1413 27.0544H22.9706C22.8633 27.0544 22.7773 26.968 22.7773 26.8607V26.3183C22.7773 26.211 22.8633 26.1246 22.9706 26.1246ZM25.123 26.1246H26.2933C26.4006 26.1246 26.487 26.211 26.487 26.3183V26.8607C26.487 26.968 26.4006 27.0544 26.2933 27.0544H25.123C25.0157 27.0544 24.9293 26.968 24.9293 26.8607V26.3183C24.9293 26.211 25.0157 26.1246 25.123 26.1246ZM11.2879 12.658C11.1806 12.658 11.0942 12.7444 11.0942 12.8517V28.6855C11.0942 28.7928 11.1806 28.8792 11.2879 28.8792H15.7619C15.8692 28.8792 15.9556 28.7928 15.9556 28.6855V12.8517C15.9556 12.7444 15.8692 12.658 15.7619 12.658H11.2879ZM12.1619 14.8732H12.8452C12.9525 14.8732 13.0389 14.9596 13.0389 15.067V15.8908C13.0389 15.9981 12.9525 16.0845 12.8452 16.0845H12.1619C12.0546 16.0845 11.9682 15.9981 11.9682 15.8908V15.067C11.9682 14.9596 12.0546 14.8732 12.1619 14.8732ZM14.2497 14.8732H14.933C15.0403 14.8732 15.1267 14.9596 15.1267 15.067V15.8908C15.1267 15.9981 15.0403 16.0845 14.933 16.0845H14.2497C14.1424 16.0845 14.056 15.9981 14.056 15.8908V15.067C14.056 14.9596 14.1424 14.8732 14.2497 14.8732ZM12.1619 17.6148H12.8452C12.9525 17.6148 13.0389 17.7012 13.0389 17.8085V18.6323C13.0389 18.7396 12.9525 18.826 12.8452 18.826H12.1619C12.0546 18.826 11.9682 18.7396 11.9682 18.6323V17.8085C11.9682 17.7012 12.0546 17.6148 12.1619 17.6148ZM14.2497 17.6148H14.933C15.0403 17.6148 15.1267 17.7012 15.1267 17.8085V18.6323C15.1267 18.7396 15.0403 18.826 14.933 18.826H14.2497C14.1424 18.826 14.056 18.7396 14.056 18.6323V17.8085C14.056 17.7012 14.1424 17.6148 14.2497 17.6148ZM12.1619 20.3563H12.8452C12.9525 20.3563 13.0389 20.4427 13.0389 20.55V21.3738C13.0389 21.4811 12.9525 21.5675 12.8452 21.5675H12.1619C12.0546 21.5675 11.9682 21.4811 11.9682 21.3738V20.55C11.9682 20.4427 12.0546 20.3563 12.1619 20.3563ZM14.2497 20.3563H14.933C15.0403 20.3563 15.1267 20.4427 15.1267 20.55V21.3738C15.1267 21.4811 15.0403 21.5675 14.933 21.5675H14.2497C14.1424 21.5675 14.056 21.4811 14.056 21.3738V20.55C14.056 20.4427 14.1424 20.3563 14.2497 20.3563ZM12.1619 23.0978H12.8452C12.9525 23.0978 13.0389 23.1842 13.0389 23.2915V24.1153C13.0389 24.2226 12.9525 24.309 12.8452 24.309H12.1619C12.0546 24.309 11.9682 24.2226 11.9682 24.1153V23.2915C11.9682 23.1842 12.0546 23.0978 12.1619 23.0978ZM14.2497 23.0978H14.933C15.0403 23.0978 15.1267 23.1842 15.1267 23.2915V24.1153C15.1267 24.2226 15.0403 24.309 14.933 24.309H14.2497C14.1424 24.309 14.056 24.2226 14.056 24.1153V23.2915C14.056 23.1842 14.1424 23.0978 14.2497 23.0978ZM12.1619 25.8393H12.8452C12.9525 25.8393 13.0389 25.9257 13.0389 26.0331V26.8573C13.0389 26.9646 12.9525 27.051 12.8452 27.051H12.1619C12.0546 27.051 11.9682 26.9646 11.9682 26.8573V26.0331C11.9682 25.9257 12.0546 25.8393 12.1619 25.8393ZM14.2497 25.8393H14.933C15.0403 25.8393 15.1267 25.9257 15.1267 26.0331V26.8573C15.1267 26.9646 15.0403 27.051 14.933 27.051H14.2497C14.1424 27.051 14.056 26.9646 14.056 26.8573V26.0331C14.056 25.9257 14.1424 25.8393 14.2497 25.8393ZM16.7186 21.7498V28.6855C16.7186 28.7928 16.805 28.8792 16.9123 28.8792H21.3217C21.429 28.8792 21.5154 28.7928 21.5154 28.6855V15.8646C21.5154 15.7573 21.3735 15.6089 21.2034 15.8243L16.8882 21.2893C16.741 21.4757 16.7186 21.5326 16.7186 21.7498ZM20.8537 17.4113C20.9321 17.4109 20.9453 17.5989 20.9453 17.6793V18.8463C20.9453 18.9536 20.8589 19.04 20.7516 19.04H19.8501C19.7353 19.04 19.5397 18.9912 19.6564 18.8463L20.7516 17.4856C20.7941 17.4327 20.8276 17.4115 20.8537 17.4113ZM19.5813 19.7026H20.7516C20.8589 19.7026 20.9453 19.789 20.9453 19.8963V20.4386C20.9453 20.5459 20.8589 20.6323 20.7516 20.6323H19.5813C19.474 20.6323 19.3876 20.5459 19.3876 20.4386V19.8963C19.3876 19.789 19.474 19.7026 19.5813 19.7026ZM18.6971 20.1309C18.7741 20.115 18.7929 20.2908 18.7929 20.4137V22.0748C18.7929 22.1821 18.7065 22.2685 18.5992 22.2685H17.4897C17.3824 22.2685 17.2197 22.1833 17.296 22.0748L18.5992 20.22C18.6392 20.1631 18.6715 20.1362 18.6971 20.1309ZM19.5813 21.2902H20.7516C20.8589 21.2902 20.9453 21.3767 20.9453 21.484V22.0267C20.9453 22.134 20.8589 22.2204 20.7516 22.2204H19.5813C19.474 22.2204 19.3876 22.134 19.3876 22.0267V21.484C19.3876 21.3767 19.474 21.2902 19.5813 21.2902ZM17.4897 22.883H18.5992C18.7065 22.883 18.7929 22.9694 18.7929 23.0767V23.6194C18.7929 23.7268 18.7065 23.8132 18.5992 23.8132H17.4897C17.3824 23.8132 17.296 23.7268 17.296 23.6194V23.0767C17.296 22.9694 17.3824 22.883 17.4897 22.883ZM19.5813 22.883H20.7516C20.8589 22.883 20.9453 22.9694 20.9453 23.0767V23.6194C20.9453 23.7268 20.8589 23.8132 20.7516 23.8132H19.5813C19.474 23.8132 19.3876 23.7268 19.3876 23.6194V23.0767C19.3876 22.9694 19.474 22.883 19.5813 22.883ZM17.4897 24.5319H18.5992C18.7065 24.5319 18.7929 24.6183 18.7929 24.7256V25.2683C18.7929 25.3756 18.7065 25.462 18.5992 25.462H17.4897C17.3824 25.462 17.296 25.3756 17.296 25.2683V24.7256C17.296 24.6183 17.3824 24.5319 17.4897 24.5319ZM19.5813 24.5319H20.7516C20.8589 24.5319 20.9453 24.6183 20.9453 24.7256V25.2683C20.9453 25.3756 20.8589 25.462 20.7516 25.462H19.5813C19.474 25.462 19.3876 25.3756 19.3876 25.2683V24.7256C19.3876 24.6183 19.474 24.5319 19.5813 24.5319ZM17.4897 26.1246H18.5992C18.7065 26.1246 18.7929 26.211 18.7929 26.3183V26.8607C18.7929 26.968 18.7065 27.0544 18.5992 27.0544H17.4897C17.3824 27.0544 17.296 26.968 17.296 26.8607V26.3183C17.296 26.211 17.3824 26.1246 17.4897 26.1246ZM19.5813 26.1246H20.7516C20.8589 26.1246 20.9453 26.211 20.9453 26.3183V26.8607C20.9453 26.968 20.8589 27.0544 20.7516 27.0544H19.5813C19.474 27.0544 19.3876 26.968 19.3876 26.8607V26.3183C19.3876 26.211 19.474 26.1246 19.5813 26.1246ZM5.57738 24.8395C5.47007 24.8395 5.38367 24.9259 5.38367 25.0333V28.6855C5.38367 28.7928 5.47007 28.8792 5.57738 28.8792H7.14143C7.141 28.872 7.13927 28.8651 7.13927 28.8577V26.7315C7.13927 26.5646 7.27368 26.4302 7.4406 26.4302H8.4252C8.59212 26.4302 8.72654 26.5646 8.72654 26.7315V28.8577C8.72654 28.865 8.72502 28.872 8.72437 28.8792H10.2019C10.3092 28.8792 10.3956 28.7928 10.3956 28.6855V25.0333C10.3956 24.9259 10.3092 24.8395 10.2019 24.8395H5.57738Z" fill="white"/>
</svg>
