<svg width="32" height="33" viewBox="0 0 32 33" fill="none" xmlns="http://www.w3.org/2000/svg">
  <path fill-rule="evenodd" clip-rule="evenodd" d="M0.178645 0.104492H31.8213C31.9203 0.104492 32 0.184175 32 0.283144V31.9781C32 32.0771 31.9203 32.1567 31.8213 32.1567H0.178645C0.0796758 32.1567 0 32.0771 0 31.9781V0.283144C0 0.184175 0.0796758 0.104492 0.178645 0.104492Z" fill="#3EB049"/>
  <path d="M11.4308 5.62325H10.2772V2.92081H10.6644V5.23604H11.4308V5.62325Z" fill="white"/>
  <path d="M11.5074 5.62325V2.92081H11.8906V5.62325H11.5074Z" fill="white"/>
  <path d="M12.1368 5.62325V2.92081H13.2904V3.28382H12.52V4.09456H13.1936V4.45757H12.52V5.62325H12.1368Z" fill="white"/>
  <path d="M14.5802 5.23604V5.62325H13.4226V2.92081H14.5802V3.27575H13.8058V4.07439H14.4834V4.44144H13.8058V5.23604H14.5802Z" fill="white"/>
  <path d="M10.362 6.90167C10.4238 6.81562 10.5018 6.74839 10.5959 6.69999C10.6927 6.6489 10.7922 6.62335 10.8944 6.62335C10.9939 6.62335 11.0867 6.64353 11.1727 6.68386C11.2614 6.7242 11.3354 6.77932 11.3945 6.84923C11.4537 6.91915 11.494 6.99175 11.5156 7.06704C11.5371 7.13964 11.5478 7.21896 11.5478 7.30501V8.68045C11.5478 8.76112 11.5397 8.83237 11.5236 8.89422C11.5102 8.95607 11.4779 9.02464 11.4268 9.09993C11.3784 9.17523 11.3072 9.23976 11.213 9.29354C11.1216 9.34732 11.0194 9.37421 10.9065 9.37421C10.842 9.37421 10.7801 9.36615 10.7209 9.35001C10.6618 9.33119 10.6067 9.30699 10.5556 9.27741C10.5045 9.24783 10.4588 9.21422 10.4184 9.17657C10.3808 9.13893 10.3512 9.09992 10.3297 9.05959C10.2894 8.97623 10.2652 8.90901 10.2571 8.85792C10.249 8.80683 10.245 8.74767 10.245 8.68045V7.30501C10.245 7.22434 10.2531 7.15309 10.2692 7.09124C10.288 7.02671 10.3189 6.96352 10.362 6.90167ZM11.1122 7.11544C11.0611 7.04015 10.9912 7.00251 10.9025 7.00251C10.8567 7.00251 10.811 7.01595 10.7653 7.04284C10.7223 7.06704 10.6914 7.09528 10.6725 7.12755C10.6564 7.15982 10.6457 7.19209 10.6403 7.22435C10.6349 7.25662 10.6322 7.2835 10.6322 7.30501V8.68045C10.6322 8.69389 10.6322 8.70867 10.6322 8.72481C10.6322 8.73825 10.6336 8.75304 10.6363 8.76918C10.639 8.79607 10.6605 8.84044 10.7008 8.90229C10.7411 8.95876 10.8084 8.98699 10.9025 8.98699C10.9509 8.98699 10.9939 8.97624 11.0315 8.95473C11.0719 8.93053 11.1001 8.90363 11.1162 8.87405C11.1351 8.84178 11.1472 8.81221 11.1526 8.78532C11.1579 8.75843 11.1606 8.72347 11.1606 8.68045V7.30501C11.1606 7.25123 11.1579 7.21359 11.1526 7.19208C11.1499 7.17057 11.1364 7.14502 11.1122 7.11544H11.1122Z" fill="white"/>
  <path d="M12.7763 9.35001L12.1753 7.70837V9.35001H11.7881V6.64755H12.1551L12.7521 8.28516V6.64755H13.1393V9.35001H12.7763Z" fill="white"/>
  <path d="M15.4024 9.35001H14.2488V6.64755H14.636V8.96278H15.4024V9.35001Z" fill="white"/>
  <path d="M15.4231 9.35001L16.0281 6.64755H16.3629L16.9679 9.35001H16.5525L16.4436 8.76918H15.9434L15.8305 9.35001H15.4231ZM16.012 8.4102H16.375L16.1935 7.42602L16.012 8.4102Z" fill="white"/>
  <path d="M18.0715 9.35001L17.4705 7.70837V9.35001H17.0833V6.64755H17.4503L18.0473 8.28516V6.64755H18.4345V9.35001H18.0715Z" fill="white"/>
  <path d="M19.3051 6.64755C19.4799 6.64755 19.6291 6.70941 19.7528 6.8331C19.8792 6.95411 19.9424 7.10199 19.9424 7.27678V8.68044C19.9424 8.87943 19.8819 9.04077 19.7609 9.16446C19.6399 9.28816 19.4839 9.35001 19.293 9.35001H18.692V6.64755H19.3051ZM19.5592 8.68044V7.27678C19.5592 7.20148 19.531 7.1383 19.4745 7.08721C19.4207 7.03611 19.3549 7.01057 19.2769 7.01057H19.0752V8.99102H19.2648C19.4611 8.99102 19.5592 8.8875 19.5592 8.68044Z" fill="white"/>
  <path d="M3.19792 9.38364V3.88222L2.27136 4.57713V3.59267L3.19792 2.91705H4.11482V9.38364H3.19792Z" fill="white"/>
  <path d="M6.50837 5.22379C6.66923 5.22379 6.83008 5.26884 6.99094 5.35892C7.15824 5.449 7.2805 5.55517 7.35771 5.67742C7.44135 5.79968 7.49605 5.92836 7.52179 6.06348C7.55396 6.19217 7.57004 6.33052 7.57004 6.47851V7.92624C7.57004 8.0678 7.56361 8.19006 7.55074 8.29301C7.5443 8.38953 7.50892 8.52465 7.44458 8.69837C7.38024 8.8721 7.22259 9.03939 6.97165 9.20025C6.73357 9.36111 6.46977 9.44155 6.18022 9.44155C5.96145 9.44155 5.75233 9.39007 5.55287 9.28712C5.3534 9.17774 5.19897 9.04583 5.08959 8.8914C4.9802 8.73698 4.9062 8.57934 4.8676 8.41847C4.82899 8.25762 4.80969 8.09353 4.80969 7.92624V7.76216H5.75555V8.11928C5.75555 8.15145 5.7652 8.19006 5.7845 8.2351C5.80381 8.28014 5.82954 8.32518 5.86171 8.37022C5.89389 8.40882 5.93893 8.44421 5.99684 8.47639C6.05475 8.50212 6.12231 8.51499 6.19952 8.51499C6.37325 8.51499 6.48907 8.46673 6.54698 8.37022C6.60489 8.2737 6.63706 8.1997 6.64349 8.14823C6.64993 8.09032 6.65315 8.0292 6.65315 7.96486V6.60397C6.65315 6.5718 6.65315 6.54285 6.65315 6.51711C6.65315 6.48494 6.64993 6.45277 6.64349 6.4206C6.64349 6.38843 6.63384 6.34982 6.61454 6.30478C6.60168 6.25974 6.57594 6.21791 6.53733 6.1793C6.50516 6.13426 6.46012 6.09887 6.40221 6.07313C6.35073 6.04096 6.28639 6.02488 6.20917 6.02488C5.98397 6.02488 5.83276 6.1407 5.75555 6.37234H4.92551V2.91705H7.57005V3.77605H5.75555V5.51335C5.97432 5.32031 6.22526 5.22379 6.50837 5.22379H6.50837Z" fill="white"/>
  <path d="M10.5752 15.0692C8.16469 15.2363 8.41574 17.5784 9.58871 18.2452C8.59751 19.8017 9.58127 21.277 10.7677 21.277H14.6416C16.7739 21.277 18.2722 17.6574 14.9423 16.1639C16.1573 11.9541 10.5404 12.2389 10.5752 15.0692Z" fill="white"/>
  <path d="M18.5076 19.5814C19.5886 19.08 20.9066 20.1939 20.9066 20.1939C20.9066 20.1939 22.0365 19.1422 23.2715 19.5984C23.5891 19.7157 23.5648 19.3854 23.4586 19.3092C22.8284 18.8564 22.0389 18.4201 20.9406 19.2922C19.6135 18.443 18.8784 18.8282 18.3545 19.2922C18.2171 19.4139 18.2651 19.6939 18.5076 19.5814Z" fill="white"/>
  <path d="M16.8654 15.6868C17.7199 15.1952 18.8869 16.0176 18.8869 16.0176C18.8869 16.0176 19.7419 15.069 20.7927 15.3553C21.063 15.429 21.019 15.1585 20.926 15.1034C20.3737 14.776 19.6915 14.4737 18.8495 15.272C17.6942 14.6684 17.1164 15.0392 16.7182 15.4596C16.6138 15.5699 16.6737 15.7971 16.8654 15.6868Z" fill="white"/>
  <path d="M19.9643 13.3417C20.7489 13.2259 21.3798 14.1857 21.3798 14.1857C21.3798 14.1857 22.2995 13.7278 23.0016 14.2522C23.1821 14.387 23.229 14.1716 23.1757 14.1029C22.8589 13.6949 22.4374 13.2674 21.5717 13.6166C20.8851 12.824 20.3432 12.931 19.9212 13.1282C19.8105 13.1799 19.7883 13.3677 19.9643 13.3417Z" fill="white"/>
  <path fill-rule="evenodd" clip-rule="evenodd" d="M12.6634 21.8822H13.4672C13.5661 21.8822 13.6458 21.9619 13.6458 22.0608V24.2027C13.6458 24.3017 13.5661 24.3814 13.4672 24.3814H12.6634C12.5644 24.3814 12.4847 24.3017 12.4847 24.2027V22.0608C12.4847 21.9619 12.5644 21.8822 12.6634 21.8822Z" fill="white"/>
  <path fill-rule="evenodd" clip-rule="evenodd" d="M8.42889 25.3449H23.7433C23.8423 25.3449 23.9219 25.4246 23.9219 25.5236V26.2854C23.9219 26.3844 23.8423 26.464 23.7433 26.464H8.42889C8.32992 26.464 8.25024 26.3844 8.25024 26.2854V25.5236C8.25024 25.4246 8.32992 25.3449 8.42889 25.3449Z" fill="white"/>
  <path fill-rule="evenodd" clip-rule="evenodd" d="M8.42889 27.1824H23.7433C23.8423 27.1824 23.9219 27.2621 23.9219 27.361V28.1229C23.9219 28.2218 23.8423 28.3015 23.7433 28.3015H8.42889C8.32992 28.3015 8.25024 28.2218 8.25024 28.1229V27.361C8.25024 27.2621 8.32992 27.1824 8.42889 27.1824Z" fill="white"/>
</svg>
