<svg width="32" height="33" viewBox="0 0 32 33" fill="none" xmlns="http://www.w3.org/2000/svg">
  <path fill-rule="evenodd" clip-rule="evenodd" d="M0.178652 0.0522461H31.8213C31.9203 0.0522461 32 0.13192 32 0.230891V31.9258C32 32.0248 31.9203 32.1045 31.8213 32.1045H0.178652C0.0796803 32.1045 0 32.0248 0 31.9258V0.230891C0 0.13192 0.0796803 0.0522461 0.178652 0.0522461Z" fill="#E11484"/>
  <path d="M10.3301 5.50485V2.8024H11.0077C11.1852 2.8024 11.3344 2.86424 11.4554 2.98793C11.5791 3.11163 11.641 3.26356 11.641 3.44372V3.6938C11.641 3.94388 11.5347 4.1348 11.3223 4.26656L11.7337 5.50485H11.3223L10.9593 4.34723H10.7173V5.50485H10.3301ZM11.1892 3.91968C11.2134 3.8901 11.2295 3.85648 11.2376 3.81884C11.2484 3.78119 11.2537 3.73951 11.2537 3.6938V3.44372C11.2537 3.36036 11.2309 3.29314 11.1852 3.24204C11.1395 3.18827 11.0749 3.16138 10.9916 3.16138H10.7173V4.00438H10.9875C11.0682 4.00438 11.1354 3.97615 11.1892 3.91968H11.1892Z" fill="white"/>
  <path d="M13.0574 5.11763V5.50485H11.8998V2.8024H13.0574V3.15734H12.283V3.95598H12.9606V4.32303H12.283V5.11763H13.0574Z" fill="white"/>
  <path d="M13.8556 2.8024C14.0304 2.8024 14.1797 2.86424 14.3034 2.98793C14.4298 3.10894 14.4929 3.25684 14.4929 3.43162V4.83528C14.4929 5.03427 14.4324 5.19561 14.3114 5.3193C14.1904 5.443 14.0345 5.50485 13.8436 5.50485H13.2426V2.8024H13.8556ZM14.1098 4.83528V3.43162C14.1098 3.35633 14.0815 3.29314 14.0251 3.24204C13.9713 3.19095 13.9054 3.16541 13.8274 3.16541H13.6257V5.14586H13.8153C14.0116 5.14586 14.1098 5.04234 14.1098 4.83528Z" fill="white"/>
  <path d="M16.051 5.2225C15.9918 5.31392 15.9152 5.38787 15.821 5.44434C15.7296 5.50081 15.6274 5.52905 15.5145 5.52905C15.458 5.52905 15.4016 5.52098 15.3451 5.50485C15.2913 5.48871 15.2402 5.46854 15.1918 5.44434C15.1434 5.41745 15.1004 5.38787 15.0627 5.3556C15.0251 5.32065 14.9969 5.28435 14.978 5.2467C14.9377 5.17141 14.9108 5.10553 14.8974 5.04906C14.8866 4.99259 14.8812 4.93209 14.8812 4.86755V2.8024H15.2684V4.86755C15.2684 4.88637 15.2684 4.90385 15.2684 4.91999C15.2711 4.93343 15.2738 4.94688 15.2765 4.96032C15.2792 4.98184 15.2994 5.01948 15.337 5.07326C15.372 5.12166 15.4325 5.14586 15.5185 5.14586C15.5965 5.14586 15.6543 5.11763 15.692 5.06116C15.7323 5.002 15.7525 4.93746 15.7525 4.86755V2.8024H16.1397V4.86755C16.1397 4.93209 16.1329 4.99393 16.1195 5.05309C16.1061 5.11225 16.0832 5.16872 16.0509 5.2225H16.051Z" fill="white"/>
  <path d="M17.6991 4.82318C17.6991 4.90923 17.6938 4.98318 17.683 5.04503C17.6749 5.10688 17.648 5.1741 17.6023 5.2467C17.5781 5.28435 17.5472 5.32065 17.5095 5.35561C17.4746 5.38787 17.4343 5.41745 17.3885 5.44434C17.3455 5.46854 17.2985 5.48871 17.2474 5.50485C17.1963 5.52098 17.1465 5.52905 17.0981 5.52905C16.9771 5.52905 16.8669 5.5035 16.7674 5.45241C16.6706 5.40132 16.5993 5.33678 16.5536 5.2588C16.5079 5.18082 16.4783 5.10822 16.4649 5.04099C16.4541 4.97377 16.4487 4.90117 16.4487 4.82318V3.43162C16.4487 3.35633 16.4554 3.2891 16.4689 3.22994C16.485 3.1681 16.5173 3.10222 16.5657 3.03231C16.6141 2.96239 16.6827 2.90323 16.7714 2.85483C16.8601 2.80374 16.9529 2.7782 17.0497 2.7782C17.2353 2.7782 17.3899 2.84004 17.5136 2.96373C17.6373 3.08474 17.6991 3.2407 17.6991 3.43162V3.57683H17.3159V3.43162C17.3159 3.35633 17.2944 3.29314 17.2514 3.24205C17.211 3.19096 17.1506 3.16541 17.0699 3.16541C16.9946 3.16541 16.9354 3.19096 16.8924 3.24205C16.8521 3.29314 16.8319 3.35633 16.8319 3.43162V4.92805C16.8373 4.96839 16.8561 5.0141 16.8884 5.06519C16.926 5.11897 16.9879 5.14586 17.0739 5.14586C17.1653 5.14586 17.2258 5.12166 17.2554 5.07326C17.285 5.02486 17.3025 4.9899 17.3079 4.96839C17.3132 4.94419 17.3159 4.91192 17.3159 4.87159V4.73445H17.6991L17.6991 4.82318Z" fill="white"/>
  <path d="M19.1513 5.11763V5.50485H17.9937V2.8024H19.1513V3.15734H18.3768V3.95598H19.0545V4.32303H18.3768V5.11763H19.1513Z" fill="white"/>
  <path d="M19.9495 2.8024C20.1243 2.8024 20.2736 2.86424 20.3972 2.98793C20.5236 3.10894 20.5868 3.25684 20.5868 3.43162V4.83528C20.5868 5.03427 20.5263 5.19561 20.4053 5.3193C20.2843 5.443 20.1283 5.50485 19.9374 5.50485H19.3364V2.8024H19.9495ZM20.2036 4.83528V3.43162C20.2036 3.35633 20.1754 3.29314 20.1189 3.24204C20.0651 3.19095 19.9993 3.16541 19.9213 3.16541H19.7196V5.14586H19.9092C20.1055 5.14586 20.2036 5.04234 20.2036 4.83528Z" fill="white"/>
  <path d="M10.3864 9.2316V6.52914H10.7695V9.2316H10.3864Z" fill="white"/>
  <path d="M12.0737 9.2316L11.4727 7.58996V9.2316H11.0854V6.52914H11.4525L12.0495 8.16675V6.52914H12.4367V9.2316H12.0737Z" fill="white"/>
  <path d="M13.8328 8.84438V9.2316H12.6752V6.52914H13.8328V6.88409H13.0584V7.68273H13.736V8.04978H13.0584V8.84438H13.8328Z" fill="white"/>
  <path d="M14.1169 9.02185C14.0551 8.95463 14.0134 8.88337 13.9919 8.80808C13.973 8.73279 13.9636 8.64405 13.9636 8.54187V7.19871C13.9636 7.00242 14.0255 6.83838 14.1492 6.70662C14.2756 6.57217 14.4342 6.50494 14.6251 6.50494C14.7972 6.50494 14.9491 6.56814 15.0809 6.69452C15.21 6.82091 15.2745 6.97149 15.2745 7.14628V8.54187C15.2745 8.61985 15.2705 8.67766 15.2624 8.71531C15.257 8.75295 15.2463 8.7906 15.2301 8.82825L15.4843 9.04203L15.2705 9.30017L15.0285 9.10656C14.9102 9.20336 14.7676 9.25176 14.6009 9.25176C14.5122 9.25176 14.4234 9.23026 14.3347 9.18723C14.2487 9.14421 14.1761 9.08908 14.1169 9.02185ZM14.7582 8.44103L14.8873 8.54187V7.19871C14.8873 7.11267 14.8631 7.04006 14.8147 6.9809C14.7663 6.91905 14.6991 6.88813 14.613 6.88813C14.5592 6.88813 14.5122 6.90158 14.4718 6.92847C14.4315 6.95536 14.4019 6.98763 14.3831 7.02527C14.367 7.06292 14.3576 7.0925 14.3549 7.11401C14.3522 7.13283 14.3508 7.16107 14.3508 7.19871V8.54187V8.5701C14.3508 8.64808 14.3723 8.718 14.4154 8.77985C14.4611 8.839 14.531 8.86992 14.6251 8.87261C14.652 8.87261 14.6843 8.86455 14.7219 8.84841L14.5444 8.69918L14.7582 8.44103Z" fill="white"/>
  <path d="M16.7507 8.94925C16.6915 9.04068 16.6149 9.11463 16.5207 9.1711C16.4293 9.22756 16.3271 9.2558 16.2142 9.2558C16.1577 9.2558 16.1013 9.24773 16.0448 9.2316C15.991 9.21546 15.9399 9.1953 15.8915 9.1711C15.8431 9.14421 15.8001 9.11462 15.7625 9.08236C15.7248 9.0474 15.6966 9.0111 15.6777 8.97345C15.6374 8.89816 15.6105 8.83228 15.5971 8.77581C15.5863 8.71934 15.5809 8.65884 15.5809 8.5943V6.52914H15.9681V8.5943C15.9681 8.61312 15.9681 8.63061 15.9681 8.64674C15.9708 8.66018 15.9735 8.67363 15.9762 8.68708C15.9789 8.70859 15.9991 8.74623 16.0367 8.80001C16.0717 8.84841 16.1322 8.87261 16.2182 8.87261C16.2962 8.87261 16.354 8.84438 16.3917 8.78791C16.432 8.72875 16.4522 8.66422 16.4522 8.5943V6.52914H16.8394V8.5943C16.8394 8.65884 16.8327 8.72069 16.8192 8.77984C16.8058 8.839 16.7829 8.89547 16.7506 8.94925H16.7507Z" fill="white"/>
  <path d="M16.9932 9.2316L17.5982 6.52914H17.933L18.538 9.2316H18.1226L18.0136 8.65078H17.5135L17.4005 9.2316H16.9932ZM17.5821 8.29179H17.9451L17.7636 7.30762L17.5821 8.29179Z" fill="white"/>
  <path d="M19.8927 9.2316H18.7391V6.52914H19.1264V8.84438H19.8927V9.2316Z" fill="white"/>
  <path d="M19.9757 9.2316V6.52914H20.3589V9.2316H19.9757Z" fill="white"/>
  <path d="M21.0637 9.2316V6.88813H20.6079V6.52914H21.9107V6.88813H21.4469V9.2316H21.0637Z" fill="white"/>
  <path d="M22.0354 9.2316V6.52914H22.4186V9.2316H22.0354Z" fill="white"/>
  <path d="M23.9052 8.84438V9.2316H22.7476V6.52914H23.9052V6.88409H23.1307V7.68273H23.8084V8.04978H23.1307V8.84438H23.9052Z" fill="white"/>
  <path d="M24.3898 8.558C24.3898 8.58489 24.3898 8.60775 24.3898 8.62657C24.3898 8.6454 24.3911 8.66153 24.3938 8.67498C24.3992 8.70187 24.4194 8.74086 24.4543 8.79195C24.492 8.84573 24.5592 8.87261 24.656 8.87261C24.7098 8.87261 24.7595 8.86186 24.8053 8.84035C24.851 8.81615 24.8846 8.78523 24.9061 8.74758C24.9222 8.718 24.9316 8.68977 24.9343 8.66288C24.9397 8.63599 24.9424 8.61179 24.9424 8.59027V8.55397V8.36439V8.32809C24.9424 8.26893 24.9316 8.22322 24.9101 8.19095C24.8886 8.15599 24.8402 8.11701 24.7649 8.07398C24.7138 8.04709 24.6224 8.00944 24.4906 7.96104C24.3589 7.91264 24.2486 7.836 24.1599 7.73113C24.0711 7.62626 24.0268 7.48375 24.0268 7.30358V7.18258C24.0268 6.99704 24.0886 6.83838 24.2123 6.70662C24.3387 6.57217 24.492 6.50494 24.6721 6.50494C24.8604 6.50494 25.0163 6.57083 25.14 6.70259C25.2664 6.83435 25.3296 6.99435 25.3296 7.18258V7.30358H24.9424V7.18258C24.9424 7.16375 24.941 7.14627 24.9383 7.13014C24.9383 7.11401 24.937 7.09922 24.9343 7.08577C24.9316 7.07233 24.9249 7.0562 24.9141 7.03737C24.9034 7.01855 24.8886 6.99569 24.8698 6.9688C24.8321 6.91502 24.7689 6.88813 24.6802 6.88813C24.6022 6.88813 24.5377 6.91636 24.4866 6.97283C24.4382 7.0293 24.414 7.09922 24.414 7.18258V7.30358V7.33988C24.414 7.39366 24.4221 7.43669 24.4382 7.46896C24.457 7.49854 24.5 7.53215 24.5673 7.56979C24.5888 7.58055 24.621 7.59535 24.6641 7.61416C24.7098 7.6303 24.7649 7.65047 24.8294 7.67467C24.9585 7.71769 25.0741 7.79433 25.1763 7.90458C25.2785 8.01482 25.3296 8.16003 25.3296 8.34019V8.558C25.3296 8.65212 25.3202 8.73145 25.3014 8.79598C25.2852 8.86052 25.2301 8.95463 25.136 9.07833C25.0419 9.19664 24.8846 9.2558 24.6641 9.2558C24.4301 9.2558 24.2607 9.18051 24.1558 9.02993C24.051 8.87665 23.9985 8.71934 23.9985 8.558V8.4612H24.3898V8.558Z" fill="white"/>
  <path d="M3.14934 9.18243V3.68101L2.22278 4.37593V3.39146L3.14934 2.71585H4.06624V9.18243H3.14934Z" fill="white"/>
  <path d="M6.30825 9.20172C5.6262 9.07946 5.23048 8.68053 5.12109 8.00492V3.84508C5.20474 3.33676 5.42674 2.99574 5.78706 2.82201C6.02513 2.71262 6.27286 2.65793 6.53023 2.65793C6.69109 2.65793 6.85838 2.67723 7.03211 2.71584C7.26375 2.8574 7.45035 3.0086 7.59191 3.16947C7.73347 3.32389 7.82998 3.5491 7.88145 3.84508V7.98562C7.79137 8.61619 7.45678 9.01834 6.87769 9.19207H6.69431C6.66214 9.19851 6.53345 9.20172 6.30825 9.20172V9.20172ZM6.40476 8.27516C6.68787 8.27516 6.86804 8.14648 6.94525 7.8891V3.98985C6.90664 3.8676 6.86482 3.76786 6.81978 3.69065C6.71039 3.607 6.60422 3.56518 6.50127 3.56518C6.39189 3.56518 6.3018 3.607 6.23103 3.69065C6.16025 3.76786 6.10557 3.8676 6.06696 3.98985V7.8698C6.10557 8.06926 6.21816 8.20439 6.40476 8.27516Z" fill="white"/>
  <path fill-rule="evenodd" clip-rule="evenodd" d="M13.0703 17.2999V19.3337H19.1653V17.2999H13.0703ZM13.0703 21.064V23.1303H19.1653V21.064H13.0703ZM16.1115 11.7852L13.0838 14.8129H19.1391L16.1115 11.7852ZM10.75 17.1467L7.72864 20.1681L10.75 23.1894V17.1467ZM21.4856 17.1594V23.159L24.4854 20.1592L21.4856 17.1594ZM13.1399 25.5794L16.1026 28.542L19.0653 25.5794H13.1399Z" fill="white"/>
</svg>
