<svg width="32" height="33" viewBox="0 0 32 33" fill="none" xmlns="http://www.w3.org/2000/svg">
  <path fill-rule="evenodd" clip-rule="evenodd" d="M0.178652 0H31.8213C31.9203 0 32 0.0796758 32 0.178645V31.8736C32 31.9726 31.9203 32.0522 31.8213 32.0522H0.178652C0.0796803 32.0522 0 31.9726 0 31.8736V0.178645C0 0.0796758 0.0796803 0 0.178652 0Z" fill="#C31F33"/>
  <path d="M9.54279 5.35477C9.48094 5.28755 9.43926 5.21628 9.41775 5.14099C9.39893 5.0657 9.38953 4.97696 9.38953 4.87478V3.53162C9.38953 3.33533 9.45137 3.1713 9.57506 3.03954C9.70145 2.90509 9.86009 2.83786 10.051 2.83786C10.2231 2.83786 10.375 2.90105 10.5068 3.02744C10.6359 3.15382 10.7004 3.3044 10.7004 3.47919V4.87478C10.7004 4.95276 10.6964 5.01058 10.6883 5.04822C10.6829 5.08587 10.6722 5.12351 10.656 5.16116L10.9101 5.37494L10.6964 5.63308L10.4544 5.43947C10.3361 5.53628 10.1935 5.58468 10.0268 5.58468C9.93807 5.58468 9.84934 5.56317 9.7606 5.52014C9.67455 5.47712 9.60195 5.422 9.54279 5.35477ZM10.1841 4.77395L10.3132 4.87478V3.53162C10.3132 3.44557 10.289 3.37297 10.2406 3.31381C10.1922 3.25197 10.125 3.22104 10.0389 3.22104C9.98514 3.22104 9.93808 3.23449 9.89775 3.26138C9.85741 3.28827 9.82782 3.32054 9.809 3.35818C9.79287 3.39583 9.78347 3.42541 9.78078 3.44692C9.77808 3.46574 9.77673 3.49398 9.77673 3.53162V4.87478V4.90301C9.77673 4.981 9.79825 5.05091 9.84127 5.11276C9.88699 5.17192 9.9569 5.20284 10.051 5.20553C10.0779 5.20553 10.1102 5.19746 10.1478 5.18133L9.97034 5.03209L10.1841 4.77395Z" fill="white"/>
  <path d="M12.2419 5.28216C12.1827 5.37359 12.1061 5.44754 12.012 5.50401C11.9205 5.56048 11.8183 5.58871 11.7054 5.58871C11.6489 5.58871 11.5925 5.58065 11.536 5.56451C11.4822 5.54838 11.4311 5.52821 11.3827 5.50401C11.3343 5.47712 11.2913 5.44754 11.2537 5.41527C11.216 5.38032 11.1878 5.34401 11.169 5.30637C11.1286 5.23108 11.1017 5.16519 11.0883 5.10873C11.0775 5.05226 11.0721 4.99175 11.0721 4.92722V2.86206H11.4594V4.92722C11.4594 4.94604 11.4594 4.96352 11.4594 4.97965C11.4621 4.99309 11.4647 5.00654 11.4674 5.01999C11.4701 5.0415 11.4903 5.07915 11.5279 5.13293C11.5629 5.18133 11.6234 5.20553 11.7094 5.20553C11.7874 5.20553 11.8452 5.1773 11.8829 5.12083C11.9232 5.06167 11.9434 4.99713 11.9434 4.92722V2.86206H12.3306V4.92722C12.3306 4.99175 12.3239 5.0536 12.3104 5.11276C12.297 5.17192 12.2741 5.22838 12.2419 5.28216Z" fill="white"/>
  <path d="M12.5365 5.56451L13.1415 2.86206H13.4763L14.0813 5.56451H13.6659L13.557 4.98369H13.0568L12.9439 5.56451H12.5365ZM13.1254 4.6247H13.4884L13.3069 3.64053L13.1254 4.6247Z" fill="white"/>
  <path d="M15.4361 5.56451H14.2825V2.86206H14.6697V5.17729H15.4361V5.56451Z" fill="white"/>
  <path d="M15.5448 5.56451V2.86206H15.928V5.56451H15.5448Z" fill="white"/>
  <path d="M16.5977 5.56451V3.22104H16.142V2.86206H17.4448V3.22104H16.9809V5.56451H16.5977Z" fill="white"/>
  <path d="M18.0115 5.56451V4.40286L17.4872 2.86206H17.8905L18.2051 3.91884L18.5238 2.86206H18.9312L18.3947 4.40286V5.56451H18.0115Z" fill="white"/>
  <path d="M10.5753 8.90403V9.29124H9.41772V6.58879H10.5753V6.94374H9.80092V7.74238H10.4785V8.10943H9.80092V8.90403H10.5753Z" fill="white"/>
  <path d="M11.4824 6.58879C11.6571 6.58879 11.8064 6.65064 11.9301 6.77433C12.0565 6.89534 12.1197 7.04324 12.1197 7.21802V8.62168C12.1197 8.82067 12.0591 8.98201 11.9381 9.1057C11.8171 9.2294 11.6612 9.29124 11.4703 9.29124H10.8693V6.58879H11.4824ZM11.7365 8.62168V7.21802C11.7365 7.14273 11.7082 7.07954 11.6518 7.02844C11.598 6.97735 11.5321 6.95181 11.4541 6.95181H11.2524V8.93226H11.442C11.6383 8.93226 11.7365 8.82874 11.7365 8.62168Z" fill="white"/>
  <path d="M13.6165 9.0089C13.5573 9.10032 13.4807 9.17427 13.3866 9.23074C13.2952 9.28721 13.193 9.31545 13.08 9.31545C13.0236 9.31545 12.9671 9.30738 12.9106 9.29124C12.8569 9.27511 12.8058 9.25494 12.7574 9.23074C12.709 9.20385 12.6659 9.17427 12.6283 9.142C12.5906 9.10705 12.5624 9.07075 12.5436 9.0331C12.5033 8.95781 12.4764 8.89193 12.4629 8.83546C12.4522 8.77899 12.4468 8.71848 12.4468 8.65395V6.58879H12.834V8.65395C12.834 8.67277 12.834 8.69025 12.834 8.70639C12.8367 8.71983 12.8394 8.73327 12.8421 8.74672C12.8447 8.76823 12.8649 8.80588 12.9026 8.85966C12.9375 8.90806 12.998 8.93226 13.0841 8.93226C13.162 8.93226 13.2199 8.90403 13.2575 8.84756C13.2978 8.7884 13.318 8.72386 13.318 8.65395V6.58879H13.7052V8.65395C13.7052 8.71848 13.6985 8.78033 13.6851 8.83949C13.6716 8.89865 13.6488 8.95512 13.6165 9.0089H13.6165Z" fill="white"/>
  <path d="M15.282 8.60958C15.282 8.69563 15.2766 8.76958 15.2659 8.83143C15.2578 8.89327 15.2309 8.9605 15.1852 9.0331C15.161 9.07075 15.1301 9.10705 15.0924 9.142C15.0575 9.17427 15.0171 9.20385 14.9714 9.23074C14.9284 9.25494 14.8813 9.27511 14.8302 9.29125C14.7792 9.30738 14.7294 9.31545 14.681 9.31545C14.56 9.31545 14.4498 9.2899 14.3503 9.23881C14.2535 9.18772 14.1822 9.12318 14.1365 9.0452C14.0908 8.96722 14.0612 8.89462 14.0477 8.82739C14.037 8.76017 14.0316 8.68757 14.0316 8.60958V7.21802C14.0316 7.14273 14.0383 7.0755 14.0518 7.01634C14.0679 6.9545 14.1002 6.88862 14.1486 6.81871C14.197 6.74879 14.2655 6.68963 14.3543 6.64123C14.443 6.59014 14.5358 6.56459 14.6326 6.56459C14.8181 6.56459 14.9728 6.62644 15.0964 6.75013C15.2201 6.87114 15.282 7.0271 15.282 7.21802V7.36323H14.8988V7.21802C14.8988 7.14273 14.8773 7.07954 14.8343 7.02844C14.7939 6.97735 14.7334 6.95181 14.6528 6.95181C14.5775 6.95181 14.5183 6.97735 14.4753 7.02844C14.435 7.07954 14.4148 7.14273 14.4148 7.21802V8.71445C14.4202 8.75479 14.439 8.8005 14.4713 8.85159C14.5089 8.90537 14.5707 8.93226 14.6568 8.93226C14.7482 8.93226 14.8087 8.90806 14.8383 8.85966C14.8679 8.81126 14.8854 8.7763 14.8907 8.75479C14.8961 8.73059 14.8988 8.69832 14.8988 8.65798V8.52084H15.282L15.282 8.60958Z" fill="white"/>
  <path d="M15.4099 9.29124L16.0149 6.58879H16.3497L16.9547 9.29124H16.5393L16.4304 8.71042H15.9302L15.8173 9.29124H15.4099ZM15.9988 8.35144H16.3618L16.1803 7.36726L15.9988 8.35144Z" fill="white"/>
  <path d="M17.2791 9.29124V6.94778H16.8234V6.58879H18.1262V6.94778H17.6623V9.29124H17.2791Z" fill="white"/>
  <path d="M18.3334 9.29124V6.58879H18.7166V9.29124H18.3334Z" fill="white"/>
  <path d="M19.1825 6.84291C19.2444 6.75686 19.3223 6.68963 19.4165 6.64123C19.5133 6.59014 19.6128 6.56459 19.7149 6.56459C19.8144 6.56459 19.9072 6.58476 19.9932 6.62509C20.082 6.66543 20.1559 6.72056 20.2151 6.79047C20.2742 6.86038 20.3146 6.93299 20.3361 7.00828C20.3576 7.08088 20.3684 7.16021 20.3684 7.24626V8.62168C20.3684 8.70235 20.3603 8.77361 20.3442 8.83546C20.3307 8.8973 20.2985 8.96588 20.2474 9.04117C20.199 9.11646 20.1277 9.181 20.0336 9.23478C19.9422 9.28856 19.84 9.31545 19.727 9.31545C19.6625 9.31545 19.6007 9.30738 19.5415 9.29125C19.4823 9.27242 19.4272 9.24822 19.3761 9.21864C19.325 9.18906 19.2793 9.15545 19.239 9.1178C19.2013 9.08016 19.1718 9.04117 19.1502 9.00083C19.1099 8.91747 19.0857 8.85024 19.0776 8.79915C19.0696 8.74806 19.0656 8.68891 19.0656 8.62168V7.24626C19.0656 7.16559 19.0736 7.09433 19.0898 7.03248C19.1086 6.96794 19.1395 6.90476 19.1825 6.84291ZM19.9327 7.05668C19.8817 6.98139 19.8117 6.94374 19.723 6.94374C19.6773 6.94374 19.6316 6.95719 19.5859 6.98408C19.5428 7.00828 19.5119 7.03651 19.4931 7.06878C19.477 7.10105 19.4662 7.13332 19.4608 7.16558C19.4555 7.19785 19.4528 7.22475 19.4528 7.24626V8.62168C19.4528 8.63512 19.4528 8.64991 19.4528 8.66605C19.4528 8.67949 19.4541 8.69428 19.4568 8.71042C19.4595 8.73731 19.481 8.78168 19.5213 8.84353C19.5617 8.9 19.6289 8.92823 19.723 8.92823C19.7714 8.92823 19.8144 8.91747 19.8521 8.89596C19.8924 8.87176 19.9207 8.84487 19.9368 8.81529C19.9556 8.78302 19.9677 8.75344 19.9731 8.72655C19.9785 8.69966 19.9812 8.66471 19.9812 8.62168V7.24626C19.9812 7.19248 19.9785 7.15483 19.9731 7.13332C19.9704 7.11181 19.957 7.08626 19.9328 7.05668H19.9327Z" fill="white"/>
  <path d="M21.6399 9.29124L21.0389 7.64961V9.29124H20.6517V6.58879H21.0188L21.6157 8.2264V6.58879H22.003V9.29124H21.6399Z" fill="white"/>
  <path d="M5.16865 9.16822V8.18376H3.3252V7.31512L4.66676 2.70164H5.64157L4.2614 7.31512H5.16865V5.47166H6.09521V7.31512H6.54883V8.18376H6.09521V9.16822H5.16865Z" fill="white"/>
  <path fill-rule="evenodd" clip-rule="evenodd" d="M24.4083 12.9423C24.0797 12.944 23.7507 13.1242 23.7507 13.4774V14.4405H25.0654V13.4774C25.0654 13.1175 24.7369 12.9406 24.4083 12.9423ZM23.7507 14.8545V24.4811L24.4083 26.6381L25.0654 24.4811V14.8545H23.7507ZM8.5004 13.9239V24.5688L14.1414 26.3085V17.2049L8.5004 13.9239ZM14.0937 27.5239L7.26599 25.5936V14.3689L7.86004 13.9154V25.1553L14.2312 27.0141H14.7492L21.1204 25.1553V13.9154L21.7145 14.3689V25.5936L14.8868 27.5239H14.0937ZM20.4801 13.9239V24.5688L14.8391 26.3085V17.2049L20.4801 13.9239Z" fill="white"/>
</svg>
