<svg width="112" height="24" viewBox="0 0 112 24" fill="none" xmlns="http://www.w3.org/2000/svg">
  <path d="M43.3103 3.17285H40.1522V7.09058H37.7388V9.9474H40.1522V17.0465C40.1522 17.9888 40.3508 18.8233 40.7479 19.5501C41.1451 20.2769 41.7161 20.836 42.4608 21.2288C43.2055 21.6215 44.0743 21.8179 45.0673 21.8179H47.0035V18.931H45.6934C44.9583 18.931 44.3777 18.7197 43.9502 18.2983C43.5227 17.8769 43.3103 17.3015 43.3103 16.5747V9.9474H47.0049V7.09058H43.3103V3.17285Z" fill="#F4FAFF"/>
  <path d="M57.4294 6.91309H56.2379C55.165 6.91309 54.1968 7.13945 53.3335 7.59081C52.7019 7.92218 52.131 8.3749 51.6207 8.94763V7.09036H48.5233V21.8176H51.6814V13.8349C51.6814 13.0494 51.8648 12.3472 52.233 11.7294C52.5998 11.1104 53.0922 10.6344 53.7073 10.3004C54.3223 9.96627 54.9981 9.7999 55.7331 9.7999H57.4308V6.91309H57.4294Z" fill="#F4FAFF"/>
  <path d="M67.4526 7.45835C66.4693 6.99744 65.3233 6.76562 64.0118 6.76562C62.2838 6.76562 60.844 7.1679 59.6925 7.97381C58.541 8.77972 57.8459 9.87881 57.6073 11.2724H60.7944C60.993 10.7624 61.3557 10.3302 61.8811 9.97699C62.4066 9.62381 63.1071 9.44653 63.9815 9.44653C64.6558 9.44653 65.2516 9.56926 65.7688 9.81472C66.2846 10.0602 66.6817 10.3943 66.9603 10.8156C67.2375 11.2384 67.3768 11.7238 67.3768 12.2734V12.7452H62.6107C61.5184 12.7452 60.5558 12.947 59.7215 13.3493C58.8871 13.7515 58.2472 14.312 57.8004 15.0279C57.3536 15.7452 57.1302 16.5443 57.1302 17.4279C57.1302 18.3115 57.3729 19.1706 57.8597 19.8879C58.3465 20.6052 59.0209 21.1602 59.8856 21.5515C60.7503 21.9429 61.717 22.1406 62.7899 22.1406C63.8629 22.1406 64.8793 21.8952 65.7839 21.4043C66.4597 21.0374 67.0113 20.6038 67.4375 20.1034V21.8161H70.5349V12.3334C70.5349 11.2343 70.2674 10.262 69.7309 9.4179C69.1944 8.57381 68.4346 7.92063 67.4526 7.45972V7.45835ZM66.8417 17.6788C66.4845 18.2379 65.9784 18.6797 65.3219 19.0043C64.6669 19.3288 63.9222 19.4897 63.0878 19.4897C62.5114 19.4897 62.0149 19.397 61.5984 19.2102C61.1819 19.0234 60.8634 18.7738 60.6455 18.4588C60.4262 18.1452 60.3172 17.7811 60.3172 17.3693C60.3172 16.7024 60.56 16.1815 61.0468 15.8079C61.5336 15.4356 62.2135 15.2488 63.0878 15.2488H67.3768V15.8079C67.3768 16.4952 67.1975 17.1184 66.8403 17.6788H66.8417Z" fill="#F4FAFF"/>
  <path d="M83.6128 7.93076C82.3619 7.15485 80.9815 6.76758 79.4728 6.76758C78.0826 6.76758 76.8015 7.09621 75.6306 7.75485C74.4584 8.41349 73.5261 9.32576 72.8311 10.4944C72.136 11.663 71.7885 12.983 71.7885 14.4558C71.7885 15.9285 72.136 17.2499 72.8311 18.4171C73.5261 19.5858 74.4584 20.498 75.6306 21.1567C76.8028 21.8153 78.0826 22.1439 79.4728 22.1439C81.2008 22.1439 82.675 21.7171 83.8969 20.8621C85.1187 20.0085 86.0262 18.8549 86.622 17.4012H83.3756C83.097 17.8526 82.7743 18.2358 82.4075 18.5494C82.0392 18.863 81.6131 19.0989 81.1263 19.2558C80.6395 19.4126 80.0989 19.4917 79.5031 19.4917C78.5695 19.4917 77.7655 19.2858 77.0897 18.8726C76.4139 18.4608 75.8982 17.8717 75.541 17.1053C75.3231 16.6389 75.1728 16.1276 75.0873 15.5739H86.9502C87.2274 13.9444 87.055 12.4567 86.4289 11.1121C85.8028 9.76758 84.865 8.70667 83.6142 7.93076H83.6128ZM77.0897 10.0362C77.7641 9.6244 78.5598 9.41712 79.4728 9.41712C80.3857 9.41712 81.1111 9.60394 81.7662 9.97621C82.4213 10.3499 82.9274 10.8653 83.2859 11.5226C83.5328 11.978 83.6983 12.4744 83.7838 13.0103H75.141C75.2307 12.5699 75.3631 12.1621 75.541 11.7885C75.8982 11.033 76.4139 10.448 77.0897 10.0362Z" fill="#F4FAFF"/>
  <path d="M99.2062 7.60563C98.2822 7.04653 97.2258 6.76562 96.0342 6.76562C95.3585 6.76562 94.7131 6.86381 94.098 7.06017C93.4829 7.25653 92.9106 7.55653 92.3852 7.95881C92.0721 8.19744 91.7798 8.47426 91.5067 8.78517V7.09017H88.4093V21.8174H91.5674V13.5402C91.5674 12.7943 91.7356 12.1261 92.0735 11.537C92.4114 10.9479 92.8679 10.487 93.4443 10.1529C94.0194 9.81881 94.6662 9.65244 95.3806 9.65244C96.0949 9.65244 96.7555 9.81472 97.3016 10.1379C97.8477 10.4624 98.2601 10.9179 98.5373 11.507C98.8159 12.0961 98.9538 12.7738 98.9538 13.5388V21.8161H102.112V13.157C102.112 11.9597 101.858 10.8743 101.352 9.90199C100.846 8.92972 100.13 8.16472 99.2075 7.60426L99.2062 7.60563Z" fill="#F4FAFF"/>
  <path d="M112 9.9474V7.09058H108.307V3.17285H105.149V7.09058H102.735V9.9474H105.149V17.0465C105.149 17.9888 105.347 18.8233 105.744 19.5501C106.142 20.2769 106.713 20.836 107.457 21.2288C108.202 21.6215 109.071 21.8179 110.064 21.8179H112V18.931H110.69C109.955 18.931 109.374 18.7197 108.947 18.2983C108.519 17.8769 108.307 17.3015 108.307 16.5747V9.9474H112Z" fill="#F4FAFF"/>
  <path d="M20.1818 0V4.36364C15.8182 4.36364 15.8182 9.81818 15.8182 9.81818V14.1818C15.8182 17.4545 14.4218 24 7.09091 24V19.6364C11.4545 19.6364 11.4545 14.1818 11.4545 14.1818V9.81818C11.4545 6.54545 12.8509 0 20.1818 0Z" fill="url(#paint0_radial_298_8584)"/>
  <path d="M12.0436 1.40727C11.0618 2.58545 10.3527 3.98182 9.89455 5.48727C9.63273 5.21455 9.32728 4.97318 8.96728 4.78909C8.95637 4.78909 8.94546 4.77818 8.93591 4.77818C8.81591 4.71273 8.69455 4.65818 8.56364 4.61455C8.45455 4.57091 8.33455 4.52727 8.20364 4.49454C8.01819 4.45091 7.83273 4.41818 7.62682 4.39636C7.45228 4.37455 7.27773 4.36364 7.09228 4.36364H2.18182V0H7.09091C7.32 0 7.53819 0.0109091 7.75637 0.0218182C7.97319 0.0340909 8.19273 0.0545454 8.4 0.0777273C8.59637 0.0995454 8.79137 0.132273 8.97819 0.165C9.76364 0.306818 10.4509 0.525 11.0727 0.829091C11.4205 0.992727 11.7368 1.18909 12.0436 1.40727Z" fill="#2859E9"/>
  <path d="M15.2291 22.5927C16.2109 21.4145 16.92 20.0182 17.3782 18.5127C17.64 18.7854 17.9455 19.0268 18.3055 19.2122C18.3164 19.2122 18.3273 19.2232 18.3368 19.2232C18.4568 19.2886 18.5782 19.3432 18.7091 19.3868C18.8182 19.4304 18.9382 19.4741 19.0691 19.5068C19.2545 19.5504 19.44 19.5832 19.6459 19.605C19.8205 19.6268 19.995 19.6377 20.1805 19.6377H25.0895V24.0013H20.1805C19.9514 24.0013 19.7332 23.9904 19.515 23.9795C19.2982 23.9672 19.0786 23.9468 18.8714 23.9236C18.675 23.9018 18.48 23.8691 18.2932 23.8363C17.5077 23.6945 16.8205 23.4763 16.1986 23.1709C15.8509 23.0072 15.5345 22.8109 15.2277 22.5927H15.2291Z" fill="#2859E9"/>
  <path d="M27.2727 7.09091C27.2727 10.3636 24.5455 14.1818 20.1818 14.1818H7.14545C4.90909 14.1818 4.36364 15.8182 4.36364 16.9091C4.36364 18 4.90909 19.6364 7.09091 19.6364V24C2.72727 24 0 20.1818 0 16.9091C0 13.6364 2.72727 9.81818 7.09091 9.81818H20.1273C22.3636 9.81818 22.9091 8.18182 22.9091 7.09091C22.9091 6 22.3636 4.36364 20.1818 4.36364V0C24.5455 0 27.2727 3.81818 27.2727 7.09091Z" fill="#2859E9"/>
  <defs>
    <radialGradient id="paint0_radial_298_8584" cx="0" cy="0" r="1" gradientUnits="userSpaceOnUse" gradientTransform="translate(13.6364 12) scale(6.36409)">
      <stop offset="0.02" stop-color="#0014A5"/>
      <stop offset="1" stop-color="#2859E9"/>
    </radialGradient>
  </defs>
</svg>
