<svg width="120" height="24" viewBox="0 0 120 24" fill="none" xmlns="http://www.w3.org/2000/svg">
  <g clip-path="url(#clip0_298_8577)">
    <path d="M22.0745 23.9997C19.236 23.9997 15.9702 22.8883 12.6065 19.5052C6.20216 13.0732 0.785541 12.0993 0.731079 12.092L0.924925 10.915C1.15754 10.9566 6.76523 11.9627 13.4326 18.6597C19.7677 25.0243 25.6745 22.627 28.6348 20.6332C31.7612 18.5295 37.1898 11.9978 37.536 11.3184L38.5985 11.8298C38.1886 12.7123 32.4314 19.5006 29.2809 21.6273C27.6102 22.7526 25.08 23.9997 22.0745 23.9997Z" fill="#045099"/>
    <path d="M28.5619 16.4491H28.3219C25.1465 16.3817 22.3246 14.4847 18.7652 12.0847C17.3216 11.1063 15.6692 9.99675 13.8388 8.90936C8.08432 5.49029 1.00986 11.9352 0.941551 11.9998L0.147705 11.1174C0.461551 10.8229 7.92555 4.01521 14.4305 7.8829C16.2905 8.98598 17.9511 10.1038 19.4151 11.0915C22.8157 13.3863 25.5037 15.2094 28.3449 15.2592C32.0991 15.3386 35.6096 13.2007 37.6569 11.1423L38.4803 11.998C37.4206 13.0595 33.6092 16.4509 28.5619 16.4509V16.4491Z" fill="#0E80C0"/>
    <path d="M7.57105 13.6856C5.12757 13.7077 2.7151 13.1376 0.539978 12.0241L1.11782 10.9764C1.18059 11.0151 7.59967 14.5616 14.9307 10.5471L15.9064 9.99975C22.9311 6.14129 25.296 4.8416 32.4221 7.50006H32.4544C34.458 8.40429 36.3686 9.50179 38.1591 10.777L37.4723 11.7647C35.7468 10.5462 33.91 9.49357 31.9864 8.62067C25.3864 6.17637 23.316 7.30067 16.4584 11.0622L15.48 11.6004C13.0634 12.9555 10.3416 13.6731 7.57105 13.6856Z" fill="#53C1AF"/>
    <path d="M2.4647 12.3526C1.81442 12.364 1.16489 12.303 0.528089 12.1708C0.439839 12.1497 0.356709 12.1112 0.283617 12.0574C0.210524 12.0037 0.148955 11.9358 0.10255 11.8578C0.00790467 11.7002 -0.0217997 11.512 0.0197063 11.3329C0.0612123 11.1538 0.170682 10.9978 0.325012 10.8978C0.401097 10.8498 0.486026 10.8174 0.5748 10.8027C0.663575 10.788 0.754401 10.7911 0.841935 10.812C0.937935 10.8323 6.7644 12.0914 13.1549 6.26769C17.8782 2.05846 21.3924 0 23.8893 0H24.0767C28.6016 0 33.0675 3.42369 38.5598 11.0862C38.6543 11.2366 38.6889 11.4171 38.657 11.5919C38.625 11.7666 38.5288 11.9231 38.3872 12.0305C38.2459 12.1359 38.0692 12.1821 37.8945 12.1593C37.7197 12.1366 37.5607 12.0467 37.4512 11.9086C30.7072 2.49692 26.5875 1.40031 24.0721 1.40031H24.0315C22.5878 1.332 19.6746 2.30862 14.0641 7.32369C9.33147 11.6382 4.90809 12.3526 2.46563 12.3526H2.4647Z" fill="#39A9DC"/>
    <path d="M46.776 4.32031C47.1379 4.32031 47.484 4.46801 47.7397 4.72739C47.9954 4.98874 48.1388 5.33967 48.1393 5.70529C48.1398 6.0709 47.9974 6.42224 47.7425 6.68431C47.4886 6.94278 47.1434 7.08862 46.7843 7.08862C46.4252 7.08862 46.0809 6.94278 45.8271 6.68431C45.5732 6.42338 45.4309 6.07389 45.4302 5.70983C45.4295 5.34578 45.5705 4.99574 45.8234 4.73385C45.9471 4.60563 46.095 4.50317 46.2585 4.43235C46.422 4.36153 46.5979 4.32377 46.776 4.32124V4.32031ZM45.7542 17.7271V8.82401H47.8154V17.7271H45.7542ZM49.9514 17.7271V4.49108H52.0302V17.7271H49.9514ZM54.1874 17.7271V4.49108H56.2689V17.7271H54.1874ZM61.5729 17.9819C59.4942 17.9819 58.2757 16.4126 58.2757 14.4529V8.82493H60.3462V14.0569C60.3462 15.1517 60.8483 16.084 62.1046 16.084C63.3055 16.084 63.9323 15.2625 63.9323 14.0929V8.82308H66.0111V16.0997C66.0111 16.6425 66.0416 17.1862 66.1006 17.7262H64.1114C64.0639 17.3991 64.0399 17.069 64.0394 16.7385C63.6175 17.5434 62.5957 17.9819 61.5729 17.9819ZM67.8129 17.7271V8.82401H69.8031V9.95662C70.3052 9.04185 71.4 8.56831 72.384 8.56831C73.5388 8.56831 74.5348 9.09724 75.0028 10.1385C75.684 8.96247 76.7068 8.56831 77.8357 8.56831C79.4114 8.56831 80.9188 9.59108 80.9188 11.9468V17.7271H78.8972V12.3031C78.8972 11.2619 78.3785 10.4772 77.2145 10.4772C76.1206 10.4772 75.4016 11.3588 75.4016 12.4471V17.7419H73.3597V12.3031C73.3597 11.2794 72.8576 10.4772 71.6742 10.4772C70.5619 10.4772 69.8631 11.3154 69.8631 12.4471V17.7419L67.8139 17.7271H67.8129ZM83.9474 4.32031C84.1271 4.32014 84.305 4.35609 84.4706 4.42602C84.6361 4.49595 84.7859 4.59844 84.9111 4.72739C85.1689 4.98911 85.3125 5.34221 85.3108 5.70954C85.3089 5.98093 85.2277 6.24678 85.0791 6.47201C84.9304 6.69665 84.7184 6.87206 84.4699 6.97601C84.2229 7.07989 83.9503 7.10683 83.6878 7.05331C83.4253 6.99978 83.1851 6.86828 82.9985 6.67601C82.8097 6.4814 82.6813 6.23624 82.6288 5.9702C82.5764 5.70416 82.6022 5.42862 82.7031 5.17693C82.8037 4.92592 82.9762 4.71016 83.1988 4.55662C83.4189 4.40461 83.6799 4.32257 83.9474 4.32124V4.32031ZM82.9256 17.7271V8.82401H84.9877V17.7271H82.9256ZM89.2209 17.7271H87.1412V8.82401H89.1628V10C89.4246 9.54753 89.8034 9.17385 90.2594 8.91816C90.7119 8.66446 91.2252 8.53934 91.7437 8.55631C93.8751 8.55631 94.8969 10.1265 94.8969 12.0852V17.7271H92.8182V12.4683C92.8182 11.3708 92.3326 10.4948 91.0256 10.4948C89.8412 10.4948 89.2145 11.4271 89.2145 12.5948L89.2209 17.7271ZM104.977 15.1886C104.509 16.7394 103.129 18.0003 101.033 18.0003C98.6649 18.0003 96.5686 16.2354 96.5686 13.2326C96.5686 10.4209 98.6132 8.55908 100.817 8.55908C103.507 8.55908 105.084 10.3683 105.084 13.18C105.091 13.406 105.073 13.6321 105.029 13.8539H98.6474C98.6631 14.4834 98.9225 15.0815 99.3692 15.5163C99.5888 15.7312 99.849 15.9002 100.135 16.0135C100.42 16.1268 100.725 16.1822 101.033 16.1763C102.286 16.1763 102.932 15.5006 103.218 14.6237L104.977 15.1886ZM102.985 12.3031C102.95 11.2619 102.269 10.3295 100.833 10.3295C100.296 10.3188 99.7756 10.5174 99.3822 10.8834C98.9852 11.2508 98.7425 11.7594 98.7028 12.3031H102.985ZM106.894 17.7271V8.82401H108.883V9.95662C109.386 9.04185 110.48 8.56831 111.464 8.56831C112.62 8.56831 113.616 9.09724 114.083 10.1385C114.765 8.96247 115.784 8.56831 116.916 8.56831C118.493 8.56831 120 9.59108 120 11.9468V17.7271H117.978V12.3031C117.978 11.2619 117.459 10.4772 116.296 10.4772C115.201 10.4772 114.482 11.3588 114.482 12.4471V17.7419H112.441V12.3031C112.441 11.2794 111.938 10.4772 110.754 10.4772C109.643 10.4772 108.944 11.3154 108.944 12.4471V17.7419L106.894 17.7271Z" fill="white"/>
  </g>
  <defs>
    <clipPath id="clip0_298_8577">
      <rect width="120" height="24" fill="white"/>
    </clipPath>
  </defs>
</svg>
