<svg width="19" height="16" viewBox="0 0 19 16" fill="none" xmlns="http://www.w3.org/2000/svg">
  <g clip-path="url(#clip0_298_2222)">
    <path d="M13.4546 0V2.90909C10.5455 2.90909 10.5455 6.54545 10.5455 6.54545V9.45455C10.5455 11.6364 9.61457 16 4.72729 16V13.0909C7.63639 13.0909 7.63639 9.45455 7.63639 9.45455V6.54545C7.63639 4.36364 8.56729 0 13.4546 0Z" fill="#F4FAFF"/>
    <path d="M13.4546 0V2.90909C10.5455 2.90909 10.5455 6.54545 10.5455 6.54545V9.45455C10.5455 11.6364 9.61457 16 4.72729 16V13.0909C7.63639 13.0909 7.63639 9.45455 7.63639 9.45455V6.54545C7.63639 4.36364 8.56729 0 13.4546 0Z" fill="url(#paint0_radial_298_2222)"/>
    <path d="M8.02907 0.938182C7.37453 1.72364 6.9018 2.65455 6.59635 3.65818C6.4218 3.47636 6.21817 3.31636 5.97817 3.19273C5.97817 3.19273 5.96362 3.19273 5.95635 3.19273C5.87635 3.14909 5.79635 3.11273 5.70907 3.08364C5.63635 3.05455 5.55635 3.02545 5.46907 3.00364C5.34544 2.97455 5.2218 2.95273 5.08362 2.93818C4.96726 2.92364 4.85089 2.91636 4.72726 2.91636H1.45453V0H4.72726C4.87998 0 5.02544 0 5.17089 0.0145455C5.31635 0.0218182 5.4618 0.0363636 5.59998 0.0509091C5.73089 0.0654545 5.8618 0.0872727 5.98544 0.109091C6.50907 0.203636 6.96726 0.349091 7.3818 0.552727C7.61453 0.661818 7.82544 0.792727 8.02907 0.938182Z" fill="#F4FAFF"/>
    <path d="M10.1527 15.0618C10.8073 14.2763 11.28 13.3454 11.5854 12.3418C11.76 12.5236 11.9636 12.6836 12.2036 12.8073C12.2036 12.8073 12.2182 12.8073 12.2254 12.8073C12.3054 12.8509 12.3854 12.8873 12.4727 12.9163C12.5454 12.9454 12.6254 12.9745 12.7127 12.9963C12.8363 13.0254 12.96 13.0473 13.0982 13.0618C13.2145 13.0763 13.3309 13.0836 13.4545 13.0836H16.7273V15.9927H13.4545C13.3018 15.9927 13.1563 15.9927 13.0109 15.9782C12.8654 15.9709 12.72 15.9563 12.5818 15.9418C12.4509 15.9273 12.32 15.9054 12.1963 15.8836C11.6727 15.7891 11.2145 15.6436 10.8 15.44C10.5673 15.3309 10.3563 15.2 10.1527 15.0545V15.0618Z" fill="#F4FAFF"/>
    <path d="M18.1818 4.72727C18.1818 6.90909 16.3636 9.45455 13.4545 9.45455H4.76364C3.27273 9.45455 2.90909 10.5455 2.90909 11.2727C2.90909 12 3.27273 13.0909 4.72727 13.0909V16C1.81818 16 0 13.4545 0 11.2727C0 9.09091 1.81818 6.54545 4.72727 6.54545H13.4182C14.9091 6.54545 15.2727 5.45455 15.2727 4.72727C15.2727 4 14.9091 2.90909 13.4545 2.90909V0C16.3636 0 18.1818 2.54545 18.1818 4.72727Z" fill="#F4FAFF"/>
  </g>
  <defs>
    <radialGradient id="paint0_radial_298_2222" cx="0" cy="0" r="1" gradientUnits="userSpaceOnUse" gradientTransform="translate(9.09093 8) scale(4.24)">
      <stop offset="0.02" stop-color="#9BA7B0"/>
      <stop offset="1" stop-color="#F4FAFF"/>
    </radialGradient>
    <clipPath id="clip0_298_2222">
      <rect width="18.1818" height="16" fill="white"/>
    </clipPath>
  </defs>
</svg>
