<svg width="55" height="46" viewBox="0 0 55 46" fill="none" xmlns="http://www.w3.org/2000/svg">
  <path d="M27.4941 0C24.3686 0 21.42 0.732732 18.8017 2.03538L19.014 2.44247C21.538 1.18634 24.345 0.500114 27.2582 0.465224V3.91957C24.8876 3.95448 22.6348 4.52437 20.6416 5.50136L20.8539 5.90844C22.8236 4.94308 25.0055 4.41969 27.2582 4.3848V7.51348C25.4891 7.54839 23.8261 7.96708 22.3282 8.68819C21.2077 9.22321 20.1934 9.93268 19.3088 10.7701L17.0679 8.54862C18.2002 7.46696 19.4857 6.58302 20.8657 5.90844L20.6534 5.50136C19.2145 6.21084 17.8935 7.12967 16.7495 8.22296L14.2608 5.76886C15.688 4.39643 17.292 3.27988 19.0258 2.4192L18.8135 2.01212C15.0275 3.88468 11.9491 6.94357 10.0738 10.6887C8.80004 13.2358 8.0688 16.1086 8.0688 19.1443C8.0688 21.0052 8.34007 22.8196 8.84723 24.541L9.3072 24.4246C8.82364 22.7963 8.56416 21.0982 8.54057 19.3653H12.0317C12.0553 20.8075 12.2794 22.2264 12.6922 23.5756L13.1522 23.4593C12.7512 22.145 12.5271 20.7726 12.5035 19.3536H15.6762C15.688 19.8189 15.7234 20.2724 15.7823 20.7144C15.5582 20.7377 15.3577 20.8075 15.3577 20.8075L15.2634 21.1215C15.0511 21.1564 14.9095 21.517 14.9095 21.517C14.7326 21.5751 14.5911 21.7961 14.6501 21.8542C14.709 21.9124 14.5557 21.9356 14.5557 21.9356V22.366L14.4613 22.5056L14.485 22.9708C14.6029 22.9708 14.5793 23.1918 14.5793 23.1918C14.3788 23.215 14.426 23.4709 14.426 23.4709L14.0132 23.6105L13.9306 23.7268L13.4235 23.7035L13.2819 23.8431C13.2347 23.7151 13.1994 23.5872 13.1522 23.4593L12.6922 23.5756C12.704 23.6221 12.7158 23.6686 12.7394 23.7151H12.1615L12.1261 23.6221L11.9256 23.5872L11.902 23.3662L11.6071 23.3895L11.5481 23.5058L11.2297 23.5291C11.2533 23.7268 10.9112 24.0175 10.8759 23.9361C10.8405 23.8547 10.6164 23.6454 10.7225 23.5988C10.8169 23.5639 11.0764 23.5174 11.0764 23.5174V23.3778L10.3451 23.3546L10.2626 23.4709L9.9677 23.4942V23.8082L9.82617 23.8431C9.73182 23.9012 9.84978 24.1222 9.84978 24.1222C9.9913 24.2618 9.82617 24.4712 9.82617 24.4712C9.70822 24.5875 9.92053 24.8085 9.92053 24.8085C10.0738 24.8434 9.82617 24.9597 9.82617 24.9597C9.86157 25.1574 9.9795 25.2155 9.9795 25.2155C9.86155 25.4133 10.0621 25.5063 10.0621 25.5063L10.0857 25.8436L10.2272 25.925V26.146L10.3097 26.2856H10.6282L10.6164 25.8203C10.3451 25.5063 10.8523 25.4249 10.8759 25.5412C10.8995 25.6575 11.1118 25.7156 11.1118 25.7156C11.1472 26.0064 11.4892 26.1809 11.5835 25.8901C11.6779 25.5993 11.7605 25.7738 11.8194 25.9134C11.8784 26.053 12.2558 26.3902 12.2558 26.3902H12.5507L12.5861 26.6694C12.9163 26.6461 13.0225 26.6927 13.1522 27.1346C13.2937 27.5882 13.6594 27.7045 13.6594 27.7045L13.9306 27.6813C13.9306 27.4486 14.2019 27.7162 14.2019 27.8441C14.2019 27.9604 14.7327 28.414 14.7327 28.414L15.2634 28.5303L15.3578 28.6117C15.688 29.0188 16.03 29.4026 16.3957 29.7864L13.9188 32.2289C11.7251 30.0074 10.1682 27.3207 9.30723 24.4246L8.84725 24.5409C9.75541 27.5882 11.4066 30.4145 13.7419 32.729C15.3224 34.2875 17.1387 35.5553 19.1084 36.4741L19.3442 36.0671C17.4807 35.1947 15.7705 34.02 14.2491 32.5546L16.7259 30.1121C18.0115 31.345 19.4858 32.3336 21.0662 33.043L21.3021 32.636C19.7452 31.9381 18.3181 30.9844 17.0561 29.7864L17.5161 29.3328C17.5397 29.3794 17.5633 29.4259 17.5633 29.4957C17.5987 29.7864 17.7402 29.7283 17.7402 29.7283L18.8607 29.705L19.2499 29.3677L20.2524 29.3444C20.7596 29.3212 20.4529 28.6349 20.3468 28.6349C20.2878 28.5884 20.276 28.4954 20.2878 28.3907C21.0898 28.9955 21.9508 29.4956 22.859 29.8794L23.0949 29.4724C22.0452 29.042 21.0545 28.4372 20.1699 27.7045L19.6391 27.216L22.1042 24.7852C22.9062 25.5295 23.8261 26.0878 24.8287 26.4367C25.0999 26.5298 25.383 26.6112 25.6661 26.681C25.6189 26.7275 25.5953 26.7624 25.6071 26.7857C25.6425 26.8787 25.4537 26.9834 25.4537 26.9834L25.2768 27.0415L25.1589 27.216L24.923 27.2974L24.8876 27.7045L24.7697 27.7859V27.9604L24.6281 27.9953V28.0883L24.4276 28.1116L24.5456 28.4024L24.6989 28.4838C24.9702 28.5187 24.8522 28.856 24.8522 28.856L25.0056 28.8792L25.0881 29.1002L25.2414 29.4143C25.3004 29.6469 25.4773 29.5887 25.5599 29.5771C25.6424 29.5538 25.7132 29.8097 25.7132 29.8097L26.4916 29.833C26.4916 29.833 26.4562 29.9144 26.586 29.9493C26.6568 29.9726 26.9634 29.9958 27.2347 29.9958V30.3448C25.784 30.3215 24.3922 30.0075 23.0949 29.4724L22.859 29.8795C24.2271 30.4494 25.7014 30.7867 27.2347 30.81V33.9387C25.1471 33.9038 23.1302 33.4502 21.2785 32.6244L21.0426 33.0315C22.9651 33.8921 25.0645 34.369 27.2347 34.4039V37.8582C24.4512 37.8233 21.7621 37.2069 19.3207 36.0555L19.0848 36.4625C21.6678 37.6838 24.522 38.3235 27.4706 38.3235C30.5607 38.3235 33.5447 37.614 36.2338 36.2765C38.0501 35.3693 39.7367 34.1713 41.2228 32.7174C42.7797 31.1822 44.0417 29.4259 44.9734 27.5301C46.2354 24.9597 46.9077 22.1102 46.9077 19.1676C46.9077 16.6669 46.4242 14.2361 45.4924 11.9797C44.5253 9.63032 43.0863 7.467 41.211 5.61771C39.3239 3.75678 37.1302 2.33782 34.7241 1.3841C32.4714 0.476898 30.0182 4.0727e-05 27.4942 4.0727e-05L27.4941 0ZM27.73 0.465224C30.1125 0.488499 32.436 0.953721 34.5826 1.8144C36.8471 2.70997 38.9347 4.04751 40.7392 5.7805L38.6398 7.85077C38.5691 7.87405 38.4865 7.87405 38.4393 7.85077C38.2978 7.79263 38.4983 7.65305 38.4983 7.65305V7.50185L38.3803 7.38554C38.3803 7.38554 38.0501 7.42045 38.0265 7.36227C38.0029 7.30412 37.944 7.04824 37.944 7.04824L37.9204 6.71095L37.7788 6.65279L37.7552 6.53648L37.5429 6.55975V6.32714L37.425 6.29223L37.307 6.23408L37.2834 6.00146L36.847 5.97818L36.7055 5.78046L36.5522 5.54785L36.0568 5.51294L35.9389 5.39663L35.7384 5.36172L35.5968 5.30357L35.5378 5.39661L35.1604 5.41988L35.1368 5.53619C35.0189 5.59435 34.7004 5.59435 34.4528 5.59435C34.0635 5.39662 33.6979 5.19889 33.2969 5.03606L33.1318 5.46641C33.462 5.59435 33.7333 5.75718 34.0517 5.92001C34.0281 5.98979 34.0045 6.03631 33.9574 6.03631C33.863 6.03631 33.8984 6.29219 33.8984 6.29219C33.8984 6.29219 34.1579 6.29219 34.2287 6.31547C34.3112 6.33874 34.3112 6.53645 34.3112 6.53645C34.6061 6.51318 34.724 6.90864 34.6886 7.01332C34.6532 7.10636 34.8066 7.10636 34.8066 7.10636C34.8066 7.10636 34.8066 7.42039 34.7712 7.5018C34.7358 7.58322 35.0307 7.64138 35.1014 7.75769C35.184 7.874 35.066 8.26944 35.0071 8.2927C34.9481 8.31597 35.1604 8.37411 35.1486 8.46716C35.125 8.56021 35.2076 8.46716 35.2312 8.62999C35.2548 8.78119 35.2901 9.11849 35.2901 9.11849L35.5614 9.14176C35.5968 8.88588 36.1039 8.87425 36.1865 8.90914C36.5168 9.02544 36.7762 9.5372 36.7762 9.65351C36.7762 9.76982 36.5639 9.79308 36.5639 9.79308L36.5757 9.92103L35.8917 10.5956C35.8209 10.5491 35.7501 10.5258 35.7147 10.5607C35.6204 10.6189 35.6558 10.1536 35.6558 10.1536C35.6558 10.1536 35.8327 10.0373 35.9152 10.0955C35.9978 10.1536 35.2548 9.11849 35.0896 9.21153C34.9363 9.30457 34.5825 9.11849 34.5943 8.93239C34.6179 8.75793 33.8866 8.16475 33.8866 8.16475C33.8866 8.16475 33.6507 8.01356 33.6153 8.12984C33.5799 8.24615 33.4974 8.32757 33.6153 8.38572C33.7333 8.44388 33.7097 8.29267 33.8512 8.42063C33.9928 8.5602 34.2404 8.73466 34.1461 8.85097C34.0517 8.96728 33.9338 9.00217 33.9338 9.00217L34.0753 9.165H34.2876L34.323 9.50229C34.323 9.50229 34.5589 9.6186 34.6179 9.75817C34.6533 9.85122 34.6651 9.90937 34.6533 9.96752C34.2169 9.64186 33.7569 9.33946 33.2851 9.07195C33.2851 9.03704 33.2969 9.00216 33.2851 8.96727C33.2497 8.8277 33.4385 8.76955 33.5446 8.93236L33.7451 8.90909L33.7805 8.73463L33.5093 8.51365H33.297C33.297 8.51365 33.2734 8.66485 33.1436 8.6067C33.0021 8.54854 33.0847 8.57178 32.9667 8.54854C32.8606 8.52527 32.8842 8.74627 32.9077 8.85094C32.6011 8.69975 32.2944 8.56017 31.976 8.43223C30.6432 7.89722 29.2161 7.59481 27.73 7.57155V5.79205C27.8597 5.79205 27.9187 5.7455 27.9305 5.699C27.9541 5.61759 27.9659 5.60595 28.0838 5.58269C28.2018 5.55941 28.0602 5.32681 27.9423 5.35007C27.8597 5.36171 27.7772 5.33843 27.73 5.28029V4.38472C29.6171 4.40799 31.4334 4.78017 33.1318 5.46638L33.297 5.03604C31.5514 4.3382 29.6643 3.95438 27.7182 3.93112L27.73 0.465224ZM31.0089 1.29101L30.8201 1.40732L30.6904 1.3259L30.6314 1.43058L30.7848 1.52363L30.8202 1.5469L30.8556 1.52363L31.0679 1.38406L31.0089 1.29101ZM31.9052 1.75624L31.7519 1.88418L31.6575 1.77951L31.575 1.86092L31.7165 2.00049L31.7519 2.0354L31.7873 2.00049L31.9878 1.84929L31.9052 1.75624ZM12.9988 1.86092C11.0528 2.60529 8.95337 3.37292 7.69137 5.35016C6.94833 6.50161 6.84218 7.87404 6.26426 9.06037C7.34934 8.06012 8.59954 7.31575 9.51951 6.12942C10.6164 4.69883 11.5717 3.09379 12.9988 1.86092ZM41.9776 1.86092C43.4047 3.10541 44.3719 4.69883 45.4688 6.12942C46.3887 7.32739 47.6389 8.06012 48.724 9.06037C48.1461 7.8624 48.0281 6.50161 47.2969 5.35016C46.0231 3.37292 43.9355 2.60529 41.9776 1.86092ZM30.4899 2.10517C30.4073 2.11681 30.3248 2.15172 30.313 2.18658C30.2894 2.268 30.1714 2.27963 30.1714 2.27963L29.7233 2.31454C29.6879 2.43085 29.452 2.51227 29.4284 2.43085C29.3812 2.25639 29.1336 2.65183 29.393 2.72162C29.6525 2.80304 29.9002 2.72162 29.9002 2.72162L29.9591 2.60531L30.9381 2.62859C31.0206 2.54718 31.056 2.43087 31.056 2.43087C31.056 2.43087 31.2919 2.34945 31.3863 2.39596C31.4806 2.43087 31.4099 2.11682 31.3037 2.16334C31.2093 2.19825 31.0088 2.18661 31.0088 2.18661H30.655C30.655 2.11683 30.5724 2.09357 30.4899 2.1052L30.4899 2.10517ZM28.8033 2.50062L28.5438 2.59366L28.2726 2.76812L27.9777 2.80303L27.8244 2.97749L28.4495 3.03565L28.5674 3.23337L29.0156 3.26829L29.3105 3.55905C29.5699 3.64047 29.6289 3.52414 29.4638 3.38459L29.2043 3.12871V2.90773L29.1217 2.82632L29.0392 2.54717L28.8033 2.50062ZM7.73855 4.47784C6.74783 4.73373 5.91043 5.36179 5.16738 6.17594C3.61052 7.88567 3.74026 10.3979 3.95256 12.6427C4.01153 13.3405 3.97616 13.922 3.90535 14.6315C4.37713 13.6778 5.14376 12.7706 6.06372 12.096C8.09236 10.584 10.3097 8.63004 10.3451 6.07127C9.6728 7.92056 7.63237 8.68819 6.27602 9.94431C5.55656 10.6073 5.00223 11.4098 4.68378 12.2472L4.63658 12.2123C4.8017 11.4679 5.12015 10.805 5.34424 10.0839C5.91037 8.11826 5.80422 5.78047 7.7385 4.47782L7.73855 4.47784ZM47.2497 4.47784C49.1722 5.7805 49.066 8.11828 49.6558 10.0839C49.8681 10.7934 50.1865 11.468 50.3634 12.2123L50.3162 12.2472C49.9978 11.4098 49.4434 10.6073 48.724 9.94434C47.3676 8.67658 45.3272 7.92058 44.6549 6.07129C44.6903 8.64169 46.9076 10.5957 48.9363 12.096C49.8444 12.7706 50.6229 13.6778 51.0947 14.6315C51.0121 13.9221 50.9767 13.3289 51.0474 12.6427C51.2597 10.3979 51.3895 7.88569 49.8326 6.17597C49.0778 5.36181 48.2404 4.72212 47.2497 4.47787L47.2497 4.47784ZM36.5994 4.86166C36.4461 4.86166 36.2102 4.96634 36.2338 5.08265C36.2574 5.17569 36.3281 5.28037 36.4932 5.31527L36.7881 5.40831C36.7881 5.40831 37.1537 5.83865 37.1419 5.6293C37.1065 5.03613 36.8235 5.02449 36.7291 4.90819C36.7055 4.88491 36.6584 4.86163 36.5994 4.86163V4.86166ZM30.4545 5.10591L30.372 5.28037L30.4781 5.32692L30.5607 5.15245L30.4545 5.10591ZM30.8201 5.292C30.8083 5.28036 30.7022 5.43158 30.6196 5.4781C30.714 5.52465 30.8437 5.59441 30.8437 5.59441C30.9971 5.59441 31.1032 5.71071 31.1032 5.76886C31.1032 5.82701 31.3155 5.80378 31.3155 5.80378L31.3391 5.66421L31.1858 5.46649L31.0442 5.37344C31.0442 5.38508 30.8202 5.3618 30.8202 5.29202L30.8201 5.292ZM30.6196 5.4781C30.5253 5.43155 30.4663 5.40831 30.5724 5.4781C30.5842 5.48974 30.6078 5.48974 30.6196 5.4781ZM29.9709 5.41994L29.9592 5.53625L30.1243 5.54788L30.2422 5.73398L30.3366 5.67582L30.195 5.45484L30.1832 5.43156H30.1596C30.1596 5.4432 29.9709 5.41993 29.9709 5.41993L29.9709 5.41994ZM25.4419 5.90844C25.3358 5.90844 25.2414 5.93171 25.2414 5.96658C25.265 6.05963 25.4183 6.18758 25.4183 6.18758C25.4183 6.18758 25.7132 6.21085 25.7368 6.26899C25.7604 6.32714 25.9491 6.3504 25.9727 6.29226C25.9963 6.2341 26.067 6.1178 25.8901 6.1178C25.7132 6.1178 25.7486 6.02475 25.6896 5.95497C25.6542 5.92005 25.5481 5.90842 25.4419 5.90842V5.90844ZM41.0695 6.10616C42.8268 7.87404 44.1714 9.93268 45.0913 12.1658C45.9641 14.2942 46.4359 16.5855 46.4595 18.9349H42.9566C42.933 17.0507 42.5556 15.2247 41.8715 13.5266C41.7771 13.2823 41.671 13.0381 41.553 12.7939C41.5884 12.6892 41.6474 12.5845 41.7771 12.6194C41.9776 12.6776 41.8361 12.1891 41.8361 12.1891C41.8361 12.1891 41.5648 11.9913 41.5766 11.8983C41.6002 11.8052 41.3053 11.6075 41.3171 11.5261C41.3407 11.4447 41.0577 11.2935 41.0812 11.2121C41.1049 11.1307 40.9397 10.9213 40.9397 10.9213L40.6449 10.6422L40.6095 10.4677L40.3736 10.4444L39.9018 9.87452L39.9254 9.71168L39.7839 9.68841V9.46742L39.6423 9.38601L39.43 9.36273L38.9936 8.8975L38.9582 8.67652H38.7459L38.7813 8.33922L41.0695 6.10616ZM30.4191 6.10616V6.28061L30.6314 6.30389L30.5725 6.14106L30.4191 6.10616ZM13.9188 6.10616L16.3956 8.56025C15.2398 9.73496 14.2726 11.0841 13.5532 12.5845C12.6096 14.5152 12.0671 16.6669 12.0317 18.9465H8.52878C8.56418 16.1203 9.23643 13.3987 10.4631 10.9329C11.3358 9.17669 12.4917 7.54837 13.9188 6.10616ZM31.3745 7.02499C31.3509 7.02499 31.3391 7.03663 31.3391 7.04827C31.3391 7.10642 31.4216 7.10642 31.457 7.22273C31.4924 7.33903 31.4806 7.53676 31.6575 7.57165C31.8344 7.60656 31.8698 7.65307 31.8934 7.72285C31.917 7.80427 32.1293 7.8159 32.1293 7.8159L32.2826 7.89732L32.7544 8.29276V8.14156C32.7544 8.14156 32.7308 7.99036 32.6365 7.99036C32.5421 7.99036 32.3652 7.87405 32.4006 7.79264C32.436 7.71122 32.0703 7.64144 32.0703 7.64144C32.0703 7.64144 31.7401 7.3274 31.858 7.3623C31.976 7.39721 31.917 7.22273 31.917 7.22273C31.917 7.22273 31.6811 7.25764 31.6221 7.24601C31.5632 7.22273 31.5867 7.04828 31.5867 7.04828C31.5867 7.04828 31.4334 7.01337 31.3745 7.02501L31.3745 7.02499ZM20.5944 7.16456L20.5119 7.24597L20.6298 7.36228L20.7124 7.28087L20.5944 7.16456ZM3.62232 7.97871C3.57511 7.96708 3.53976 8.01362 3.50437 8.02526C2.15982 9.72335 1.26345 11.5727 1.26345 13.8407C1.26345 16.6437 2.90286 18.6093 3.10337 21.2378C3.52796 18.493 5.86325 16.539 7.07806 14.1082C7.54984 13.1661 7.8447 12.096 7.97444 11.0609C7.79752 11.5029 7.52626 11.9099 7.14884 12.2589C5.56839 13.736 3.71667 15.1782 3.36284 17.2717C3.31564 17.5741 3.28029 17.8765 3.19772 18.1673C3.12696 18.2022 3.12695 18.1208 3.10337 18.0975L3.30387 15.5155C3.49258 13.0032 2.13622 10.2002 3.62232 7.97874V7.97871ZM51.366 7.97871C52.852 10.2002 51.4957 13.0032 51.6844 15.5271L51.8849 18.1091C51.8613 18.1324 51.8613 18.2022 51.7906 18.1789C51.708 17.8881 51.6726 17.5857 51.6254 17.2833C51.2716 15.2014 49.4081 13.7476 47.8394 12.2705C47.462 11.9216 47.1907 11.5145 47.0138 11.0725C47.1436 12.1076 47.4384 13.1777 47.9102 14.1198C49.125 16.539 51.4603 18.4929 51.8849 21.2494C52.0854 18.6093 53.7248 16.6553 53.7248 13.8523C53.7248 11.5843 52.8285 9.72333 51.4839 8.03687C51.4367 8.00196 51.4131 7.96708 51.366 7.97871ZM27.2582 7.97871V11.4331C26.1614 11.468 25.1117 11.7238 24.1681 12.1542L24.3804 12.5612C25.2768 12.1542 26.2439 11.9215 27.2582 11.8867V15.027C26.8454 15.0502 26.4444 15.1316 26.067 15.2712L26.0434 15.0502L26.1378 14.9921L25.9844 14.9339L25.8665 15.0851L25.8311 15.2596L25.6306 15.2945V15.3875H25.4891V15.5039C25.206 15.655 24.9347 15.8411 24.687 16.0621L22.4343 13.8407C23.0122 13.3056 23.6727 12.8637 24.3804 12.538L24.1681 12.1309C23.4133 12.4798 22.7174 12.9451 22.1159 13.515L19.6391 11.0725C20.5118 10.2467 21.4908 9.58378 22.5523 9.07202C23.9912 8.39744 25.5952 8.002 27.2582 7.97873L27.2582 7.97871ZM27.73 7.97871C29.1453 8.00199 30.5253 8.29274 31.7991 8.80449C32.1529 8.94407 32.4949 9.1069 32.8252 9.28136C32.837 9.29299 32.8606 9.30463 32.8842 9.31627C33.4385 9.60704 33.9692 9.95596 34.4646 10.3398C34.4882 10.4793 34.6415 10.5375 34.6415 10.5375L34.7359 10.5491C34.7948 10.5957 34.8656 10.6538 34.9246 10.7003V10.8632C35.0661 10.8283 35.2784 10.9911 35.3138 11.119L32.8724 13.5266C32.1765 12.8753 31.3745 12.3752 30.5135 12.0146C29.6407 11.6541 28.6972 11.4563 27.7182 11.4215L27.73 7.97871ZM16.7259 8.87428L18.9786 11.0958C18.0704 12.0262 17.3274 13.1079 16.7612 14.2826C16.1008 15.7015 15.7116 17.2717 15.6762 18.9349H12.5035C12.5389 16.7716 13.0342 14.6897 13.966 12.7939C14.6501 11.3633 15.5818 10.0374 16.7259 8.87428ZM36.7527 10.363C37.024 10.5259 37.2363 10.8864 37.2009 10.9562C37.1655 11.0376 37.4368 11.0144 37.4368 11.0144C37.4722 10.6654 37.8142 10.7817 37.826 10.898C37.8496 11.0144 37.9086 11.2702 37.9086 11.2702L38.0029 11.4447L38.1445 11.5843L38.3568 11.561L38.4157 11.6773L38.6752 11.7122C38.6752 11.7122 38.8875 11.9448 38.9111 12.003C38.9347 12.0611 39.2295 12.0379 39.3003 12.0611C39.3829 12.0844 39.5008 12.1425 39.5126 12.2356C39.5362 12.3286 39.6541 12.4915 39.6541 12.4915C39.6541 12.4915 39.89 12.5496 39.9136 12.631C39.9372 12.7125 40.0316 12.8869 40.0316 12.8869L40.2321 13.0497L40.2557 13.2242L40.468 13.2475L40.5269 13.4801L40.8808 13.4568L41.0813 13.3173C41.1402 13.2823 41.1992 13.2475 41.2464 13.2126C41.3172 13.3754 41.3879 13.5382 41.4469 13.7011C42.1074 15.341 42.473 17.1089 42.4966 18.9233H39.3239C39.3121 18.365 39.2649 17.8184 39.1706 17.2834C39.1942 17.2019 39.206 17.1322 39.1706 17.1089C39.1116 17.0507 39.2296 16.7716 39.2296 16.7716C39.2296 16.7716 39.3121 16.6088 39.2296 16.4576C39.147 16.2947 39.2532 16.1203 39.3121 16.0505L39.1588 15.9691L39.0055 15.9458L38.8875 15.9691C38.8521 15.8411 38.8168 15.7248 38.7696 15.5969L38.8639 15.6202V15.5039L38.7224 15.4689C38.6988 15.3875 38.6634 15.3061 38.6398 15.2247L38.6162 14.8176L38.4747 14.7246L38.5101 14.5734L38.3568 14.5152L38.4393 14.2593L38.2978 13.9802H38.0973C38.003 13.7941 37.9086 13.608 37.8024 13.4336C37.826 13.4219 37.8496 13.4103 37.885 13.3987C37.9912 13.3754 38.0265 13.3637 38.0383 13.3637L38.0147 13.1544L37.8378 13.0381L37.7788 12.8055C37.7788 12.8055 37.5665 12.8404 37.5783 12.9567C37.5783 12.9799 37.5665 13.0032 37.5429 13.0148C37.4014 12.7938 37.2599 12.5845 37.1065 12.3751C37.1065 12.3635 37.1183 12.3519 37.1183 12.3402C37.2009 12.2006 37.1538 12.1192 37.024 12.0843C36.8825 12.0494 36.8825 12.0494 36.8471 11.8866C36.8117 11.7354 36.6466 11.6889 36.6466 11.6889L36.5876 11.4563L36.4461 11.5493C36.3635 11.4563 36.2927 11.3749 36.2102 11.2818L36.2809 11.0608C36.1984 11.0492 36.163 11.0027 36.1394 10.9561L36.7527 10.363ZM38.0147 13.3521C38.0147 13.3638 38.0383 13.3521 38.0147 13.3521V13.3521ZM24.1563 10.8283L24.0856 10.9213L24.2035 11.0144L24.2743 10.9213L24.1563 10.8283ZM23.7081 10.9097L23.7317 11.1307H24.0266C24.1445 11.1307 23.9322 10.9911 23.9322 10.9911C23.9322 10.9911 23.6846 11.0144 23.7081 10.9097H23.7081ZM36.7409 10.9446L36.623 10.9562L36.6466 11.1307L36.7645 11.119L36.7409 10.9446ZM19.297 11.4214L21.7739 13.8639C21.2549 14.3989 20.8185 15.0154 20.4765 15.6783C20.3939 15.6783 20.3114 15.6899 20.2878 15.7597C20.2288 15.9109 19.9693 15.876 19.9693 15.876L19.9339 15.9575L19.7334 15.9924L19.698 16.1087L19.4621 16.1436L20.0518 16.1203C20.2052 16.097 19.9929 16.4576 19.8985 16.4343L19.6272 16.4576L19.5329 16.5507H19.2734L19.1555 16.7135L18.7781 16.6902C18.7781 16.6902 18.5657 16.8647 18.5775 16.9228C18.6011 16.981 18.5421 17.1554 18.4832 17.1554C18.4242 17.1554 18.3063 17.3299 18.3417 17.3881C18.3771 17.4462 18.2237 17.6439 18.2237 17.6439L18.1883 17.8417L18.0704 17.8766V18.4116L17.8345 18.5628V18.7954L17.7283 18.9117H16.1361C16.1715 17.3532 16.5253 15.8528 17.1622 14.4804C17.6929 13.3755 18.4124 12.3287 19.297 11.4215L19.297 11.4214ZM35.6441 11.4564C35.7266 11.5378 35.7148 11.561 35.8328 11.6425C35.8682 11.6657 35.9035 11.689 35.9389 11.689C35.9979 11.7588 36.0686 11.8286 36.1276 11.8983L36.0804 11.9565C36.0804 12.1775 36.1866 12.1193 36.2927 12.0961C36.3281 12.131 36.3517 12.1775 36.3871 12.2124C36.3989 12.3403 36.3989 12.5264 36.6112 12.5031C36.6112 12.5031 36.6112 12.5031 36.623 12.5031C36.8706 12.8404 37.1065 13.1894 37.3188 13.5383L37.3306 13.5616C37.366 13.6197 37.4014 13.6779 37.425 13.736C37.3778 13.7709 37.3542 13.8174 37.3542 13.8174L37.0358 13.8524V14.1664L36.8824 14.2245L36.906 14.4223L37.1184 14.399C37.1184 14.399 37.1183 14.6316 37.1773 14.5386C37.2363 14.4455 37.7317 14.5618 37.6845 14.7944C37.6727 14.8875 38.1798 15.1434 38.1209 15.4574C38.1563 15.469 38.1916 15.4807 38.2152 15.4923C38.3096 15.7598 38.3921 16.039 38.4629 16.3065L38.4275 16.3762C38.4275 16.3762 38.4629 16.3995 38.4983 16.4344C38.5572 16.6786 38.6162 16.9229 38.6516 17.1671C38.6398 17.3765 38.5926 17.5858 38.4747 17.644C38.2388 17.7836 38.4983 17.7022 38.4983 17.7022L38.4629 18.1325C38.5219 18.3302 38.6162 18.2255 38.6752 18.1325C38.7106 18.0859 38.7342 18.0511 38.7695 18.0162C38.8049 18.307 38.8167 18.6094 38.8285 18.9118H36.4578C36.4696 18.9001 36.4932 18.8536 36.4932 18.8536L36.5876 18.5745L36.9178 18.4814L36.9532 18.2255L36.7763 18.2023C36.7763 18.2023 36.9768 17.8533 37.0712 17.8533C37.1655 17.8533 37.8142 17.8533 37.8732 17.8184C37.9322 17.7835 38.0501 17.4695 38.0501 17.4114C38.0501 17.3532 38.2034 17.3299 38.2624 17.3183C38.3214 17.295 38.4629 17.1438 38.4983 17.0624C38.5337 16.981 38.4039 16.4925 38.3214 16.5739C38.2388 16.6553 38.0619 16.6902 38.0619 16.6902L38.0029 16.9112L37.9086 16.9926C37.9086 16.9926 37.9322 17.0508 37.9086 17.1904C37.885 17.3299 37.7081 17.4114 37.7081 17.4114L37.6255 17.5044C37.6255 17.5044 37.1537 17.5277 37.0948 17.5044C36.9179 17.423 37.0358 17.1904 37.1537 17.2136C37.2717 17.2369 37.1301 16.8763 37.1301 16.8763L37.2835 16.8531C37.2835 16.8531 37.3071 16.5041 37.366 16.5041C37.425 16.5041 37.3424 16.3878 37.2717 16.3297C37.1891 16.2715 37.0948 16.0738 37.0122 16.0971C36.9296 16.1203 36.623 16.0971 36.623 16.0971L36.564 16.2134L36.3517 16.2483C36.3517 16.2483 36.3753 16.3995 36.3281 16.446C36.2102 16.5856 35.762 16.8763 35.9507 16.3878L36.0097 16.2715V16.0971L35.6558 16.0738C35.6558 16.0738 35.4789 16.0156 35.4789 15.9342C35.4789 15.8528 35.4553 15.7598 35.4553 15.7598L35.0425 15.3062L34.5471 15.248L34.5117 15.155L34.2169 15.1201C34.1697 15.0968 34.1343 15.0851 34.0871 15.0735C33.9456 14.8525 33.8041 14.6432 33.639 14.4455C33.639 14.4338 33.6272 14.4105 33.6272 14.3989C33.6154 14.3291 33.3913 14.0267 33.2733 14.0151C33.2261 13.9685 33.1908 13.922 33.1436 13.8755L35.6441 11.4564ZM37.5665 11.7006C37.5429 11.7006 37.5193 11.7239 37.5193 11.7588C37.5193 11.8402 37.6137 11.8751 37.5783 11.9797C37.5429 12.0728 37.6137 12.1542 37.6962 12.1542C37.7788 12.1542 37.8378 12.1891 37.9085 12.2356C37.9911 12.2705 38.0501 12.3287 38.109 12.4101L38.3095 12.3519C38.3095 12.3519 38.3332 12.1542 38.2506 12.2124C38.168 12.2705 38.109 12.0728 38.0383 12.096C37.9557 12.1193 37.9203 12.0146 37.8378 11.9216C37.7552 11.8285 37.7788 11.8053 37.6844 11.7471C37.6372 11.7122 37.6019 11.689 37.5665 11.7006L37.5665 11.7006ZM27.73 11.8983C28.6382 11.9216 29.5228 12.1193 30.3484 12.4566C31.1504 12.7939 31.8934 13.2591 32.5421 13.8639L32.4124 13.9919C32.3534 13.9337 32.1411 13.8872 32.1411 13.8174C32.1411 13.736 31.9406 13.6429 31.9642 13.7593C31.9878 13.8756 31.8227 13.9337 31.7873 13.8988C31.7519 13.8639 31.634 14.0151 31.634 14.0151C31.634 14.0733 31.5986 14.1547 31.7165 14.178C31.8345 14.2012 32.0468 14.0965 32.0704 14.2129C32.0821 14.2478 32.0821 14.2826 32.0939 14.3175L31.3155 15.0852C31.2094 15.0852 31.115 15.0735 31.115 15.0735C31.056 15.248 30.7848 15.0503 30.8555 14.934C30.9381 14.8177 30.9381 14.7362 30.9381 14.7362L30.8437 14.713L30.7258 14.934C30.4545 14.934 30.372 15.0851 30.4309 15.1898C30.4899 15.2829 30.3484 15.1666 30.313 15.3061C30.2776 15.4457 30.3366 15.4457 30.4545 15.5039C30.5725 15.562 30.3956 15.562 30.4781 15.6551C30.5253 15.7132 30.6432 15.7016 30.6786 15.7132L30.5253 15.8644C30.3956 15.911 30.2305 15.876 30.2305 15.876C30.2305 15.911 30.2068 15.9458 30.1715 15.9575C29.853 15.7016 29.511 15.4922 29.1336 15.341C29.1925 15.2945 29.2987 15.2945 29.3459 15.1666C29.4284 14.9456 29.4638 14.5967 29.4638 14.5967C29.4638 14.5967 29.1454 14.5734 29.1336 14.6781C29.11 14.7711 28.9213 14.8293 28.9213 14.8293C28.9213 14.8293 28.7679 14.8874 28.8269 14.9688C28.8859 15.0503 28.709 15.0852 28.709 15.0852C28.709 15.0852 28.7208 15.1433 28.7208 15.1898C28.4141 15.0968 28.0839 15.0386 27.7536 15.027L27.73 11.8983ZM38.1563 12.5613L37.9204 12.5846C37.9793 12.666 38.0973 12.7241 38.0973 12.8055C38.0973 12.887 38.0619 12.9451 38.1798 12.9567C38.2978 12.98 38.3803 12.9335 38.4157 13.0382C38.4511 13.1312 38.4511 13.294 38.4393 13.3755C38.4157 13.4569 38.4629 13.5732 38.5573 13.5732C38.6516 13.5732 38.6752 13.5964 38.6752 13.6546C38.6752 13.7128 38.7932 13.4336 38.7932 13.4336C38.6988 13.3522 38.6162 13.1777 38.6162 13.1777C38.6162 13.1777 38.5219 12.8986 38.5219 12.8637C38.5219 12.8288 38.3804 12.7823 38.3214 12.7706C38.2506 12.7357 38.1563 12.5613 38.1563 12.5613V12.5613ZM36.2927 12.6427L36.0922 12.666L36.104 12.7823L36.3045 12.759L36.2927 12.6427ZM36.4107 12.7823V12.8753H36.5286V12.7823H36.4107ZM36.2574 12.9684C36.2574 12.9684 36.1394 13.1196 35.9035 13.0498C35.9035 13.0498 35.8681 13.422 35.7502 13.5034H35.4789C35.4789 13.5034 35.5379 13.5964 35.5969 13.6662C35.6558 13.7244 35.7974 13.8407 35.6558 13.9221C35.5143 14.0035 35.6794 13.9802 35.6794 13.9802C35.6794 13.9802 35.6558 14.3873 35.4789 14.3292C35.302 14.271 35.2431 14.5501 35.2431 14.6199C35.2431 14.7013 35.9389 14.7246 35.8328 14.6199C35.7738 14.5618 35.9153 14.4222 35.9153 14.4222C35.9153 14.4222 36.3871 14.4571 36.4815 14.4571C36.5758 14.4571 36.6584 14.4338 36.5994 14.3408C36.5404 14.2478 36.3635 14.2594 36.3635 14.2594C36.3635 14.2594 36.1276 14.3175 35.9153 14.2012C35.703 14.0849 35.9507 14.05 35.9979 14.05C36.0333 14.05 36.2102 13.9105 36.1394 13.8174C36.0569 13.7244 36.1394 13.5383 36.1394 13.6197C36.1394 13.7011 36.3517 13.736 36.3989 13.6779C36.4343 13.6197 36.3989 13.4452 36.3045 13.3871C36.2102 13.3289 36.4815 13.294 36.3989 13.1894C36.2927 13.0963 36.2574 12.9684 36.2574 12.9684L36.2574 12.9684ZM36.6466 13.5615V13.7011H36.7645V13.5615H36.6466ZM36.906 13.6313L36.8471 13.7476L36.9532 13.8058L37.0122 13.6895L36.906 13.6313ZM38.8167 13.7941C38.7695 13.8058 38.8521 14.0268 38.8049 14.0616C38.746 14.0966 38.7106 14.178 38.6516 14.2361C38.5926 14.2943 38.7696 14.3757 38.7696 14.4338C38.7696 14.492 38.805 14.7828 38.805 14.7828C38.805 14.7828 38.9465 14.8409 38.9583 14.9223C38.9819 15.0037 38.9583 15.1549 39.0173 15.1782C39.0762 15.2015 39.1942 15.2713 39.1588 15.3527C39.1234 15.4341 39.1234 15.5853 39.1234 15.5853L39.2059 15.7597L39.3593 15.8528C39.3593 15.8528 39.4182 15.3876 39.3239 15.3643C39.2295 15.341 39.2649 15.0735 39.2649 15.0735C39.2649 15.0735 39.3592 14.7014 39.2059 14.7014C39.0526 14.7014 39.1705 14.5036 39.0644 14.4455C38.97 14.3873 39.029 14.1082 38.9818 14.0384C38.9464 13.957 38.9464 13.8639 38.8403 13.8058C38.8285 13.7941 38.8167 13.7825 38.8167 13.7941H38.8167ZM34.0518 14.1663L33.8513 14.1896L33.8631 14.3059L34.0636 14.2826L34.0518 14.1663ZM31.0796 14.178C31.0207 14.178 30.9617 14.1896 30.9617 14.1896L30.6432 14.2245L30.6196 14.3641L30.8319 14.3874C30.8319 14.3874 30.9263 14.4688 30.9263 14.5269C30.9263 14.5851 31.0678 14.6432 31.1386 14.6432C31.2211 14.6432 31.4334 14.492 31.4334 14.492C31.4334 14.492 31.5278 14.2129 31.457 14.2362C31.3745 14.2594 31.2211 14.3757 31.1976 14.2594C31.2094 14.1897 31.1386 14.178 31.0796 14.178L31.0796 14.178ZM22.1041 14.1896L24.0266 16.0854L23.8379 16.0738C23.7553 16.2483 23.5666 16.0505 23.5666 16.0505C23.5312 15.9342 23.2482 16.0505 23.2482 16.0505C23.2482 16.2715 22.8707 15.9575 22.8707 15.9575L22.1867 15.469C21.7974 15.12 21.2077 15.562 21.1841 15.6667C21.1959 15.8179 21.0662 15.8179 20.9365 15.7946C21.2549 15.2131 21.6441 14.6781 22.1041 14.1896V14.1896ZM29.8294 14.2362L29.7115 14.2594L29.7469 14.4339L29.8648 14.4106L29.8294 14.2362ZM30.4663 14.2711L30.0299 14.2943V14.4106L30.4663 14.3874V14.2711ZM26.7865 14.306V14.4223H26.9398V14.306H26.7865ZM27.789 14.3293L27.7772 14.4456L27.9187 14.4688L27.9305 14.3525L27.789 14.3293ZM28.0485 14.3874L28.0367 14.5037L28.1782 14.527L28.19 14.4107L28.0485 14.3874ZM26.4562 14.4223L26.4444 14.5386L26.586 14.5619L26.5978 14.4456L26.4562 14.4223ZM29.6879 14.4339L29.6289 14.4572L29.6643 14.5735L29.7233 14.5503L29.6879 14.4339ZM34.441 14.4805L34.382 14.6201L34.4882 14.6666L34.5472 14.527L34.441 14.4805ZM32.9785 14.5038C32.9785 14.5038 33.0965 14.527 33.1908 14.5503C33.2852 14.6666 33.3795 14.7829 33.4621 14.8992L33.2144 14.8643L33.0611 14.8411L32.7662 14.8178C32.4714 15.0155 32.4124 15.2481 32.4124 15.2481C32.2826 15.504 31.9878 15.2365 31.9878 15.0504L32.5067 14.5386C32.5421 14.5386 32.5657 14.5386 32.6011 14.5386C32.719 14.5386 32.9785 14.5037 32.9785 14.5037V14.5038ZM28.3079 14.5387V14.655H28.4613V14.5387C28.4731 14.5387 28.3079 14.5387 28.3079 14.5387ZM26.3265 14.562L26.3029 14.6783L26.4562 14.7132L26.4798 14.5969C26.4916 14.6085 26.3265 14.562 26.3265 14.562ZM26.2793 14.7248L26.1613 14.7481L26.1849 14.8644L26.3029 14.8411L26.2793 14.7248ZM28.6028 14.7248H28.4848V14.8644H28.6028V14.7248ZM34.7712 14.7829C34.7005 14.7829 34.6061 14.7946 34.5589 14.8062C34.4646 14.8295 34.4764 14.8993 34.5589 15.0039L34.7948 14.969C34.7948 14.969 34.9717 14.8876 34.9364 14.8295C34.9246 14.7829 34.8538 14.7829 34.7712 14.7829V14.7829ZM33.4621 14.8993C33.5328 15.0039 33.6036 15.1086 33.6744 15.2016C33.6507 15.2482 33.639 15.318 33.6626 15.3877C33.7215 15.6785 33.8159 15.7948 33.6272 15.7948C33.4267 15.7948 33.3913 15.6436 33.3913 15.6436C33.3913 15.6436 33.2379 15.5855 33.2379 15.6669C33.2379 15.7483 33.179 15.8995 33.2379 15.9809C33.2969 16.0623 33.1554 16.1786 33.0964 16.1205C33.0374 16.0623 32.8841 15.8879 32.9195 15.8297C32.9549 15.7716 32.6482 15.3994 32.9549 15.3412C33.2733 15.2831 32.9313 15.1086 33.0492 15.0621L33.2026 14.9807H33.3559L33.4621 14.8993ZM0.744465 14.969C0.42602 15.6204 0.308073 16.3531 0.142942 17.0626C-0.210879 18.9002 0.142941 20.8426 0.650103 22.5407C1.287 24.6575 3.37461 26.1578 4.44789 28.1002L4.58943 28.2165C4.4361 27.1697 4.35354 26.0299 4.6602 25.0297C5.12018 23.4246 5.69811 21.8661 5.99296 20.2029C6.22885 18.9119 6.50012 17.458 6.34679 16.2135C6.16988 16.8881 5.99295 17.5511 5.61554 18.1326C4.18842 20.3076 2.72592 22.8663 3.72843 25.6345C3.70483 25.6694 3.66947 25.7042 3.63408 25.681C3.23307 24.7622 3.13872 23.727 2.87924 22.75C2.18338 20.1448 0.154746 17.9698 0.744465 14.9691V14.969ZM54.2438 14.969C54.8335 17.9698 52.8166 20.1447 52.1208 22.7384C51.8613 23.7154 51.7669 24.7621 51.3659 25.6693C51.3305 25.6926 51.2952 25.6461 51.2716 25.6228C52.2741 22.8547 50.8116 20.3075 49.3845 18.1209C49.007 17.551 48.8301 16.8765 48.6532 16.2019C48.4999 17.458 48.7712 18.9002 49.0071 20.1912C49.3137 21.8544 49.8798 23.413 50.3398 25.018C50.6465 26.0183 50.5639 27.1464 50.4106 28.2048L50.5521 28.0885C51.6136 26.1578 53.713 24.6458 54.3499 22.529C54.8571 20.8426 55.2109 18.8886 54.8571 17.0509C54.6801 16.3647 54.5504 15.6203 54.2438 14.969V14.969ZM27.4587 15.4808L27.4941 15.946L27.2818 15.8762H27.1403L27.0813 15.7599L26.9634 15.7367V16.167L27.0813 16.26L27.1757 16.3531L27.3762 16.3764L27.4116 16.609L27.9069 16.6322L27.9659 16.7253L28.2608 16.7486L28.8269 17.3185L28.7915 17.4929L28.6971 17.5511C28.7325 17.6907 28.4377 17.6092 28.4377 17.6092V17.7256L28.5792 17.7488L28.7207 17.8302L28.9212 17.4929C29.1335 17.3534 29.2397 17.5511 29.2515 17.6674C29.2751 17.7837 29.1571 17.7605 29.1571 17.7605V18.0396L29.2751 18.0745C29.4756 18.3071 29.1925 18.4467 29.1925 18.4467L29.1335 18.6444C29.0746 18.8189 28.8623 18.784 28.8623 18.784L28.7797 18.9003L28.5438 18.9585L29.0038 19.0166C29.051 18.8538 29.1689 18.8189 29.2279 18.9003C29.2869 18.9817 29.2869 19.1213 29.2869 19.1213L29.4048 19.1446L29.3812 19.3655L29.4992 19.4005V20.0285L29.6407 20.1797C29.8766 20.0867 29.8766 20.2379 29.7586 20.3193C29.6407 20.4007 29.7232 20.7496 29.7232 20.7496L29.6289 20.8427V21.0055L29.5109 21.0869V21.3079C29.3104 21.2148 29.0745 21.2497 29.0156 21.3079C28.8386 21.1916 28.4612 21.2265 28.4612 21.3312C28.5792 21.4824 28.3197 21.5289 28.3197 21.5289L28.1782 21.6801C28.2725 21.8778 28.0838 21.9011 28.0838 21.9011V22.2733L27.8479 22.4943L27.8597 22.8432C27.7418 22.8548 27.612 22.8664 27.4941 22.8664C26.5741 22.8664 25.7131 22.5408 25.0291 21.9476C25.0409 21.936 25.0527 21.936 25.0645 21.9127C25.1588 21.7615 25.324 21.7382 25.324 21.7382L25.3829 21.5987L25.9137 21.622C25.9491 21.401 26.2085 21.4824 26.2085 21.587C26.2085 21.6801 26.409 21.6103 26.409 21.6103L26.5506 21.3893H26.7629L26.7865 21.1567L26.8808 21.0986V20.7496C27.1993 20.6566 27.1521 20.3542 27.1521 20.3542L27.2347 20.2612L27.1993 20.1216C27.0459 20.0634 27.1167 19.9239 27.2229 19.9588C27.3172 19.9937 27.0813 19.7843 27.0813 19.7843C26.9634 19.8773 26.869 19.668 26.869 19.668H26.5742V19.3888L26.5388 19.133L26.2439 18.9934L26.0316 19.1911L25.9962 19.4702V19.6447L25.7957 19.6796L25.7603 20.2146L25.607 20.2728L25.6306 20.4705L25.4183 20.5287L25.206 20.5868L25.1234 20.8195L24.9701 20.9125L24.8875 21.1451L24.7932 21.7034C24.5219 21.4126 24.286 21.0986 24.1209 20.7497C24.1563 20.6101 24.1563 20.4822 24.1563 20.4822C23.9794 20.4007 24.0737 20.1332 24.2742 20.3658C24.4747 20.5985 24.1563 19.889 24.1563 19.889L24.003 19.7494L23.8025 19.7261C23.7671 19.54 23.7553 19.3423 23.7553 19.1446C23.7553 19.0632 23.7553 18.9818 23.7671 18.9004C23.826 18.8422 23.885 18.8771 23.885 18.8771L24.0029 18.9701L24.1799 19.1097L24.2035 19.226L24.0855 19.2842L24.0619 19.447L24.1209 19.668H24.2742C24.3332 19.3539 24.746 19.3539 24.8639 19.5517L24.9819 19.2725C24.7106 19.133 24.9819 18.9236 25.0526 19.0166C25.1352 19.1097 25.3121 18.7608 25.3121 18.7608C25.3121 18.7608 25.4537 18.9352 25.3121 18.7026C25.1706 18.47 25.4065 18.3537 25.4065 18.3537C25.3711 18.1211 25.6659 18.156 25.6659 18.156L25.6895 17.8419L25.4183 17.8187C25.3593 18.0978 25.1234 17.8536 25.2414 17.7954C25.3593 17.7372 25.4772 17.6209 25.4772 17.6209V17.4465L25.5952 17.4116L25.6188 17.2138H25.9137L26.1731 17.0975L26.2321 17.0045L26.5034 16.9812L26.8926 16.6323L26.8572 16.4811C26.6213 16.4811 26.8572 16.3066 26.8572 16.3066L26.8926 16.0159H26.6803L26.6449 15.5971C26.9044 15.5157 27.1756 15.4808 27.4587 15.4808L27.4587 15.4808ZM39.3946 16.6206L39.371 16.7718L39.489 16.7834L39.5126 16.6206H39.3946ZM39.3239 17.144L39.2649 17.2603L39.371 17.3184L39.43 17.2021L39.3239 17.144ZM18.9786 17.9233C19.1673 17.9116 19.297 18.0163 19.297 18.0163L19.5683 17.993C19.639 18.0396 19.6862 18.0861 19.7098 18.1442C19.6862 18.3303 19.6626 18.5048 19.6626 18.6909C19.639 18.7374 19.6154 18.7723 19.6154 18.7723C19.5918 18.8072 19.58 18.8653 19.5682 18.9235H18.8252V18.9118L18.6129 18.8886C18.377 18.749 18.4949 18.2372 18.4949 18.2372C18.66 18.0163 18.837 17.9349 18.9785 17.9232L18.9786 17.9233ZM25.7839 18.2954L25.7485 18.3885H25.6542L25.6306 18.5513H25.7485L25.7721 18.6676L25.6895 18.749L25.6541 18.8421L25.5008 18.877L25.147 19.2143L25.1234 19.3655L25.029 19.5051L24.9111 19.7958L24.4983 19.8191L24.4157 20.168L24.4747 20.4588L24.8285 20.5984L24.8639 20.4006L24.9819 20.3425L25.0055 20.1448L25.088 20.0052L25.206 19.8656L25.2414 19.7028L25.4419 19.5865L25.6778 19.5516L25.7721 19.4353L25.8075 19.2027L25.8193 19.0282L25.9019 18.9119L26.1378 18.8188V18.4466H26.0198L25.9962 18.3071L25.7839 18.2954ZM38.0855 18.4117L38.0619 18.5281L38.2742 18.563L38.2978 18.4467L38.0855 18.4117ZM37.6019 18.5746L37.5429 18.6095L37.4014 18.6909L37.2716 18.6095L37.2127 18.7025L37.366 18.7956L37.4014 18.8189L37.425 18.8072L37.5429 18.7374L37.5547 18.7723L37.6609 18.7258L37.6255 18.6328L37.6019 18.5746ZM39.3121 19.4004H42.4847C42.4493 21.5521 41.954 23.5874 41.0812 25.4251C40.3736 26.9255 39.4182 28.2863 38.2624 29.461L38.1798 29.3796C38.168 29.1586 38.1562 28.8794 38.1562 28.8794L38.0618 28.7864L38.0382 28.2979C38.1208 28.042 37.6608 27.6699 37.6254 27.7513C37.59 27.8327 37.3306 27.7745 37.3306 27.8443C37.3306 27.9257 37.1773 28.3095 37.248 28.4491C37.248 28.4607 37.248 28.4607 37.2598 28.4724L36.0214 27.2511C36.9885 26.2625 37.7434 25.146 38.2977 23.9248C38.9228 22.5058 39.2767 20.9822 39.312 19.4004L39.3121 19.4004ZM42.9565 19.4004H46.4595C46.4241 22.2266 45.7518 24.9017 44.5724 27.2977C43.676 29.1237 42.4848 30.7869 41.0694 32.2175L38.5926 29.775C39.8074 28.5422 40.7746 27.1465 41.494 25.6345C42.414 23.7038 42.9211 21.5869 42.9565 19.4004ZM36.0922 19.4004H38.8403C38.8049 20.924 38.4629 22.3778 37.8732 23.6921C37.3424 24.8785 36.5994 25.9601 35.703 26.8906C35.6676 26.4951 35.5733 26.0648 35.5733 26.0648L35.4199 25.9834L35.4553 25.5065H35.243L34.8892 25.9601L34.8538 26.0881L34.6533 25.8903L34.7594 25.7857L34.7358 25.553L34.8774 25.4367V25.239L34.9953 25.2041L35.0189 24.7738L35.1133 24.7505V23.8084L34.8184 23.5293C34.7948 23.6223 34.4882 23.6223 34.4882 23.6223C34.4882 23.6223 34.4056 23.7619 34.3466 23.7619C34.2877 23.7619 34.4292 23.9363 34.382 24.0526C34.3466 24.1689 34.1815 24.1689 34.1815 24.1689L33.8867 24.2504L33.8041 24.3434H33.4974L33.4739 24.1689C33.5093 24.134 33.5328 24.0875 33.5682 24.0526L33.8159 23.9829L34.0164 23.8898L34.1107 23.6921C34.1343 23.4944 34.3702 23.5176 34.3702 23.5176C34.3702 23.5176 34.8184 23.1454 34.842 22.971C34.8656 22.7965 35.0189 22.308 35.2902 22.308H35.7973C35.9978 22.2266 35.9389 21.9707 35.9389 21.9707L36.1983 21.9358L36.2338 22.0754C36.2338 22.0754 36.5876 22.1103 36.623 22.0521C36.6584 21.994 36.7409 21.8544 36.8353 21.9125C36.9296 21.9707 37.2481 21.773 37.2481 21.773C37.2717 21.6334 37.7552 21.6916 37.7552 21.6916L37.8142 21.5171C37.8142 21.5171 37.484 21.0635 37.425 21.0635C37.366 21.0635 37.0476 20.7844 37.0122 20.889C36.6937 20.8076 36.7173 20.3773 36.7173 20.3773L36.5994 20.0981C36.5994 19.9353 36.3045 19.6096 36.2456 19.6445C36.1158 19.5748 36.0804 19.4817 36.0922 19.4003L36.0922 19.4004ZM16.1479 19.4004H17.5279L17.5397 19.505L17.2448 19.8191L17.2802 20.1331L17.1033 20.1913L17.0679 20.3308L16.9853 20.7379L17.1858 20.7612C17.2802 20.7263 17.2684 21.017 17.1858 21.0519C17.1033 21.0868 16.891 21.1683 17.0089 21.2497C17.1268 21.3311 16.6905 21.3078 16.6905 21.1915C16.6905 21.0752 16.4546 20.9705 16.3956 21.0171C16.3602 21.0403 16.313 20.9821 16.2777 20.924C16.2069 20.4239 16.1597 19.9121 16.1479 19.4004L16.1479 19.4004ZM18.1765 19.4004H18.2709C18.3181 19.412 18.3653 19.4353 18.3653 19.4353L18.6365 19.4585L18.6601 19.412H19.5919L19.6744 19.9121L19.415 20.1331C19.2027 20.2494 19.2027 20.5286 19.4386 20.5867C19.5919 20.61 19.5329 20.9822 19.297 20.7263C18.9432 20.7263 19.4975 21.0403 19.3324 20.9589C19.6863 21.1334 19.6037 20.8077 19.6037 20.8077L19.7806 20.6681C19.8514 21.0519 19.9575 21.4358 20.0873 21.7963C20.4529 22.7965 21.019 23.7038 21.7621 24.4947L19.2853 26.9371C19.1201 26.7743 18.9668 26.5998 18.8253 26.4254C18.8607 26.309 18.9314 26.1811 18.9314 26.1811C19.1909 26.0183 18.8725 25.774 18.8725 25.774C18.9079 25.5414 18.7309 25.2623 18.7309 25.2623C18.3771 25.0297 18.4714 24.5761 18.4714 24.5761V24.262C18.1766 23.9829 18.5894 23.948 18.5894 23.948C18.7309 23.7154 18.495 23.5409 18.495 23.5409L18.4714 23.2851L18.153 23.2501L18.1176 22.3313L17.4099 21.3311C17.2684 21.2962 17.3745 21.0519 17.3745 21.0519C17.5514 20.9589 17.3391 20.7146 17.3391 20.7146L17.3155 20.2843L17.7283 20.2494L17.8227 20.0982H18.0232L17.9996 19.5864C18.0586 19.4469 18.1175 19.412 18.1765 19.4003L18.1765 19.4004ZM23.0712 19.4004H23.2953C23.3071 19.5399 23.3189 19.6795 23.3425 19.8074L23.2246 19.8423L23.1892 19.7609L23.1302 19.9819H22.7764L22.7528 19.7493L22.9651 19.6911L23.0476 19.5748L23.0712 19.4004ZM28.8858 19.6679C28.8504 19.6679 28.8151 19.6911 28.7915 19.7609V20.0168C28.7915 20.0168 29.0628 20.4471 29.1689 20.5053C29.2633 20.5634 29.4284 20.4355 29.3222 20.3657C29.0274 20.168 29.051 19.9121 28.9684 19.7377C28.9448 19.7027 28.9212 19.6679 28.8858 19.6679ZM18.6365 19.8423L18.6601 19.9819H18.7545C18.9078 20.261 18.7781 20.924 18.7781 20.924C18.7781 20.924 18.5422 20.9473 18.5068 20.8309C18.4714 20.7146 18.3653 21.0868 18.4478 21.145C18.5304 21.2031 18.8017 21.145 18.8253 21.366C18.8489 21.587 19.0022 21.2264 19.0022 21.2264V19.8889L18.6365 19.8423ZM28.0602 20.2378L27.7064 20.4937C27.8833 20.5169 27.9069 20.6914 27.9187 20.7728C27.9659 20.9473 27.9541 20.4937 28.0366 20.5169C28.1192 20.5286 28.0602 20.2378 28.0602 20.2378H28.0602ZM20.217 20.389C20.3821 20.4471 20.5708 20.7146 20.5708 20.7612C20.5708 20.8193 21.3492 20.7844 21.3492 20.7844C21.5615 20.924 21.6441 21.2729 21.6441 21.2729C21.8564 20.9938 22.3164 21.2496 21.9743 21.4125C22.2928 21.6102 22.2928 21.7847 22.2928 21.7847C22.5523 21.7033 22.5523 21.901 22.5523 21.9591C22.5523 22.0173 22.6348 21.6684 22.6348 21.6684C22.34 21.4474 23.024 21.3776 22.8353 21.7614L22.7174 21.9359L22.9179 22.0871L22.9415 22.5407C23.3779 22.5058 23.2599 21.9708 23.2599 21.9708L23.4604 21.9359C23.4604 21.7614 23.602 21.8544 23.602 21.8544C23.5076 21.3892 23.6963 21.1915 23.8143 21.1217C23.9676 21.4125 24.1563 21.68 24.3804 21.9242L22.1277 24.1457C21.4318 23.413 20.9129 22.5756 20.5708 21.6567C20.4057 21.2496 20.2996 20.8309 20.217 20.389H20.217ZM37.9793 20.8542C37.8142 20.8426 37.6137 20.9589 37.6727 21.0403C37.7906 21.1915 37.9911 21.1217 38.0619 21.1333C38.1444 21.1566 38.2152 21.1915 38.1444 20.9589C38.1208 20.8891 38.0501 20.8542 37.9793 20.8542ZM19.3324 21.1217C19.2852 21.1217 19.2498 21.1566 19.2498 21.2031C19.2498 21.2497 19.2852 21.2845 19.3324 21.2845C19.3796 21.2845 19.415 21.2496 19.415 21.2031C19.4268 21.1682 19.3796 21.1217 19.3324 21.1217ZM19.1201 21.3892L18.8252 21.587L18.6247 21.4706V21.9359L18.9432 22.343L19.0611 22.0638L19.0965 21.8894L18.955 21.8312L18.9786 21.5404L19.0965 21.5172L19.1201 21.3892ZM26.3736 21.8777L26.1967 21.901L26.2203 22.1801L26.3383 22.2732L26.5506 22.3313C26.5506 22.3313 26.8454 22.2499 26.869 22.0173L26.4208 21.994L26.3736 21.8777ZM28.8505 22.0289C29.0156 22.0289 28.9802 22.4244 28.9684 22.5523C28.8505 22.5989 28.7325 22.6453 28.6146 22.6802V22.2499L28.8151 22.0289C28.8269 22.0289 28.8387 22.0289 28.8505 22.0289L28.8505 22.0289ZM24.6988 22.2615C25.3829 22.8663 26.2321 23.2269 27.1403 23.2967V23.3083C27.1403 23.3083 27.0695 23.4828 27.1521 23.5177C27.2346 23.5409 27.211 23.5642 27.2582 23.6107L27.211 23.7154C27.1403 23.6223 27.0931 23.7852 27.1403 23.8317C27.1875 23.8783 27.0341 23.8433 27.0341 23.9015C27.0341 23.9596 26.9869 23.9945 27.0341 24.0178C27.0813 24.0527 27.0223 24.0643 26.9633 24.1108C26.9044 24.1574 27.211 24.169 27.211 24.169C27.211 24.169 27.1521 24.0527 27.2228 24.0527C27.2346 24.0527 27.2464 24.0527 27.2582 24.0527V24.2504C27.2346 24.2388 27.211 24.2388 27.1757 24.2271V24.3667L27.0223 24.39L27.1639 24.5412L27.27 24.5528V24.8785V24.9017C27.27 25.1576 26.6213 24.9832 26.5624 24.925L26.5388 25.2739L26.4208 25.2972L26.4444 25.5298L26.4208 25.8671L26.6331 25.8322V25.9718L27.1639 25.9951L27.27 25.8904V26.2509V26.2742L26.9162 26.3091L26.7628 26.3905L26.7039 26.2742H26.5505L26.4562 26.4022C25.9962 26.3324 25.5362 26.2277 25.0998 26.0765C24.1327 25.7508 23.2363 25.2158 22.4697 24.5064L24.6988 22.2615ZM6.00475 22.4476C6.26423 24.1574 5.58016 25.6694 5.42683 27.2977C5.29709 28.6352 5.53298 29.9379 6.06372 31.0544C6.21705 31.3917 6.50012 31.6825 6.58268 32.0314C6.07552 31.5778 5.7099 31.0079 5.36785 30.4496C3.72844 27.8327 0.296276 26.1346 0.0603832 22.9478C-0.0575606 24.3667 0.0721844 25.8671 0.543954 27.1232C1.20444 28.8678 2.49002 30.217 3.96432 31.3568C5.4858 32.5431 7.30213 33.462 8.69387 34.5087C8.42259 33.8225 7.97442 33.1945 7.79749 32.485C6.96009 29.2167 7.42008 25.4484 6.00475 22.4476ZM48.9835 22.4476C47.5681 25.4484 48.0281 29.2167 47.2143 32.4617C47.0374 33.1828 46.5892 33.8109 46.3179 34.4855C47.7097 33.4387 49.526 32.5199 51.0475 31.3335C52.5218 30.1937 53.7956 28.8446 54.4678 27.0999C54.9514 25.8438 55.0694 24.3434 54.9514 22.9245C54.7155 26.1113 51.2834 27.8094 49.6439 30.4263C49.2901 30.9846 48.9363 31.5662 48.4291 32.0081C48.5117 31.6708 48.7947 31.3684 48.9481 31.0311C49.4788 29.903 49.7147 28.6119 49.585 27.2744C49.4081 25.6694 48.7122 24.1574 48.9835 22.4476ZM31.8934 22.5174C31.9406 22.5174 31.976 22.5407 31.9642 22.6105C31.9052 22.7849 31.9642 22.8663 31.9642 22.8663C32.2236 22.6337 32.4359 22.8896 32.4123 22.9477C32.3887 23.0059 32.5539 23.0641 32.6482 23.0059C32.7426 22.9477 32.8605 23.1804 32.8251 23.2967C32.7897 23.413 32.4359 23.3897 32.4123 23.2734C32.3887 23.1571 32.3298 23.192 32.2944 23.2501C32.259 23.2967 32.1293 23.3315 32.0349 23.3083L31.9524 23.2269C31.9642 23.2036 31.976 23.1803 31.9524 23.1571C31.9288 23.1338 31.8934 23.1338 31.8462 23.1338L31.6693 22.9593C31.6693 22.843 31.7047 22.6802 31.6929 22.6337C31.6811 22.5755 31.8109 22.5174 31.8934 22.5174L31.8934 22.5174ZM19.1437 22.5872L19.0021 22.6105L18.9785 22.7733L19.1319 22.7966L19.1437 22.5872ZM43.6524 22.7616C43.5698 22.7616 43.4755 22.8082 43.4165 22.8431L43.4873 22.9361C43.558 22.8896 43.6642 22.8663 43.676 22.878C43.676 22.878 43.676 22.878 43.676 22.8663L43.7939 22.8431C43.7821 22.8081 43.7703 22.7733 43.7349 22.7616C43.6995 22.7616 43.676 22.7616 43.6524 22.7616V22.7616ZM19.2026 22.9594C19.1554 22.9594 19.1201 22.9943 19.1201 23.0408C19.1201 23.0873 19.1555 23.1222 19.2026 23.1222C19.2498 23.1222 19.2852 23.0873 19.2852 23.0408C19.2852 22.9942 19.238 22.9594 19.2026 22.9594ZM28.9684 23.0524C28.9684 23.099 28.992 23.1571 28.992 23.1571L29.0863 23.192L28.9094 23.3316L28.7561 23.506L28.5556 23.4479L28.3197 23.4246L28.2371 23.285L28.0956 23.2618L28.072 23.5409L27.9777 23.6572L27.7418 23.8898C27.9895 23.8898 27.8243 24.0178 27.7064 24.0759V23.285C27.954 23.2734 28.2135 23.2385 28.4494 23.1804C28.473 23.2036 28.4848 23.2153 28.4848 23.2153H28.6617L28.6735 23.1222C28.7915 23.1106 28.8858 23.0873 28.9684 23.0524L28.9684 23.0524ZM19.3324 23.3665C19.2852 23.3665 19.2498 23.4014 19.2498 23.4479C19.2498 23.4944 19.2852 23.5293 19.3324 23.5293C19.3796 23.5293 19.4149 23.4944 19.4149 23.4479C19.4149 23.4013 19.3795 23.3665 19.3324 23.3665ZM26.7392 23.4246C26.6449 23.4246 26.5623 23.727 26.5152 23.7968C26.5152 23.7968 26.5624 23.9596 26.6449 23.948C26.7275 23.9364 26.7864 23.8898 26.869 23.8782C26.9397 23.8666 26.9751 23.7503 26.9987 23.6223C27.0223 23.506 26.9751 23.4479 26.9751 23.4479C26.9751 23.4479 26.9044 23.5642 26.7864 23.4479C26.7746 23.4362 26.7628 23.4246 26.7392 23.4246L26.7392 23.4246ZM18.9668 23.5874L18.8016 23.6107V23.7503L18.9668 23.727V23.5874ZM30.7729 23.5874H30.9145L30.9381 23.6805L31.5396 23.7386H31.5632C31.7991 23.8782 31.6811 24.0527 31.5986 24.0876C31.516 24.1225 31.3863 24.1225 31.3863 24.1225L31.3509 24.2039L30.8437 24.2388L30.8083 24.4365C30.5488 24.4016 30.4545 24.6691 30.5135 24.8087C30.5724 24.9483 30.5135 25.0646 30.5135 25.0646L30.7258 25.1576L30.997 25.0762C31.0324 24.8785 31.2093 24.8436 31.3745 24.7273C31.5278 24.611 31.7873 24.9483 31.7047 25.0995C31.6929 25.1228 31.6929 25.1344 31.6811 25.146C31.3862 25.3438 31.0678 25.5298 30.7375 25.6927C30.2186 25.9369 29.6761 26.1346 29.0981 26.251C29.0863 26.2393 29.0745 26.2393 29.0745 26.2393L28.8622 26.1812L28.8386 25.8904C28.8032 25.6927 28.4258 25.6927 28.4494 25.8322C28.473 25.9718 27.7535 25.8904 27.7417 25.8904V25.3554L27.9423 25.146L28.3904 25.053C28.4258 24.8553 28.6263 25.0879 28.6263 25.0879C28.8268 25.0646 28.8622 25.2042 28.8622 25.2042L29.1217 25.2391C29.334 25.2973 29.2042 25.3205 29.216 25.4019C29.2396 25.5182 29.334 25.4834 29.334 25.4834L29.3694 25.2275L29.4873 25.2507L29.3694 25.1112L29.1571 25.0181L28.9212 24.9251C28.7679 24.7041 28.9566 24.7506 29.1217 24.7739H29.3812C29.3812 24.7739 29.676 25.1693 29.676 25.2624C29.676 25.3554 29.8176 25.3787 29.8176 25.3787L29.9945 25.3554L30.0535 25.495H30.2304L30.2893 25.6113H30.6432L30.6668 25.4368L30.3365 25.3787L30.3129 25.181L30.077 25.1228C29.9945 24.7855 30.136 24.6925 30.2304 24.8437L30.3483 24.8669L30.3129 24.5762L30.4545 24.5413L30.4191 24.1342L30.3011 24.0993V23.9597L30.7965 23.983C30.7139 23.7038 30.7729 23.5875 30.7729 23.5875L30.7729 23.5874ZM44.9616 24.483L44.8554 24.5412C44.8672 24.5644 44.8672 24.5993 44.879 24.6226C44.879 24.6575 44.8908 24.6924 44.9144 24.7156C44.938 24.7273 44.9616 24.7389 44.997 24.7273L44.9734 24.611C44.9852 24.611 44.997 24.6226 44.997 24.6342C44.997 24.6342 44.997 24.6226 44.997 24.611C44.9852 24.576 44.9852 24.5295 44.9616 24.483L44.9616 24.483ZM44.8436 24.704L44.7257 24.7273C44.7611 24.8436 44.7964 24.9599 44.7964 24.9715L44.9026 24.925C44.9144 24.925 44.8672 24.8087 44.8436 24.704V24.704ZM35.644 24.8203V25.1925H35.7855V24.8203H35.644ZM31.4098 24.9133L31.2565 25.0064L31.3155 25.1111L31.4688 25.018L31.4098 24.9133ZM44.1831 25.1809C44.1713 25.2739 44.1949 25.3902 44.2893 25.4018L44.3129 25.2855C44.3011 25.2739 44.2893 25.2274 44.3011 25.1809H44.1831ZM28.473 25.3902V25.6228V25.3902ZM44.1242 25.4018C44.0888 25.4018 44.0416 25.4368 43.9944 25.4716C43.8765 25.5414 43.9237 25.8438 43.9944 25.7624C44.0652 25.6926 44.1595 25.7624 44.1713 25.5414C44.1831 25.4251 44.1595 25.4018 44.1241 25.4018H44.1242ZM31.9288 25.553L32.3888 25.7857C32.4477 25.8671 32.7072 25.8438 32.7072 25.8438L32.7898 25.9369C32.7898 25.9369 32.9431 25.9136 33.0492 26.0299C33.1436 26.1462 33.6625 26.0532 33.6625 26.0532L33.8041 26.1695L34.0164 26.2509L34.382 26.2625L34.6061 26.4835C34.2523 26.6464 33.5328 26.5882 33.4856 26.5417C33.4267 26.4835 33.0139 26.3091 33.0139 26.3091C33.0139 26.3091 32.6954 26.0532 32.6364 26.1346C32.5775 26.216 32.3062 26.0416 32.3062 26.0997C32.3062 26.1579 32.0467 25.9601 32.0467 25.9601L31.6575 25.8206L31.9524 25.7624L31.9052 25.5763C31.9052 25.5647 31.917 25.5647 31.9288 25.553L31.9288 25.553ZM29.0981 25.6112L28.9566 25.7159L29.0156 25.774L29.0745 25.8671L29.2161 25.6461L29.0981 25.6112ZM10.6399 26.7045V26.9022H10.7932V27.1581H10.9112L10.8876 26.8673L10.7343 26.8092V26.7161L10.6399 26.7045ZM39.2767 26.8092L39.2649 26.9836L39.4536 26.9953L39.4654 26.8324L39.2767 26.8092ZM39.1116 27.2162L39.0762 27.3326C39.088 27.3326 39.0998 27.3442 39.1116 27.3558L39.1352 27.4605C39.1234 27.4722 39.1116 27.4838 39.1116 27.4954L39.1941 27.5768C39.2531 27.5071 39.2767 27.4373 39.2649 27.3791C39.2413 27.2628 39.1351 27.2279 39.1116 27.2163V27.2162ZM35.6912 27.5652L36.5521 28.4142C36.5167 28.5538 36.3752 28.6352 36.3045 28.5887C36.2219 28.5305 36.3988 28.6817 36.446 28.7631C36.4814 28.8446 36.5993 28.8446 36.6465 28.7631C36.6701 28.705 36.6701 28.6119 36.6819 28.5305L37.0829 28.926C37.0357 29.0307 36.9768 29.1237 37.0004 29.1935L37.1773 29.2749L37.2009 29.6122C37.3306 29.7401 37.6255 29.7401 37.8614 29.7052L37.9439 29.7867C37.2245 30.4845 36.4224 31.1009 35.5732 31.6359V31.4499C35.9271 31.194 35.9507 30.7404 35.6086 30.7055C35.361 30.6706 35.4671 30.4147 35.703 30.3682L35.8445 30.31V30.1239L36.2927 29.7169V29.4028L35.3138 28.6002C35.1133 28.5305 35.1015 28.2862 35.1723 28.0536C35.3374 27.8907 35.5143 27.7396 35.6912 27.5651L35.6912 27.5652ZM11.6188 27.6117L11.7604 27.9606L11.8429 28.1351L11.9963 28.3561L12.2086 28.5538L12.2911 28.4142L12.1496 28.1235L12.0081 28.0304L11.9137 27.7513L11.6188 27.6117ZM7.78566 27.8909C8.97689 30.2403 8.45795 33.2643 10.003 35.4741C10.4866 36.172 11.1589 36.8349 11.784 37.3816L11.7604 37.4049C11.1942 37.149 10.6871 36.7535 10.1681 36.3348C7.4672 34.1133 3.39814 33.8342 1.78231 30.217C2.2187 32.8688 4.35349 35.2183 6.66518 36.707C8.85894 38.126 11.666 37.9631 14.0956 38.754C11.8429 36.9629 11.5009 34.2762 10.4983 31.9267C9.87325 30.4962 8.85894 29.1819 7.78564 27.8909L7.78566 27.8909ZM47.2143 27.8909C46.1292 29.1702 45.1149 30.4845 44.4898 31.95C43.4872 34.2994 43.1452 36.9861 40.8925 38.7773C43.3221 37.9864 46.141 38.1376 48.3229 36.7303C50.6228 35.2415 52.7576 32.8921 53.2058 30.2403C51.59 33.8574 47.5209 34.1366 44.82 36.3581C44.3011 36.7768 43.7939 37.1722 43.2278 37.4281L43.2042 37.4048C43.8293 36.8465 44.5016 36.1836 44.9851 35.4974C46.5302 33.2643 46.023 30.2403 47.2143 27.8909L47.2143 27.8909ZM16.4545 28.7399C16.6315 28.7399 16.8555 28.9376 16.8909 29.0191C16.9027 29.0656 16.9617 29.1237 17.0207 29.1702L16.7258 29.461C16.5489 29.2749 16.372 29.0888 16.1951 28.8911H16.2776C16.313 28.7864 16.3838 28.7399 16.4545 28.7399ZM28.072 29.8332C28.1899 29.8448 28.3197 29.8681 28.4022 29.9263C28.6145 30.0775 28.9094 29.9844 28.9094 29.9844L29.1217 30.2403C28.6617 30.3101 28.2017 30.345 27.73 30.3566V29.8914C27.8007 29.8448 27.9305 29.8216 28.072 29.8332ZM38.2623 30.1123L40.7391 32.5548C39.3592 33.8807 37.7788 34.9973 36.0332 35.8696C33.5328 37.1141 30.7139 37.8468 27.73 37.8817V34.4274C29.1571 34.4041 30.5606 34.1947 31.8934 33.7993L32.2354 33.904L32.3298 34.218L32.4831 34.1947L32.601 34.1017L33.0728 34.0784L33.3087 33.8574L33.5682 33.8225L35.4199 32.2756C36.4342 31.6592 37.3895 30.9381 38.2623 30.1123V30.1123ZM29.3576 30.6822L29.393 30.7753L29.7232 30.8683L29.9591 30.9265L30.0417 31.2638L30.2186 31.2871L30.2776 31.508C30.4899 31.6592 30.2186 31.9965 30.2186 31.9965V32.4269L30.3719 32.5083L30.3483 32.6711L30.6078 32.927L30.9026 32.9503L31.3862 33.462C30.2186 33.7761 28.992 33.9505 27.7182 33.9738V30.8218C28.2843 30.8102 28.8268 30.7637 29.3576 30.6823L29.3576 30.6822ZM24.6162 30.9963L24.4983 31.0893L24.4393 31.1359L24.4983 31.1824L24.6398 31.2755L24.7106 31.1824L24.6398 31.1243L24.6988 31.0777L24.6162 30.9963ZM26.008 32.4036L25.9608 32.5083L26.0787 32.5664L26.0433 32.6013L26.1259 32.6828L26.2202 32.5897L26.2792 32.5316L26.2084 32.4966L26.008 32.4036ZM16.0889 33.3922L16.2422 33.6248L16.2658 33.7993L16.4663 33.8574L16.5489 33.9738L16.6904 33.8923L16.5961 33.6365L16.3366 33.4155L16.0889 33.3922ZM11.666 33.6132C13.1403 35.5672 13.5531 38.4051 16.2422 39.3937C16.714 39.5682 17.2683 39.6031 17.6693 39.8589C17.1504 39.9404 16.7022 39.7775 16.2186 39.6729C12.7629 38.9634 8.52871 39.8938 5.93395 36.9861C6.91288 38.8936 8.94151 40.394 10.8994 41.022C13.9187 41.999 17.0678 40.9057 19.8985 40.2195C20.3113 40.1148 20.8067 40.1497 21.1841 40.0101C19.6036 39.6961 18.0821 39.2192 16.8555 38.1143C15.0982 36.5325 13.5531 34.8461 11.666 33.6132ZM43.3221 33.6132C41.4468 34.8461 39.89 36.5325 38.1326 38.1143C36.906 39.2192 35.3845 39.6845 33.8041 40.0101C34.1815 40.1497 34.6768 40.1148 35.0896 40.2195C37.9321 40.9173 41.0694 42.0106 44.0888 41.022C46.0348 40.3823 48.0635 38.882 49.0542 36.9861C46.4594 39.8938 42.2252 38.9634 38.7695 39.6845C38.2859 39.7892 37.8377 39.9403 37.3188 39.8706C37.7316 39.6147 38.2741 39.5798 38.7459 39.4053C41.435 38.4051 41.8478 35.5672 43.3221 33.6132ZM24.6398 39.9404C21.9861 39.9404 19.6036 41.2081 17.2801 42.1618C15.1689 43.0225 12.3737 42.8597 10.4984 41.5803C11.4183 42.7201 12.6567 43.4296 13.9423 43.9065C16.313 44.8369 19.0847 44.1274 21.1133 42.848C22.564 41.9292 23.8142 40.6266 25.548 40.6266C25.8547 40.6266 26.1613 40.6615 26.468 40.7196C24.0383 41.685 21.821 43.3714 20.099 44.9998C20.4174 45.3603 20.8302 45.6976 21.2195 46C23.1419 44.0344 25.3239 41.9176 27.5059 41.0336C29.6878 41.906 31.8698 44.0344 33.7923 46C34.1815 45.686 34.5943 45.3603 34.9127 44.9998C33.1908 43.3714 30.9734 41.685 28.5438 40.7196C28.8504 40.6615 29.1571 40.6266 29.4637 40.6266C31.1975 40.6266 32.4477 41.9292 33.8984 42.848C35.9152 44.1158 38.6869 44.8369 41.0694 43.9065C42.3432 43.4296 43.5816 42.7201 44.5134 41.5803C42.6498 42.848 39.8428 43.0225 37.7316 42.1618C35.3963 41.2081 33.0256 39.9404 30.3719 39.9404C29.4048 39.9404 28.4494 40.1032 27.5177 40.3823C26.5623 40.0915 25.607 39.9404 24.6398 39.9404Z" fill="#418FDE"/>
</svg>
