<svg width="146" height="146" viewBox="0 0 146 146" fill="none" xmlns="http://www.w3.org/2000/svg">
<g filter="url(#filter0_d)">
<g clip-path="url(#clip0)">
<rect x="5.5" y="5.5" width="135" height="135" rx="8" fill="#F2F2F2"/>
<rect x="57.5" y="5.5" width="16" height="16" fill="#BDBDBD"/>
<rect x="57.5" y="37.5" width="16" height="16" fill="#BDBDBD"/>
<rect x="57.5" y="69.5" width="16" height="16" fill="#BDBDBD"/>
<rect x="73.5" y="21.5" width="16" height="16" fill="#BDBDBD"/>
<rect x="73.5" y="53.5" width="16" height="16" fill="#BDBDBD"/>
<rect x="73.5" y="85.5" width="16" height="16" fill="#BDBDBD"/>
<path d="M73.5 101.5L82.1603 116.5H64.8397L73.5 101.5Z" fill="#BDBDBD"/>
</g>
<path d="M13.5 6.5H132.5V4.5H13.5V6.5ZM139.5 13.5V132.5H141.5V13.5H139.5ZM132.5 139.5H13.5V141.5H132.5V139.5ZM6.5 132.5V13.5H4.5V132.5H6.5ZM13.5 139.5C9.634 139.5 6.5 136.366 6.5 132.5H4.5C4.5 137.471 8.52943 141.5 13.5 141.5V139.5ZM139.5 132.5C139.5 136.366 136.366 139.5 132.5 139.5V141.5C137.471 141.5 141.5 137.471 141.5 132.5H139.5ZM132.5 6.5C136.366 6.5 139.5 9.63401 139.5 13.5H141.5C141.5 8.52944 137.471 4.5 132.5 4.5V6.5ZM13.5 4.5C8.52944 4.5 4.5 8.52943 4.5 13.5H6.5C6.5 9.634 9.63401 6.5 13.5 6.5V4.5Z" fill="#E0E0E0"/>
</g>
<defs>
<filter id="filter0_d" x="0.5" y="0.5" width="145" height="145" filterUnits="userSpaceOnUse" color-interpolation-filters="sRGB">
<feFlood flood-opacity="0" result="BackgroundImageFix"/>
<feColorMatrix in="SourceAlpha" type="matrix" values="0 0 0 0 0 0 0 0 0 0 0 0 0 0 0 0 0 0 127 0"/>
<feOffset/>
<feGaussianBlur stdDeviation="2"/>
<feColorMatrix type="matrix" values="0 0 0 0 0 0 0 0 0 0 0 0 0 0 0 0 0 0 0.1 0"/>
<feBlend mode="normal" in2="BackgroundImageFix" result="effect1_dropShadow"/>
<feBlend mode="normal" in="SourceGraphic" in2="effect1_dropShadow" result="shape"/>
</filter>
<clipPath id="clip0">
<rect x="5.5" y="5.5" width="135" height="135" rx="8" fill="white"/>
</clipPath>
</defs>
</svg>
