<svg width="138" height="137" viewBox="0 0 138 137" fill="none" xmlns="http://www.w3.org/2000/svg">
<rect x="1.5" y="1" width="135" height="135" rx="8" fill="#F2F2F2"/>
<path d="M98.5 69L47.5 99L47.5 39L98.5 69Z" fill="#BDBDBD"/>
<path d="M9.5 2H128.5V0H9.5V2ZM135.5 9V128H137.5V9H135.5ZM128.5 135H9.5V137H128.5V135ZM2.5 128V9H0.5V128H2.5ZM9.5 135C5.634 135 2.5 131.866 2.5 128H0.5C0.5 132.971 4.52943 137 9.5 137V135ZM135.5 128C135.5 131.866 132.366 135 128.5 135V137C133.471 137 137.5 132.971 137.5 128H135.5ZM128.5 2C132.366 2 135.5 5.13401 135.5 9H137.5C137.5 4.02944 133.471 0 128.5 0V2ZM9.5 0C4.52944 0 0.5 4.02943 0.5 9H2.5C2.5 5.134 5.63401 2 9.5 2V0Z" fill="#E0E0E0"/>
</svg>
