<svg width="24" height="24" viewBox="0 0 24 24" fill="none" xmlns="http://www.w3.org/2000/svg">
  <path d="M14.9932 3.5C14.9932 4.32843 14.3216 5 13.4932 5C12.6647 5 11.9932 4.32843 11.9932 3.5C11.9932 2.67157 12.6647 2 13.4932 2C14.3216 2 14.9932 2.67157 14.9932 3.5Z" fill="currentColor"/>
  <path d="M16.9932 6C17.5454 6 17.9932 5.55228 17.9932 5C17.9932 4.44772 17.5454 4 16.9932 4C16.4409 4 15.9932 4.44772 15.9932 5C15.9932 5.55228 16.4409 6 16.9932 6Z" fill="currentColor"/>
  <path d="M8.3339 17.5H6.28501C5.90938 17.5 5.60205 17.815 5.60205 18.2C5.60205 18.585 5.90938 18.9 6.28501 18.9H8.3339C8.70953 18.9 9.01686 18.585 9.01686 18.2C9.01686 17.815 8.70953 17.5 8.3339 17.5Z" fill="currentColor"/>
  <path fill-rule="evenodd" clip-rule="evenodd" d="M21.9795 19.033L20.7502 7.931C20.6887 7.399 20.2516 7 19.7257 7H16.1948C15.628 7 15.1636 7.469 15.1636 8.05V11.137L12.4932 9.261C12.22 9.072 11.8717 9.051 11.578 9.205C11.2843 9.366 11.0999 9.674 11.0999 10.01V11.13L8.42955 9.254C8.15636 9.065 7.80805 9.044 7.52121 9.198C7.22753 9.352 7.04996 9.667 7.04996 10.003V11.13L4.37958 9.261C4.1064 9.072 3.75809 9.051 3.47124 9.205C3.17757 9.359 3 9.674 3 10.01V19.229C3 20.209 3.77175 21 4.72106 21H20.2448C20.7502 21 21.2283 20.783 21.5629 20.398C21.8907 20.027 22.041 19.523 21.9863 19.033H21.9795ZM19.4252 8.4L19.5004 9.1H16.6456C16.6046 9.1 16.5636 9.114 16.5226 9.128V8.4H19.4252ZM20.5316 19.467C20.4907 19.516 20.395 19.6 20.238 19.6H4.71423C4.52301 19.6 4.35909 19.432 4.35909 19.229V10.941L7.02948 12.817C7.30266 13.006 7.65097 13.027 7.93781 12.873C8.23149 12.712 8.40906 12.404 8.40906 12.068V10.941L11.0794 12.817C11.3526 13.006 11.7009 13.027 11.9878 12.873C12.2815 12.719 12.459 12.404 12.459 12.068V10.941L15.1499 12.831V17.5C15.1499 17.885 15.4572 18.2 15.8329 18.2C16.2085 18.2 16.5158 17.885 16.5158 17.5V10.472C16.5322 10.4748 16.5486 10.4798 16.565 10.4849C16.5896 10.4924 16.6142 10.5 16.6387 10.5H19.6506L20.6136 19.187C20.6272 19.32 20.5658 19.418 20.5248 19.467H20.5316Z" fill="currentColor"/>
  <path d="M8.99316 6C10.0977 6 10.9932 5.10457 10.9932 4C10.9932 2.89543 10.0977 2 8.99316 2C7.88859 2 6.99316 2.89543 6.99316 4C6.99316 5.10457 7.88859 6 8.99316 6Z" fill="currentColor"/>
</svg>
