<svg width="24" height="24" viewBox="0 0 24 24" fill="none" xmlns="http://www.w3.org/2000/svg">
  <path fill-rule="evenodd" clip-rule="evenodd" d="M6.50876 3.02265C7.46629 3.98018 7.45742 5.53516 6.49099 6.50159L6.49977 6.51037C6.02535 6.9848 5.41037 7.24839 4.75148 7.23964C4.09259 7.2309 3.46886 6.97616 2.99448 6.50179C2.52011 6.02742 2.25659 5.41247 2.26541 4.75358C2.25667 4.09469 2.52026 3.47971 2.99469 3.00528C3.97868 2.02128 5.52488 2.03877 6.50876 3.02265ZM4.08399 4.09458C3.7062 4.47237 3.70617 5.03462 4.08391 5.41236C4.45287 5.78132 5.0239 5.79007 5.3929 5.42107C5.5774 5.23657 5.67405 4.99937 5.67407 4.75338C5.67408 4.5074 5.57746 4.2702 5.39298 4.08572C5.03281 3.72555 4.45299 3.72558 4.08399 4.09458Z" fill="currentColor"/>
  <path d="M9.14381 11.7198L9.1424 11.7184L9.1526 11.7111L9.14381 11.7198Z" fill="currentColor"/>
  <path fill-rule="evenodd" clip-rule="evenodd" d="M13.9584 5.55236C13.2293 5.68418 12.5704 6.04441 11.9817 6.63305C11.7533 6.42222 11.5249 6.21138 11.2614 6.05327C9.69766 5.05185 7.60677 5.35066 6.39433 6.77393C5.56847 7.74035 5.28728 8.86487 5.56833 10.1299C5.71764 10.8239 6.07779 11.4477 6.63123 12.0011L6.62244 12.0099C6.47309 12.1593 6.3413 12.3086 6.2183 12.4843C5.00584 14.136 5.30441 16.4201 6.89445 17.6939C8.13311 18.6866 9.86378 18.8007 11.1992 17.9748C11.4233 17.8374 11.6177 17.6703 11.8068 17.5077C11.8475 17.4727 11.888 17.4379 11.9284 17.4037L11.9811 17.351L12.0162 17.3861C12.5785 17.9483 13.2549 18.3085 14.0104 18.449C15.214 18.6861 16.4176 18.3434 17.3225 17.4912L17.4103 17.4034C18.2538 16.5599 18.6404 15.4179 18.4911 14.2494C18.3769 13.4148 18.008 12.6769 17.3843 12.0181L17.6127 11.7193C17.6406 11.6822 17.6697 11.645 17.699 11.6076C17.7807 11.5032 17.8644 11.3964 17.929 11.2801C18.8779 9.76896 18.6672 7.83623 17.3934 6.58002C16.4534 5.64006 15.285 5.29751 13.9584 5.55236ZM16.6641 8.15261C17.0594 8.84662 17.0682 9.66364 16.6816 10.3313C16.5849 10.4983 16.4531 10.6476 16.3126 10.8058L16.2423 10.876C16.1017 10.7355 15.9612 10.5949 15.8118 10.4632C15.2584 9.98002 14.4765 9.88342 13.8088 10.147C13.8791 9.97131 13.9231 9.78682 13.9494 9.60233C14.0022 9.0225 13.7914 8.44269 13.3609 7.99467L13.071 7.70478C13.5542 7.22156 14.1165 6.99312 14.7754 7.00186C15.5573 7.0106 16.2688 7.44104 16.6729 8.14383L16.6641 8.15261ZM14.8714 16.973C14.1774 16.9994 13.5888 16.7799 13.0793 16.2703C13.2199 16.1298 13.3605 15.9892 13.501 15.8311C13.9842 15.2776 14.0985 14.4957 13.835 13.828C14.4236 14.0652 15.1176 14.0036 15.6799 13.6171C15.9083 13.4589 16.0928 13.2744 16.2685 13.0811C16.778 13.5906 17.0064 14.188 16.9712 14.8733C16.9272 15.9538 15.9696 16.9115 14.8802 16.9643L14.8714 16.973ZM14.204 12.2467C14.0898 12.1149 14.1074 11.8689 14.2304 11.7283C14.3974 11.5614 14.617 11.5175 14.8015 11.6492C14.9008 11.7221 14.9852 11.8099 15.0658 11.8939C15.0922 11.9213 15.1181 11.9483 15.1441 11.9743L15.1616 11.9918L15.065 12.0885L14.8102 12.273L14.8454 12.3081L14.7926 12.3608C14.5906 12.4926 14.3797 12.4575 14.204 12.2467ZM12.7281 12.7387C12.2537 12.5455 11.7266 12.5455 11.2522 12.7388C11.3049 12.5982 11.3488 12.4489 11.3752 12.282C11.4279 11.9305 11.384 11.5704 11.2523 11.2629C11.7267 11.4561 12.2626 11.4649 12.737 11.2716C12.5437 11.746 12.5436 12.2731 12.7369 12.7475L12.7281 12.7387ZM12.2975 14.8735L11.99 15.181L11.6386 14.8297C11.4805 14.6188 11.5332 14.3904 11.7353 14.2235C11.8934 14.1005 12.1394 14.118 12.2975 14.2761C12.4645 14.4431 12.4644 14.689 12.2975 14.8735ZM9.1424 11.7184L9.11745 11.6935C9.11745 11.6935 9.1526 11.6583 9.17895 11.6496C9.37223 11.5265 9.60943 11.5705 9.75877 11.7725C9.88175 11.9306 9.8466 12.1766 9.69724 12.326L9.68845 12.3348C9.5391 12.4841 9.28433 12.4754 9.1262 12.3348L8.79239 12.001L8.89781 11.8956L9.1424 11.7184ZM12.2187 9.78692C12.0518 9.9187 11.8058 9.88358 11.6477 9.70788C11.4984 9.55854 11.5072 9.30377 11.6565 9.13685L11.964 8.82935C12.0958 8.96111 12.2188 9.08411 12.3242 9.22466C12.456 9.40914 12.4032 9.65513 12.21 9.7957L12.2187 9.78692ZM10.7781 7.83669C10.3915 8.18812 10.1367 8.58347 10.0401 9.03152C9.95218 9.41807 9.99608 9.8134 10.1454 10.1736C9.43383 9.88372 8.59044 10.0419 8.01937 10.5954L7.6943 10.9205C7.29899 10.5252 7.08817 10.1035 7.01791 9.64666C6.92132 8.9702 7.0707 8.38158 7.49242 7.85445C8.23043 6.94075 9.58336 6.76496 10.5321 7.45016C10.6551 7.538 10.7517 7.63463 10.8572 7.74005L10.7517 7.84548L10.7781 7.83669ZM8.1949 13.5472C8.78348 14.0128 9.45994 14.1094 10.154 13.8194C10.0837 13.9951 10.031 14.1884 10.0134 14.3817C9.96064 14.9615 10.1627 15.5501 10.5843 15.9718L10.8918 16.2792C10.391 16.7625 9.81996 16.9997 9.16986 16.9822C8.06293 16.9647 7.09661 16.0511 7.00882 14.9441C6.94737 14.2325 7.1846 13.6263 7.70296 13.0904L7.74688 13.1343C7.89622 13.2837 8.03678 13.4242 8.20369 13.556L8.1949 13.5472Z" fill="currentColor"/>
  <path fill-rule="evenodd" clip-rule="evenodd" d="M2.99381 17.5008C2.02739 18.4673 2.00094 19.9871 2.94968 20.971C3.3977 21.4366 4.03901 21.7265 4.70668 21.7264C5.36557 21.7352 5.98933 21.4979 6.44619 21.0411L6.47254 21.0147C6.94697 20.5403 7.21935 19.9165 7.21939 19.2489C7.22821 18.59 6.97347 17.9838 6.52546 17.5182C5.53279 16.5255 3.99538 16.4993 3.01138 17.4833L2.99381 17.5008ZM5.39203 19.9166C5.21632 20.0923 4.97911 20.189 4.74191 20.1802C4.49592 20.1802 4.26752 20.0748 4.09182 19.8991C3.90734 19.7147 3.81072 19.4775 3.81952 19.2403C3.81953 18.9943 3.92497 18.7659 4.10947 18.5814L4.11825 18.5726C4.47847 18.2124 5.06707 18.2387 5.43603 18.6252C5.78742 18.9766 5.76103 19.5652 5.40081 19.9254L5.39203 19.9166Z" fill="currentColor"/>
  <path fill-rule="evenodd" clip-rule="evenodd" d="M19.2472 2.26644C18.5971 2.26648 17.9646 2.53007 17.4989 2.99571C16.515 3.97971 16.5236 5.51712 17.5163 6.50978C17.9731 6.96659 18.5969 7.22132 19.247 7.22128C19.9146 7.22125 20.5384 6.96644 21.0128 6.49201C21.9705 5.53437 21.9618 3.96182 20.9955 2.99551C20.5211 2.52113 19.8973 2.2664 19.2472 2.26644ZM19.9148 4.09372C20.0905 4.26941 20.1871 4.50661 20.1871 4.75259C20.1871 4.99858 20.0817 5.26214 19.8972 5.42907C19.5369 5.78928 18.9483 5.78053 18.5882 5.42036C18.2192 5.0514 18.2192 4.47158 18.5882 4.10258C18.9572 3.73358 19.5371 3.73355 19.906 4.1025L19.9148 4.09372Z" fill="currentColor"/>
  <path fill-rule="evenodd" clip-rule="evenodd" d="M16.7689 19.2571C16.769 18.607 17.0326 17.9744 17.507 17.5C18.4734 16.5336 20.0284 16.5247 20.9947 17.491C21.961 18.4573 21.9697 20.0299 21.0033 20.9963C20.5289 21.4707 19.9051 21.7255 19.2462 21.7344C18.5873 21.7256 17.9636 21.4709 17.4892 20.9965C17.0236 20.5309 16.7689 19.9072 16.7689 19.2571ZM19.2552 18.3169C19.0092 18.3169 18.772 18.4136 18.5963 18.5893L18.6051 18.5981C18.4294 18.7738 18.3327 19.011 18.3327 19.257C18.3327 19.503 18.4293 19.7402 18.605 19.9159C18.9652 20.2936 19.545 20.2936 19.914 19.9246C20.283 19.5556 20.283 18.9758 19.9141 18.6068C19.7384 18.4135 19.5012 18.3169 19.2552 18.3169Z" fill="currentColor"/>
</svg>
