<svg width="24" height="24" viewBox="0 0 24 24" fill="none" xmlns="http://www.w3.org/2000/svg">
  <path d="M15.6643 4.14286H15.2857V3.56429C15.2857 2.7 14.5857 2 13.7214 2H9.70714C8.84286 2 8.14286 2.7 8.14286 3.56429V4.14286H7.76429C6.79286 4.14286 6 4.93571 6 5.90714V20.2357C6 21.2071 6.79286 22 7.76429 22H8.85714C9.25 22 9.57143 21.6786 9.57143 21.2857C9.57143 20.8929 9.25 20.5714 8.85714 20.5714H7.76429C7.57857 20.5714 7.42857 20.4214 7.42857 20.2357V5.90714C7.42857 5.72143 7.57857 5.57143 7.76429 5.57143H11.7143C12.1071 5.57143 12.4286 5.25 12.4286 4.85714C12.4286 4.46429 12.1071 4.14286 11.7143 4.14286H9.57143V3.56429C9.57143 3.48571 9.63571 3.42857 9.70714 3.42857H13.7214C13.8 3.42857 13.8571 3.49286 13.8571 3.56429V4.85714C13.8571 5.25 14.1786 5.57143 14.5714 5.57143H15.6643C15.85 5.57143 16 5.72143 16 5.90714V20.2357C16 20.4214 15.85 20.5714 15.6643 20.5714H8.47857C8.08571 20.5714 7.76429 20.8929 7.76429 21.2857C7.76429 21.6786 8.08571 22 8.47857 22H15.6643C16.6357 22 17.4286 21.2071 17.4286 20.2357V5.90714C17.4286 4.93571 16.6357 4.14286 15.6643 4.14286Z" fill="currentColor"/>
  <path d="M8.14282 18.7072C8.14282 19.3429 8.65711 19.8572 9.29282 19.8572H14.1357C14.7714 19.8572 15.2857 19.3429 15.2857 18.7072V16.7214C15.2857 16.0857 14.7714 15.5714 14.1357 15.5714H9.29282C8.65711 15.5714 8.14282 16.0857 8.14282 16.7214V18.7072ZM9.57139 17H13.8571V18.4286H9.57139V17Z" fill="currentColor"/>
  <path d="M9.29282 14.8572H14.1357C14.7714 14.8572 15.2857 14.3429 15.2857 13.7072V11.7214C15.2857 11.0857 14.7714 10.5714 14.1357 10.5714H9.29282C8.65711 10.5714 8.14282 11.0857 8.14282 11.7214V13.7072C8.14282 14.3429 8.65711 14.8572 9.29282 14.8572ZM9.57139 12H13.8571V13.4286H9.57139V12Z" fill="currentColor"/>
</svg>
