<svg width="24" height="24" viewBox="0 0 24 24" fill="none" xmlns="http://www.w3.org/2000/svg">
  <path d="M12.0001 5.80952C13.0042 5.80952 13.8182 4.95673 13.8182 3.90476C13.8182 2.85279 13.0042 2 12.0001 2C10.9959 2 10.1819 2.85279 10.1819 3.90476C10.1819 4.95673 10.9959 5.80952 12.0001 5.80952Z" fill="currentColor"/>
  <path fill-rule="evenodd" clip-rule="evenodd" d="M19.1272 10.0545L21.8472 14.3289C21.9535 14.4959 22.0028 14.6854 21.9999 14.872C21.9922 16.9691 20.3671 18.6667 18.3636 18.6667C16.3601 18.6667 14.735 16.9691 14.7273 14.872C14.7244 14.6854 14.7737 14.4959 14.88 14.3289L17.001 10.9958L12.9092 9.15861L12.9092 20.0952H19.2727C19.7747 20.0952 20.1818 20.5216 20.1818 21.0476C20.1818 21.5736 19.7747 22 19.2727 22H5.63655C5.13448 22 4.72747 21.5736 4.72747 21.0476C4.72747 20.5216 5.13448 20.0952 5.63655 20.0952H11.091V8.34228L7.13913 6.56795L9.2262 13.1274C9.26069 13.2358 9.27554 13.3461 9.27277 13.4541C9.25966 15.5463 7.63669 17.2381 5.63655 17.2381C3.63642 17.2381 2.01345 15.5463 2.00033 13.4541C1.99755 13.3462 2.0124 13.2358 2.0469 13.1274L4.77141 4.5645C4.77517 4.55236 4.77917 4.54025 4.78342 4.52818C4.79996 4.48108 4.81982 4.43593 4.84267 4.39301C4.97252 4.14854 5.19415 3.98395 5.44177 3.92682C5.5937 3.89176 5.75541 3.89716 5.91173 3.94937C5.94267 3.95967 5.97295 3.97167 6.00248 3.98528L12.3389 6.83025C12.3516 6.83561 12.3642 6.84127 12.3767 6.84722L18.7194 9.69502C18.7245 9.69729 18.7296 9.6996 18.7346 9.70197C18.9013 9.77998 19.0348 9.90443 19.1272 10.0545ZM16.7289 14.8571H19.9983L18.3636 12.2884L16.7289 14.8571ZM5.63655 7.86884L7.40552 13.4286H3.86757L5.63655 7.86884Z" fill="currentColor"/>
</svg>
