<svg width="24" height="24" viewBox="0 0 24 24" fill="none" xmlns="http://www.w3.org/2000/svg">
  <path fill-rule="evenodd" clip-rule="evenodd" d="M14.6458 8.9494C15.9277 8.9494 16.9687 9.99037 16.9687 11.2723L16.9591 11.2627C16.9591 12.5446 15.9181 13.5855 14.6362 13.5855C14.1253 13.5855 13.6627 13.4217 13.2771 13.1422C13.4603 13.6048 13.547 14.0675 13.547 14.3181C13.547 14.7422 13.3639 14.9446 13.2 15.0506C12.8916 15.2434 12.5253 15.1277 12.2844 15.0121C12.082 14.9157 11.8795 14.9157 11.6771 15.0121C11.5422 15.0795 11.3494 15.1663 11.1374 15.1663C11.0217 15.1663 10.8868 15.1374 10.7615 15.0602C10.6073 14.9542 10.4145 14.7518 10.4145 14.3277C10.4145 14.0868 10.5012 13.6145 10.6844 13.1518C10.2988 13.4217 9.83618 13.5952 9.32533 13.5952C8.04341 13.5952 7.00244 12.5542 7.00244 11.2723C7.00244 9.99037 8.04341 8.9494 9.32533 8.9494C10.6073 8.9494 11.6482 9.99037 11.6482 11.2723C11.6482 11.5422 11.5904 11.8121 11.5036 12.053C11.6482 11.9663 11.8024 11.9084 11.9856 11.9084C12.1687 11.9084 12.3229 11.9663 12.4675 12.053C12.3808 11.8121 12.3229 11.5518 12.3229 11.2723C12.3229 9.99037 13.3639 8.9494 14.6458 8.9494ZM15.735 11.2723C15.735 10.6747 15.2434 10.1928 14.6458 10.1928C14.0482 10.1928 13.5663 10.6747 13.5663 11.2723C13.5663 11.8699 14.0386 12.3518 14.6458 12.3518C15.253 12.3518 15.735 11.8699 15.735 11.2723ZM12.188 13.6916C12.1302 13.5277 12.053 13.3831 11.9952 13.2771C11.9277 13.3831 11.8603 13.5277 11.8024 13.6916C11.9277 13.6723 12.0627 13.6723 12.188 13.6916ZM8.25545 11.2819C8.25545 11.8795 8.74702 12.3615 9.34461 12.3615C9.9422 12.3615 10.4241 11.8795 10.4241 11.2819C10.4241 10.6843 9.95184 10.2024 9.34461 10.2024C8.73738 10.2024 8.25545 10.6843 8.25545 11.2819Z" fill="currentColor"/>
  <path fill-rule="evenodd" clip-rule="evenodd" d="M19.7829 15.8409C20.4673 15.7735 21.007 15.9084 21.354 16.2554C22.2215 17.1132 22.2215 18.5204 21.354 19.3879C20.9974 19.7445 20.5348 19.9662 20.0335 20.0241C19.9757 20.5156 19.754 20.9879 19.3974 21.3445C18.9733 21.759 18.4239 21.9903 17.8263 21.9903C17.2287 21.9903 16.6697 21.759 16.2552 21.3445C15.8986 20.9975 15.7637 20.4674 15.8408 19.7735C15.9082 19.1759 15.7637 18.5879 15.4263 18.0771C15.2528 18.1927 15.0408 18.2602 14.8191 18.2602H14.3757C13.7781 18.2602 13.2962 17.7783 13.2962 17.1807C13.2962 17.7783 12.8143 18.2602 12.2167 18.2602H11.7733C11.1757 18.2602 10.6938 17.7783 10.6938 17.1807C10.6938 17.7783 10.2119 18.2602 9.61427 18.2602H9.1709C8.94921 18.2602 8.73716 18.1927 8.56367 18.0771C8.22632 18.5879 8.08174 19.1759 8.14921 19.7735C8.22632 20.4674 8.08174 20.9975 7.73475 21.3445C6.8962 22.1831 5.44078 22.1831 4.60222 21.3445C4.2456 20.9879 4.02391 20.5253 3.96608 20.0241C3.47451 19.9662 3.00222 19.7445 2.6456 19.3879C1.77813 18.5301 1.77813 17.1229 2.6456 16.2554C2.99259 15.8988 3.52271 15.7638 4.21668 15.8409C5.00704 15.9373 5.78777 15.6482 6.37572 15.0602L6.53957 14.8963C5.56608 13.9036 5.03596 12.6698 5.03596 11.3879C5.03596 10.4048 5.35403 9.44092 5.95162 8.59273C5.43114 8.24574 4.82391 8.08189 4.21668 8.15899C3.53234 8.22646 2.99259 8.09153 2.6456 7.74454C1.78777 6.87707 1.78777 5.46984 2.6456 4.60237C3.00222 4.24574 3.46487 4.02406 3.96608 3.96622C4.02391 3.47466 4.2456 3.00237 4.60222 2.64574C5.46969 1.78791 6.87692 1.78791 7.74439 2.64574C8.10102 2.99273 8.23596 3.52285 8.15885 4.21683C8.0721 4.97827 8.34198 5.74936 8.89138 6.32767C10.8191 5.54695 13.1902 5.54695 15.1179 6.32767C15.6673 5.74936 15.9372 4.97827 15.8504 4.21683C15.7733 3.52285 15.9179 2.99273 16.2649 2.64574C17.1227 1.77827 18.5299 1.78791 19.3974 2.64574C19.754 3.01201 19.9757 3.47466 20.0335 3.97586C20.5251 4.03369 20.9974 4.25538 21.354 4.61201C22.2215 5.46984 22.2215 6.87707 21.354 7.74454C21.007 8.10116 20.4769 8.2361 19.7829 8.15899C19.1661 8.08189 18.5685 8.24574 18.048 8.59273C18.6456 9.44092 18.9637 10.4048 18.9637 11.3879C18.9637 12.6602 18.4335 13.8939 17.4601 14.8963L17.6239 15.0602C18.2119 15.6482 18.9926 15.9277 19.7829 15.8409ZM18.7709 19.5229C18.7131 19.3108 18.7805 19.0795 18.9348 18.9253V18.9349C19.089 18.7807 19.3203 18.7229 19.5323 18.7807C19.8697 18.8771 20.2263 18.771 20.4769 18.5301C20.8625 18.1445 20.8625 17.5277 20.4769 17.1421C20.4384 17.1036 20.2745 17.0457 19.9179 17.0843C18.7516 17.2192 17.595 16.7951 16.7468 15.9469L16.5058 15.706C16.1878 15.9469 15.9757 16.3229 15.9179 16.7277L15.9372 16.7469C16.795 17.5951 17.2095 18.7518 17.0745 19.918C17.036 20.2747 17.0938 20.4385 17.1323 20.4771C17.5179 20.8626 18.1348 20.8626 18.5203 20.4771C18.7709 20.2265 18.8576 19.8602 18.7709 19.5229ZM14.6649 16.9976C14.6552 16.9783 14.6649 16.8819 14.6842 16.7951C14.6938 15.9855 15.1372 15.1566 15.8504 14.6457C17.036 13.8072 17.7203 12.612 17.7203 11.3783C17.7203 10.5204 17.3926 9.69152 16.7854 8.96863L16.6697 8.83369C15.6384 7.68671 13.8745 6.96381 11.995 6.96381C10.1155 6.96381 8.35162 7.68671 7.28174 8.89152L7.25283 8.92044C6.60704 9.65297 6.26969 10.5108 6.26969 11.3879C6.26969 12.6313 6.95403 13.8168 8.13957 14.6554C8.85283 15.1566 9.2962 15.9951 9.31548 16.8819C9.31548 16.8819 9.32512 16.9494 9.31548 17.0265H9.44078V16.9397C9.44078 16.5831 9.60463 16.2361 9.87451 16.0048C10.154 15.7735 10.5107 15.6674 10.8673 15.7253C11.4842 15.8216 11.9275 16.3325 11.9275 16.9494V17.0361H12.0528V16.9494C12.0528 16.3325 12.4962 15.8216 13.1034 15.7253C13.4601 15.6771 13.836 15.7735 14.1058 16.0048C14.3854 16.2361 14.5396 16.5831 14.5396 16.9397V17.0265L14.6649 16.9976ZM5.47933 20.4771C5.86487 20.8626 6.48174 20.8626 6.86728 20.4771L6.87692 20.4674C6.91548 20.4289 6.97331 20.265 6.93475 19.9084C6.80945 18.7421 7.22391 17.5855 8.0721 16.7373L8.09138 16.718C8.03355 16.3132 7.8215 15.9469 7.50343 15.6963L7.26247 15.9373C6.41427 16.7951 5.25765 17.2096 4.09138 17.0747C3.73475 17.0265 3.5709 17.0939 3.53234 17.1325C3.1468 17.518 3.1468 18.1349 3.53234 18.5204C3.77331 18.771 4.13957 18.8578 4.47692 18.771C4.53475 18.7518 4.58295 18.7518 4.64078 18.7518C4.79499 18.7518 4.95885 18.8192 5.07451 18.9349C5.22873 19.0891 5.28656 19.3204 5.22873 19.5325C5.13234 19.8698 5.22873 20.2265 5.47933 20.4771ZM3.52271 6.86743C3.56126 6.90598 3.72512 6.96381 4.08174 6.92526H4.09138C4.23596 6.90598 4.3709 6.90598 4.51548 6.90598C5.32512 6.90598 6.10584 7.16622 6.78054 7.65779C7.06969 7.38791 7.3974 7.13731 7.75403 6.91562C7.10825 6.11562 6.80945 5.10357 6.92512 4.09153C6.96367 3.7349 6.90584 3.57104 6.86728 3.53249C6.50102 3.16622 5.8456 3.16622 5.47933 3.53249C5.22873 3.77345 5.14198 4.13972 5.22873 4.47707C5.28656 4.68912 5.21909 4.92044 5.06487 5.07466C4.91066 5.22887 4.67933 5.28671 4.46728 5.22887C4.12993 5.14213 3.77331 5.23851 3.52271 5.47948C3.33957 5.66261 3.23355 5.91321 3.23355 6.17345C3.23355 6.43369 3.33957 6.6843 3.52271 6.86743ZM17.1323 3.52285C17.0938 3.5614 17.036 3.72526 17.0745 4.08189H17.0842C17.1998 5.09393 16.901 6.09634 16.2552 6.90598C16.6022 7.12767 16.9299 7.37827 17.2287 7.64815C18.0095 7.06984 18.9637 6.8096 19.9179 6.91562C20.2745 6.96381 20.4384 6.89634 20.4769 6.85779C20.6601 6.67466 20.7661 6.42406 20.7661 6.16381C20.7661 5.90357 20.6601 5.65297 20.4769 5.46984C20.236 5.21924 19.8697 5.13249 19.5323 5.21924C19.3203 5.27707 19.089 5.21924 18.9348 5.06502C18.7709 4.9108 18.7131 4.67948 18.7709 4.46743C18.8673 4.13008 18.7709 3.77345 18.5203 3.52285C18.1348 3.13731 17.5179 3.13731 17.1323 3.52285Z" fill="currentColor"/>
</svg>
