<svg width="24" height="24" viewBox="0 0 24 24" fill="none" xmlns="http://www.w3.org/2000/svg">
  <path d="M19 8C20.6569 8 22 6.65685 22 5C22 3.34315 20.6569 2 19 2C17.3431 2 16 3.34315 16 5C16 6.65685 17.3431 8 19 8Z" fill="currentColor"/>
  <path fill-rule="evenodd" clip-rule="evenodd" d="M18 14C18 18.4183 14.4183 22 10 22C5.58172 22 2 18.4183 2 14C2 9.58172 5.58172 6 10 6C14.4183 6 18 9.58172 18 14ZM16 14C16 17.3137 13.3137 20 10 20C6.68629 20 4 17.3137 4 14C4 10.6863 6.68629 8 10 8C13.3137 8 16 10.6863 16 14Z" fill="currentColor"/>
</svg>
