<svg width="16" height="16" viewBox="0 0 16 16" fill="none" xmlns="http://www.w3.org/2000/svg">
  <path d="M7.39992 12.6667H8.56659V11.8333C9.12214 11.7333 9.59992 11.5167 9.99992 11.1833C10.3999 10.85 10.5999 10.3556 10.5999 9.7C10.5999 9.23334 10.4666 8.80556 10.1999 8.41667C9.93325 8.02778 9.39992 7.68889 8.59992 7.4C7.93325 7.17778 7.47214 6.98334 7.21658 6.81667C6.96103 6.65 6.83325 6.42222 6.83325 6.13334C6.83325 5.84445 6.93614 5.61667 7.14192 5.45C7.34725 5.28334 7.64436 5.2 8.03325 5.2C8.38881 5.2 8.66658 5.28622 8.86658 5.45867C9.06658 5.63067 9.21103 5.84445 9.29992 6.1L10.3666 5.66667C10.2444 5.27778 10.0195 4.93889 9.69192 4.65C9.36392 4.36111 8.99992 4.2 8.59992 4.16667V3.33334H7.43325V4.16667C6.8777 4.28889 6.44436 4.53334 6.13325 4.9C5.82214 5.26667 5.66659 5.67778 5.66659 6.13334C5.66659 6.65556 5.81947 7.07778 6.12525 7.4C6.43058 7.72222 6.91103 8 7.56659 8.23334C8.26659 8.48889 8.75281 8.71667 9.02525 8.91667C9.29725 9.11667 9.43325 9.37778 9.43325 9.7C9.43325 10.0667 9.30258 10.336 9.04125 10.508C8.78036 10.6804 8.46658 10.7667 8.09992 10.7667C7.73325 10.7667 7.40836 10.6527 7.12525 10.4247C6.8417 10.1971 6.63325 9.85556 6.49992 9.4L5.39992 9.83334C5.55547 10.3667 5.79725 10.7973 6.12525 11.1253C6.45281 11.4529 6.8777 11.6778 7.39992 11.8V12.6667ZM7.99992 14.6667C7.0777 14.6667 6.21103 14.4916 5.39992 14.1413C4.58881 13.7916 3.88325 13.3167 3.28325 12.7167C2.68325 12.1167 2.20836 11.4111 1.85859 10.6C1.50836 9.78889 1.33325 8.92222 1.33325 8C1.33325 7.07778 1.50836 6.21111 1.85859 5.4C2.20836 4.58889 2.68325 3.88334 3.28325 3.28334C3.88325 2.68334 4.58881 2.20822 5.39992 1.858C6.21103 1.50822 7.0777 1.33334 7.99992 1.33334C8.92214 1.33334 9.78881 1.50822 10.5999 1.858C11.411 2.20822 12.1166 2.68334 12.7166 3.28334C13.3166 3.88334 13.7915 4.58889 14.1413 5.4C14.4915 6.21111 14.6666 7.07778 14.6666 8C14.6666 8.92222 14.4915 9.78889 14.1413 10.6C13.7915 11.4111 13.3166 12.1167 12.7166 12.7167C12.1166 13.3167 11.411 13.7916 10.5999 14.1413C9.78881 14.4916 8.92214 14.6667 7.99992 14.6667ZM7.99992 13.3333C9.48881 13.3333 10.7499 12.8167 11.7833 11.7833C12.8166 10.75 13.3333 9.48889 13.3333 8C13.3333 6.51111 12.8166 5.25 11.7833 4.21667C10.7499 3.18334 9.48881 2.66667 7.99992 2.66667C6.51103 2.66667 5.24992 3.18334 4.21658 4.21667C3.18325 5.25 2.66659 6.51111 2.66659 8C2.66659 9.48889 3.18325 10.75 4.21658 11.7833C5.24992 12.8167 6.51103 13.3333 7.99992 13.3333Z" fill="currentColor"/>
</svg>
