<svg width="20" height="20" viewBox="0 0 20 20" fill="none" xmlns="http://www.w3.org/2000/svg">
  <path d="M10 14C11.4444 12.8472 12.5347 11.7394 13.2708 10.6767C14.0069 9.61444 14.375 8.59722 14.375 7.625C14.375 6.80556 14.2256 6.1075 13.9267 5.53083C13.6283 4.95472 13.2606 4.48944 12.8233 4.135C12.3856 3.78111 11.9097 3.52417 11.3958 3.36417C10.8819 3.20472 10.4167 3.125 10 3.125C9.58333 3.125 9.11806 3.20472 8.60417 3.36417C8.09028 3.52417 7.61472 3.78111 7.1775 4.135C6.73972 4.48944 6.37139 4.95472 6.0725 5.53083C5.77417 6.1075 5.625 6.80556 5.625 7.625C5.625 8.59722 5.99306 9.61444 6.72917 10.6767C7.46528 11.7394 8.55556 12.8472 10 14ZM10 15.5833C8.11111 14.1667 6.70139 12.8019 5.77083 11.4892C4.84028 10.1769 4.375 8.88889 4.375 7.625C4.375 6.68056 4.54528 5.85056 4.88583 5.135C5.22583 4.42 5.66333 3.81944 6.19833 3.33333C6.73278 2.84722 7.33694 2.48278 8.01083 2.24C8.68417 1.99667 9.34722 1.875 10 1.875C10.6528 1.875 11.3161 1.99667 11.99 2.24C12.6633 2.48278 13.2672 2.84722 13.8017 3.33333C14.3367 3.81944 14.7744 4.42 15.115 5.135C15.455 5.85056 15.625 6.68056 15.625 7.625C15.625 8.88889 15.1597 10.1769 14.2292 11.4892C13.2986 12.8019 11.8889 14.1667 10 15.5833ZM10 8.95833C10.4028 8.95833 10.7467 8.81611 11.0317 8.53167C11.3161 8.24667 11.4583 7.90278 11.4583 7.5C11.4583 7.09722 11.3161 6.75333 11.0317 6.46833C10.7467 6.18389 10.4028 6.04167 10 6.04167C9.59722 6.04167 9.25333 6.18389 8.96833 6.46833C8.68389 6.75333 8.54167 7.09722 8.54167 7.5C8.54167 7.90278 8.68389 8.24667 8.96833 8.53167C9.25333 8.81611 9.59722 8.95833 10 8.95833ZM4.375 18.125V16.875H15.625V18.125H4.375Z" fill="currentColor"/>
</svg>
