<svg width="24" height="24" viewBox="0 0 24 24" fill="none" xmlns="http://www.w3.org/2000/svg">
  <path d="M19.7126 7.71607C19.3198 7.71607 18.9983 8.0375 18.9983 8.43036V11.8661C18.9983 12.3375 18.6198 12.7161 18.1483 12.7161H16.9912C16.5198 12.7161 16.1412 12.3375 16.1412 11.8661V9.14464H19.7126C20.1055 9.14464 20.4269 8.82321 20.4269 8.43036C20.4269 8.0375 20.1055 7.71607 19.7126 7.71607V6.2875C19.7126 5.89464 19.3912 5.57321 18.9983 5.57321C18.6055 5.57321 18.284 5.89464 18.284 6.2875V7.71607H16.8555V6.2875C16.8555 5.89464 16.534 5.57321 16.1412 5.57321C15.7483 5.57321 15.4269 5.89464 15.4269 6.2875V7.71607C15.034 7.71607 14.7126 8.0375 14.7126 8.43036V11.8661C14.7126 13.0732 15.6626 14.0589 16.8555 14.1304C16.8555 14.1304 16.8555 14.1375 16.8555 14.1446V16.2875C16.8555 18.6518 14.934 20.5732 12.5698 20.5732C10.2055 20.5732 8.28405 18.6518 8.28405 16.2875V11.0446C9.0769 10.6661 10.5698 9.73036 11.0198 7.88036C11.584 5.56607 10.2198 3.06607 7.84833 2.05893C7.66976 1.98036 7.46976 1.98036 7.29119 2.05893C4.9269 3.06607 3.56262 5.56607 4.1269 7.8875C4.2769 8.50893 4.56262 9.0875 4.98405 9.60179C5.23405 9.90893 5.68405 9.95178 5.99119 9.70178C6.29833 9.45178 6.34119 9.00178 6.09119 8.69464C5.81262 8.35178 5.61262 7.96607 5.51262 7.55179C5.14119 6.02321 6.03404 4.30179 7.56976 3.50893C9.10547 4.30179 9.99833 6.02321 9.6269 7.55179C9.41262 8.44464 8.81262 9.0375 8.28405 9.40178V7.71607C8.28405 7.32321 7.96262 7.00179 7.56976 7.00179C7.1769 7.00179 6.85547 7.32321 6.85547 7.71607V16.2875C6.85547 19.4375 9.41976 22.0018 12.5698 22.0018C15.7198 22.0018 18.284 19.4375 18.284 16.2875V14.1446C18.284 14.1446 18.284 14.1375 18.284 14.1304C19.4769 14.0589 20.4269 13.0804 20.4269 11.8661V8.43036C20.4269 8.0375 20.1055 7.71607 19.7126 7.71607Z" fill="currentColor"/>
</svg>
