<svg width="24" height="24" viewBox="0 0 24 24" fill="none" xmlns="http://www.w3.org/2000/svg">
  <path fill-rule="evenodd" clip-rule="evenodd" d="M3 8.91046C3 6.94266 4.33897 5.15537 6.08995 4.38561C6.94976 4.00762 7.86693 3.89591 8.72749 4.10251C9.55477 4.30112 10.3969 4.80947 11.1306 5.78932C10.8811 6.22698 10.9962 6.79153 11.4137 7.09367C11.8611 7.41749 12.4863 7.3173 12.8101 6.8699C15.7542 2.80207 21 5.06586 21 8.91045C21 11.0922 20.3334 12.9832 18.8544 14.7712C17.4193 16.5063 15.1966 18.1701 12 19.8706C8.8034 18.1701 6.58074 16.5063 5.14556 14.7712C3.66661 12.9832 3 11.0922 3 8.91046ZM12.4001 21.9165C12.4247 21.9058 12.4489 21.8941 12.4727 21.8813C16.0216 20.0413 18.6507 18.1554 20.3956 16.046C22.1666 13.9048 23 11.5646 23 8.91045C23 3.65893 16.7019 0.711767 12.4889 4.28279C11.5443 3.1449 10.407 2.44889 9.19438 2.15777C7.85182 1.83546 6.48774 2.02599 5.28505 2.55472C2.91103 3.59839 1 6.04244 1 8.91046C1 11.5646 1.83339 13.9048 3.60444 16.046C5.34944 18.1556 7.97872 20.0416 11.528 21.8817C11.5497 21.8933 11.5718 21.9041 11.5943 21.914C11.8588 22.0318 12.1505 22.0253 12.4001 21.9165Z" fill="currentColor"/>
</svg>
