<svg width="96" height="96" viewBox="0 0 96 96" fill="none" xmlns="http://www.w3.org/2000/svg">
<rect width="96" height="96" fill="#007BAF"/>
<path d="M41.6667 57.4583V54.5H20.9879L20.9583 66.3333C20.9583 69.6171 23.5913 72.25 26.875 72.25H68.2917C71.5754 72.25 74.2083 69.6171 74.2083 66.3333V54.5H53.5V57.4583H41.6667ZM71.25 30.8333H59.3871V24.9167L53.4704 19H41.6371L35.7204 24.9167V30.8333H23.9167C20.6625 30.8333 18 33.4958 18 36.75V45.625C18 48.9087 20.6329 51.5417 23.9167 51.5417H41.6667V45.625H53.5V51.5417H71.25C74.5042 51.5417 77.1667 48.8792 77.1667 45.625V36.75C77.1667 33.4958 74.5042 30.8333 71.25 30.8333ZM53.5 30.8333H41.6667V24.9167H53.5V30.8333Z" fill="#A6E4F8"/>
</svg>
